<?xml version="1.0" encoding="UTF-8" standalone="no"?><svg xmlns="http://www.w3.org/2000/svg" xmlns:xlink="http://www.w3.org/1999/xlink" contentScriptType="application/ecmascript" contentStyleType="text/css" height="481px" preserveAspectRatio="none" style="width:565px;height:481px;" version="1.1" viewBox="0 0 565 481" width="565px" zoomAndPan="magnify"><defs/><g><text fill="#000000" font-family="sans-serif" font-size="18" lengthAdjust="spacing" textLength="556" x="2" y="18.9492">DWH B Development - DWH db Development (Project B) - Components</text><!--MD5=[4b4f8ad22437660fd1462362fba788f0]
cluster DWH db Development (Project B)\n[Container: Database]--><polygon fill="#FFFFFF" points="94,182.293,301,182.293,308,226.082,478,226.082,478,474.293,94,474.293,94,182.293" style="stroke:#000000;stroke-width:1.5;"/><line style="stroke:#000000;stroke-width:1.5;" x1="94" x2="308" y1="226.082" y2="226.082"/><text fill="#000000" font-family="sans-serif" font-size="14" font-weight="bold" lengthAdjust="spacing" textLength="201" x="98" y="199.0313">DWH db Development (Project B)</text><text fill="#000000" font-family="sans-serif" font-size="14" font-weight="bold" lengthAdjust="spacing" textLength="136" x="130.5" y="217.9258">[Container: Database]</text><!--MD5=[57f681a101af5b36c45b4d48786b1175]
entity 20--><rect fill="#DDDDDD" height="55.0898" style="stroke:#9A9A9A;stroke-width:1.5;" width="163" x="298.5" y="249.293"/><text fill="#000000" font-family="sans-serif" font-size="16" font-weight="bold" lengthAdjust="spacing" textLength="143" x="308.5" y="276.1367">Extended Properties</text><text fill="#000000" font-family="sans-serif" font-size="10" lengthAdjust="spacing" textLength="53" x="353.5" y="291.4141">[Component]</text><!--MD5=[fd8726c1533af164f5322e0f7898e501]
entity 21--><rect fill="#DDDDDD" height="55.0898" style="stroke:#9A9A9A;stroke-width:1.5;" width="156" x="175" y="403.293"/><text fill="#000000" font-family="sans-serif" font-size="16" font-weight="bold" lengthAdjust="spacing" textLength="136" x="185" y="430.1367">SQL Server objects</text><text fill="#000000" font-family="sans-serif" font-size="10" lengthAdjust="spacing" textLength="53" x="226.5" y="445.4141">[Component]</text><!--MD5=[e65828e44c04f22b25befc3882e9626a]
entity 19--><rect fill="#DDDDDD" height="76.6836" style="stroke:#9A9A9A;stroke-width:1.5;" width="153" x="110.5" y="238.293"/><text fill="#000000" font-family="sans-serif" font-size="16" font-weight="bold" lengthAdjust="spacing" textLength="128" x="120.5" y="265.1367">System views and</text><text fill="#000000" font-family="sans-serif" font-size="16" font-weight="bold" lengthAdjust="spacing" textLength="80" x="147" y="286.7305">procedures</text><text fill="#000000" font-family="sans-serif" font-size="10" lengthAdjust="spacing" textLength="53" x="160.5" y="302.0078">[Component]</text><!--MD5=[fad6a9c1e4f80769a7fea8e2093188d9]
entity 5--><path d="M236.5,40.293 C236.5,30.293 335,30.293 335,30.293 C335,30.293 433.5,30.293 433.5,40.293 L433.5,84.3828 C433.5,94.3828 335,94.3828 335,94.3828 C335,94.3828 236.5,94.3828 236.5,84.3828 L236.5,40.293 " fill="#DDDDDD" style="stroke:#9A9A9A;stroke-width:1.5;"/><path d="M236.5,40.293 C236.5,50.293 335,50.293 335,50.293 C335,50.293 433.5,50.293 433.5,40.293 " fill="none" style="stroke:#9A9A9A;stroke-width:1.5;"/><text fill="#000000" font-family="sans-serif" font-size="16" font-weight="bold" lengthAdjust="spacing" textLength="177" x="246.5" y="71.1367">Repository db (Project B)</text><text fill="#000000" font-family="sans-serif" font-size="10" lengthAdjust="spacing" textLength="91" x="289.5" y="86.4141">[Container: Database]</text><!--MD5=[e057a76f2d677c80e3de26b6a88da400]
link 20 to 5--><path d="M374.33,249.023 C366.33,211.223 351.69,142.113 342.71,99.683 " fill="none" id="20-to-5" style="stroke:#707070;stroke-width:1.0;stroke-dasharray:7.0,7.0;"/><polygon fill="#707070" points="341.64,94.653,339.6011,104.2885,342.6808,99.5434,347.4259,102.6231,341.64,94.653" style="stroke:#707070;stroke-width:1.0;"/><text fill="#000000" font-family="sans-serif" font-size="10" lengthAdjust="spacing" textLength="97" x="358" y="135.8203">RepoObject correspond</text><text fill="#000000" font-family="sans-serif" font-size="10" lengthAdjust="spacing" textLength="57" x="378" y="149.3164">with extended</text><text fill="#000000" font-family="sans-serif" font-size="10" lengthAdjust="spacing" textLength="41" x="387.5" y="162.8125">properties</text><!--MD5=[e573f5c87fa11b8410d7564de4c51635]
link 5 to 20--><path d="M334.09,94.693 C334.08,115.253 335.21,142.603 340,166.293 C345.48,193.403 356.51,222.773 365.6,244.263 " fill="none" id="5-to-20" style="stroke:#707070;stroke-width:1.0;stroke-dasharray:7.0,7.0;"/><polygon fill="#707070" points="367.63,249.003,367.7872,239.1554,365.6725,244.4021,360.4258,242.2874,367.63,249.003" style="stroke:#707070;stroke-width:1.0;"/><text fill="#000000" font-family="sans-serif" font-size="10" lengthAdjust="spacing" textLength="0" x="344" y="149.3203"/><!--MD5=[a962efebb64c98b2e39cdffe636ca03a]
link 20 to 21--><path d="M357.59,304.613 C335.46,331.103 301.67,371.543 278.52,399.243 " fill="none" id="20-to-21" style="stroke:#707070;stroke-width:1.0;stroke-dasharray:7.0,7.0;"/><polygon fill="#707070" points="275.19,403.233,284.0325,398.8958,278.3979,399.3977,277.8961,393.7632,275.19,403.233" style="stroke:#707070;stroke-width:1.0;"/><text fill="#000000" font-family="sans-serif" font-size="10" lengthAdjust="spacing" textLength="69" x="330" y="356.8203">enrich them with</text><text fill="#000000" font-family="sans-serif" font-size="10" lengthAdjust="spacing" textLength="88" x="322" y="370.3164">additional information</text><!--MD5=[9130ec6389457a130139313f41cc0a80]
link 5 to 19--><path d="M262.13,94.353 C249.31,102.533 237.16,112.453 228,124.293 C203.71,155.693 193.78,200.433 189.75,233.143 " fill="none" id="5-to-19" style="stroke:#707070;stroke-width:1.0;stroke-dasharray:7.0,7.0;"/><polygon fill="#707070" points="189.15,238.293,194.1543,229.8102,189.7226,233.3259,186.207,228.8941,189.15,238.293" style="stroke:#707070;stroke-width:1.0;"/><text fill="#000000" font-family="sans-serif" font-size="10" lengthAdjust="spacing" textLength="95" x="229" y="142.8203">Synonyms link to DWH</text><text fill="#000000" font-family="sans-serif" font-size="10" lengthAdjust="spacing" textLength="59" x="248.5" y="156.3164">System Views</text><!--MD5=[049fd390818d7b360e95257aca46babd]
link 19 to 21--><path d="M203.31,315.363 C214.41,340.913 228.92,374.333 239.39,398.443 " fill="none" id="19-to-21" style="stroke:#707070;stroke-width:1.0;stroke-dasharray:7.0,7.0;"/><polygon fill="#707070" points="241.43,403.143,241.4985,393.2943,239.4312,398.5599,234.1656,396.4925,241.43,403.143" style="stroke:#707070;stroke-width:1.0;"/><text fill="#000000" font-family="sans-serif" font-size="10" lengthAdjust="spacing" textLength="35" x="229" y="363.3203">describe</text><!--MD5=[08d7f6c347d302308b39d4055d25501b]
@startuml
title DWH B Development - DWH db Development (Project B) - Components

skinparam {
  shadowing false
  arrowFontSize 10
  defaultTextAlignment center
  wrapWidth 200
  maxMessageSize 100
}
hide stereotype
top to bottom direction
skinparam database<<5>> {
  BackgroundColor #dddddd
  FontColor #000000
  BorderColor #9A9A9A
}
skinparam rectangle<<19>> {
  BackgroundColor #dddddd
  FontColor #000000
  BorderColor #9A9A9A
}
skinparam rectangle<<20>> {
  BackgroundColor #dddddd
  FontColor #000000
  BorderColor #9A9A9A
}
skinparam rectangle<<21>> {
  BackgroundColor #dddddd
  FontColor #000000
  BorderColor #9A9A9A
}
database "==Repository db (Project B)\n<size:10>[Container: Database]</size>" <<5>> as 5
package "DWH db Development (Project B)\n[Container: Database]" {
  rectangle "==Extended Properties\n<size:10>[Component]</size>" <<20>> as 20
  rectangle "==SQL Server objects\n<size:10>[Component]</size>" <<21>> as 21
  rectangle "==System views and procedures\n<size:10>[Component]</size>" <<19>> as 19
}
20 .[#707070].> 5 : "RepoObject correspond with extended properties"
20 .[#707070].> 21 : "enrich them with additional information"
5 .[#707070].> 20 : ""
5 .[#707070].> 19 : "Synonyms link to DWH System Views"
19 .[#707070].> 21 : "describe"
@enduml

PlantUML version 1.2021.01(Tue Feb 02 07:55:08 GMT 2021)
(GPL source distribution)
Java Runtime: OpenJDK Runtime Environment
JVM: OpenJDK 64-Bit Server VM
Default Encoding: UTF-8
Language: en
Country: US
--></g></svg>