<?xml version="1.0" encoding="UTF-8" standalone="no"?><svg xmlns="http://www.w3.org/2000/svg" xmlns:xlink="http://www.w3.org/1999/xlink" contentScriptType="application/ecmascript" contentStyleType="text/css" height="368px" preserveAspectRatio="none" style="width:451px;height:368px;" version="1.1" viewBox="0 0 451 368" width="451px" zoomAndPan="magnify"><defs/><g><text fill="#000000" font-family="sans-serif" font-size="18" lengthAdjust="spacing" textLength="266" x="86" y="18.9492">DWH B Development - Containers</text><!--MD5=[255faa2be7dd1589dace60483080b12d]
cluster DWH B Development\n[Software System]--><polygon fill="#FFFFFF" points="16,30.9492,149,30.9492,156,74.7383,434,74.7383,434,361.9492,16,361.9492,16,30.9492" style="stroke:#000000;stroke-width:1.5;"/><line style="stroke:#000000;stroke-width:1.5;" x1="16" x2="156" y1="74.7383" y2="74.7383"/><text fill="#000000" font-family="sans-serif" font-size="14" font-weight="bold" lengthAdjust="spacing" textLength="127" x="20" y="47.6875">DWH B Development</text><text fill="#000000" font-family="sans-serif" font-size="14" font-weight="bold" lengthAdjust="spacing" textLength="111" x="28" y="66.582">[Software System]</text><!--MD5=[7c356ee5fd76ea688127ca96320d15b9]
entity 18--><path d="M236,100.4492 C236,90.4492 327,90.4492 327,90.4492 C327,90.4492 418,90.4492 418,100.4492 L418,166.1328 C418,176.1328 327,176.1328 327,176.1328 C327,176.1328 236,176.1328 236,166.1328 L236,100.4492 " fill="#DDDDDD" style="stroke:#9A9A9A;stroke-width:1.5;"/><path d="M236,100.4492 C236,110.4492 327,110.4492 327,110.4492 C327,110.4492 418,110.4492 418,100.4492 " fill="none" style="stroke:#9A9A9A;stroke-width:1.5;"/><text fill="#000000" font-family="sans-serif" font-size="16" font-weight="bold" lengthAdjust="spacing" textLength="157" x="246" y="131.293">DWH db Development</text><text fill="#000000" font-family="sans-serif" font-size="16" font-weight="bold" lengthAdjust="spacing" textLength="74" x="290" y="152.8867">(Project B)</text><text fill="#000000" font-family="sans-serif" font-size="10" lengthAdjust="spacing" textLength="91" x="281.5" y="168.1641">[Container: Database]</text><!--MD5=[f23e27573c7a8d7e934deb9fe4d73a5f]
entity 22--><rect fill="#DDDDDD" height="92.8789" style="stroke:#9A9A9A;stroke-width:1.5;" width="169" x="31.5" y="86.9492"/><text fill="#000000" font-family="sans-serif" font-size="16" font-weight="bold" lengthAdjust="spacing" textLength="25" x="103.5" y="113.793">GUI</text><text fill="#000000" font-family="sans-serif" font-size="10" lengthAdjust="spacing" textLength="67" x="82.5" y="129.0703">[Container: GUI]</text><text fill="#000000" font-family="sans-serif" font-size="14" lengthAdjust="spacing" textLength="0" x="118" y="146.7773"/><text fill="#000000" font-family="sans-serif" font-size="14" lengthAdjust="spacing" textLength="149" x="41.5" y="165.6719">Graphical User Interface</text><!--MD5=[fad6a9c1e4f80769a7fea8e2093188d9]
entity 5--><path d="M77.5,291.9492 C77.5,281.9492 176,281.9492 176,281.9492 C176,281.9492 274.5,281.9492 274.5,291.9492 L274.5,336.0391 C274.5,346.0391 176,346.0391 176,346.0391 C176,346.0391 77.5,346.0391 77.5,336.0391 L77.5,291.9492 " fill="#DDDDDD" style="stroke:#9A9A9A;stroke-width:1.5;"/><path d="M77.5,291.9492 C77.5,301.9492 176,301.9492 176,301.9492 C176,301.9492 274.5,301.9492 274.5,291.9492 " fill="none" style="stroke:#9A9A9A;stroke-width:1.5;"/><text fill="#000000" font-family="sans-serif" font-size="16" font-weight="bold" lengthAdjust="spacing" textLength="177" x="87.5" y="322.793">Repository db (Project B)</text><text fill="#000000" font-family="sans-serif" font-size="10" lengthAdjust="spacing" textLength="91" x="130.5" y="338.0703">[Container: Database]</text><!--MD5=[0a34636152defae142b7aea03fb55a18]
link 18 to 5--><path d="M235.93,174.3392 C205.07,188.7592 177.23,203.1592 173,209.9492 C160.73,229.6292 161.66,255.7792 165.56,276.8092 " fill="none" id="18-to-5" style="stroke:#707070;stroke-width:1.0;stroke-dasharray:7.0,7.0;"/><polygon fill="#707070" points="166.55,281.7592,168.7234,272.1532,165.5777,276.8547,160.8762,273.7089,166.55,281.7592" style="stroke:#707070;stroke-width:1.0;"/><text fill="#000000" font-family="sans-serif" font-size="10" lengthAdjust="spacing" textLength="97" x="174" y="221.4766">RepoObject correspond</text><text fill="#000000" font-family="sans-serif" font-size="10" lengthAdjust="spacing" textLength="57" x="194" y="234.9727">with extended</text><text fill="#000000" font-family="sans-serif" font-size="10" lengthAdjust="spacing" textLength="41" x="203.5" y="248.4688">properties</text><!--MD5=[ad0b1871f1cb6d6a254c07cb1102433f]
link 5 to 18--><path d="M242.92,281.9492 C256.11,273.5992 268.95,263.5892 279,251.9492 C296.34,231.8592 307.99,204.6692 315.46,181.4992 " fill="none" id="5-to-18" style="stroke:#707070;stroke-width:1.0;stroke-dasharray:7.0,7.0;"/><polygon fill="#707070" points="316.99,176.6192,310.4687,183.9998,315.4864,181.3878,318.0984,186.4055,316.99,176.6192" style="stroke:#707070;stroke-width:1.0;"/><text fill="#000000" font-family="sans-serif" font-size="10" lengthAdjust="spacing" textLength="95" x="305" y="228.4766">Synonyms link to DWH</text><text fill="#000000" font-family="sans-serif" font-size="10" lengthAdjust="spacing" textLength="59" x="324.5" y="241.9727">System Views</text><!--MD5=[6d12cf3bae391c171d3369b41c60b120]
link 22 to 5--><path d="M104.94,180.2292 C101.75,202.6992 101.35,229.6492 111,251.9492 C115.17,261.5892 121.71,270.4092 129.05,278.1592 " fill="none" id="22-to-5" style="stroke:#707070;stroke-width:1.0;stroke-dasharray:7.0,7.0;"/><polygon fill="#707070" points="132.72,281.8792,129.2402,272.6656,129.206,278.3223,123.5492,278.288,132.72,281.8792" style="stroke:#707070;stroke-width:1.0;"/><text fill="#000000" font-family="sans-serif" font-size="10" lengthAdjust="spacing" textLength="20" x="112" y="234.9766">uses</text><!--MD5=[247cea859d2e871d4fac4de11260f2d1]
@startuml
title DWH B Development - Containers

skinparam {
  shadowing false
  arrowFontSize 10
  defaultTextAlignment center
  wrapWidth 200
  maxMessageSize 100
}
hide stereotype
top to bottom direction
skinparam rectangle<<22>> {
  BackgroundColor #dddddd
  FontColor #000000
  BorderColor #9A9A9A
}
skinparam database<<5>> {
  BackgroundColor #dddddd
  FontColor #000000
  BorderColor #9A9A9A
}
skinparam database<<18>> {
  BackgroundColor #dddddd
  FontColor #000000
  BorderColor #9A9A9A
}
package "DWH B Development\n[Software System]" {
  database "==DWH db Development (Project B)\n<size:10>[Container: Database]</size>" <<18>> as 18
  rectangle "==GUI\n<size:10>[Container: GUI]</size>\n\nGraphical User Interface" <<22>> as 22
  database "==Repository db (Project B)\n<size:10>[Container: Database]</size>" <<5>> as 5
}
18 .[#707070].> 5 : "RepoObject correspond with extended properties"
22 .[#707070].> 5 : "uses"
5 .[#707070].> 18 : "Synonyms link to DWH System Views"
@enduml

PlantUML version 1.2021.01(Tue Feb 02 07:55:08 GMT 2021)
(GPL source distribution)
Java Runtime: OpenJDK Runtime Environment
JVM: OpenJDK 64-Bit Server VM
Default Encoding: UTF-8
Language: en
Country: US
--></g></svg>