<?xml version="1.0" encoding="UTF-8" standalone="no"?><svg xmlns="http://www.w3.org/2000/svg" xmlns:xlink="http://www.w3.org/1999/xlink" contentScriptType="application/ecmascript" contentStyleType="text/css" height="173px" preserveAspectRatio="none" style="width:452px;height:173px;" version="1.1" viewBox="0 0 452 173" width="452px" zoomAndPan="magnify"><defs/><g><text fill="#000000" font-family="sans-serif" font-size="18" lengthAdjust="spacing" textLength="328" x="55.5" y="18.9492">DataHandwerk Development - Containers</text><!--MD5=[92de769956cae57c6906e1d6fb1d9e98]
cluster DataHandwerk Development\n[Software System]--><polygon fill="#FFFFFF" points="16,30.9492,197,30.9492,204,74.7383,435,74.7383,435,166.9492,16,166.9492,16,30.9492" style="stroke:#000000;stroke-width:1.5;"/><line style="stroke:#000000;stroke-width:1.5;" x1="16" x2="204" y1="74.7383" y2="74.7383"/><text fill="#000000" font-family="sans-serif" font-size="14" font-weight="bold" lengthAdjust="spacing" textLength="175" x="20" y="47.6875">DataHandwerk Development</text><text fill="#000000" font-family="sans-serif" font-size="14" font-weight="bold" lengthAdjust="spacing" textLength="111" x="52" y="66.582">[Software System]</text><!--MD5=[604c8a276bea794422450a1868c0825f]
entity 31--><path d="M263,96.9492 C263,86.9492 341,86.9492 341,86.9492 C341,86.9492 419,86.9492 419,96.9492 L419,141.0391 C419,151.0391 341,151.0391 341,151.0391 C341,151.0391 263,151.0391 263,141.0391 L263,96.9492 " fill="#DDDDDD" style="stroke:#9A9A9A;stroke-width:1.5;"/><path d="M263,96.9492 C263,106.9492 341,106.9492 341,106.9492 C341,106.9492 419,106.9492 419,96.9492 " fill="none" style="stroke:#9A9A9A;stroke-width:1.5;"/><text fill="#000000" font-family="sans-serif" font-size="16" font-weight="bold" lengthAdjust="spacing" textLength="136" x="273" y="127.793">DWH db (Project A)</text><text fill="#000000" font-family="sans-serif" font-size="10" lengthAdjust="spacing" textLength="91" x="295.5" y="143.0703">[Container: Database]</text><!--MD5=[3c86eefd0de3e122c61622a21cbfdc9b]
entity 30--><path d="M32,96.9492 C32,86.9492 130,86.9492 130,86.9492 C130,86.9492 228,86.9492 228,96.9492 L228,141.0391 C228,151.0391 130,151.0391 130,151.0391 C130,151.0391 32,151.0391 32,141.0391 L32,96.9492 " fill="#DDDDDD" style="stroke:#9A9A9A;stroke-width:1.5;"/><path d="M32,96.9492 C32,106.9492 130,106.9492 130,106.9492 C130,106.9492 228,106.9492 228,96.9492 " fill="none" style="stroke:#9A9A9A;stroke-width:1.5;"/><text fill="#000000" font-family="sans-serif" font-size="16" font-weight="bold" lengthAdjust="spacing" textLength="176" x="42" y="127.793">Repository db (Project A)</text><text fill="#000000" font-family="sans-serif" font-size="10" lengthAdjust="spacing" textLength="91" x="84.5" y="143.0703">[Container: Database]</text><!--MD5=[f718a076db0f1124c98fdf66d2286f9f]
@startuml
title DataHandwerk Development - Containers

skinparam {
  shadowing false
  arrowFontSize 10
  defaultTextAlignment center
  wrapWidth 200
  maxMessageSize 100
}
hide stereotype
top to bottom direction
skinparam database<<30>> {
  BackgroundColor #dddddd
  FontColor #000000
  BorderColor #9A9A9A
}
skinparam database<<31>> {
  BackgroundColor #dddddd
  FontColor #000000
  BorderColor #9A9A9A
}
package "DataHandwerk Development\n[Software System]" {
  database "==DWH db (Project A)\n<size:10>[Container: Database]</size>" <<31>> as 31
  database "==Repository db (Project A)\n<size:10>[Container: Database]</size>" <<30>> as 30
}
@enduml

PlantUML version 1.2021.01(Tue Feb 02 07:55:08 GMT 2021)
(GPL source distribution)
Java Runtime: OpenJDK Runtime Environment
JVM: OpenJDK 64-Bit Server VM
Default Encoding: UTF-8
Language: en
Country: US
--></g></svg>