<?xml version="1.0" encoding="UTF-8" standalone="no"?><svg xmlns="http://www.w3.org/2000/svg" xmlns:xlink="http://www.w3.org/1999/xlink" contentScriptType="application/ecmascript" contentStyleType="text/css" height="451px" preserveAspectRatio="none" style="width:583px;height:451px;" version="1.1" viewBox="0 0 583 451" width="583px" zoomAndPan="magnify"><defs/><g><text fill="#000000" font-family="sans-serif" font-size="18" lengthAdjust="spacing" textLength="574" x="2" y="17.9999">DWH B Development - DWH db Development (Project B) - Components</text><!--MD5=[4b4f8ad22437660fd1462362fba788f0]
cluster DWH db Development (Project B)\n[Container: Database]--><polygon fill="#FFFFFF" points="92.5,170.5999,324.5,170.5999,331.5,210.1997,497.5,210.1997,497.5,444.5999,92.5,444.5999,92.5,170.5999" style="stroke:#000000;stroke-width:1.5;"/><line style="stroke:#000000;stroke-width:1.5;" x1="92.5" x2="331.5" y1="210.1997" y2="210.1997"/><text fill="#000000" font-family="sans-serif" font-size="14" font-weight="bold" lengthAdjust="spacing" textLength="226" x="96.5" y="186.5998">DWH db Development (Project B)</text><text fill="#000000" font-family="sans-serif" font-size="14" font-weight="bold" lengthAdjust="spacing" textLength="148" x="135.5" y="203.3997">[Container: Database]</text><!--MD5=[57f681a101af5b36c45b4d48786b1175]
entity 20--><rect fill="#DDDDDD" height="51.2" style="stroke:#9A9A9A;stroke-width:1.5;" width="176" x="305.5" y="232.0999"/><text fill="#000000" font-family="sans-serif" font-size="16" font-weight="bold" lengthAdjust="spacing" textLength="156" x="315.5" y="258.0999">Extended Properties</text><text fill="#000000" font-family="sans-serif" font-size="10" lengthAdjust="spacing" textLength="55" x="366" y="271.2999">[Component]</text><!--MD5=[fd8726c1533af164f5322e0f7898e501]
entity 21--><rect fill="#DDDDDD" height="51.2" style="stroke:#9A9A9A;stroke-width:1.5;" width="168" x="176.5" y="377.5999"/><text fill="#000000" font-family="sans-serif" font-size="16" font-weight="bold" lengthAdjust="spacing" textLength="148" x="186.5" y="403.5999">SQL Server objects</text><text fill="#000000" font-family="sans-serif" font-size="10" lengthAdjust="spacing" textLength="55" x="233" y="416.7999">[Component]</text><!--MD5=[e65828e44c04f22b25befc3882e9626a]
entity 19--><rect fill="#DDDDDD" height="70.4001" style="stroke:#9A9A9A;stroke-width:1.5;" width="161" x="109" y="222.5999"/><text fill="#000000" font-family="sans-serif" font-size="16" font-weight="bold" lengthAdjust="spacing" textLength="137" x="119" y="248.5999">System views and</text><text fill="#000000" font-family="sans-serif" font-size="16" font-weight="bold" lengthAdjust="spacing" textLength="88" x="145.5" y="267.7999">procedures</text><text fill="#000000" font-family="sans-serif" font-size="10" lengthAdjust="spacing" textLength="55" x="162" y="280.9999">[Component]</text><!--MD5=[fad6a9c1e4f80769a7fea8e2093188d9]
entity 5--><path d="M243,37.5999 C243,27.5999 348.5,27.5999 348.5,27.5999 C348.5,27.5999 454,27.5999 454,37.5999 L454,77.7999 C454,87.7999 348.5,87.7999 348.5,87.7999 C348.5,87.7999 243,87.7999 243,77.7999 L243,37.5999 " fill="#DDDDDD" style="stroke:#9A9A9A;stroke-width:1.5;"/><path d="M243,37.5999 C243,47.5999 348.5,47.5999 348.5,47.5999 C348.5,47.5999 454,47.5999 454,37.5999 " fill="none" style="stroke:#9A9A9A;stroke-width:1.5;"/><text fill="#000000" font-family="sans-serif" font-size="16" font-weight="bold" lengthAdjust="spacing" textLength="191" x="253" y="67.5999">Repository db (Project B)</text><text fill="#000000" font-family="sans-serif" font-size="10" lengthAdjust="spacing" textLength="92" x="302.5" y="80.7999">[Container: Database]</text><!--MD5=[e057a76f2d677c80e3de26b6a88da400]
link 20 to 5--><path d="M387.9,231.9599 C379.94,196.9599 365.34,132.6899 356.32,93.0099 " fill="none" id="20-to-5" style="stroke:#707070;stroke-width:1.0;stroke-dasharray:7.0,7.0;"/><polygon fill="#707070" points="355.14,87.8199,353.2475,97.4852,356.2549,92.694,361.0461,95.7014,355.14,87.8199" style="stroke:#707070;stroke-width:1.0;"/><text fill="#000000" font-family="sans-serif" font-size="10" lengthAdjust="spacing" textLength="52" x="387" y="128.5999">RepoObject</text><text fill="#000000" font-family="sans-serif" font-size="10" lengthAdjust="spacing" textLength="68" x="379" y="140.5998">correspond with</text><text fill="#000000" font-family="sans-serif" font-size="10" lengthAdjust="spacing" textLength="86" x="371.5" y="152.5998">extended properties</text><!--MD5=[e573f5c87fa11b8410d7564de4c51635]
link 5 to 20--><path d="M347.6,87.9099 C347.61,107.0899 348.74,132.5799 353.5,154.5999 C358.97,179.8999 369.93,207.1299 378.99,227.0799 " fill="none" id="5-to-20" style="stroke:#707070;stroke-width:1.0;stroke-dasharray:7.0,7.0;"/><polygon fill="#707070" points="381.13,231.7399,381.01,221.8917,379.0438,227.1959,373.7396,225.2297,381.13,231.7399" style="stroke:#707070;stroke-width:1.0;"/><text fill="#000000" font-family="sans-serif" font-size="10" lengthAdjust="spacing" textLength="0" x="357.5" y="140.5999"/><!--MD5=[a962efebb64c98b2e39cdffe636ca03a]
link 20 to 21--><path d="M370.64,283.2699 C347.42,308.3199 311.49,347.0799 287.03,373.4699 " fill="none" id="20-to-21" style="stroke:#707070;stroke-width:1.0;stroke-dasharray:7.0,7.0;"/><polygon fill="#707070" points="283.51,377.2699,292.5676,373.402,286.9144,373.6079,286.7085,367.9548,283.51,377.2699" style="stroke:#707070;stroke-width:1.0;"/><text fill="#000000" font-family="sans-serif" font-size="10" lengthAdjust="spacing" textLength="69" x="341.5" y="333.5999">enrich them with</text><text fill="#000000" font-family="sans-serif" font-size="10" lengthAdjust="spacing" textLength="90" x="332.5" y="345.5998">additional information</text><!--MD5=[9130ec6389457a130139313f41cc0a80]
link 5 to 19--><path d="M277.72,87.6599 C264.02,95.7699 250.75,105.6999 240.5,117.5999 C215.99,146.0399 202.85,187.2699 196.08,217.4399 " fill="none" id="5-to-19" style="stroke:#707070;stroke-width:1.0;stroke-dasharray:7.0,7.0;"/><polygon fill="#707070" points="194.97,222.5599,200.7829,214.6093,196.0274,217.673,192.9638,212.9175,194.97,222.5599" style="stroke:#707070;stroke-width:1.0;"/><text fill="#000000" font-family="sans-serif" font-size="10" lengthAdjust="spacing" textLength="99" x="241.5" y="134.5999">Synonyms link to DWH</text><text fill="#000000" font-family="sans-serif" font-size="10" lengthAdjust="spacing" textLength="61" x="260.5" y="146.5998">System Views</text><!--MD5=[049fd390818d7b360e95257aca46babd]
link 19 to 21--><path d="M206.33,292.6099 C218.4,317.0099 234.5,349.5399 246,372.7999 " fill="none" id="19-to-21" style="stroke:#707070;stroke-width:1.0;stroke-dasharray:7.0,7.0;"/><polygon fill="#707070" points="248.24,377.3199,247.8431,367.479,246.0268,372.8364,240.6695,371.0201,248.24,377.3199" style="stroke:#707070;stroke-width:1.0;"/><text fill="#000000" font-family="sans-serif" font-size="10" lengthAdjust="spacing" textLength="37" x="234.5" y="339.5999">describe</text><!--MD5=[2b93fffc32996ce49b101f7f24a52961]
@startuml
title DWH B Development - DWH db Development (Project B) - Components

skinparam {
  shadowing false
  arrowFontSize 10
  defaultTextAlignment center
  wrapWidth 200
  maxMessageSize 100
}
hide stereotype
top to bottom direction
skinparam database<<5>> {
  BackgroundColor #dddddd
  FontColor #000000
  BorderColor #9A9A9A
}
skinparam rectangle<<19>> {
  BackgroundColor #dddddd
  FontColor #000000
  BorderColor #9A9A9A
}
skinparam rectangle<<20>> {
  BackgroundColor #dddddd
  FontColor #000000
  BorderColor #9A9A9A
}
skinparam rectangle<<21>> {
  BackgroundColor #dddddd
  FontColor #000000
  BorderColor #9A9A9A
}
database "==Repository db (Project B)\n<size:10>[Container: Database]</size>" <<5>> as 5
package "DWH db Development (Project B)\n[Container: Database]" {
  rectangle "==Extended Properties\n<size:10>[Component]</size>" <<20>> as 20
  rectangle "==SQL Server objects\n<size:10>[Component]</size>" <<21>> as 21
  rectangle "==System views and procedures\n<size:10>[Component]</size>" <<19>> as 19
}
20 .[#707070].> 5 : "RepoObject correspond with extended properties"
20 .[#707070].> 21 : "enrich them with additional information"
5 .[#707070].> 20 : ""
5 .[#707070].> 19 : "Synonyms link to DWH System Views"
19 .[#707070].> 21 : "describe"
@enduml

PlantUML version 1.2021.4(Sun Apr 04 08:49:39 GMT 2021)
(GPL source distribution)
Java Runtime: OpenJDK Runtime Environment
JVM: OpenJDK 64-Bit Server VM
Default Encoding: UTF-8
Language: en
Country: US
--></g></svg>