<?xml version="1.0" encoding="UTF-8" standalone="no"?><svg xmlns="http://www.w3.org/2000/svg" xmlns:xlink="http://www.w3.org/1999/xlink" contentScriptType="application/ecmascript" contentStyleType="text/css" height="472px" preserveAspectRatio="none" style="width:3805px;height:472px;" version="1.1" viewBox="0 0 3805 472" width="3805px" zoomAndPan="magnify"><defs><filter height="300%" id="fftgj333wugs3" width="300%" x="-1" y="-1"><feGaussianBlur result="blurOut" stdDeviation="2.0"/><feColorMatrix in="blurOut" result="blurOut2" type="matrix" values="0 0 0 0 0 0 0 0 0 0 0 0 0 0 0 0 0 0 .4 0"/><feOffset dx="4.0" dy="4.0" in="blurOut2" result="blurOut3"/><feBlend in="SourceGraphic" in2="blurOut3" mode="normal"/></filter></defs><g><rect fill="#FFFFFF" filter="url(#fftgj333wugs3)" height="350" style="stroke:#A80036;stroke-width:1.0;" width="10" x="63" y="58.8945"/><rect fill="#FFFFFF" filter="url(#fftgj333wugs3)" height="154" style="stroke:#A80036;stroke-width:1.0;" width="10" x="214.5" y="72.8945"/><rect fill="#FFFFFF" filter="url(#fftgj333wugs3)" height="70" style="stroke:#A80036;stroke-width:1.0;" width="10" x="421" y="86.8945"/><rect fill="#FFFFFF" filter="url(#fftgj333wugs3)" height="14" style="stroke:#A80036;stroke-width:1.0;" width="10" x="667" y="100.8945"/><rect fill="#FFFFFF" filter="url(#fftgj333wugs3)" height="14" style="stroke:#A80036;stroke-width:1.0;" width="10" x="935.5" y="128.8945"/><rect fill="#FFFFFF" filter="url(#fftgj333wugs3)" height="42" style="stroke:#A80036;stroke-width:1.0;" width="10" x="1227.5" y="170.8945"/><rect fill="#FFFFFF" filter="url(#fftgj333wugs3)" height="14" style="stroke:#A80036;stroke-width:1.0;" width="10" x="1520.5" y="184.8945"/><rect fill="#FFFFFF" filter="url(#fftgj333wugs3)" height="14" style="stroke:#A80036;stroke-width:1.0;" width="10" x="1804.5" y="240.8945"/><rect fill="#FFFFFF" filter="url(#fftgj333wugs3)" height="70" style="stroke:#A80036;stroke-width:1.0;" width="10" x="2049.5" y="268.8945"/><rect fill="#FFFFFF" filter="url(#fftgj333wugs3)" height="14" style="stroke:#A80036;stroke-width:1.0;" width="10" x="2460.5" y="282.8945"/><rect fill="#FFFFFF" filter="url(#fftgj333wugs3)" height="14" style="stroke:#A80036;stroke-width:1.0;" width="10" x="2862.5" y="310.8945"/><rect fill="#FFFFFF" filter="url(#fftgj333wugs3)" height="14" style="stroke:#A80036;stroke-width:1.0;" width="10" x="3197" y="352.8945"/><rect fill="#FFFFFF" filter="url(#fftgj333wugs3)" height="14" style="stroke:#A80036;stroke-width:1.0;" width="10" x="3614" y="380.8945"/><line style="stroke:#A80036;stroke-width:1.0;stroke-dasharray:5.0,5.0;" x1="68" x2="68" y1="42.8945" y2="426.8945"/><line style="stroke:#A80036;stroke-width:1.0;stroke-dasharray:5.0,5.0;" x1="219" x2="219" y1="42.8945" y2="426.8945"/><line style="stroke:#A80036;stroke-width:1.0;stroke-dasharray:5.0,5.0;" x1="426" x2="426" y1="42.8945" y2="426.8945"/><line style="stroke:#A80036;stroke-width:1.0;stroke-dasharray:5.0,5.0;" x1="672" x2="672" y1="42.8945" y2="426.8945"/><line style="stroke:#A80036;stroke-width:1.0;stroke-dasharray:5.0,5.0;" x1="940" x2="940" y1="42.8945" y2="426.8945"/><line style="stroke:#A80036;stroke-width:1.0;stroke-dasharray:5.0,5.0;" x1="1232" x2="1232" y1="42.8945" y2="426.8945"/><line style="stroke:#A80036;stroke-width:1.0;stroke-dasharray:5.0,5.0;" x1="1525" x2="1525" y1="42.8945" y2="426.8945"/><line style="stroke:#A80036;stroke-width:1.0;stroke-dasharray:5.0,5.0;" x1="1809" x2="1809" y1="42.8945" y2="426.8945"/><line style="stroke:#A80036;stroke-width:1.0;stroke-dasharray:5.0,5.0;" x1="2054" x2="2054" y1="42.8945" y2="426.8945"/><line style="stroke:#A80036;stroke-width:1.0;stroke-dasharray:5.0,5.0;" x1="2465" x2="2465" y1="42.8945" y2="426.8945"/><line style="stroke:#A80036;stroke-width:1.0;stroke-dasharray:5.0,5.0;" x1="2867" x2="2867" y1="42.8945" y2="426.8945"/><line style="stroke:#A80036;stroke-width:1.0;stroke-dasharray:5.0,5.0;" x1="3202" x2="3202" y1="42.8945" y2="426.8945"/><line style="stroke:#A80036;stroke-width:1.0;stroke-dasharray:5.0,5.0;" x1="3619" x2="3619" y1="42.8945" y2="426.8945"/><rect fill="#FEFECE" filter="url(#fftgj333wugs3)" height="32.8945" style="stroke:#A80036;stroke-width:1.5;" width="122" x="5" y="5"/><text fill="#000000" font-family="sans-serif" font-size="14" lengthAdjust="spacing" textLength="108" x="12" y="26.7383">[repo].[usp_main]</text><rect fill="#FEFECE" filter="url(#fftgj333wugs3)" height="32.8945" style="stroke:#A80036;stroke-width:1.5;" width="122" x="5" y="425.8945"/><text fill="#000000" font-family="sans-serif" font-size="14" lengthAdjust="spacing" textLength="108" x="12" y="447.6328">[repo].[usp_main]</text><rect fill="#FEFECE" filter="url(#fftgj333wugs3)" height="32.8945" style="stroke:#A80036;stroke-width:1.5;" width="153" x="141" y="5"/><text fill="#000000" font-family="sans-serif" font-size="14" lengthAdjust="spacing" textLength="139" x="148" y="26.7383">[repo].[usp_sync_guid]</text><rect fill="#FEFECE" filter="url(#fftgj333wugs3)" height="32.8945" style="stroke:#A80036;stroke-width:1.5;" width="153" x="141" y="425.8945"/><text fill="#000000" font-family="sans-serif" font-size="14" lengthAdjust="spacing" textLength="139" x="148" y="447.6328">[repo].[usp_sync_guid]</text><rect fill="#FEFECE" filter="url(#fftgj333wugs3)" height="32.8945" style="stroke:#A80036;stroke-width:1.5;" width="232" x="308" y="5"/><text fill="#000000" font-family="sans-serif" font-size="14" lengthAdjust="spacing" textLength="218" x="315" y="26.7383">[repo].[usp_sync_guid_RepoObject]</text><rect fill="#FEFECE" filter="url(#fftgj333wugs3)" height="32.8945" style="stroke:#A80036;stroke-width:1.5;" width="232" x="308" y="425.8945"/><text fill="#000000" font-family="sans-serif" font-size="14" lengthAdjust="spacing" textLength="218" x="315" y="447.6328">[repo].[usp_sync_guid_RepoObject]</text><rect fill="#FEFECE" filter="url(#fftgj333wugs3)" height="32.8945" style="stroke:#A80036;stroke-width:1.5;" width="232" x="554" y="5"/><text fill="#000000" font-family="sans-serif" font-size="14" lengthAdjust="spacing" textLength="218" x="561" y="26.7383">[graph].[usp_PERSIST_RepoObject]</text><rect fill="#FEFECE" filter="url(#fftgj333wugs3)" height="32.8945" style="stroke:#A80036;stroke-width:1.5;" width="232" x="554" y="425.8945"/><text fill="#000000" font-family="sans-serif" font-size="14" lengthAdjust="spacing" textLength="218" x="561" y="447.6328">[graph].[usp_PERSIST_RepoObject]</text><rect fill="#FEFECE" filter="url(#fftgj333wugs3)" height="32.8945" style="stroke:#A80036;stroke-width:1.5;" width="277" x="800" y="5"/><text fill="#000000" font-family="sans-serif" font-size="14" lengthAdjust="spacing" textLength="263" x="807" y="26.7383">[graph].[usp_PERSIST_ProcedureInstance]</text><rect fill="#FEFECE" filter="url(#fftgj333wugs3)" height="32.8945" style="stroke:#A80036;stroke-width:1.5;" width="277" x="800" y="425.8945"/><text fill="#000000" font-family="sans-serif" font-size="14" lengthAdjust="spacing" textLength="263" x="807" y="447.6328">[graph].[usp_PERSIST_ProcedureInstance]</text><rect fill="#FEFECE" filter="url(#fftgj333wugs3)" height="32.8945" style="stroke:#A80036;stroke-width:1.5;" width="279" x="1091" y="5"/><text fill="#000000" font-family="sans-serif" font-size="14" lengthAdjust="spacing" textLength="265" x="1098" y="26.7383">[repo].[usp_sync_guid_RepoObjectColumn]</text><rect fill="#FEFECE" filter="url(#fftgj333wugs3)" height="32.8945" style="stroke:#A80036;stroke-width:1.5;" width="279" x="1091" y="425.8945"/><text fill="#000000" font-family="sans-serif" font-size="14" lengthAdjust="spacing" textLength="265" x="1098" y="447.6328">[repo].[usp_sync_guid_RepoObjectColumn]</text><rect fill="#FEFECE" filter="url(#fftgj333wugs3)" height="32.8945" style="stroke:#A80036;stroke-width:1.5;" width="279" x="1384" y="5"/><text fill="#000000" font-family="sans-serif" font-size="14" lengthAdjust="spacing" textLength="265" x="1391" y="26.7383">[graph].[usp_PERSIST_RepoObjectColumn]</text><rect fill="#FEFECE" filter="url(#fftgj333wugs3)" height="32.8945" style="stroke:#A80036;stroke-width:1.5;" width="279" x="1384" y="425.8945"/><text fill="#000000" font-family="sans-serif" font-size="14" lengthAdjust="spacing" textLength="265" x="1391" y="447.6328">[graph].[usp_PERSIST_RepoObjectColumn]</text><rect fill="#FEFECE" filter="url(#fftgj333wugs3)" height="32.8945" style="stroke:#A80036;stroke-width:1.5;" width="261" x="1677" y="5"/><text fill="#000000" font-family="sans-serif" font-size="14" lengthAdjust="spacing" textLength="247" x="1684" y="26.7383">[repo].[usp_update_Referencing_Count]</text><rect fill="#FEFECE" filter="url(#fftgj333wugs3)" height="32.8945" style="stroke:#A80036;stroke-width:1.5;" width="261" x="1677" y="425.8945"/><text fill="#000000" font-family="sans-serif" font-size="14" lengthAdjust="spacing" textLength="247" x="1684" y="447.6328">[repo].[usp_update_Referencing_Count]</text><rect fill="#FEFECE" filter="url(#fftgj333wugs3)" height="32.8945" style="stroke:#A80036;stroke-width:1.5;" width="201" x="1952" y="5"/><text fill="#000000" font-family="sans-serif" font-size="14" lengthAdjust="spacing" textLength="187" x="1959" y="26.7383">[repo].[usp_index_inheritance]</text><rect fill="#FEFECE" filter="url(#fftgj333wugs3)" height="32.8945" style="stroke:#A80036;stroke-width:1.5;" width="201" x="1952" y="425.8945"/><text fill="#000000" font-family="sans-serif" font-size="14" lengthAdjust="spacing" textLength="187" x="1959" y="447.6328">[repo].[usp_index_inheritance]</text><rect fill="#FEFECE" filter="url(#fftgj333wugs3)" height="32.8945" style="stroke:#A80036;stroke-width:1.5;" width="593" x="2167" y="5"/><text fill="#000000" font-family="sans-serif" font-size="14" lengthAdjust="spacing" textLength="579" x="2174" y="26.7383">[repo].[usp_PERSIST_IndexColumn_ReferencedReferencing_HasFullColumnsInReferencing_T]</text><rect fill="#FEFECE" filter="url(#fftgj333wugs3)" height="32.8945" style="stroke:#A80036;stroke-width:1.5;" width="593" x="2167" y="425.8945"/><text fill="#000000" font-family="sans-serif" font-size="14" lengthAdjust="spacing" textLength="579" x="2174" y="447.6328">[repo].[usp_PERSIST_IndexColumn_ReferencedReferencing_HasFullColumnsInReferencing_T]</text><rect fill="#FEFECE" filter="url(#fftgj333wugs3)" height="32.8945" style="stroke:#A80036;stroke-width:1.5;" width="183" x="2774" y="5"/><text fill="#000000" font-family="sans-serif" font-size="14" lengthAdjust="spacing" textLength="169" x="2781" y="26.7383">[repo].[usp_Index_Settings]</text><rect fill="#FEFECE" filter="url(#fftgj333wugs3)" height="32.8945" style="stroke:#A80036;stroke-width:1.5;" width="183" x="2774" y="425.8945"/><text fill="#000000" font-family="sans-serif" font-size="14" lengthAdjust="spacing" textLength="169" x="2781" y="447.6328">[repo].[usp_Index_Settings]</text><rect fill="#FEFECE" filter="url(#fftgj333wugs3)" height="32.8945" style="stroke:#A80036;stroke-width:1.5;" width="458" x="2971" y="5"/><text fill="#000000" font-family="sans-serif" font-size="14" lengthAdjust="spacing" textLength="444" x="2978" y="26.7383">[repo].[usp_RepoObjectColumn_update_RepoObjectColumn_column_id]</text><rect fill="#FEFECE" filter="url(#fftgj333wugs3)" height="32.8945" style="stroke:#A80036;stroke-width:1.5;" width="458" x="2971" y="425.8945"/><text fill="#000000" font-family="sans-serif" font-size="14" lengthAdjust="spacing" textLength="444" x="2978" y="447.6328">[repo].[usp_RepoObjectColumn_update_RepoObjectColumn_column_id]</text><rect fill="#FEFECE" filter="url(#fftgj333wugs3)" height="32.8945" style="stroke:#A80036;stroke-width:1.5;" width="348" x="3443" y="5"/><text fill="#000000" font-family="sans-serif" font-size="14" lengthAdjust="spacing" textLength="334" x="3450" y="26.7383">[repo].[usp_GeneratorUsp_insert_update_persistence]</text><rect fill="#FEFECE" filter="url(#fftgj333wugs3)" height="32.8945" style="stroke:#A80036;stroke-width:1.5;" width="348" x="3443" y="425.8945"/><text fill="#000000" font-family="sans-serif" font-size="14" lengthAdjust="spacing" textLength="334" x="3450" y="447.6328">[repo].[usp_GeneratorUsp_insert_update_persistence]</text><rect fill="#FFFFFF" filter="url(#fftgj333wugs3)" height="350" style="stroke:#A80036;stroke-width:1.0;" width="10" x="63" y="58.8945"/><rect fill="#FFFFFF" filter="url(#fftgj333wugs3)" height="154" style="stroke:#A80036;stroke-width:1.0;" width="10" x="214.5" y="72.8945"/><rect fill="#FFFFFF" filter="url(#fftgj333wugs3)" height="70" style="stroke:#A80036;stroke-width:1.0;" width="10" x="421" y="86.8945"/><rect fill="#FFFFFF" filter="url(#fftgj333wugs3)" height="14" style="stroke:#A80036;stroke-width:1.0;" width="10" x="667" y="100.8945"/><rect fill="#FFFFFF" filter="url(#fftgj333wugs3)" height="14" style="stroke:#A80036;stroke-width:1.0;" width="10" x="935.5" y="128.8945"/><rect fill="#FFFFFF" filter="url(#fftgj333wugs3)" height="42" style="stroke:#A80036;stroke-width:1.0;" width="10" x="1227.5" y="170.8945"/><rect fill="#FFFFFF" filter="url(#fftgj333wugs3)" height="14" style="stroke:#A80036;stroke-width:1.0;" width="10" x="1520.5" y="184.8945"/><rect fill="#FFFFFF" filter="url(#fftgj333wugs3)" height="14" style="stroke:#A80036;stroke-width:1.0;" width="10" x="1804.5" y="240.8945"/><rect fill="#FFFFFF" filter="url(#fftgj333wugs3)" height="70" style="stroke:#A80036;stroke-width:1.0;" width="10" x="2049.5" y="268.8945"/><rect fill="#FFFFFF" filter="url(#fftgj333wugs3)" height="14" style="stroke:#A80036;stroke-width:1.0;" width="10" x="2460.5" y="282.8945"/><rect fill="#FFFFFF" filter="url(#fftgj333wugs3)" height="14" style="stroke:#A80036;stroke-width:1.0;" width="10" x="2862.5" y="310.8945"/><rect fill="#FFFFFF" filter="url(#fftgj333wugs3)" height="14" style="stroke:#A80036;stroke-width:1.0;" width="10" x="3197" y="352.8945"/><rect fill="#FFFFFF" filter="url(#fftgj333wugs3)" height="14" style="stroke:#A80036;stroke-width:1.0;" width="10" x="3614" y="380.8945"/><polygon fill="#A80036" points="51,54.8945,61,58.8945,51,62.8945,55,58.8945" style="stroke:#A80036;stroke-width:1.0;"/><line style="stroke:#A80036;stroke-width:1.0;" x1="0" x2="57" y1="58.8945" y2="58.8945"/><polygon fill="#A80036" points="202.5,68.8945,212.5,72.8945,202.5,76.8945,206.5,72.8945" style="stroke:#A80036;stroke-width:1.0;"/><line style="stroke:#A80036;stroke-width:1.0;" x1="73" x2="208.5" y1="72.8945" y2="72.8945"/><polygon fill="#A80036" points="409,82.8945,419,86.8945,409,90.8945,413,86.8945" style="stroke:#A80036;stroke-width:1.0;"/><line style="stroke:#A80036;stroke-width:1.0;" x1="224.5" x2="415" y1="86.8945" y2="86.8945"/><polygon fill="#A80036" points="655,96.8945,665,100.8945,655,104.8945,659,100.8945" style="stroke:#A80036;stroke-width:1.0;"/><line style="stroke:#A80036;stroke-width:1.0;" x1="431" x2="661" y1="100.8945" y2="100.8945"/><polygon fill="#A80036" points="442,110.8945,432,114.8945,442,118.8945,438,114.8945" style="stroke:#A80036;stroke-width:1.0;"/><line style="stroke:#A80036;stroke-width:1.0;" x1="436" x2="671" y1="114.8945" y2="114.8945"/><polygon fill="#A80036" points="923.5,124.8945,933.5,128.8945,923.5,132.8945,927.5,128.8945" style="stroke:#A80036;stroke-width:1.0;"/><line style="stroke:#A80036;stroke-width:1.0;" x1="431" x2="929.5" y1="128.8945" y2="128.8945"/><polygon fill="#A80036" points="442,138.8945,432,142.8945,442,146.8945,438,142.8945" style="stroke:#A80036;stroke-width:1.0;"/><line style="stroke:#A80036;stroke-width:1.0;" x1="436" x2="939.5" y1="142.8945" y2="142.8945"/><polygon fill="#A80036" points="235.5,152.8945,225.5,156.8945,235.5,160.8945,231.5,156.8945" style="stroke:#A80036;stroke-width:1.0;"/><line style="stroke:#A80036;stroke-width:1.0;" x1="229.5" x2="425" y1="156.8945" y2="156.8945"/><polygon fill="#A80036" points="1215.5,166.8945,1225.5,170.8945,1215.5,174.8945,1219.5,170.8945" style="stroke:#A80036;stroke-width:1.0;"/><line style="stroke:#A80036;stroke-width:1.0;" x1="224.5" x2="1221.5" y1="170.8945" y2="170.8945"/><polygon fill="#A80036" points="1508.5,180.8945,1518.5,184.8945,1508.5,188.8945,1512.5,184.8945" style="stroke:#A80036;stroke-width:1.0;"/><line style="stroke:#A80036;stroke-width:1.0;" x1="1237.5" x2="1514.5" y1="184.8945" y2="184.8945"/><polygon fill="#A80036" points="1248.5,194.8945,1238.5,198.8945,1248.5,202.8945,1244.5,198.8945" style="stroke:#A80036;stroke-width:1.0;"/><line style="stroke:#A80036;stroke-width:1.0;" x1="1242.5" x2="1524.5" y1="198.8945" y2="198.8945"/><polygon fill="#A80036" points="235.5,208.8945,225.5,212.8945,235.5,216.8945,231.5,212.8945" style="stroke:#A80036;stroke-width:1.0;"/><line style="stroke:#A80036;stroke-width:1.0;" x1="229.5" x2="1231.5" y1="212.8945" y2="212.8945"/><polygon fill="#A80036" points="84,222.8945,74,226.8945,84,230.8945,80,226.8945" style="stroke:#A80036;stroke-width:1.0;"/><line style="stroke:#A80036;stroke-width:1.0;" x1="78" x2="218.5" y1="226.8945" y2="226.8945"/><polygon fill="#A80036" points="1792.5,236.8945,1802.5,240.8945,1792.5,244.8945,1796.5,240.8945" style="stroke:#A80036;stroke-width:1.0;"/><line style="stroke:#A80036;stroke-width:1.0;" x1="73" x2="1798.5" y1="240.8945" y2="240.8945"/><polygon fill="#A80036" points="84,250.8945,74,254.8945,84,258.8945,80,254.8945" style="stroke:#A80036;stroke-width:1.0;"/><line style="stroke:#A80036;stroke-width:1.0;" x1="78" x2="1808.5" y1="254.8945" y2="254.8945"/><polygon fill="#A80036" points="2037.5,264.8945,2047.5,268.8945,2037.5,272.8945,2041.5,268.8945" style="stroke:#A80036;stroke-width:1.0;"/><line style="stroke:#A80036;stroke-width:1.0;" x1="73" x2="2043.5" y1="268.8945" y2="268.8945"/><polygon fill="#A80036" points="2448.5,278.8945,2458.5,282.8945,2448.5,286.8945,2452.5,282.8945" style="stroke:#A80036;stroke-width:1.0;"/><line style="stroke:#A80036;stroke-width:1.0;" x1="2059.5" x2="2454.5" y1="282.8945" y2="282.8945"/><polygon fill="#A80036" points="2070.5,292.8945,2060.5,296.8945,2070.5,300.8945,2066.5,296.8945" style="stroke:#A80036;stroke-width:1.0;"/><line style="stroke:#A80036;stroke-width:1.0;" x1="2064.5" x2="2464.5" y1="296.8945" y2="296.8945"/><polygon fill="#A80036" points="2850.5,306.8945,2860.5,310.8945,2850.5,314.8945,2854.5,310.8945" style="stroke:#A80036;stroke-width:1.0;"/><line style="stroke:#A80036;stroke-width:1.0;" x1="2059.5" x2="2856.5" y1="310.8945" y2="310.8945"/><polygon fill="#A80036" points="2070.5,320.8945,2060.5,324.8945,2070.5,328.8945,2066.5,324.8945" style="stroke:#A80036;stroke-width:1.0;"/><line style="stroke:#A80036;stroke-width:1.0;" x1="2064.5" x2="2866.5" y1="324.8945" y2="324.8945"/><polygon fill="#A80036" points="84,334.8945,74,338.8945,84,342.8945,80,338.8945" style="stroke:#A80036;stroke-width:1.0;"/><line style="stroke:#A80036;stroke-width:1.0;" x1="78" x2="2053.5" y1="338.8945" y2="338.8945"/><polygon fill="#A80036" points="3185,348.8945,3195,352.8945,3185,356.8945,3189,352.8945" style="stroke:#A80036;stroke-width:1.0;"/><line style="stroke:#A80036;stroke-width:1.0;" x1="73" x2="3191" y1="352.8945" y2="352.8945"/><polygon fill="#A80036" points="84,362.8945,74,366.8945,84,370.8945,80,366.8945" style="stroke:#A80036;stroke-width:1.0;"/><line style="stroke:#A80036;stroke-width:1.0;" x1="78" x2="3201" y1="366.8945" y2="366.8945"/><polygon fill="#A80036" points="3602,376.8945,3612,380.8945,3602,384.8945,3606,380.8945" style="stroke:#A80036;stroke-width:1.0;"/><line style="stroke:#A80036;stroke-width:1.0;" x1="73" x2="3608" y1="380.8945" y2="380.8945"/><polygon fill="#A80036" points="84,390.8945,74,394.8945,84,398.8945,80,394.8945" style="stroke:#A80036;stroke-width:1.0;"/><line style="stroke:#A80036;stroke-width:1.0;" x1="78" x2="3618" y1="394.8945" y2="394.8945"/><polygon fill="#A80036" points="11,404.8945,1,408.8945,11,412.8945,7,408.8945" style="stroke:#A80036;stroke-width:1.0;"/><line style="stroke:#A80036;stroke-width:1.0;" x1="5" x2="67" y1="408.8945" y2="408.8945"/><!--MD5=[ff6162a43753a3a45696f3c79b45d549]
@startuml
-> "[repo].[usp_main]"
activate "[repo].[usp_main]"
"[repo].[usp_main]" -> "[repo].[usp_sync_guid]"
activate "[repo].[usp_sync_guid]"
"[repo].[usp_sync_guid]" -> "[repo].[usp_sync_guid_RepoObject]"
activate "[repo].[usp_sync_guid_RepoObject]"
"[repo].[usp_sync_guid_RepoObject]" -> "[graph].[usp_PERSIST_RepoObject]"
activate "[graph].[usp_PERSIST_RepoObject]"
"[repo].[usp_sync_guid_RepoObject]" <- "[graph].[usp_PERSIST_RepoObject]"
deactivate "[graph].[usp_PERSIST_RepoObject]"
"[repo].[usp_sync_guid_RepoObject]" -> "[graph].[usp_PERSIST_ProcedureInstance]"
activate "[graph].[usp_PERSIST_ProcedureInstance]"
"[repo].[usp_sync_guid_RepoObject]" <- "[graph].[usp_PERSIST_ProcedureInstance]"
deactivate "[graph].[usp_PERSIST_ProcedureInstance]"
"[repo].[usp_sync_guid]" <- "[repo].[usp_sync_guid_RepoObject]"
deactivate "[repo].[usp_sync_guid_RepoObject]"
"[repo].[usp_sync_guid]" -> "[repo].[usp_sync_guid_RepoObjectColumn]"
activate "[repo].[usp_sync_guid_RepoObjectColumn]"
"[repo].[usp_sync_guid_RepoObjectColumn]" -> "[graph].[usp_PERSIST_RepoObjectColumn]"
activate "[graph].[usp_PERSIST_RepoObjectColumn]"
"[repo].[usp_sync_guid_RepoObjectColumn]" <- "[graph].[usp_PERSIST_RepoObjectColumn]"
deactivate "[graph].[usp_PERSIST_RepoObjectColumn]"
"[repo].[usp_sync_guid]" <- "[repo].[usp_sync_guid_RepoObjectColumn]"
deactivate "[repo].[usp_sync_guid_RepoObjectColumn]"
"[repo].[usp_main]" <- "[repo].[usp_sync_guid]"
deactivate "[repo].[usp_sync_guid]"
"[repo].[usp_main]" -> "[repo].[usp_update_Referencing_Count]"
activate "[repo].[usp_update_Referencing_Count]"
"[repo].[usp_main]" <- "[repo].[usp_update_Referencing_Count]"
deactivate "[repo].[usp_update_Referencing_Count]"
"[repo].[usp_main]" -> "[repo].[usp_index_inheritance]"
activate "[repo].[usp_index_inheritance]"
"[repo].[usp_index_inheritance]" -> "[repo].[usp_PERSIST_IndexColumn_ReferencedReferencing_HasFullColumnsInReferencing_T]"
activate "[repo].[usp_PERSIST_IndexColumn_ReferencedReferencing_HasFullColumnsInReferencing_T]"
"[repo].[usp_index_inheritance]" <- "[repo].[usp_PERSIST_IndexColumn_ReferencedReferencing_HasFullColumnsInReferencing_T]"
deactivate "[repo].[usp_PERSIST_IndexColumn_ReferencedReferencing_HasFullColumnsInReferencing_T]"
"[repo].[usp_index_inheritance]" -> "[repo].[usp_Index_Settings]"
activate "[repo].[usp_Index_Settings]"
"[repo].[usp_index_inheritance]" <- "[repo].[usp_Index_Settings]"
deactivate "[repo].[usp_Index_Settings]"
"[repo].[usp_main]" <- "[repo].[usp_index_inheritance]"
deactivate "[repo].[usp_index_inheritance]"
"[repo].[usp_main]" -> "[repo].[usp_RepoObjectColumn_update_RepoObjectColumn_column_id]"
activate "[repo].[usp_RepoObjectColumn_update_RepoObjectColumn_column_id]"
"[repo].[usp_main]" <- "[repo].[usp_RepoObjectColumn_update_RepoObjectColumn_column_id]"
deactivate "[repo].[usp_RepoObjectColumn_update_RepoObjectColumn_column_id]"
"[repo].[usp_main]" -> "[repo].[usp_GeneratorUsp_insert_update_persistence]"
activate "[repo].[usp_GeneratorUsp_insert_update_persistence]"
"[repo].[usp_main]" <- "[repo].[usp_GeneratorUsp_insert_update_persistence]"
deactivate "[repo].[usp_GeneratorUsp_insert_update_persistence]"
 <- "[repo].[usp_main]"
deactivate "[repo].[usp_main]"
@enduml

PlantUML version 1.2021.01(Tue Feb 02 07:55:08 GMT 2021)
(GPL source distribution)
Java Runtime: OpenJDK Runtime Environment
JVM: OpenJDK 64-Bit Server VM
Default Encoding: UTF-8
Language: en
Country: US
--></g></svg>