<?xml version="1.0" encoding="UTF-8" standalone="no"?><svg xmlns="http://www.w3.org/2000/svg" xmlns:xlink="http://www.w3.org/1999/xlink" contentScriptType="application/ecmascript" contentStyleType="text/css" height="338px" preserveAspectRatio="none" style="width:378px;height:338px;" version="1.1" viewBox="0 0 378 338" width="378px" zoomAndPan="magnify"><defs/><g><text fill="#000000" font-family="sans-serif" font-size="18" lengthAdjust="spacing" textLength="254" x="55.5" y="17.9999">DWH B Production - Containers</text><!--MD5=[c6b14c3a3e34032cd7dafbf0ec839f83]
cluster DWH B Production\n[Software System]--><polygon fill="#FFFFFF" points="82,184.5999,215,184.5999,222,224.1997,290,224.1997,290,331.5999,82,331.5999,82,184.5999" style="stroke:#000000;stroke-width:1.5;"/><line style="stroke:#000000;stroke-width:1.5;" x1="82" x2="222" y1="224.1997" y2="224.1997"/><text fill="#000000" font-family="sans-serif" font-size="14" font-weight="bold" lengthAdjust="spacing" textLength="127" x="86" y="200.5998">DWH B Production</text><text fill="#000000" font-family="sans-serif" font-size="14" font-weight="bold" lengthAdjust="spacing" textLength="127" x="86" y="217.3997">[Software System]</text><!--MD5=[8682619d0b3ec5a366d9ada435446ff3]
entity 26--><path d="M98,246.5999 C98,236.5999 186,236.5999 186,236.5999 C186,236.5999 274,236.5999 274,246.5999 L274,305.9999 C274,315.9999 186,315.9999 186,315.9999 C186,315.9999 98,315.9999 98,305.9999 L98,246.5999 " fill="#DDDDDD" style="stroke:#9A9A9A;stroke-width:1.5;"/><path d="M98,246.5999 C98,256.5999 186,256.5999 186,256.5999 C186,256.5999 274,256.5999 274,246.5999 " fill="none" style="stroke:#9A9A9A;stroke-width:1.5;"/><text fill="#000000" font-family="sans-serif" font-size="16" font-weight="bold" lengthAdjust="spacing" textLength="152" x="108" y="276.5999">DWH db Production</text><text fill="#000000" font-family="sans-serif" font-size="16" font-weight="bold" lengthAdjust="spacing" textLength="79" x="146.5" y="295.7999">(Project B)</text><text fill="#000000" font-family="sans-serif" font-size="10" lengthAdjust="spacing" textLength="92" x="140" y="308.9999">[Container: Database]</text><!--MD5=[773709cb2207c097691e7e7d3d2cc787]
entity 2--><rect fill="#DDDDDD" height="51.2" style="stroke:#9A9A9A;stroke-width:1.5;" width="158" x="7" y="45.5999"/><text fill="#000000" font-family="sans-serif" font-size="16" font-weight="bold" lengthAdjust="spacing" textLength="138" x="17" y="71.5999">Deployment Team</text><text fill="#000000" font-family="sans-serif" font-size="10" lengthAdjust="spacing" textLength="36" x="68" y="84.7999">[Person]</text><!--MD5=[5721696d2af8d327c8f4e7ea88061d17]
entity 3--><rect fill="#DDDDDD" height="84.7999" style="stroke:#9A9A9A;stroke-width:1.5;" width="172" x="200" y="28.5999"/><text fill="#000000" font-family="sans-serif" font-size="16" font-weight="bold" lengthAdjust="spacing" textLength="152" x="210" y="54.5999">Project B DWH User</text><text fill="#000000" font-family="sans-serif" font-size="10" lengthAdjust="spacing" textLength="36" x="268" y="67.7999">[Person]</text><text fill="#000000" font-family="sans-serif" font-size="14" lengthAdjust="spacing" textLength="0" x="288" y="83.7998"/><text fill="#000000" font-family="sans-serif" font-size="14" lengthAdjust="spacing" textLength="148" x="212" y="100.5998">user of DWH (Project B)</text><!--MD5=[de3d8c7aa7aeccf6bd3aef8a91992e66]
link 2 to 26--><path d="M98.26,96.9899 C114.75,130.4599 144.33,190.5099 164.55,231.5499 " fill="none" id="2-to-26" style="stroke:#707070;stroke-width:1.0;stroke-dasharray:7.0,7.0;"/><polygon fill="#707070" points="166.96,236.4499,166.5883,226.608,164.7583,231.9607,159.4056,230.1307,166.96,236.4499" style="stroke:#707070;stroke-width:1.0;"/><text fill="#000000" font-family="sans-serif" font-size="10" lengthAdjust="spacing" textLength="100" x="135" y="154.5999">deployes on production</text><text fill="#000000" font-family="sans-serif" font-size="10" lengthAdjust="spacing" textLength="31" x="169.5" y="166.5998">system</text><!--MD5=[98cf244f963b01f426bd270f94fba26c]
link 3 to 26--><path d="M268.81,113.7899 C261.49,130.9299 252.66,150.8699 244,168.5999 C233.69,189.6999 221.35,212.6299 210.71,231.7899 " fill="none" id="3-to-26" style="stroke:#707070;stroke-width:1.0;stroke-dasharray:7.0,7.0;"/><polygon fill="#707070" points="208.04,236.5799,215.9074,230.655,210.4682,232.2091,208.9142,226.7699,208.04,236.5799" style="stroke:#707070;stroke-width:1.0;"/><text fill="#000000" font-family="sans-serif" font-size="10" lengthAdjust="spacing" textLength="20" x="257" y="160.5999">uses</text><!--MD5=[d885d024e948cbb0409373c9b97149d2]
@startuml
title DWH B Production - Containers

skinparam {
  shadowing false
  arrowFontSize 10
  defaultTextAlignment center
  wrapWidth 200
  maxMessageSize 100
}
hide stereotype
top to bottom direction
skinparam rectangle<<2>> {
  BackgroundColor #dddddd
  FontColor #000000
  BorderColor #9A9A9A
}
skinparam rectangle<<3>> {
  BackgroundColor #dddddd
  FontColor #000000
  BorderColor #9A9A9A
}
skinparam database<<26>> {
  BackgroundColor #dddddd
  FontColor #000000
  BorderColor #9A9A9A
}
rectangle "==Deployment Team\n<size:10>[Person]</size>" <<2>> as 2
rectangle "==Project B DWH User\n<size:10>[Person]</size>\n\nuser of DWH (Project B)" <<3>> as 3
package "DWH B Production\n[Software System]" {
  database "==DWH db Production (Project B)\n<size:10>[Container: Database]</size>" <<26>> as 26
}
2 .[#707070].> 26 : "deployes on production system"
3 .[#707070].> 26 : "uses"
@enduml

PlantUML version 1.2021.4(Sun Apr 04 08:49:39 GMT 2021)
(GPL source distribution)
Java Runtime: OpenJDK Runtime Environment
JVM: OpenJDK 64-Bit Server VM
Default Encoding: UTF-8
Language: en
Country: US
--></g></svg>