<?xml version="1.0" encoding="UTF-8" standalone="no"?><svg xmlns="http://www.w3.org/2000/svg" xmlns:xlink="http://www.w3.org/1999/xlink" contentScriptType="application/ecmascript" contentStyleType="text/css" height="344px" preserveAspectRatio="none" style="width:464px;height:344px;" version="1.1" viewBox="0 0 464 344" width="464px" zoomAndPan="magnify"><defs/><g><text fill="#000000" font-family="sans-serif" font-size="18" lengthAdjust="spacing" textLength="274" x="88.5" y="17.9999">DWH B Development - Containers</text><!--MD5=[255faa2be7dd1589dace60483080b12d]
cluster DWH B Development\n[Software System]--><polygon fill="#FFFFFF" points="16,27.5999,164,27.5999,171,67.1997,447,67.1997,447,337.5999,16,337.5999,16,27.5999" style="stroke:#000000;stroke-width:1.5;"/><line style="stroke:#000000;stroke-width:1.5;" x1="16" x2="171" y1="67.1997" y2="67.1997"/><text fill="#000000" font-family="sans-serif" font-size="14" font-weight="bold" lengthAdjust="spacing" textLength="142" x="20" y="43.5998">DWH B Development</text><text fill="#000000" font-family="sans-serif" font-size="14" font-weight="bold" lengthAdjust="spacing" textLength="127" x="27.5" y="60.3997">[Software System]</text><!--MD5=[7c356ee5fd76ea688127ca96320d15b9]
entity 18--><path d="M239,92.5999 C239,82.5999 335,82.5999 335,82.5999 C335,82.5999 431,82.5999 431,92.5999 L431,151.9999 C431,161.9999 335,161.9999 335,161.9999 C335,161.9999 239,161.9999 239,151.9999 L239,92.5999 " fill="#DDDDDD" style="stroke:#9A9A9A;stroke-width:1.5;"/><path d="M239,92.5999 C239,102.5999 335,102.5999 335,102.5999 C335,102.5999 431,102.5999 431,92.5999 " fill="none" style="stroke:#9A9A9A;stroke-width:1.5;"/><text fill="#000000" font-family="sans-serif" font-size="16" font-weight="bold" lengthAdjust="spacing" textLength="168" x="249" y="122.5999">DWH db Development</text><text fill="#000000" font-family="sans-serif" font-size="16" font-weight="bold" lengthAdjust="spacing" textLength="79" x="295.5" y="141.7999">(Project B)</text><text fill="#000000" font-family="sans-serif" font-size="10" lengthAdjust="spacing" textLength="92" x="289" y="154.9999">[Container: Database]</text><!--MD5=[f23e27573c7a8d7e934deb9fe4d73a5f]
entity 22--><rect fill="#DDDDDD" height="84.7999" style="stroke:#9A9A9A;stroke-width:1.5;" width="172" x="32" y="79.5999"/><text fill="#000000" font-family="sans-serif" font-size="16" font-weight="bold" lengthAdjust="spacing" textLength="29" x="103.5" y="105.5999">GUI</text><text fill="#000000" font-family="sans-serif" font-size="10" lengthAdjust="spacing" textLength="69" x="83.5" y="118.7999">[Container: GUI]</text><text fill="#000000" font-family="sans-serif" font-size="14" lengthAdjust="spacing" textLength="0" x="120" y="134.7998"/><text fill="#000000" font-family="sans-serif" font-size="14" lengthAdjust="spacing" textLength="152" x="42" y="151.5998">Graphical User Interface</text><!--MD5=[fad6a9c1e4f80769a7fea8e2093188d9]
entity 5--><path d="M96.5,271.5999 C96.5,261.5999 202,261.5999 202,261.5999 C202,261.5999 307.5,261.5999 307.5,271.5999 L307.5,311.7999 C307.5,321.7999 202,321.7999 202,321.7999 C202,321.7999 96.5,321.7999 96.5,311.7999 L96.5,271.5999 " fill="#DDDDDD" style="stroke:#9A9A9A;stroke-width:1.5;"/><path d="M96.5,271.5999 C96.5,281.5999 202,281.5999 202,281.5999 C202,281.5999 307.5,281.5999 307.5,271.5999 " fill="none" style="stroke:#9A9A9A;stroke-width:1.5;"/><text fill="#000000" font-family="sans-serif" font-size="16" font-weight="bold" lengthAdjust="spacing" textLength="191" x="106.5" y="301.5999">Repository db (Project B)</text><text fill="#000000" font-family="sans-serif" font-size="10" lengthAdjust="spacing" textLength="92" x="156" y="314.7999">[Container: Database]</text><!--MD5=[0a34636152defae142b7aea03fb55a18]
link 18 to 5--><path d="M238.89,156.3899 C222.99,166.2099 208.59,178.7299 199,194.5999 C188.05,212.7299 188.7,236.5199 192.15,255.8699 " fill="none" id="18-to-5" style="stroke:#707070;stroke-width:1.0;stroke-dasharray:7.0,7.0;"/><polygon fill="#707070" points="193.18,261.1999,195.3856,251.6012,192.2241,256.2921,187.5332,253.1306,193.18,261.1999" style="stroke:#707070;stroke-width:1.0;"/><text fill="#000000" font-family="sans-serif" font-size="10" lengthAdjust="spacing" textLength="52" x="215.5" y="205.5999">RepoObject</text><text fill="#000000" font-family="sans-serif" font-size="10" lengthAdjust="spacing" textLength="68" x="207.5" y="217.5998">correspond with</text><text fill="#000000" font-family="sans-serif" font-size="10" lengthAdjust="spacing" textLength="86" x="200" y="229.5998">extended properties</text><!--MD5=[ad0b1871f1cb6d6a254c07cb1102433f]
link 5 to 18--><path d="M257.05,261.5699 C269.4,253.1499 281.61,243.0799 291,231.5999 C306.36,212.8099 316.97,187.9299 323.91,166.7499 " fill="none" id="5-to-18" style="stroke:#707070;stroke-width:1.0;stroke-dasharray:7.0,7.0;"/><polygon fill="#707070" points="325.51,161.7299,318.9686,169.0926,323.9934,166.4943,326.5917,171.5191,325.51,161.7299" style="stroke:#707070;stroke-width:1.0;"/><text fill="#000000" font-family="sans-serif" font-size="10" lengthAdjust="spacing" textLength="99" x="313" y="211.5999">Synonyms link to DWH</text><text fill="#000000" font-family="sans-serif" font-size="10" lengthAdjust="spacing" textLength="61" x="332" y="223.5998">System Views</text><!--MD5=[6d12cf3bae391c171d3369b41c60b120]
link 22 to 5--><path d="M118.94,164.6299 C120.94,185.7799 125.79,211.2499 137,231.5999 C142.25,241.1199 149.61,249.9199 157.52,257.6499 " fill="none" id="22-to-5" style="stroke:#707070;stroke-width:1.0;stroke-dasharray:7.0,7.0;"/><polygon fill="#707070" points="161.43,261.3599,157.6544,252.2635,157.8029,257.9184,152.148,258.0669,161.43,261.3599" style="stroke:#707070;stroke-width:1.0;"/><text fill="#000000" font-family="sans-serif" font-size="10" lengthAdjust="spacing" textLength="20" x="138" y="217.5999">uses</text><!--MD5=[04cb811f0431a13771bc64067bd6ef47]
@startuml
title DWH B Development - Containers

skinparam {
  shadowing false
  arrowFontSize 10
  defaultTextAlignment center
  wrapWidth 200
  maxMessageSize 100
}
hide stereotype
top to bottom direction
skinparam rectangle<<22>> {
  BackgroundColor #dddddd
  FontColor #000000
  BorderColor #9A9A9A
}
skinparam database<<5>> {
  BackgroundColor #dddddd
  FontColor #000000
  BorderColor #9A9A9A
}
skinparam database<<18>> {
  BackgroundColor #dddddd
  FontColor #000000
  BorderColor #9A9A9A
}
package "DWH B Development\n[Software System]" {
  database "==DWH db Development (Project B)\n<size:10>[Container: Database]</size>" <<18>> as 18
  rectangle "==GUI\n<size:10>[Container: GUI]</size>\n\nGraphical User Interface" <<22>> as 22
  database "==Repository db (Project B)\n<size:10>[Container: Database]</size>" <<5>> as 5
}
18 .[#707070].> 5 : "RepoObject correspond with extended properties"
22 .[#707070].> 5 : "uses"
5 .[#707070].> 18 : "Synonyms link to DWH System Views"
@enduml

PlantUML version 1.2021.4(Sun Apr 04 08:49:39 GMT 2021)
(GPL source distribution)
Java Runtime: OpenJDK Runtime Environment
JVM: OpenJDK 64-Bit Server VM
Default Encoding: UTF-8
Language: en
Country: US
--></g></svg>