<?xml version="1.0" encoding="UTF-8" standalone="no"?><svg xmlns="http://www.w3.org/2000/svg" xmlns:xlink="http://www.w3.org/1999/xlink" contentScriptType="application/ecmascript" contentStyleType="text/css" height="361px" preserveAspectRatio="none" style="width:705px;height:361px;" version="1.1" viewBox="0 0 705 361" width="705px" zoomAndPan="magnify"><defs/><g><text fill="#000000" font-family="sans-serif" font-size="18" lengthAdjust="spacing" textLength="274" x="209" y="17.9999">DWH B Development - Containers</text><!--MD5=[255faa2be7dd1589dace60483080b12d]
cluster DWH B Development\n[Software System]--><polygon fill="#FFFFFF" points="16,27.5999,164,27.5999,171,67.1997,688,67.1997,688,354.5999,16,354.5999,16,27.5999" style="stroke:#000000;stroke-width:1.5;"/><line style="stroke:#000000;stroke-width:1.5;" x1="16" x2="171" y1="67.1997" y2="67.1997"/><text fill="#000000" font-family="sans-serif" font-size="14" font-weight="bold" lengthAdjust="spacing" textLength="142" x="20" y="43.5998">DWH B Development</text><text fill="#000000" font-family="sans-serif" font-size="14" font-weight="bold" lengthAdjust="spacing" textLength="127" x="27.5" y="60.3997">[Software System]</text><!--MD5=[7c356ee5fd76ea688127ca96320d15b9]
entity 18--><path d="M480,101.0999 C480,91.0999 576,91.0999 576,91.0999 C576,91.0999 672,91.0999 672,101.0999 L672,160.4999 C672,170.4999 576,170.4999 576,170.4999 C576,170.4999 480,170.4999 480,160.4999 L480,101.0999 " fill="#DDDDDD" style="stroke:#DDDDDD;stroke-width:1.5;"/><path d="M480,101.0999 C480,111.0999 576,111.0999 576,111.0999 C576,111.0999 672,111.0999 672,101.0999 " fill="none" style="stroke:#DDDDDD;stroke-width:1.5;"/><text fill="#000000" font-family="sans-serif" font-size="16" font-weight="bold" lengthAdjust="spacing" textLength="168" x="490" y="131.0999">DWH db Development</text><text fill="#000000" font-family="sans-serif" font-size="16" font-weight="bold" lengthAdjust="spacing" textLength="79" x="536.5" y="150.2999">(Project B)</text><text fill="#000000" font-family="sans-serif" font-size="10" lengthAdjust="spacing" textLength="92" x="530" y="163.4999">[Container: Database]</text><!--MD5=[f23e27573c7a8d7e934deb9fe4d73a5f]
entity 22--><rect fill="#DDDDDD" height="101.5998" style="stroke:#DDDDDD;stroke-width:1.5;" width="205" x="239.5" y="79.5999"/><text fill="#000000" font-family="sans-serif" font-size="16" font-weight="bold" lengthAdjust="spacing" textLength="29" x="327.5" y="105.5999">GUI</text><text fill="#000000" font-family="sans-serif" font-size="10" lengthAdjust="spacing" textLength="69" x="307.5" y="118.7999">[Container: GUI]</text><text fill="#000000" font-family="sans-serif" font-size="14" lengthAdjust="spacing" textLength="0" x="344" y="134.7998"/><text fill="#000000" font-family="sans-serif" font-size="14" lengthAdjust="spacing" textLength="181" x="249.5" y="151.5998">Graphical User Interface. Not</text><text fill="#000000" font-family="sans-serif" font-size="14" lengthAdjust="spacing" textLength="99" x="292.5" y="168.3997">yet implemented</text><!--MD5=[fad6a9c1e4f80769a7fea8e2093188d9]
entity 5--><path d="M279.5,288.5999 C279.5,278.5999 385,278.5999 385,278.5999 C385,278.5999 490.5,278.5999 490.5,288.5999 L490.5,328.7999 C490.5,338.7999 385,338.7999 385,338.7999 C385,338.7999 279.5,338.7999 279.5,328.7999 L279.5,288.5999 " fill="#DDDDDD" style="stroke:#DDDDDD;stroke-width:1.5;"/><path d="M279.5,288.5999 C279.5,298.5999 385,298.5999 385,298.5999 C385,298.5999 490.5,298.5999 490.5,288.5999 " fill="none" style="stroke:#DDDDDD;stroke-width:1.5;"/><text fill="#000000" font-family="sans-serif" font-size="16" font-weight="bold" lengthAdjust="spacing" textLength="191" x="289.5" y="318.5999">Repository db (Project B)</text><text fill="#000000" font-family="sans-serif" font-size="10" lengthAdjust="spacing" textLength="92" x="339" y="331.7999">[Container: Database]</text><!--MD5=[33564e2724e6f3d19d2384e76137af5d]
entity 25--><rect fill="#DDDDDD" height="84.7999" style="stroke:#DDDDDD;stroke-width:1.5;" width="172" x="32" y="88.0999"/><text fill="#000000" font-family="sans-serif" font-size="16" font-weight="bold" lengthAdjust="spacing" textLength="115" x="60.5" y="114.0999">documentation</text><text fill="#000000" font-family="sans-serif" font-size="10" lengthAdjust="spacing" textLength="113" x="61.5" y="127.2999">[Container: documentation]</text><text fill="#000000" font-family="sans-serif" font-size="14" lengthAdjust="spacing" textLength="0" x="120" y="143.2998"/><text fill="#000000" font-family="sans-serif" font-size="14" lengthAdjust="spacing" textLength="152" x="42" y="160.0998">database documentation</text><!--MD5=[0a34636152defae142b7aea03fb55a18]
link 18 to 5--><path d="M487.7,170.1299 C468.08,181.4999 448.52,195.3399 433,211.5999 C416.2,229.1899 404.06,253.8099 396.18,273.6999 " fill="none" id="18-to-5" style="stroke:#707070;stroke-width:2.0;stroke-dasharray:7.0,7.0;"/><polygon fill="#707070" points="394.37,278.3899,401.3385,271.43,396.1678,273.7242,393.8735,268.5535,394.37,278.3899" style="stroke:#707070;stroke-width:2.0;"/><text fill="#000000" font-family="sans-serif" font-size="10" lengthAdjust="spacing" textLength="52" x="449.5" y="222.5999">RepoObject</text><text fill="#000000" font-family="sans-serif" font-size="10" lengthAdjust="spacing" textLength="68" x="441.5" y="234.5998">correspond with</text><text fill="#000000" font-family="sans-serif" font-size="10" lengthAdjust="spacing" textLength="86" x="434" y="246.5998">extended properties</text><!--MD5=[ad0b1871f1cb6d6a254c07cb1102433f]
link 5 to 18--><path d="M481.42,278.5599 C497.31,270.6799 512.62,260.8299 525,248.5999 C545.25,228.5999 558.01,199.2199 565.71,174.8999 " fill="none" id="5-to-18" style="stroke:#707070;stroke-width:2.0;stroke-dasharray:7.0,7.0;"/><polygon fill="#707070" points="567.18,170.1099,560.732,177.5545,565.7236,174.8931,568.3851,179.8847,567.18,170.1099" style="stroke:#707070;stroke-width:2.0;"/><text fill="#000000" font-family="sans-serif" font-size="10" lengthAdjust="spacing" textLength="99" x="551" y="228.5999">Synonyms link to DWH</text><text fill="#000000" font-family="sans-serif" font-size="10" lengthAdjust="spacing" textLength="61" x="570" y="240.5998">System Views</text><!--MD5=[6d12cf3bae391c171d3369b41c60b120]
link 22 to 5--><path d="M354.32,182.0299 C361.49,211.3699 370.33,247.5499 376.68,273.5299 " fill="none" id="22-to-5" style="stroke:#707070;stroke-width:2.0;stroke-dasharray:7.0,7.0;"/><polygon fill="#707070" points="377.91,278.5799,379.6615,268.888,376.7242,273.7225,371.8897,270.7852,377.91,278.5799" style="stroke:#707070;stroke-width:2.0;"/><text fill="#000000" font-family="sans-serif" font-size="10" lengthAdjust="spacing" textLength="0" x="373" y="234.5999"/><!--MD5=[dbee8e6108f1de99fbbe4968dae1e091]
link 25 to 5--><path d="M163.17,173.3399 C190.29,197.1399 226.18,226.5299 261,248.5999 C276.74,258.5699 294.42,267.9599 311.4,276.1799 " fill="none" id="25-to-5" style="stroke:#707070;stroke-width:2.0;stroke-dasharray:7.0,7.0;"/><polygon fill="#707070" points="316.17,278.4699,309.8027,270.956,311.6669,276.2969,306.326,278.1611,316.17,278.4699" style="stroke:#707070;stroke-width:2.0;"/><text fill="#000000" font-family="sans-serif" font-size="10" lengthAdjust="spacing" textLength="91" x="262" y="234.5999">content generated by</text><!--MD5=[934d919a53b8378f583550e27c170d92]
@startuml
title DWH B Development - Containers

skinparam {
  shadowing false
  arrowFontSize 10
  defaultTextAlignment center
  wrapWidth 200
  maxMessageSize 100
}
hide stereotype
top to bottom direction
skinparam rectangle<<22>> {
  BackgroundColor #dddddd
  FontColor #000000
  BorderColor #dddddd
}
skinparam rectangle<<25>> {
  BackgroundColor #dddddd
  FontColor #000000
  BorderColor #dddddd
}
skinparam database<<5>> {
  BackgroundColor #dddddd
  FontColor #000000
  BorderColor #dddddd
}
skinparam database<<18>> {
  BackgroundColor #dddddd
  FontColor #000000
  BorderColor #dddddd
}
package "DWH B Development\n[Software System]" {
  database "==DWH db Development (Project B)\n<size:10>[Container: Database]</size>" <<18>> as 18
  rectangle "==GUI\n<size:10>[Container: GUI]</size>\n\nGraphical User Interface. Not yet implemented" <<22>> as 22
  database "==Repository db (Project B)\n<size:10>[Container: Database]</size>" <<5>> as 5
  rectangle "==documentation\n<size:10>[Container: documentation]</size>\n\ndatabase documentation" <<25>> as 25
}
18 .[#707070,thickness=2].> 5 : "RepoObject correspond with extended properties"
22 .[#707070,thickness=2].> 5 : ""
5 .[#707070,thickness=2].> 18 : "Synonyms link to DWH System Views"
25 .[#707070,thickness=2].> 5 : "content generated by"
@enduml

PlantUML version 1.2021.4(Sun Apr 04 08:49:39 GMT 2021)
(GPL source distribution)
Java Runtime: OpenJDK Runtime Environment
JVM: OpenJDK 64-Bit Server VM
Default Encoding: UTF-8
Language: en
Country: US
--></g></svg>