<?xml version="1.0" encoding="UTF-8" standalone="no"?><svg xmlns="http://www.w3.org/2000/svg" xmlns:xlink="http://www.w3.org/1999/xlink" contentScriptType="application/ecmascript" contentStyleType="text/css" height="483px" preserveAspectRatio="none" style="width:846px;height:483px;background:#FFFFFF;" version="1.1" viewBox="0 0 846 483" width="846px" zoomAndPan="magnify"><defs><filter height="300%" id="f1x5g6zddhokbu" width="300%" x="-1" y="-1"><feGaussianBlur result="blurOut" stdDeviation="2.0"/><feColorMatrix in="blurOut" result="blurOut2" type="matrix" values="0 0 0 0 0 0 0 0 0 0 0 0 0 0 0 0 0 0 .4 0"/><feOffset dx="4.0" dy="4.0" in="blurOut2" result="blurOut3"/><feBlend in="SourceGraphic" in2="blurOut3" mode="normal"/></filter></defs><g><line style="stroke:#A80036;stroke-width:1.0;stroke-dasharray:5.0,5.0;" x1="88" x2="88" y1="40.7999" y2="439.8001"/><line style="stroke:#A80036;stroke-width:1.0;stroke-dasharray:5.0,5.0;" x1="512" x2="512" y1="40.7999" y2="439.8001"/><rect fill="#FEFECE" filter="url(#f1x5g6zddhokbu)" height="30.7999" style="stroke:#A80036;stroke-width:1.5;" width="163" x="5" y="5"/><text fill="#000000" font-family="sans-serif" font-size="14" lengthAdjust="spacing" textLength="149" x="12" y="25.9999">[repo_sys].[SysSchema]</text><rect fill="#FEFECE" filter="url(#f1x5g6zddhokbu)" height="30.7999" style="stroke:#A80036;stroke-width:1.5;" width="163" x="5" y="438.8001"/><text fill="#000000" font-family="sans-serif" font-size="14" lengthAdjust="spacing" textLength="149" x="12" y="459.8">[repo_sys].[SysSchema]</text><rect fill="#FEFECE" filter="url(#f1x5g6zddhokbu)" height="30.7999" style="stroke:#A80036;stroke-width:1.5;" width="143" x="439" y="5"/><text fill="#000000" font-family="sans-serif" font-size="14" lengthAdjust="spacing" textLength="129" x="446" y="25.9999">[repo].[RepoSchema]</text><rect fill="#FEFECE" filter="url(#f1x5g6zddhokbu)" height="30.7999" style="stroke:#A80036;stroke-width:1.5;" width="143" x="439" y="438.8001"/><text fill="#000000" font-family="sans-serif" font-size="14" lengthAdjust="spacing" textLength="129" x="446" y="459.8">[repo].[RepoSchema]</text><rect fill="#EEEEEE" filter="url(#f1x5g6zddhokbu)" height="3" style="stroke:#EEEEEE;stroke-width:1.0;" width="839.5" x="0" y="71.5999"/><line style="stroke:#000000;stroke-width:1.0;" x1="0" x2="839.5" y1="71.5999" y2="71.5999"/><line style="stroke:#000000;stroke-width:1.0;" x1="0" x2="839.5" y1="74.5999" y2="74.5999"/><rect fill="#EEEEEE" filter="url(#f1x5g6zddhokbu)" height="23.6" style="stroke:#000000;stroke-width:2.0;" width="290" x="274.75" y="60.7999"/><text fill="#000000" font-family="sans-serif" font-size="13" font-weight="bold" lengthAdjust="spacing" textLength="272" x="280.75" y="77.7999">[repo].[usp_sync_guid_RepoSchema] - start</text><ellipse cx="512" cy="117.25" rx="4" ry="4" style="stroke:#A80036;stroke-width:1.5;fill:none;"/><polygon fill="#A80036" points="495,114,505,118,495,122,499,118" style="stroke:#A80036;stroke-width:1.0;"/><line style="stroke:#A80036;stroke-width:1.0;" x1="88.5" x2="501" y1="118" y2="118"/><text fill="#000000" font-family="sans-serif" font-size="13" lengthAdjust="spacing" textLength="241" x="95.5" y="113.4">SET several RepoSchema_SysSchema_...</text><rect fill="#FBFB77" filter="url(#f1x5g6zddhokbu)" height="23" style="stroke:#A80036;stroke-width:1.0;" width="15" x="517" y="99.3999"/><text fill="#000000" font-family="sans-serif" font-size="13" lengthAdjust="spacing" textLength="7" x="521" y="116.4">0</text><ellipse cx="512" cy="150.85" rx="4" ry="4" style="stroke:#A80036;stroke-width:1.5;fill:none;"/><polygon fill="#A80036" points="495,147.6,505,151.6,495,155.6,499,151.6" style="stroke:#A80036;stroke-width:1.0;"/><line style="stroke:#A80036;stroke-width:1.0;" x1="88.5" x2="501" y1="151.6" y2="151.6"/><text fill="#000000" font-family="sans-serif" font-size="13" lengthAdjust="spacing" textLength="400" x="95.5" y="147">SET [SysSchema_name] = [repo].[RepoSchema].[RepoSchema_guid]</text><rect fill="#FBFB77" filter="url(#f1x5g6zddhokbu)" height="23" style="stroke:#A80036;stroke-width:1.0;" width="15" x="517" y="133"/><text fill="#000000" font-family="sans-serif" font-size="13" lengthAdjust="spacing" textLength="7" x="521" y="150">0</text><polygon fill="#A80036" points="500.5,181.2,510.5,185.2,500.5,189.2,504.5,185.2" style="stroke:#A80036;stroke-width:1.0;"/><line style="stroke:#A80036;stroke-width:1.0;" x1="88.5" x2="506.5" y1="185.2" y2="185.2"/><text fill="#000000" font-family="sans-serif" font-size="13" lengthAdjust="spacing" textLength="366" x="95.5" y="180.6">[SysSchema_RepoSchema_guid] -&gt; [RepoSchema_guid]; name</text><rect fill="#FBFB77" filter="url(#f1x5g6zddhokbu)" height="23" style="stroke:#A80036;stroke-width:1.0;" width="15" x="517" y="166.6"/><text fill="#000000" font-family="sans-serif" font-size="13" lengthAdjust="spacing" textLength="7" x="521" y="183.6">0</text><polygon fill="#A80036" points="500.5,214.8,510.5,218.8,500.5,222.8,504.5,218.8" style="stroke:#A80036;stroke-width:1.0;"/><line style="stroke:#A80036;stroke-width:1.0;" x1="88.5" x2="506.5" y1="218.8" y2="218.8"/><text fill="#000000" font-family="sans-serif" font-size="13" lengthAdjust="spacing" textLength="166" x="95.5" y="214.2">INSERT still missing Schema</text><rect fill="#FBFB77" filter="url(#f1x5g6zddhokbu)" height="23" style="stroke:#A80036;stroke-width:1.0;" width="15" x="517" y="200.2"/><text fill="#000000" font-family="sans-serif" font-size="13" lengthAdjust="spacing" textLength="7" x="521" y="217.2">0</text><ellipse cx="512" cy="262.65" rx="4" ry="4" style="stroke:#A80036;stroke-width:1.5;fill:none;"/><line style="stroke:#A80036;stroke-width:1.0;fill:none;" x1="512.5" x2="554.5" y1="250.4" y2="250.4"/><line style="stroke:#A80036;stroke-width:1.0;fill:none;" x1="554.5" x2="554.5" y1="250.4" y2="263.4"/><line style="stroke:#A80036;stroke-width:1.0;fill:none;" x1="517.5" x2="554.5" y1="263.4" y2="263.4"/><polygon fill="#A80036" points="527.5,259.4,517.5,263.4,527.5,267.4,523.5,263.4" style="stroke:#A80036;stroke-width:1.0;"/><text fill="#000000" font-family="sans-serif" font-size="13" lengthAdjust="spacing" textLength="283" x="519.5" y="245.8">SET [RepoSchema_name] = [SysSchema_name]</text><rect fill="#FBFB77" filter="url(#f1x5g6zddhokbu)" height="23" style="stroke:#A80036;stroke-width:1.0;" width="15" x="814" y="238.3"/><text fill="#000000" font-family="sans-serif" font-size="13" lengthAdjust="spacing" textLength="7" x="818" y="255.3">0</text><polygon fill="#A80036" points="99.5,289,89.5,293,99.5,297,95.5,293" style="stroke:#A80036;stroke-width:1.0;"/><line style="stroke:#A80036;stroke-width:1.0;stroke-dasharray:2.0,2.0;" x1="93.5" x2="511.5" y1="293" y2="293"/><text fill="#000000" font-family="sans-serif" font-size="13" lengthAdjust="spacing" textLength="363" x="105.5" y="288.4">write RepoSchema_guid into extended properties of SysSchema</text><rect fill="#FBFB77" filter="url(#f1x5g6zddhokbu)" height="8" style="stroke:#A80036;stroke-width:1.0;" width="8" x="517" y="282.2"/><ellipse cx="512" cy="334.85" rx="4" ry="4" style="stroke:#A80036;stroke-width:1.5;fill:none;"/><line style="stroke:#A80036;stroke-width:1.0;fill:none;" x1="512.5" x2="554.5" y1="322.6" y2="322.6"/><line style="stroke:#A80036;stroke-width:1.0;fill:none;" x1="554.5" x2="554.5" y1="322.6" y2="335.6"/><line style="stroke:#A80036;stroke-width:1.0;fill:none;" x1="517.5" x2="554.5" y1="335.6" y2="335.6"/><polygon fill="#A80036" points="527.5,331.6,517.5,335.6,527.5,339.6,523.5,335.6" style="stroke:#A80036;stroke-width:1.0;"/><text fill="#000000" font-family="sans-serif" font-size="13" lengthAdjust="spacing" textLength="184" x="519.5" y="318">SET is_SysSchema_missing = 1</text><rect fill="#FBFB77" filter="url(#f1x5g6zddhokbu)" height="23" style="stroke:#A80036;stroke-width:1.0;" width="15" x="715" y="310.5"/><text fill="#000000" font-family="sans-serif" font-size="13" lengthAdjust="spacing" textLength="7" x="719" y="327.5">0</text><line style="stroke:#A80036;stroke-width:1.0;" x1="512.5" x2="554.5" y1="365.2001" y2="365.2001"/><line style="stroke:#A80036;stroke-width:1.0;" x1="554.5" x2="554.5" y1="365.2001" y2="378.2001"/><line style="stroke:#A80036;stroke-width:1.0;" x1="525.5" x2="554.5" y1="378.2001" y2="378.2001"/><line style="stroke:#A80036;stroke-width:2.0;" x1="518.5" x2="528.5" y1="373.2001" y2="383.2001"/><line style="stroke:#A80036;stroke-width:2.0;" x1="518.5" x2="528.5" y1="383.2001" y2="373.2001"/><text fill="#000000" font-family="sans-serif" font-size="13" lengthAdjust="spacing" textLength="215" x="519.5" y="360.6">DELETE; marked missing SysSchema</text><rect fill="#FBFB77" filter="url(#f1x5g6zddhokbu)" height="23" style="stroke:#A80036;stroke-width:1.0;" width="15" x="746" y="353.1"/><text fill="#000000" font-family="sans-serif" font-size="13" lengthAdjust="spacing" textLength="7" x="750" y="370.1">0</text><rect fill="#EEEEEE" filter="url(#f1x5g6zddhokbu)" height="3" style="stroke:#EEEEEE;stroke-width:1.0;" width="839.5" x="0" y="407.0001"/><line style="stroke:#000000;stroke-width:1.0;" x1="0" x2="839.5" y1="407.0001" y2="407.0001"/><line style="stroke:#000000;stroke-width:1.0;" x1="0" x2="839.5" y1="410.0001" y2="410.0001"/><rect fill="#EEEEEE" filter="url(#f1x5g6zddhokbu)" height="23.6" style="stroke:#000000;stroke-width:2.0;" width="287" x="276.25" y="396.2001"/><text fill="#000000" font-family="sans-serif" font-size="13" font-weight="bold" lengthAdjust="spacing" textLength="269" x="282.25" y="413.2001">[repo].[usp_sync_guid_RepoSchema] - end</text><!--MD5=[913e2edbb7a92d62f5eae7bc4f6324cf]
@startuml
== [repo].[usp_sync_guid_RepoSchema] - start ==

"[repo_sys].[SysSchema]" ->O "[repo].[RepoSchema]" : SET several RepoSchema_SysSchema_...
rnote right:0
"[repo_sys].[SysSchema]" ->O "[repo].[RepoSchema]" : SET [SysSchema_name] = [repo].[RepoSchema].[RepoSchema_guid]
rnote right:0
"[repo_sys].[SysSchema]" -> "[repo].[RepoSchema]" : [SysSchema_RepoSchema_guid] -> [RepoSchema_guid]; name
rnote right:0
"[repo_sys].[SysSchema]" -> "[repo].[RepoSchema]" : INSERT still missing Schema
rnote right:0
"[repo].[RepoSchema]" ->O "[repo].[RepoSchema]" : SET [RepoSchema_name] = [SysSchema_name]
rnote right:0
"[repo].[RepoSchema]" - -> "[repo_sys].[SysSchema]" : write RepoSchema_guid into extended properties of SysSchema
rnote right:
"[repo].[RepoSchema]" ->O "[repo].[RepoSchema]" : SET is_SysSchema_missing = 1
rnote right:0
"[repo].[RepoSchema]" ->x "[repo].[RepoSchema]" : DELETE; marked missing SysSchema
rnote right:0

== [repo].[usp_sync_guid_RepoSchema] - end ==
@enduml

PlantUML version 1.2021.8(Sat Jun 26 08:20:59 GMT 2021)
(GPL source distribution)
Java Runtime: OpenJDK Runtime Environment
JVM: OpenJDK 64-Bit Server VM
Default Encoding: UTF-8
Language: en
Country: US
--></g></svg>