<?xml version="1.0" encoding="UTF-8" standalone="no"?><svg xmlns="http://www.w3.org/2000/svg" xmlns:xlink="http://www.w3.org/1999/xlink" contentScriptType="application/ecmascript" contentStyleType="text/css" height="468px" preserveAspectRatio="none" style="width:3859px;height:468px;" version="1.1" viewBox="0 0 3859 468" width="3859px" zoomAndPan="magnify"><defs><filter height="300%" id="fftgj333wugs3" width="300%" x="-1" y="-1"><feGaussianBlur result="blurOut" stdDeviation="2.0"/><feColorMatrix in="blurOut" result="blurOut2" type="matrix" values="0 0 0 0 0 0 0 0 0 0 0 0 0 0 0 0 0 0 .4 0"/><feOffset dx="4.0" dy="4.0" in="blurOut2" result="blurOut3"/><feBlend in="SourceGraphic" in2="blurOut3" mode="normal"/></filter></defs><g><rect fill="#FFFFFF" filter="url(#fftgj333wugs3)" height="350" style="stroke:#A80036;stroke-width:1.0;" width="10" x="63" y="56.7999"/><rect fill="#FFFFFF" filter="url(#fftgj333wugs3)" height="154" style="stroke:#A80036;stroke-width:1.0;" width="10" x="216" y="70.7999"/><rect fill="#FFFFFF" filter="url(#fftgj333wugs3)" height="70" style="stroke:#A80036;stroke-width:1.0;" width="10" x="426" y="84.7999"/><rect fill="#FFFFFF" filter="url(#fftgj333wugs3)" height="14" style="stroke:#A80036;stroke-width:1.0;" width="10" x="678.5" y="98.7999"/><rect fill="#FFFFFF" filter="url(#fftgj333wugs3)" height="14" style="stroke:#A80036;stroke-width:1.0;" width="10" x="955.5" y="126.7999"/><rect fill="#FFFFFF" filter="url(#fftgj333wugs3)" height="42" style="stroke:#A80036;stroke-width:1.0;" width="10" x="1253.5" y="168.7999"/><rect fill="#FFFFFF" filter="url(#fftgj333wugs3)" height="14" style="stroke:#A80036;stroke-width:1.0;" width="10" x="1553" y="182.7999"/><rect fill="#FFFFFF" filter="url(#fftgj333wugs3)" height="14" style="stroke:#A80036;stroke-width:1.0;" width="10" x="1842" y="238.7999"/><rect fill="#FFFFFF" filter="url(#fftgj333wugs3)" height="70" style="stroke:#A80036;stroke-width:1.0;" width="10" x="2087.5" y="266.7999"/><rect fill="#FFFFFF" filter="url(#fftgj333wugs3)" height="14" style="stroke:#A80036;stroke-width:1.0;" width="10" x="2504" y="280.7999"/><rect fill="#FFFFFF" filter="url(#fftgj333wugs3)" height="14" style="stroke:#A80036;stroke-width:1.0;" width="10" x="2912" y="308.7999"/><rect fill="#FFFFFF" filter="url(#fftgj333wugs3)" height="14" style="stroke:#A80036;stroke-width:1.0;" width="10" x="3248" y="350.7999"/><rect fill="#FFFFFF" filter="url(#fftgj333wugs3)" height="14" style="stroke:#A80036;stroke-width:1.0;" width="10" x="3667" y="378.7999"/><line style="stroke:#A80036;stroke-width:1.0;stroke-dasharray:5.0,5.0;" x1="68" x2="68" y1="40.7999" y2="424.7999"/><line style="stroke:#A80036;stroke-width:1.0;stroke-dasharray:5.0,5.0;" x1="221" x2="221" y1="40.7999" y2="424.7999"/><line style="stroke:#A80036;stroke-width:1.0;stroke-dasharray:5.0,5.0;" x1="431" x2="431" y1="40.7999" y2="424.7999"/><line style="stroke:#A80036;stroke-width:1.0;stroke-dasharray:5.0,5.0;" x1="683" x2="683" y1="40.7999" y2="424.7999"/><line style="stroke:#A80036;stroke-width:1.0;stroke-dasharray:5.0,5.0;" x1="960" x2="960" y1="40.7999" y2="424.7999"/><line style="stroke:#A80036;stroke-width:1.0;stroke-dasharray:5.0,5.0;" x1="1258" x2="1258" y1="40.7999" y2="424.7999"/><line style="stroke:#A80036;stroke-width:1.0;stroke-dasharray:5.0,5.0;" x1="1558" x2="1558" y1="40.7999" y2="424.7999"/><line style="stroke:#A80036;stroke-width:1.0;stroke-dasharray:5.0,5.0;" x1="1847" x2="1847" y1="40.7999" y2="424.7999"/><line style="stroke:#A80036;stroke-width:1.0;stroke-dasharray:5.0,5.0;" x1="2092" x2="2092" y1="40.7999" y2="424.7999"/><line style="stroke:#A80036;stroke-width:1.0;stroke-dasharray:5.0,5.0;" x1="2509" x2="2509" y1="40.7999" y2="424.7999"/><line style="stroke:#A80036;stroke-width:1.0;stroke-dasharray:5.0,5.0;" x1="2917" x2="2917" y1="40.7999" y2="424.7999"/><line style="stroke:#A80036;stroke-width:1.0;stroke-dasharray:5.0,5.0;" x1="3253" x2="3253" y1="40.7999" y2="424.7999"/><line style="stroke:#A80036;stroke-width:1.0;stroke-dasharray:5.0,5.0;" x1="3672" x2="3672" y1="40.7999" y2="424.7999"/><rect fill="#FEFECE" filter="url(#fftgj333wugs3)" height="30.7999" style="stroke:#A80036;stroke-width:1.5;" width="122" x="5" y="5"/><text fill="#000000" font-family="sans-serif" font-size="14" lengthAdjust="spacing" textLength="108" x="12" y="25.9999">[repo].[usp_main]</text><rect fill="#FEFECE" filter="url(#fftgj333wugs3)" height="30.7999" style="stroke:#A80036;stroke-width:1.5;" width="122" x="5" y="423.7999"/><text fill="#000000" font-family="sans-serif" font-size="14" lengthAdjust="spacing" textLength="108" x="12" y="444.7999">[repo].[usp_main]</text><rect fill="#FEFECE" filter="url(#fftgj333wugs3)" height="30.7999" style="stroke:#A80036;stroke-width:1.5;" width="156" x="141" y="5"/><text fill="#000000" font-family="sans-serif" font-size="14" lengthAdjust="spacing" textLength="142" x="148" y="25.9999">[repo].[usp_sync_guid]</text><rect fill="#FEFECE" filter="url(#fftgj333wugs3)" height="30.7999" style="stroke:#A80036;stroke-width:1.5;" width="156" x="141" y="423.7999"/><text fill="#000000" font-family="sans-serif" font-size="14" lengthAdjust="spacing" textLength="142" x="148" y="444.7999">[repo].[usp_sync_guid]</text><rect fill="#FEFECE" filter="url(#fftgj333wugs3)" height="30.7999" style="stroke:#A80036;stroke-width:1.5;" width="236" x="311" y="5"/><text fill="#000000" font-family="sans-serif" font-size="14" lengthAdjust="spacing" textLength="222" x="318" y="25.9999">[repo].[usp_sync_guid_RepoObject]</text><rect fill="#FEFECE" filter="url(#fftgj333wugs3)" height="30.7999" style="stroke:#A80036;stroke-width:1.5;" width="236" x="311" y="423.7999"/><text fill="#000000" font-family="sans-serif" font-size="14" lengthAdjust="spacing" textLength="222" x="318" y="444.7999">[repo].[usp_sync_guid_RepoObject]</text><rect fill="#FEFECE" filter="url(#fftgj333wugs3)" height="30.7999" style="stroke:#A80036;stroke-width:1.5;" width="241" x="561" y="5"/><text fill="#000000" font-family="sans-serif" font-size="14" lengthAdjust="spacing" textLength="227" x="568" y="25.9999">[graph].[usp_PERSIST_RepoObject]</text><rect fill="#FEFECE" filter="url(#fftgj333wugs3)" height="30.7999" style="stroke:#A80036;stroke-width:1.5;" width="241" x="561" y="423.7999"/><text fill="#000000" font-family="sans-serif" font-size="14" lengthAdjust="spacing" textLength="227" x="568" y="444.7999">[graph].[usp_PERSIST_RepoObject]</text><rect fill="#FEFECE" filter="url(#fftgj333wugs3)" height="30.7999" style="stroke:#A80036;stroke-width:1.5;" width="285" x="816" y="5"/><text fill="#000000" font-family="sans-serif" font-size="14" lengthAdjust="spacing" textLength="271" x="823" y="25.9999">[graph].[usp_PERSIST_ProcedureInstance]</text><rect fill="#FEFECE" filter="url(#fftgj333wugs3)" height="30.7999" style="stroke:#A80036;stroke-width:1.5;" width="285" x="816" y="423.7999"/><text fill="#000000" font-family="sans-serif" font-size="14" lengthAdjust="spacing" textLength="271" x="823" y="444.7999">[graph].[usp_PERSIST_ProcedureInstance]</text><rect fill="#FEFECE" filter="url(#fftgj333wugs3)" height="30.7999" style="stroke:#A80036;stroke-width:1.5;" width="283" x="1115" y="5"/><text fill="#000000" font-family="sans-serif" font-size="14" lengthAdjust="spacing" textLength="269" x="1122" y="25.9999">[repo].[usp_sync_guid_RepoObjectColumn]</text><rect fill="#FEFECE" filter="url(#fftgj333wugs3)" height="30.7999" style="stroke:#A80036;stroke-width:1.5;" width="283" x="1115" y="423.7999"/><text fill="#000000" font-family="sans-serif" font-size="14" lengthAdjust="spacing" textLength="269" x="1122" y="444.7999">[repo].[usp_sync_guid_RepoObjectColumn]</text><rect fill="#FEFECE" filter="url(#fftgj333wugs3)" height="30.7999" style="stroke:#A80036;stroke-width:1.5;" width="288" x="1412" y="5"/><text fill="#000000" font-family="sans-serif" font-size="14" lengthAdjust="spacing" textLength="274" x="1419" y="25.9999">[graph].[usp_PERSIST_RepoObjectColumn]</text><rect fill="#FEFECE" filter="url(#fftgj333wugs3)" height="30.7999" style="stroke:#A80036;stroke-width:1.5;" width="288" x="1412" y="423.7999"/><text fill="#000000" font-family="sans-serif" font-size="14" lengthAdjust="spacing" textLength="274" x="1419" y="444.7999">[graph].[usp_PERSIST_RepoObjectColumn]</text><rect fill="#FEFECE" filter="url(#fftgj333wugs3)" height="30.7999" style="stroke:#A80036;stroke-width:1.5;" width="262" x="1714" y="5"/><text fill="#000000" font-family="sans-serif" font-size="14" lengthAdjust="spacing" textLength="248" x="1721" y="25.9999">[repo].[usp_update_Referencing_Count]</text><rect fill="#FEFECE" filter="url(#fftgj333wugs3)" height="30.7999" style="stroke:#A80036;stroke-width:1.5;" width="262" x="1714" y="423.7999"/><text fill="#000000" font-family="sans-serif" font-size="14" lengthAdjust="spacing" textLength="248" x="1721" y="444.7999">[repo].[usp_update_Referencing_Count]</text><rect fill="#FEFECE" filter="url(#fftgj333wugs3)" height="30.7999" style="stroke:#A80036;stroke-width:1.5;" width="201" x="1990" y="5"/><text fill="#000000" font-family="sans-serif" font-size="14" lengthAdjust="spacing" textLength="187" x="1997" y="25.9999">[repo].[usp_index_inheritance]</text><rect fill="#FEFECE" filter="url(#fftgj333wugs3)" height="30.7999" style="stroke:#A80036;stroke-width:1.5;" width="201" x="1990" y="423.7999"/><text fill="#000000" font-family="sans-serif" font-size="14" lengthAdjust="spacing" textLength="187" x="1997" y="444.7999">[repo].[usp_index_inheritance]</text><rect fill="#FEFECE" filter="url(#fftgj333wugs3)" height="30.7999" style="stroke:#A80036;stroke-width:1.5;" width="604" x="2205" y="5"/><text fill="#000000" font-family="sans-serif" font-size="14" lengthAdjust="spacing" textLength="590" x="2212" y="25.9999">[repo].[usp_PERSIST_IndexColumn_ReferencedReferencing_HasFullColumnsInReferencing_T]</text><rect fill="#FEFECE" filter="url(#fftgj333wugs3)" height="30.7999" style="stroke:#A80036;stroke-width:1.5;" width="604" x="2205" y="423.7999"/><text fill="#000000" font-family="sans-serif" font-size="14" lengthAdjust="spacing" textLength="590" x="2212" y="444.7999">[repo].[usp_PERSIST_IndexColumn_ReferencedReferencing_HasFullColumnsInReferencing_T]</text><rect fill="#FEFECE" filter="url(#fftgj333wugs3)" height="30.7999" style="stroke:#A80036;stroke-width:1.5;" width="184" x="2823" y="5"/><text fill="#000000" font-family="sans-serif" font-size="14" lengthAdjust="spacing" textLength="170" x="2830" y="25.9999">[repo].[usp_Index_Settings]</text><rect fill="#FEFECE" filter="url(#fftgj333wugs3)" height="30.7999" style="stroke:#A80036;stroke-width:1.5;" width="184" x="2823" y="423.7999"/><text fill="#000000" font-family="sans-serif" font-size="14" lengthAdjust="spacing" textLength="170" x="2830" y="444.7999">[repo].[usp_Index_Settings]</text><rect fill="#FEFECE" filter="url(#fftgj333wugs3)" height="30.7999" style="stroke:#A80036;stroke-width:1.5;" width="460" x="3021" y="5"/><text fill="#000000" font-family="sans-serif" font-size="14" lengthAdjust="spacing" textLength="446" x="3028" y="25.9999">[repo].[usp_RepoObjectColumn_update_RepoObjectColumn_column_id]</text><rect fill="#FEFECE" filter="url(#fftgj333wugs3)" height="30.7999" style="stroke:#A80036;stroke-width:1.5;" width="460" x="3021" y="423.7999"/><text fill="#000000" font-family="sans-serif" font-size="14" lengthAdjust="spacing" textLength="446" x="3028" y="444.7999">[repo].[usp_RepoObjectColumn_update_RepoObjectColumn_column_id]</text><rect fill="#FEFECE" filter="url(#fftgj333wugs3)" height="30.7999" style="stroke:#A80036;stroke-width:1.5;" width="350" x="3495" y="5"/><text fill="#000000" font-family="sans-serif" font-size="14" lengthAdjust="spacing" textLength="336" x="3502" y="25.9999">[repo].[usp_GeneratorUsp_insert_update_persistence]</text><rect fill="#FEFECE" filter="url(#fftgj333wugs3)" height="30.7999" style="stroke:#A80036;stroke-width:1.5;" width="350" x="3495" y="423.7999"/><text fill="#000000" font-family="sans-serif" font-size="14" lengthAdjust="spacing" textLength="336" x="3502" y="444.7999">[repo].[usp_GeneratorUsp_insert_update_persistence]</text><rect fill="#FFFFFF" filter="url(#fftgj333wugs3)" height="350" style="stroke:#A80036;stroke-width:1.0;" width="10" x="63" y="56.7999"/><rect fill="#FFFFFF" filter="url(#fftgj333wugs3)" height="154" style="stroke:#A80036;stroke-width:1.0;" width="10" x="216" y="70.7999"/><rect fill="#FFFFFF" filter="url(#fftgj333wugs3)" height="70" style="stroke:#A80036;stroke-width:1.0;" width="10" x="426" y="84.7999"/><rect fill="#FFFFFF" filter="url(#fftgj333wugs3)" height="14" style="stroke:#A80036;stroke-width:1.0;" width="10" x="678.5" y="98.7999"/><rect fill="#FFFFFF" filter="url(#fftgj333wugs3)" height="14" style="stroke:#A80036;stroke-width:1.0;" width="10" x="955.5" y="126.7999"/><rect fill="#FFFFFF" filter="url(#fftgj333wugs3)" height="42" style="stroke:#A80036;stroke-width:1.0;" width="10" x="1253.5" y="168.7999"/><rect fill="#FFFFFF" filter="url(#fftgj333wugs3)" height="14" style="stroke:#A80036;stroke-width:1.0;" width="10" x="1553" y="182.7999"/><rect fill="#FFFFFF" filter="url(#fftgj333wugs3)" height="14" style="stroke:#A80036;stroke-width:1.0;" width="10" x="1842" y="238.7999"/><rect fill="#FFFFFF" filter="url(#fftgj333wugs3)" height="70" style="stroke:#A80036;stroke-width:1.0;" width="10" x="2087.5" y="266.7999"/><rect fill="#FFFFFF" filter="url(#fftgj333wugs3)" height="14" style="stroke:#A80036;stroke-width:1.0;" width="10" x="2504" y="280.7999"/><rect fill="#FFFFFF" filter="url(#fftgj333wugs3)" height="14" style="stroke:#A80036;stroke-width:1.0;" width="10" x="2912" y="308.7999"/><rect fill="#FFFFFF" filter="url(#fftgj333wugs3)" height="14" style="stroke:#A80036;stroke-width:1.0;" width="10" x="3248" y="350.7999"/><rect fill="#FFFFFF" filter="url(#fftgj333wugs3)" height="14" style="stroke:#A80036;stroke-width:1.0;" width="10" x="3667" y="378.7999"/><polygon fill="#A80036" points="51,52.7999,61,56.7999,51,60.7999,55,56.7999" style="stroke:#A80036;stroke-width:1.0;"/><line style="stroke:#A80036;stroke-width:1.0;" x1="0" x2="57" y1="56.7999" y2="56.7999"/><polygon fill="#A80036" points="204,66.7999,214,70.7999,204,74.7999,208,70.7999" style="stroke:#A80036;stroke-width:1.0;"/><line style="stroke:#A80036;stroke-width:1.0;" x1="73" x2="210" y1="70.7999" y2="70.7999"/><polygon fill="#A80036" points="414,80.7999,424,84.7999,414,88.7999,418,84.7999" style="stroke:#A80036;stroke-width:1.0;"/><line style="stroke:#A80036;stroke-width:1.0;" x1="226" x2="420" y1="84.7999" y2="84.7999"/><polygon fill="#A80036" points="666.5,94.7999,676.5,98.7999,666.5,102.7999,670.5,98.7999" style="stroke:#A80036;stroke-width:1.0;"/><line style="stroke:#A80036;stroke-width:1.0;" x1="436" x2="672.5" y1="98.7999" y2="98.7999"/><polygon fill="#A80036" points="447,108.7999,437,112.7999,447,116.7999,443,112.7999" style="stroke:#A80036;stroke-width:1.0;"/><line style="stroke:#A80036;stroke-width:1.0;" x1="441" x2="682.5" y1="112.7999" y2="112.7999"/><polygon fill="#A80036" points="943.5,122.7999,953.5,126.7999,943.5,130.7999,947.5,126.7999" style="stroke:#A80036;stroke-width:1.0;"/><line style="stroke:#A80036;stroke-width:1.0;" x1="436" x2="949.5" y1="126.7999" y2="126.7999"/><polygon fill="#A80036" points="447,136.7999,437,140.7999,447,144.7999,443,140.7999" style="stroke:#A80036;stroke-width:1.0;"/><line style="stroke:#A80036;stroke-width:1.0;" x1="441" x2="959.5" y1="140.7999" y2="140.7999"/><polygon fill="#A80036" points="237,150.7999,227,154.7999,237,158.7999,233,154.7999" style="stroke:#A80036;stroke-width:1.0;"/><line style="stroke:#A80036;stroke-width:1.0;" x1="231" x2="430" y1="154.7999" y2="154.7999"/><polygon fill="#A80036" points="1241.5,164.7999,1251.5,168.7999,1241.5,172.7999,1245.5,168.7999" style="stroke:#A80036;stroke-width:1.0;"/><line style="stroke:#A80036;stroke-width:1.0;" x1="226" x2="1247.5" y1="168.7999" y2="168.7999"/><polygon fill="#A80036" points="1541,178.7999,1551,182.7999,1541,186.7999,1545,182.7999" style="stroke:#A80036;stroke-width:1.0;"/><line style="stroke:#A80036;stroke-width:1.0;" x1="1263.5" x2="1547" y1="182.7999" y2="182.7999"/><polygon fill="#A80036" points="1274.5,192.7999,1264.5,196.7999,1274.5,200.7999,1270.5,196.7999" style="stroke:#A80036;stroke-width:1.0;"/><line style="stroke:#A80036;stroke-width:1.0;" x1="1268.5" x2="1557" y1="196.7999" y2="196.7999"/><polygon fill="#A80036" points="237,206.7999,227,210.7999,237,214.7999,233,210.7999" style="stroke:#A80036;stroke-width:1.0;"/><line style="stroke:#A80036;stroke-width:1.0;" x1="231" x2="1257.5" y1="210.7999" y2="210.7999"/><polygon fill="#A80036" points="84,220.7999,74,224.7999,84,228.7999,80,224.7999" style="stroke:#A80036;stroke-width:1.0;"/><line style="stroke:#A80036;stroke-width:1.0;" x1="78" x2="220" y1="224.7999" y2="224.7999"/><polygon fill="#A80036" points="1830,234.7999,1840,238.7999,1830,242.7999,1834,238.7999" style="stroke:#A80036;stroke-width:1.0;"/><line style="stroke:#A80036;stroke-width:1.0;" x1="73" x2="1836" y1="238.7999" y2="238.7999"/><polygon fill="#A80036" points="84,248.7999,74,252.7999,84,256.7999,80,252.7999" style="stroke:#A80036;stroke-width:1.0;"/><line style="stroke:#A80036;stroke-width:1.0;" x1="78" x2="1846" y1="252.7999" y2="252.7999"/><polygon fill="#A80036" points="2075.5,262.7999,2085.5,266.7999,2075.5,270.7999,2079.5,266.7999" style="stroke:#A80036;stroke-width:1.0;"/><line style="stroke:#A80036;stroke-width:1.0;" x1="73" x2="2081.5" y1="266.7999" y2="266.7999"/><polygon fill="#A80036" points="2492,276.7999,2502,280.7999,2492,284.7999,2496,280.7999" style="stroke:#A80036;stroke-width:1.0;"/><line style="stroke:#A80036;stroke-width:1.0;" x1="2097.5" x2="2498" y1="280.7999" y2="280.7999"/><polygon fill="#A80036" points="2108.5,290.7999,2098.5,294.7999,2108.5,298.7999,2104.5,294.7999" style="stroke:#A80036;stroke-width:1.0;"/><line style="stroke:#A80036;stroke-width:1.0;" x1="2102.5" x2="2508" y1="294.7999" y2="294.7999"/><polygon fill="#A80036" points="2900,304.7999,2910,308.7999,2900,312.7999,2904,308.7999" style="stroke:#A80036;stroke-width:1.0;"/><line style="stroke:#A80036;stroke-width:1.0;" x1="2097.5" x2="2906" y1="308.7999" y2="308.7999"/><polygon fill="#A80036" points="2108.5,318.7999,2098.5,322.7999,2108.5,326.7999,2104.5,322.7999" style="stroke:#A80036;stroke-width:1.0;"/><line style="stroke:#A80036;stroke-width:1.0;" x1="2102.5" x2="2916" y1="322.7999" y2="322.7999"/><polygon fill="#A80036" points="84,332.7999,74,336.7999,84,340.7999,80,336.7999" style="stroke:#A80036;stroke-width:1.0;"/><line style="stroke:#A80036;stroke-width:1.0;" x1="78" x2="2091.5" y1="336.7999" y2="336.7999"/><polygon fill="#A80036" points="3236,346.7999,3246,350.7999,3236,354.7999,3240,350.7999" style="stroke:#A80036;stroke-width:1.0;"/><line style="stroke:#A80036;stroke-width:1.0;" x1="73" x2="3242" y1="350.7999" y2="350.7999"/><polygon fill="#A80036" points="84,360.7999,74,364.7999,84,368.7999,80,364.7999" style="stroke:#A80036;stroke-width:1.0;"/><line style="stroke:#A80036;stroke-width:1.0;" x1="78" x2="3252" y1="364.7999" y2="364.7999"/><polygon fill="#A80036" points="3655,374.7999,3665,378.7999,3655,382.7999,3659,378.7999" style="stroke:#A80036;stroke-width:1.0;"/><line style="stroke:#A80036;stroke-width:1.0;" x1="73" x2="3661" y1="378.7999" y2="378.7999"/><polygon fill="#A80036" points="84,388.7999,74,392.7999,84,396.7999,80,392.7999" style="stroke:#A80036;stroke-width:1.0;"/><line style="stroke:#A80036;stroke-width:1.0;" x1="78" x2="3671" y1="392.7999" y2="392.7999"/><polygon fill="#A80036" points="11,402.7999,1,406.7999,11,410.7999,7,406.7999" style="stroke:#A80036;stroke-width:1.0;"/><line style="stroke:#A80036;stroke-width:1.0;" x1="5" x2="67" y1="406.7999" y2="406.7999"/><!--MD5=[6df4ffd310b3af46dff2214d81e3fb93]
@startuml
-> "[repo].[usp_main]"
activate "[repo].[usp_main]"
"[repo].[usp_main]" -> "[repo].[usp_sync_guid]"
activate "[repo].[usp_sync_guid]"
"[repo].[usp_sync_guid]" -> "[repo].[usp_sync_guid_RepoObject]"
activate "[repo].[usp_sync_guid_RepoObject]"
"[repo].[usp_sync_guid_RepoObject]" -> "[graph].[usp_PERSIST_RepoObject]"
activate "[graph].[usp_PERSIST_RepoObject]"
"[repo].[usp_sync_guid_RepoObject]" <- "[graph].[usp_PERSIST_RepoObject]"
deactivate "[graph].[usp_PERSIST_RepoObject]"
"[repo].[usp_sync_guid_RepoObject]" -> "[graph].[usp_PERSIST_ProcedureInstance]"
activate "[graph].[usp_PERSIST_ProcedureInstance]"
"[repo].[usp_sync_guid_RepoObject]" <- "[graph].[usp_PERSIST_ProcedureInstance]"
deactivate "[graph].[usp_PERSIST_ProcedureInstance]"
"[repo].[usp_sync_guid]" <- "[repo].[usp_sync_guid_RepoObject]"
deactivate "[repo].[usp_sync_guid_RepoObject]"
"[repo].[usp_sync_guid]" -> "[repo].[usp_sync_guid_RepoObjectColumn]"
activate "[repo].[usp_sync_guid_RepoObjectColumn]"
"[repo].[usp_sync_guid_RepoObjectColumn]" -> "[graph].[usp_PERSIST_RepoObjectColumn]"
activate "[graph].[usp_PERSIST_RepoObjectColumn]"
"[repo].[usp_sync_guid_RepoObjectColumn]" <- "[graph].[usp_PERSIST_RepoObjectColumn]"
deactivate "[graph].[usp_PERSIST_RepoObjectColumn]"
"[repo].[usp_sync_guid]" <- "[repo].[usp_sync_guid_RepoObjectColumn]"
deactivate "[repo].[usp_sync_guid_RepoObjectColumn]"
"[repo].[usp_main]" <- "[repo].[usp_sync_guid]"
deactivate "[repo].[usp_sync_guid]"
"[repo].[usp_main]" -> "[repo].[usp_update_Referencing_Count]"
activate "[repo].[usp_update_Referencing_Count]"
"[repo].[usp_main]" <- "[repo].[usp_update_Referencing_Count]"
deactivate "[repo].[usp_update_Referencing_Count]"
"[repo].[usp_main]" -> "[repo].[usp_index_inheritance]"
activate "[repo].[usp_index_inheritance]"
"[repo].[usp_index_inheritance]" -> "[repo].[usp_PERSIST_IndexColumn_ReferencedReferencing_HasFullColumnsInReferencing_T]"
activate "[repo].[usp_PERSIST_IndexColumn_ReferencedReferencing_HasFullColumnsInReferencing_T]"
"[repo].[usp_index_inheritance]" <- "[repo].[usp_PERSIST_IndexColumn_ReferencedReferencing_HasFullColumnsInReferencing_T]"
deactivate "[repo].[usp_PERSIST_IndexColumn_ReferencedReferencing_HasFullColumnsInReferencing_T]"
"[repo].[usp_index_inheritance]" -> "[repo].[usp_Index_Settings]"
activate "[repo].[usp_Index_Settings]"
"[repo].[usp_index_inheritance]" <- "[repo].[usp_Index_Settings]"
deactivate "[repo].[usp_Index_Settings]"
"[repo].[usp_main]" <- "[repo].[usp_index_inheritance]"
deactivate "[repo].[usp_index_inheritance]"
"[repo].[usp_main]" -> "[repo].[usp_RepoObjectColumn_update_RepoObjectColumn_column_id]"
activate "[repo].[usp_RepoObjectColumn_update_RepoObjectColumn_column_id]"
"[repo].[usp_main]" <- "[repo].[usp_RepoObjectColumn_update_RepoObjectColumn_column_id]"
deactivate "[repo].[usp_RepoObjectColumn_update_RepoObjectColumn_column_id]"
"[repo].[usp_main]" -> "[repo].[usp_GeneratorUsp_insert_update_persistence]"
activate "[repo].[usp_GeneratorUsp_insert_update_persistence]"
"[repo].[usp_main]" <- "[repo].[usp_GeneratorUsp_insert_update_persistence]"
deactivate "[repo].[usp_GeneratorUsp_insert_update_persistence]"
 <- "[repo].[usp_main]"
deactivate "[repo].[usp_main]"
@enduml

PlantUML version 1.2021.4(Sun Apr 04 08:49:39 GMT 2021)
(GPL source distribution)
Java Runtime: OpenJDK Runtime Environment
JVM: OpenJDK 64-Bit Server VM
Default Encoding: UTF-8
Language: en
Country: US
--></g></svg>