<?xml version="1.0" encoding="UTF-8" standalone="no"?><svg xmlns="http://www.w3.org/2000/svg" xmlns:xlink="http://www.w3.org/1999/xlink" contentScriptType="application/ecmascript" contentStyleType="text/css" height="211px" preserveAspectRatio="none" style="width:531px;height:211px;background:#FFFFFF;" version="1.1" viewBox="0 0 531 211" width="531px" zoomAndPan="magnify"><defs><filter height="300%" id="f1x7rwwdho2slt" width="300%" x="-1" y="-1"><feGaussianBlur result="blurOut" stdDeviation="2.0"/><feColorMatrix in="blurOut" result="blurOut2" type="matrix" values="0 0 0 0 0 0 0 0 0 0 0 0 0 0 0 0 0 0 .4 0"/><feOffset dx="4.0" dy="4.0" in="blurOut2" result="blurOut3"/><feBlend in="SourceGraphic" in2="blurOut3" mode="normal"/></filter></defs><g><text fill="#000000" font-family="sans-serif" font-size="18" lengthAdjust="spacing" textLength="261" x="128.75" y="17.9999">Bracketed line style without label</text><!--MD5=[a7341930b10dc4f5414e3bba4c3f8ca3]
class foo--><rect codeLine="2" fill="#FEFECE" filter="url(#f1x7rwwdho2slt)" height="48" id="foo" style="stroke:#A80036;stroke-width:1.5;" width="47" x="235.5" y="28.5999"/><ellipse cx="250.5" cy="44.5999" fill="#ADD1B2" rx="11" ry="11" style="stroke:#A80036;stroke-width:1.0;"/><path d="M249.8594,48.3811 Q250.6563,48.3811 251.2188,48.1936 Q251.7969,47.9905 252.0313,47.7717 Q252.2813,47.5374 252.5156,47.3499 Q252.7656,47.1467 252.9844,47.1467 Q253.3281,47.1467 253.5781,47.4124 Q253.8438,47.6624 253.8438,47.9905 Q253.8438,48.7249 252.6719,49.4124 Q251.5156,50.0842 249.8125,50.0842 Q247.6563,50.0842 246.2344,48.8186 Q244.8125,47.553 244.8125,45.6155 L244.8125,44.4905 Q244.8125,42.4592 246.1406,41.0842 Q247.4688,39.6936 249.4375,39.6936 Q250.625,39.6936 251.8438,40.2717 L252.0156,40.3499 Q252.3125,39.9436 252.7344,39.9436 Q253.2188,39.9436 253.3906,40.2405 Q253.5781,40.5217 253.5781,41.0686 L253.5781,42.4905 Q253.5781,43.6155 252.7344,43.6155 Q252.4219,43.6155 252.2188,43.4436 Q252.0313,43.2717 251.9844,43.1311 Q251.9531,42.9749 251.9063,42.7092 Q251.7969,42.1936 251.2813,41.8811 Q250.7656,41.5686 250.3125,41.4905 Q249.875,41.3967 249.5,41.3967 Q248.2188,41.3967 247.3594,42.2717 Q246.5156,43.1467 246.5156,44.4905 L246.5156,45.5842 Q246.5156,46.8655 247.4219,47.6311 Q248.3281,48.3811 249.8594,48.3811 Z " fill="#000000"/><text fill="#000000" font-family="sans-serif" font-size="12" lengthAdjust="spacing" textLength="15" x="264.5" y="49.3999">foo</text><line style="stroke:#A80036;stroke-width:1.5;" x1="236.5" x2="281.5" y1="60.5999" y2="60.5999"/><line style="stroke:#A80036;stroke-width:1.5;" x1="236.5" x2="281.5" y1="68.5999" y2="68.5999"/><!--MD5=[2217d9c190fa51e57760702350f4fec1]
class bar--><rect codeLine="3" fill="#FEFECE" filter="url(#f1x7rwwdho2slt)" height="48" id="bar" style="stroke:#A80036;stroke-width:1.5;" width="50" x="7" y="143.0999"/><ellipse cx="22" cy="159.0999" fill="#ADD1B2" rx="11" ry="11" style="stroke:#A80036;stroke-width:1.0;"/><path d="M21.3594,162.8811 Q22.1563,162.8811 22.7188,162.6936 Q23.2969,162.4905 23.5313,162.2717 Q23.7813,162.0374 24.0156,161.8499 Q24.2656,161.6467 24.4844,161.6467 Q24.8281,161.6467 25.0781,161.9124 Q25.3438,162.1624 25.3438,162.4905 Q25.3438,163.2249 24.1719,163.9124 Q23.0156,164.5842 21.3125,164.5842 Q19.1563,164.5842 17.7344,163.3186 Q16.3125,162.053 16.3125,160.1155 L16.3125,158.9905 Q16.3125,156.9592 17.6406,155.5842 Q18.9688,154.1936 20.9375,154.1936 Q22.125,154.1936 23.3438,154.7717 L23.5156,154.8499 Q23.8125,154.4436 24.2344,154.4436 Q24.7188,154.4436 24.8906,154.7405 Q25.0781,155.0217 25.0781,155.5686 L25.0781,156.9905 Q25.0781,158.1155 24.2344,158.1155 Q23.9219,158.1155 23.7188,157.9436 Q23.5313,157.7717 23.4844,157.6311 Q23.4531,157.4749 23.4063,157.2092 Q23.2969,156.6936 22.7813,156.3811 Q22.2656,156.0686 21.8125,155.9905 Q21.375,155.8967 21,155.8967 Q19.7188,155.8967 18.8594,156.7717 Q18.0156,157.6467 18.0156,158.9905 L18.0156,160.0842 Q18.0156,161.3655 18.9219,162.1311 Q19.8281,162.8811 21.3594,162.8811 Z " fill="#000000"/><text fill="#000000" font-family="sans-serif" font-size="12" lengthAdjust="spacing" textLength="18" x="36" y="163.8999">bar</text><line style="stroke:#A80036;stroke-width:1.5;" x1="8" x2="56" y1="175.0999" y2="175.0999"/><line style="stroke:#A80036;stroke-width:1.5;" x1="8" x2="56" y1="183.0999" y2="183.0999"/><!--MD5=[4a01905bf18081b86185c52343d9094f]
class bar1--><rect fill="#FEFECE" filter="url(#f1x7rwwdho2slt)" height="61.1999" id="bar1" style="stroke:#A80036;stroke-width:1.5;" width="57" x="92.5" y="136.5999"/><ellipse cx="107.5" cy="152.5999" fill="#ADD1B2" rx="11" ry="11" style="stroke:#A80036;stroke-width:1.0;"/><path d="M106.8594,156.3811 Q107.6563,156.3811 108.2188,156.1936 Q108.7969,155.9905 109.0313,155.7717 Q109.2813,155.5374 109.5156,155.3499 Q109.7656,155.1467 109.9844,155.1467 Q110.3281,155.1467 110.5781,155.4124 Q110.8438,155.6624 110.8438,155.9905 Q110.8438,156.7249 109.6719,157.4124 Q108.5156,158.0842 106.8125,158.0842 Q104.6563,158.0842 103.2344,156.8186 Q101.8125,155.553 101.8125,153.6155 L101.8125,152.4905 Q101.8125,150.4592 103.1406,149.0842 Q104.4688,147.6936 106.4375,147.6936 Q107.625,147.6936 108.8438,148.2717 L109.0156,148.3499 Q109.3125,147.9436 109.7344,147.9436 Q110.2188,147.9436 110.3906,148.2405 Q110.5781,148.5217 110.5781,149.0686 L110.5781,150.4905 Q110.5781,151.6155 109.7344,151.6155 Q109.4219,151.6155 109.2188,151.4436 Q109.0313,151.2717 108.9844,151.1311 Q108.9531,150.9749 108.9063,150.7092 Q108.7969,150.1936 108.2813,149.8811 Q107.7656,149.5686 107.3125,149.4905 Q106.875,149.3967 106.5,149.3967 Q105.2188,149.3967 104.3594,150.2717 Q103.5156,151.1467 103.5156,152.4905 L103.5156,153.5842 Q103.5156,154.8655 104.4219,155.6311 Q105.3281,156.3811 106.8594,156.3811 Z " fill="#000000"/><text fill="#000000" font-family="sans-serif" font-size="12" lengthAdjust="spacing" textLength="25" x="121.5" y="157.3999">bar1</text><line style="stroke:#A80036;stroke-width:1.5;" x1="93.5" x2="148.5" y1="168.5999" y2="168.5999"/><text fill="#000000" font-family="sans-serif" font-size="11" lengthAdjust="spacing" textLength="26" x="98.5" y="183.5998">[bold]</text><line style="stroke:#A80036;stroke-width:1.5;" x1="93.5" x2="148.5" y1="189.7998" y2="189.7998"/><!--MD5=[4189a83cf503f5d4a3dfa4b8319fd212]
class bar2--><rect fill="#FEFECE" filter="url(#f1x7rwwdho2slt)" height="61.1999" id="bar2" style="stroke:#A80036;stroke-width:1.5;" width="57" x="184.5" y="136.5999"/><ellipse cx="199.5" cy="152.5999" fill="#ADD1B2" rx="11" ry="11" style="stroke:#A80036;stroke-width:1.0;"/><path d="M198.8594,156.3811 Q199.6563,156.3811 200.2188,156.1936 Q200.7969,155.9905 201.0313,155.7717 Q201.2813,155.5374 201.5156,155.3499 Q201.7656,155.1467 201.9844,155.1467 Q202.3281,155.1467 202.5781,155.4124 Q202.8438,155.6624 202.8438,155.9905 Q202.8438,156.7249 201.6719,157.4124 Q200.5156,158.0842 198.8125,158.0842 Q196.6563,158.0842 195.2344,156.8186 Q193.8125,155.553 193.8125,153.6155 L193.8125,152.4905 Q193.8125,150.4592 195.1406,149.0842 Q196.4688,147.6936 198.4375,147.6936 Q199.625,147.6936 200.8438,148.2717 L201.0156,148.3499 Q201.3125,147.9436 201.7344,147.9436 Q202.2188,147.9436 202.3906,148.2405 Q202.5781,148.5217 202.5781,149.0686 L202.5781,150.4905 Q202.5781,151.6155 201.7344,151.6155 Q201.4219,151.6155 201.2188,151.4436 Q201.0313,151.2717 200.9844,151.1311 Q200.9531,150.9749 200.9063,150.7092 Q200.7969,150.1936 200.2813,149.8811 Q199.7656,149.5686 199.3125,149.4905 Q198.875,149.3967 198.5,149.3967 Q197.2188,149.3967 196.3594,150.2717 Q195.5156,151.1467 195.5156,152.4905 L195.5156,153.5842 Q195.5156,154.8655 196.4219,155.6311 Q197.3281,156.3811 198.8594,156.3811 Z " fill="#000000"/><text fill="#000000" font-family="sans-serif" font-size="12" lengthAdjust="spacing" textLength="25" x="213.5" y="157.3999">bar2</text><line style="stroke:#A80036;stroke-width:1.5;" x1="185.5" x2="240.5" y1="168.5999" y2="168.5999"/><text fill="#000000" font-family="sans-serif" font-size="11" lengthAdjust="spacing" textLength="41" x="190.5" y="183.5998">[dashed]</text><line style="stroke:#A80036;stroke-width:1.5;" x1="185.5" x2="240.5" y1="189.7998" y2="189.7998"/><!--MD5=[fbbb759e62081211aa9e4b16f5f5dcf9]
class bar3--><rect fill="#FEFECE" filter="url(#f1x7rwwdho2slt)" height="61.1999" id="bar3" style="stroke:#A80036;stroke-width:1.5;" width="57" x="276.5" y="136.5999"/><ellipse cx="291.5" cy="152.5999" fill="#ADD1B2" rx="11" ry="11" style="stroke:#A80036;stroke-width:1.0;"/><path d="M290.8594,156.3811 Q291.6563,156.3811 292.2188,156.1936 Q292.7969,155.9905 293.0313,155.7717 Q293.2813,155.5374 293.5156,155.3499 Q293.7656,155.1467 293.9844,155.1467 Q294.3281,155.1467 294.5781,155.4124 Q294.8438,155.6624 294.8438,155.9905 Q294.8438,156.7249 293.6719,157.4124 Q292.5156,158.0842 290.8125,158.0842 Q288.6563,158.0842 287.2344,156.8186 Q285.8125,155.553 285.8125,153.6155 L285.8125,152.4905 Q285.8125,150.4592 287.1406,149.0842 Q288.4688,147.6936 290.4375,147.6936 Q291.625,147.6936 292.8438,148.2717 L293.0156,148.3499 Q293.3125,147.9436 293.7344,147.9436 Q294.2188,147.9436 294.3906,148.2405 Q294.5781,148.5217 294.5781,149.0686 L294.5781,150.4905 Q294.5781,151.6155 293.7344,151.6155 Q293.4219,151.6155 293.2188,151.4436 Q293.0313,151.2717 292.9844,151.1311 Q292.9531,150.9749 292.9063,150.7092 Q292.7969,150.1936 292.2813,149.8811 Q291.7656,149.5686 291.3125,149.4905 Q290.875,149.3967 290.5,149.3967 Q289.2188,149.3967 288.3594,150.2717 Q287.5156,151.1467 287.5156,152.4905 L287.5156,153.5842 Q287.5156,154.8655 288.4219,155.6311 Q289.3281,156.3811 290.8594,156.3811 Z " fill="#000000"/><text fill="#000000" font-family="sans-serif" font-size="12" lengthAdjust="spacing" textLength="25" x="305.5" y="157.3999">bar3</text><line style="stroke:#A80036;stroke-width:1.5;" x1="277.5" x2="332.5" y1="168.5999" y2="168.5999"/><text fill="#000000" font-family="sans-serif" font-size="11" lengthAdjust="spacing" textLength="36" x="282.5" y="183.5998">[dotted]</text><line style="stroke:#A80036;stroke-width:1.5;" x1="277.5" x2="332.5" y1="189.7998" y2="189.7998"/><!--MD5=[8b54cae56fc5d5f50281afaf1df4a66d]
class bar4--><rect fill="#FEFECE" filter="url(#f1x7rwwdho2slt)" height="61.1999" id="bar4" style="stroke:#A80036;stroke-width:1.5;" width="57" x="368.5" y="136.5999"/><ellipse cx="383.5" cy="152.5999" fill="#ADD1B2" rx="11" ry="11" style="stroke:#A80036;stroke-width:1.0;"/><path d="M382.8594,156.3811 Q383.6563,156.3811 384.2188,156.1936 Q384.7969,155.9905 385.0313,155.7717 Q385.2813,155.5374 385.5156,155.3499 Q385.7656,155.1467 385.9844,155.1467 Q386.3281,155.1467 386.5781,155.4124 Q386.8438,155.6624 386.8438,155.9905 Q386.8438,156.7249 385.6719,157.4124 Q384.5156,158.0842 382.8125,158.0842 Q380.6563,158.0842 379.2344,156.8186 Q377.8125,155.553 377.8125,153.6155 L377.8125,152.4905 Q377.8125,150.4592 379.1406,149.0842 Q380.4688,147.6936 382.4375,147.6936 Q383.625,147.6936 384.8438,148.2717 L385.0156,148.3499 Q385.3125,147.9436 385.7344,147.9436 Q386.2188,147.9436 386.3906,148.2405 Q386.5781,148.5217 386.5781,149.0686 L386.5781,150.4905 Q386.5781,151.6155 385.7344,151.6155 Q385.4219,151.6155 385.2188,151.4436 Q385.0313,151.2717 384.9844,151.1311 Q384.9531,150.9749 384.9063,150.7092 Q384.7969,150.1936 384.2813,149.8811 Q383.7656,149.5686 383.3125,149.4905 Q382.875,149.3967 382.5,149.3967 Q381.2188,149.3967 380.3594,150.2717 Q379.5156,151.1467 379.5156,152.4905 L379.5156,153.5842 Q379.5156,154.8655 380.4219,155.6311 Q381.3281,156.3811 382.8594,156.3811 Z " fill="#000000"/><text fill="#000000" font-family="sans-serif" font-size="12" lengthAdjust="spacing" textLength="25" x="397.5" y="157.3999">bar4</text><line style="stroke:#A80036;stroke-width:1.5;" x1="369.5" x2="424.5" y1="168.5999" y2="168.5999"/><text fill="#000000" font-family="sans-serif" font-size="11" lengthAdjust="spacing" textLength="38" x="374.5" y="183.5998">[hidden]</text><line style="stroke:#A80036;stroke-width:1.5;" x1="369.5" x2="424.5" y1="189.7998" y2="189.7998"/><!--MD5=[f2ee4d1f4a3d174fed2569fe76aec5b5]
class bar5--><rect fill="#FEFECE" filter="url(#f1x7rwwdho2slt)" height="61.1999" id="bar5" style="stroke:#A80036;stroke-width:1.5;" width="57" x="460.5" y="136.5999"/><ellipse cx="475.5" cy="152.5999" fill="#ADD1B2" rx="11" ry="11" style="stroke:#A80036;stroke-width:1.0;"/><path d="M474.8594,156.3811 Q475.6563,156.3811 476.2188,156.1936 Q476.7969,155.9905 477.0313,155.7717 Q477.2813,155.5374 477.5156,155.3499 Q477.7656,155.1467 477.9844,155.1467 Q478.3281,155.1467 478.5781,155.4124 Q478.8438,155.6624 478.8438,155.9905 Q478.8438,156.7249 477.6719,157.4124 Q476.5156,158.0842 474.8125,158.0842 Q472.6563,158.0842 471.2344,156.8186 Q469.8125,155.553 469.8125,153.6155 L469.8125,152.4905 Q469.8125,150.4592 471.1406,149.0842 Q472.4688,147.6936 474.4375,147.6936 Q475.625,147.6936 476.8438,148.2717 L477.0156,148.3499 Q477.3125,147.9436 477.7344,147.9436 Q478.2188,147.9436 478.3906,148.2405 Q478.5781,148.5217 478.5781,149.0686 L478.5781,150.4905 Q478.5781,151.6155 477.7344,151.6155 Q477.4219,151.6155 477.2188,151.4436 Q477.0313,151.2717 476.9844,151.1311 Q476.9531,150.9749 476.9063,150.7092 Q476.7969,150.1936 476.2813,149.8811 Q475.7656,149.5686 475.3125,149.4905 Q474.875,149.3967 474.5,149.3967 Q473.2188,149.3967 472.3594,150.2717 Q471.5156,151.1467 471.5156,152.4905 L471.5156,153.5842 Q471.5156,154.8655 472.4219,155.6311 Q473.3281,156.3811 474.8594,156.3811 Z " fill="#000000"/><text fill="#000000" font-family="sans-serif" font-size="12" lengthAdjust="spacing" textLength="25" x="489.5" y="157.3999">bar5</text><line style="stroke:#A80036;stroke-width:1.5;" x1="461.5" x2="516.5" y1="168.5999" y2="168.5999"/><text fill="#000000" font-family="sans-serif" font-size="11" lengthAdjust="spacing" textLength="28" x="466.5" y="183.5998">[plain]</text><line style="stroke:#A80036;stroke-width:1.5;" x1="461.5" x2="516.5" y1="189.7998" y2="189.7998"/><!--MD5=[59d9d0f196456f6685b04666c1f4428d]
link foo to bar--><path codeLine="10" d="M235.4,62.6699 C199.75,76.7299 130.43,105.4099 75,136.5999 C70.62,139.0599 66.12,141.8499 61.76,144.6899 " fill="none" id="foo-to-bar" style="stroke:#A80036;stroke-width:1.0;"/><polygon fill="#A80036" points="57.45,147.5499,67.1599,145.9011,61.6146,144.783,62.7328,139.2377,57.45,147.5499" style="stroke:#A80036;stroke-width:1.0;"/><!--MD5=[6e019fa8988bb7abdd854568fc8a58c9]
link foo to bar1--><path codeLine="11" d="M235.28,72.9399 C212.75,91.3099 178.69,119.0699 153.61,139.5199 " fill="none" id="foo-to-bar1" style="stroke:#A80036;stroke-width:2.0;"/><polygon fill="#A80036" points="149.66,142.7299,159.157,140.1208,153.5279,139.5613,154.0874,133.9322,149.66,142.7299" style="stroke:#A80036;stroke-width:2.0;"/><!--MD5=[0ec1c50afa1888dcf933e6ec150986a8]
link foo to bar2--><path codeLine="12" d="M249.58,76.6399 C243.14,92.3899 234.49,113.5399 227.22,131.3299 " fill="none" id="foo-to-bar2" style="stroke:#A80036;stroke-width:1.0;stroke-dasharray:7.0,7.0;"/><polygon fill="#A80036" points="225.21,136.2499,232.31,129.4242,227.0965,131.6194,224.9013,126.4058,225.21,136.2499" style="stroke:#A80036;stroke-width:1.0;"/><!--MD5=[ff433615537a19186f5e8f719058367a]
link foo to bar3--><path codeLine="13" d="M268.42,76.6399 C274.86,92.3899 283.51,113.5399 290.78,131.3299 " fill="none" id="foo-to-bar3" style="stroke:#A80036;stroke-width:1.0;stroke-dasharray:1.0,3.0;"/><polygon fill="#A80036" points="292.79,136.2499,293.0987,126.4058,290.9035,131.6194,285.69,129.4242,292.79,136.2499" style="stroke:#A80036;stroke-width:1.0;"/><!--MD5=[9d0eaf26b6b6d021803530be274f9b80]
link foo to bar4--><!--MD5=[3433752a20dea8a43a5eb4ca04406e41]
link foo to bar5--><path codeLine="15" d="M282.77,63.0099 C318.35,77.3899 387.24,106.3599 443,136.5999 C447.25,138.9099 451.64,141.4699 455.93,144.0799 " fill="none" id="foo-to-bar5" style="stroke:#A80036;stroke-width:1.0;"/><polygon fill="#A80036" points="460.19,146.7199,454.6459,138.5797,455.9396,144.0866,450.4327,145.3803,460.19,146.7199" style="stroke:#A80036;stroke-width:1.0;"/><!--MD5=[b4ab97e0dca7649a71737b411fc8befb]
@startuml
title Bracketed line style without label
class foo
class bar
bar1 : [bold]
bar2 : [dashed]
bar3 : [dotted]
bar4 : [hidden]
bar5 : [plain]

foo - -> bar
foo -[bold]-> bar1
foo -[dashed]-> bar2
foo -[dotted]-> bar3
foo -[hidden]-> bar4
foo -[plain]-> bar5
@enduml

PlantUML version 1.2021.8(Sat Jun 26 08:20:59 GMT 2021)
(GPL source distribution)
Java Runtime: OpenJDK Runtime Environment
JVM: OpenJDK 64-Bit Server VM
Default Encoding: UTF-8
Language: en
Country: US
--></g></svg>