<?xml version="1.0" encoding="UTF-8" standalone="no"?><svg xmlns="http://www.w3.org/2000/svg" xmlns:xlink="http://www.w3.org/1999/xlink" contentScriptType="application/ecmascript" contentStyleType="text/css" height="162px" preserveAspectRatio="none" style="width:478px;height:162px;background:#FFFFFF;" version="1.1" viewBox="0 0 478 162" width="478px" zoomAndPan="magnify"><defs/><g><text fill="#000000" font-family="sans-serif" font-size="18" lengthAdjust="spacing" textLength="333" x="66" y="17.9999">DataHandwerk Development - Containers</text><!--MD5=[92de769956cae57c6906e1d6fb1d9e98]
cluster DataHandwerk Development\n[Software System]--><polygon fill="#FFFFFF" points="16,27.5999,216,27.5999,223,67.1997,461,67.1997,461,155.5999,16,155.5999,16,27.5999" style="stroke:#000000;stroke-width:1.5;"/><line style="stroke:#000000;stroke-width:1.5;" x1="16" x2="223" y1="67.1997" y2="67.1997"/><text fill="#000000" font-family="sans-serif" font-size="14" font-weight="bold" lengthAdjust="spacing" textLength="194" x="20" y="43.5998">DataHandwerk Development</text><text fill="#000000" font-family="sans-serif" font-size="14" font-weight="bold" lengthAdjust="spacing" textLength="127" x="53.5" y="60.3997">[Software System]</text><!--MD5=[dafe4e49f8985c7f48f2f8894e87753e]
entity 34--><path d="M279,89.5999 C279,79.5999 362,79.5999 362,79.5999 C362,79.5999 445,79.5999 445,89.5999 L445,129.7999 C445,139.7999 362,139.7999 362,139.7999 C362,139.7999 279,139.7999 279,129.7999 L279,89.5999 " fill="#DDDDDD" style="stroke:#DDDDDD;stroke-width:1.5;"/><path d="M279,89.5999 C279,99.5999 362,99.5999 362,99.5999 C362,99.5999 445,99.5999 445,89.5999 " fill="none" style="stroke:#DDDDDD;stroke-width:1.5;"/><text fill="#000000" font-family="sans-serif" font-size="16" font-weight="bold" lengthAdjust="spacing" textLength="146" x="289" y="119.5999">DWH db (Project A)</text><text fill="#000000" font-family="sans-serif" font-size="10" lengthAdjust="spacing" textLength="92" x="316" y="132.7999">[Container: Database]</text><!--MD5=[633575d3a0ba89db5f85654fe219f5a1]
entity 33--><path d="M32.5,89.5999 C32.5,79.5999 138,79.5999 138,79.5999 C138,79.5999 243.5,79.5999 243.5,89.5999 L243.5,129.7999 C243.5,139.7999 138,139.7999 138,139.7999 C138,139.7999 32.5,139.7999 32.5,129.7999 L32.5,89.5999 " fill="#DDDDDD" style="stroke:#DDDDDD;stroke-width:1.5;"/><path d="M32.5,89.5999 C32.5,99.5999 138,99.5999 138,99.5999 C138,99.5999 243.5,99.5999 243.5,89.5999 " fill="none" style="stroke:#DDDDDD;stroke-width:1.5;"/><text fill="#000000" font-family="sans-serif" font-size="16" font-weight="bold" lengthAdjust="spacing" textLength="191" x="42.5" y="119.5999">Repository db (Project A)</text><text fill="#000000" font-family="sans-serif" font-size="10" lengthAdjust="spacing" textLength="92" x="92" y="132.7999">[Container: Database]</text><!--MD5=[f85d4e4985c8bdec49371b2b6db5c028]
@startuml
title DataHandwerk Development - Containers

skinparam {
  shadowing false
  arrowFontSize 10
  defaultTextAlignment center
  wrapWidth 200
  maxMessageSize 100
}
hide stereotype
top to bottom direction
skinparam database<<33>> {
  BackgroundColor #dddddd
  FontColor #000000
  BorderColor #dddddd
}
skinparam database<<34>> {
  BackgroundColor #dddddd
  FontColor #000000
  BorderColor #dddddd
}
package "DataHandwerk Development\n[Software System]" {
  database "==DWH db (Project A)\n<size:10>[Container: Database]</size>" <<34>> as 34
  database "==Repository db (Project A)\n<size:10>[Container: Database]</size>" <<33>> as 33
}
@enduml

PlantUML version 1.2021.10(Mon Aug 30 13:43:48 GMT 2021)
(GPL source distribution)
Java Runtime: OpenJDK Runtime Environment
JVM: OpenJDK 64-Bit Server VM
Default Encoding: UTF-8
Language: en
Country: US
--></g></svg>