<?xml version="1.0" encoding="UTF-8" standalone="no"?><svg xmlns="http://www.w3.org/2000/svg" xmlns:xlink="http://www.w3.org/1999/xlink" contentScriptType="application/ecmascript" contentStyleType="text/css" height="177px" preserveAspectRatio="none" style="width:426px;height:177px;background:#FFFFFF;" version="1.1" viewBox="0 0 426 177" width="426px" zoomAndPan="magnify"><defs><filter height="300%" id="fd1o5ssdzg7uv" width="300%" x="-1" y="-1"><feGaussianBlur result="blurOut" stdDeviation="2.0"/><feColorMatrix in="blurOut" result="blurOut2" type="matrix" values="0 0 0 0 0 0 0 0 0 0 0 0 0 0 0 0 0 0 .4 0"/><feOffset dx="4.0" dy="4.0" in="blurOut2" result="blurOut3"/><feBlend in="SourceGraphic" in2="blurOut3" mode="normal"/></filter></defs><g><!--MD5=[6178f88bbe623bb523cef0440b7d7572]
class Entity01--><rect fill="#FEFECE" filter="url(#fd1o5ssdzg7uv)" height="48" id="Entity01" style="stroke:#A80036;stroke-width:1.5;" width="75" x="7" y="7"/><ellipse cx="22" cy="23" fill="#ADD1B2" rx="11" ry="11" style="stroke:#A80036;stroke-width:1.0;"/><path d="M21.3594,26.7813 Q22.1563,26.7813 22.7188,26.5938 Q23.2969,26.3906 23.5313,26.1719 Q23.7813,25.9375 24.0156,25.75 Q24.2656,25.5469 24.4844,25.5469 Q24.8281,25.5469 25.0781,25.8125 Q25.3438,26.0625 25.3438,26.3906 Q25.3438,27.125 24.1719,27.8125 Q23.0156,28.4844 21.3125,28.4844 Q19.1563,28.4844 17.7344,27.2188 Q16.3125,25.9531 16.3125,24.0156 L16.3125,22.8906 Q16.3125,20.8594 17.6406,19.4844 Q18.9688,18.0938 20.9375,18.0938 Q22.125,18.0938 23.3438,18.6719 L23.5156,18.75 Q23.8125,18.3438 24.2344,18.3438 Q24.7188,18.3438 24.8906,18.6406 Q25.0781,18.9219 25.0781,19.4688 L25.0781,20.8906 Q25.0781,22.0156 24.2344,22.0156 Q23.9219,22.0156 23.7188,21.8438 Q23.5313,21.6719 23.4844,21.5313 Q23.4531,21.375 23.4063,21.1094 Q23.2969,20.5938 22.7813,20.2813 Q22.2656,19.9688 21.8125,19.8906 Q21.375,19.7969 21,19.7969 Q19.7188,19.7969 18.8594,20.6719 Q18.0156,21.5469 18.0156,22.8906 L18.0156,23.9844 Q18.0156,25.2656 18.9219,26.0313 Q19.8281,26.7813 21.3594,26.7813 Z " fill="#000000"/><text fill="#000000" font-family="sans-serif" font-size="12" lengthAdjust="spacing" textLength="43" x="36" y="27.8">Entity01</text><line style="stroke:#A80036;stroke-width:1.5;" x1="8" x2="81" y1="39" y2="39"/><line style="stroke:#A80036;stroke-width:1.5;" x1="8" x2="81" y1="47" y2="47"/><!--MD5=[f4074c741a004a9c45fd03a31f8b9b03]
class Entity02--><rect fill="#FEFECE" filter="url(#fd1o5ssdzg7uv)" height="48" id="Entity02" style="stroke:#A80036;stroke-width:1.5;" width="75" x="7" y="115"/><ellipse cx="22" cy="131" fill="#ADD1B2" rx="11" ry="11" style="stroke:#A80036;stroke-width:1.0;"/><path d="M21.3594,134.7813 Q22.1563,134.7813 22.7188,134.5938 Q23.2969,134.3906 23.5313,134.1719 Q23.7813,133.9375 24.0156,133.75 Q24.2656,133.5469 24.4844,133.5469 Q24.8281,133.5469 25.0781,133.8125 Q25.3438,134.0625 25.3438,134.3906 Q25.3438,135.125 24.1719,135.8125 Q23.0156,136.4844 21.3125,136.4844 Q19.1563,136.4844 17.7344,135.2188 Q16.3125,133.9531 16.3125,132.0156 L16.3125,130.8906 Q16.3125,128.8594 17.6406,127.4844 Q18.9688,126.0938 20.9375,126.0938 Q22.125,126.0938 23.3438,126.6719 L23.5156,126.75 Q23.8125,126.3438 24.2344,126.3438 Q24.7188,126.3438 24.8906,126.6406 Q25.0781,126.9219 25.0781,127.4688 L25.0781,128.8906 Q25.0781,130.0156 24.2344,130.0156 Q23.9219,130.0156 23.7188,129.8438 Q23.5313,129.6719 23.4844,129.5313 Q23.4531,129.375 23.4063,129.1094 Q23.2969,128.5938 22.7813,128.2813 Q22.2656,127.9688 21.8125,127.8906 Q21.375,127.7969 21,127.7969 Q19.7188,127.7969 18.8594,128.6719 Q18.0156,129.5469 18.0156,130.8906 L18.0156,131.9844 Q18.0156,133.2656 18.9219,134.0313 Q19.8281,134.7813 21.3594,134.7813 Z " fill="#000000"/><text fill="#000000" font-family="sans-serif" font-size="12" lengthAdjust="spacing" textLength="43" x="36" y="135.8">Entity02</text><line style="stroke:#A80036;stroke-width:1.5;" x1="8" x2="81" y1="147" y2="147"/><line style="stroke:#A80036;stroke-width:1.5;" x1="8" x2="81" y1="155" y2="155"/><!--MD5=[bc1ecf3a155b5be2b6a42d90148215d2]
class Entity03--><rect fill="#FEFECE" filter="url(#fd1o5ssdzg7uv)" height="48" id="Entity03" style="stroke:#A80036;stroke-width:1.5;" width="75" x="117" y="7"/><ellipse cx="132" cy="23" fill="#ADD1B2" rx="11" ry="11" style="stroke:#A80036;stroke-width:1.0;"/><path d="M131.3594,26.7813 Q132.1563,26.7813 132.7188,26.5938 Q133.2969,26.3906 133.5313,26.1719 Q133.7813,25.9375 134.0156,25.75 Q134.2656,25.5469 134.4844,25.5469 Q134.8281,25.5469 135.0781,25.8125 Q135.3438,26.0625 135.3438,26.3906 Q135.3438,27.125 134.1719,27.8125 Q133.0156,28.4844 131.3125,28.4844 Q129.1563,28.4844 127.7344,27.2188 Q126.3125,25.9531 126.3125,24.0156 L126.3125,22.8906 Q126.3125,20.8594 127.6406,19.4844 Q128.9688,18.0938 130.9375,18.0938 Q132.125,18.0938 133.3438,18.6719 L133.5156,18.75 Q133.8125,18.3438 134.2344,18.3438 Q134.7188,18.3438 134.8906,18.6406 Q135.0781,18.9219 135.0781,19.4688 L135.0781,20.8906 Q135.0781,22.0156 134.2344,22.0156 Q133.9219,22.0156 133.7188,21.8438 Q133.5313,21.6719 133.4844,21.5313 Q133.4531,21.375 133.4063,21.1094 Q133.2969,20.5938 132.7813,20.2813 Q132.2656,19.9688 131.8125,19.8906 Q131.375,19.7969 131,19.7969 Q129.7188,19.7969 128.8594,20.6719 Q128.0156,21.5469 128.0156,22.8906 L128.0156,23.9844 Q128.0156,25.2656 128.9219,26.0313 Q129.8281,26.7813 131.3594,26.7813 Z " fill="#000000"/><text fill="#000000" font-family="sans-serif" font-size="12" lengthAdjust="spacing" textLength="43" x="146" y="27.8">Entity03</text><line style="stroke:#A80036;stroke-width:1.5;" x1="118" x2="191" y1="39" y2="39"/><line style="stroke:#A80036;stroke-width:1.5;" x1="118" x2="191" y1="47" y2="47"/><!--MD5=[2d2d2c8cadf0cbcf723339c97359309c]
class Entity04--><rect fill="#FEFECE" filter="url(#fd1o5ssdzg7uv)" height="48" id="Entity04" style="stroke:#A80036;stroke-width:1.5;" width="75" x="117" y="115"/><ellipse cx="132" cy="131" fill="#ADD1B2" rx="11" ry="11" style="stroke:#A80036;stroke-width:1.0;"/><path d="M131.3594,134.7813 Q132.1563,134.7813 132.7188,134.5938 Q133.2969,134.3906 133.5313,134.1719 Q133.7813,133.9375 134.0156,133.75 Q134.2656,133.5469 134.4844,133.5469 Q134.8281,133.5469 135.0781,133.8125 Q135.3438,134.0625 135.3438,134.3906 Q135.3438,135.125 134.1719,135.8125 Q133.0156,136.4844 131.3125,136.4844 Q129.1563,136.4844 127.7344,135.2188 Q126.3125,133.9531 126.3125,132.0156 L126.3125,130.8906 Q126.3125,128.8594 127.6406,127.4844 Q128.9688,126.0938 130.9375,126.0938 Q132.125,126.0938 133.3438,126.6719 L133.5156,126.75 Q133.8125,126.3438 134.2344,126.3438 Q134.7188,126.3438 134.8906,126.6406 Q135.0781,126.9219 135.0781,127.4688 L135.0781,128.8906 Q135.0781,130.0156 134.2344,130.0156 Q133.9219,130.0156 133.7188,129.8438 Q133.5313,129.6719 133.4844,129.5313 Q133.4531,129.375 133.4063,129.1094 Q133.2969,128.5938 132.7813,128.2813 Q132.2656,127.9688 131.8125,127.8906 Q131.375,127.7969 131,127.7969 Q129.7188,127.7969 128.8594,128.6719 Q128.0156,129.5469 128.0156,130.8906 L128.0156,131.9844 Q128.0156,133.2656 128.9219,134.0313 Q129.8281,134.7813 131.3594,134.7813 Z " fill="#000000"/><text fill="#000000" font-family="sans-serif" font-size="12" lengthAdjust="spacing" textLength="43" x="146" y="135.8">Entity04</text><line style="stroke:#A80036;stroke-width:1.5;" x1="118" x2="191" y1="147" y2="147"/><line style="stroke:#A80036;stroke-width:1.5;" x1="118" x2="191" y1="155" y2="155"/><!--MD5=[df017a8854864e8c7519c60f4c6c8bea]
class Entity05--><rect fill="#FEFECE" filter="url(#fd1o5ssdzg7uv)" height="48" id="Entity05" style="stroke:#A80036;stroke-width:1.5;" width="75" x="227" y="7"/><ellipse cx="242" cy="23" fill="#ADD1B2" rx="11" ry="11" style="stroke:#A80036;stroke-width:1.0;"/><path d="M241.3594,26.7813 Q242.1563,26.7813 242.7188,26.5938 Q243.2969,26.3906 243.5313,26.1719 Q243.7813,25.9375 244.0156,25.75 Q244.2656,25.5469 244.4844,25.5469 Q244.8281,25.5469 245.0781,25.8125 Q245.3438,26.0625 245.3438,26.3906 Q245.3438,27.125 244.1719,27.8125 Q243.0156,28.4844 241.3125,28.4844 Q239.1563,28.4844 237.7344,27.2188 Q236.3125,25.9531 236.3125,24.0156 L236.3125,22.8906 Q236.3125,20.8594 237.6406,19.4844 Q238.9688,18.0938 240.9375,18.0938 Q242.125,18.0938 243.3438,18.6719 L243.5156,18.75 Q243.8125,18.3438 244.2344,18.3438 Q244.7188,18.3438 244.8906,18.6406 Q245.0781,18.9219 245.0781,19.4688 L245.0781,20.8906 Q245.0781,22.0156 244.2344,22.0156 Q243.9219,22.0156 243.7188,21.8438 Q243.5313,21.6719 243.4844,21.5313 Q243.4531,21.375 243.4063,21.1094 Q243.2969,20.5938 242.7813,20.2813 Q242.2656,19.9688 241.8125,19.8906 Q241.375,19.7969 241,19.7969 Q239.7188,19.7969 238.8594,20.6719 Q238.0156,21.5469 238.0156,22.8906 L238.0156,23.9844 Q238.0156,25.2656 238.9219,26.0313 Q239.8281,26.7813 241.3594,26.7813 Z " fill="#000000"/><text fill="#000000" font-family="sans-serif" font-size="12" lengthAdjust="spacing" textLength="43" x="256" y="27.8">Entity05</text><line style="stroke:#A80036;stroke-width:1.5;" x1="228" x2="301" y1="39" y2="39"/><line style="stroke:#A80036;stroke-width:1.5;" x1="228" x2="301" y1="47" y2="47"/><!--MD5=[e188ef918634b4e3675ccb46cc0e364c]
class Entity06--><rect fill="#FEFECE" filter="url(#fd1o5ssdzg7uv)" height="48" id="Entity06" style="stroke:#A80036;stroke-width:1.5;" width="75" x="227" y="115"/><ellipse cx="242" cy="131" fill="#ADD1B2" rx="11" ry="11" style="stroke:#A80036;stroke-width:1.0;"/><path d="M241.3594,134.7813 Q242.1563,134.7813 242.7188,134.5938 Q243.2969,134.3906 243.5313,134.1719 Q243.7813,133.9375 244.0156,133.75 Q244.2656,133.5469 244.4844,133.5469 Q244.8281,133.5469 245.0781,133.8125 Q245.3438,134.0625 245.3438,134.3906 Q245.3438,135.125 244.1719,135.8125 Q243.0156,136.4844 241.3125,136.4844 Q239.1563,136.4844 237.7344,135.2188 Q236.3125,133.9531 236.3125,132.0156 L236.3125,130.8906 Q236.3125,128.8594 237.6406,127.4844 Q238.9688,126.0938 240.9375,126.0938 Q242.125,126.0938 243.3438,126.6719 L243.5156,126.75 Q243.8125,126.3438 244.2344,126.3438 Q244.7188,126.3438 244.8906,126.6406 Q245.0781,126.9219 245.0781,127.4688 L245.0781,128.8906 Q245.0781,130.0156 244.2344,130.0156 Q243.9219,130.0156 243.7188,129.8438 Q243.5313,129.6719 243.4844,129.5313 Q243.4531,129.375 243.4063,129.1094 Q243.2969,128.5938 242.7813,128.2813 Q242.2656,127.9688 241.8125,127.8906 Q241.375,127.7969 241,127.7969 Q239.7188,127.7969 238.8594,128.6719 Q238.0156,129.5469 238.0156,130.8906 L238.0156,131.9844 Q238.0156,133.2656 238.9219,134.0313 Q239.8281,134.7813 241.3594,134.7813 Z " fill="#000000"/><text fill="#000000" font-family="sans-serif" font-size="12" lengthAdjust="spacing" textLength="43" x="256" y="135.8">Entity06</text><line style="stroke:#A80036;stroke-width:1.5;" x1="228" x2="301" y1="147" y2="147"/><line style="stroke:#A80036;stroke-width:1.5;" x1="228" x2="301" y1="155" y2="155"/><!--MD5=[0811b4726bb2e806a3e81ecfdf10c6b1]
class Entity07--><rect fill="#FEFECE" filter="url(#fd1o5ssdzg7uv)" height="48" id="Entity07" style="stroke:#A80036;stroke-width:1.5;" width="75" x="337" y="7"/><ellipse cx="352" cy="23" fill="#ADD1B2" rx="11" ry="11" style="stroke:#A80036;stroke-width:1.0;"/><path d="M351.3594,26.7813 Q352.1563,26.7813 352.7188,26.5938 Q353.2969,26.3906 353.5313,26.1719 Q353.7813,25.9375 354.0156,25.75 Q354.2656,25.5469 354.4844,25.5469 Q354.8281,25.5469 355.0781,25.8125 Q355.3438,26.0625 355.3438,26.3906 Q355.3438,27.125 354.1719,27.8125 Q353.0156,28.4844 351.3125,28.4844 Q349.1563,28.4844 347.7344,27.2188 Q346.3125,25.9531 346.3125,24.0156 L346.3125,22.8906 Q346.3125,20.8594 347.6406,19.4844 Q348.9688,18.0938 350.9375,18.0938 Q352.125,18.0938 353.3438,18.6719 L353.5156,18.75 Q353.8125,18.3438 354.2344,18.3438 Q354.7188,18.3438 354.8906,18.6406 Q355.0781,18.9219 355.0781,19.4688 L355.0781,20.8906 Q355.0781,22.0156 354.2344,22.0156 Q353.9219,22.0156 353.7188,21.8438 Q353.5313,21.6719 353.4844,21.5313 Q353.4531,21.375 353.4063,21.1094 Q353.2969,20.5938 352.7813,20.2813 Q352.2656,19.9688 351.8125,19.8906 Q351.375,19.7969 351,19.7969 Q349.7188,19.7969 348.8594,20.6719 Q348.0156,21.5469 348.0156,22.8906 L348.0156,23.9844 Q348.0156,25.2656 348.9219,26.0313 Q349.8281,26.7813 351.3594,26.7813 Z " fill="#000000"/><text fill="#000000" font-family="sans-serif" font-size="12" lengthAdjust="spacing" textLength="43" x="366" y="27.8">Entity07</text><line style="stroke:#A80036;stroke-width:1.5;" x1="338" x2="411" y1="39" y2="39"/><line style="stroke:#A80036;stroke-width:1.5;" x1="338" x2="411" y1="47" y2="47"/><!--MD5=[c9f4016e116c1649eb8173279124ba5a]
class Entity08--><rect fill="#FEFECE" filter="url(#fd1o5ssdzg7uv)" height="48" id="Entity08" style="stroke:#A80036;stroke-width:1.5;" width="75" x="337" y="115"/><ellipse cx="352" cy="131" fill="#ADD1B2" rx="11" ry="11" style="stroke:#A80036;stroke-width:1.0;"/><path d="M351.3594,134.7813 Q352.1563,134.7813 352.7188,134.5938 Q353.2969,134.3906 353.5313,134.1719 Q353.7813,133.9375 354.0156,133.75 Q354.2656,133.5469 354.4844,133.5469 Q354.8281,133.5469 355.0781,133.8125 Q355.3438,134.0625 355.3438,134.3906 Q355.3438,135.125 354.1719,135.8125 Q353.0156,136.4844 351.3125,136.4844 Q349.1563,136.4844 347.7344,135.2188 Q346.3125,133.9531 346.3125,132.0156 L346.3125,130.8906 Q346.3125,128.8594 347.6406,127.4844 Q348.9688,126.0938 350.9375,126.0938 Q352.125,126.0938 353.3438,126.6719 L353.5156,126.75 Q353.8125,126.3438 354.2344,126.3438 Q354.7188,126.3438 354.8906,126.6406 Q355.0781,126.9219 355.0781,127.4688 L355.0781,128.8906 Q355.0781,130.0156 354.2344,130.0156 Q353.9219,130.0156 353.7188,129.8438 Q353.5313,129.6719 353.4844,129.5313 Q353.4531,129.375 353.4063,129.1094 Q353.2969,128.5938 352.7813,128.2813 Q352.2656,127.9688 351.8125,127.8906 Q351.375,127.7969 351,127.7969 Q349.7188,127.7969 348.8594,128.6719 Q348.0156,129.5469 348.0156,130.8906 L348.0156,131.9844 Q348.0156,133.2656 348.9219,134.0313 Q349.8281,134.7813 351.3594,134.7813 Z " fill="#000000"/><text fill="#000000" font-family="sans-serif" font-size="12" lengthAdjust="spacing" textLength="43" x="366" y="135.8">Entity08</text><line style="stroke:#A80036;stroke-width:1.5;" x1="338" x2="411" y1="147" y2="147"/><line style="stroke:#A80036;stroke-width:1.5;" x1="338" x2="411" y1="155" y2="155"/><!--MD5=[aa65acfa580fda55ed56c41e76710f9e]
link Entity01 to Entity02--><path codeLine="1" d="M44.5,63.26 C44.5,76.89 44.5,92.85 44.5,106.51 " fill="none" id="Entity01-Entity02" style="stroke:#A80036;stroke-width:1.0;stroke-dasharray:7.0,7.0;"/><line style="stroke:#A80036;stroke-width:1.0;" x1="48.5" x2="40.5" y1="110.68" y2="110.68"/><line style="stroke:#A80036;stroke-width:1.0;" x1="48.5" x2="40.5" y1="107.68" y2="107.68"/><line style="stroke:#A80036;stroke-width:1.0;" x1="44.5" x2="44.5" y1="106.68" y2="114.68"/><line style="stroke:#A80036;stroke-width:1.0;" x1="44.5" x2="38.5" y1="63" y2="55"/><line style="stroke:#A80036;stroke-width:1.0;" x1="44.5" x2="50.5" y1="63" y2="55"/><line style="stroke:#A80036;stroke-width:1.0;" x1="44.5" x2="44.5" y1="63" y2="55"/><line style="stroke:#A80036;stroke-width:1.0;" x1="40.5" x2="48.5" y1="65" y2="65"/><!--MD5=[121c25045f65a021b7b7359b5ab947ee]
link Entity03 to Entity04--><path codeLine="2" d="M154.5,63.26 C154.5,76.89 154.5,92.85 154.5,106.51 " fill="none" id="Entity03-Entity04" style="stroke:#A80036;stroke-width:1.0;stroke-dasharray:7.0,7.0;"/><line style="stroke:#A80036;stroke-width:1.0;" x1="154.5" x2="154.5" y1="103.68" y2="114.68"/><ellipse cx="154.5" cy="103.68" rx="4" ry="4" style="stroke:#A80036;stroke-width:1.0;fill:none;"/><line style="stroke:#A80036;stroke-width:1.0;fill:none;" x1="158.5" x2="150.5" y1="110.68" y2="110.68"/><line style="stroke:#A80036;stroke-width:1.0;fill:none;" x1="154.5" x2="148.5" y1="63" y2="55"/><line style="stroke:#A80036;stroke-width:1.0;fill:none;" x1="154.5" x2="160.5" y1="63" y2="55"/><line style="stroke:#A80036;stroke-width:1.0;fill:none;" x1="154.5" x2="154.5" y1="63" y2="55"/><ellipse cx="154.5" cy="69" rx="4" ry="4" style="stroke:#A80036;stroke-width:1.0;fill:none;"/><!--MD5=[3e1350d0fdac45c01a0825d9e99fb4be]
link Entity05 to Entity06--><path codeLine="3" d="M264.5,63.26 C264.5,76.89 264.5,92.85 264.5,106.51 " fill="none" id="Entity05-Entity06" style="stroke:#A80036;stroke-width:1.0;"/><line style="stroke:#A80036;stroke-width:1.0;" x1="264.5" x2="270.5" y1="106.68" y2="114.68"/><line style="stroke:#A80036;stroke-width:1.0;" x1="264.5" x2="258.5" y1="106.68" y2="114.68"/><line style="stroke:#A80036;stroke-width:1.0;" x1="264.5" x2="264.5" y1="106.68" y2="114.68"/><ellipse cx="264.5" cy="100.68" rx="4" ry="4" style="stroke:#A80036;stroke-width:1.0;fill:none;"/><line style="stroke:#A80036;stroke-width:1.0;fill:none;" x1="260.5" x2="268.5" y1="59" y2="59"/><line style="stroke:#A80036;stroke-width:1.0;fill:none;" x1="260.5" x2="268.5" y1="62" y2="62"/><line style="stroke:#A80036;stroke-width:1.0;fill:none;" x1="264.5" x2="264.5" y1="63" y2="55"/><!--MD5=[363bffc439f51b35d57d6ba0bf584fef]
link Entity07 to Entity08--><path codeLine="4" d="M374.5,63.26 C374.5,76.89 374.5,92.85 374.5,106.51 " fill="none" id="Entity07-Entity08" style="stroke:#A80036;stroke-width:1.0;"/><line style="stroke:#A80036;stroke-width:1.0;" x1="378.5" x2="370.5" y1="110.68" y2="110.68"/><line style="stroke:#A80036;stroke-width:1.0;" x1="378.5" x2="370.5" y1="107.68" y2="107.68"/><line style="stroke:#A80036;stroke-width:1.0;" x1="374.5" x2="374.5" y1="106.68" y2="114.68"/><line style="stroke:#A80036;stroke-width:1.0;" x1="374.5" x2="374.5" y1="66" y2="55"/><ellipse cx="374.5" cy="66" rx="4" ry="4" style="stroke:#A80036;stroke-width:1.0;fill:none;"/><line style="stroke:#A80036;stroke-width:1.0;fill:none;" x1="370.5" x2="378.5" y1="59" y2="59"/><!--MD5=[203e53c711141e908f97d04a0b9e7e2f]
@startuml
Entity01 }|..|| Entity02
Entity03 }o..o| Entity04
Entity05 ||- -o{ Entity06
Entity07 |o- -|| Entity08
@enduml

PlantUML version 1.2021.8(Sat Jun 26 08:20:59 GMT 2021)
(GPL source distribution)
Java Runtime: OpenJDK Runtime Environment
JVM: OpenJDK 64-Bit Server VM
Default Encoding: UTF-8
Language: en
Country: US
--></g></svg>