<?xml version="1.0" encoding="UTF-8" standalone="no"?><svg xmlns="http://www.w3.org/2000/svg" xmlns:xlink="http://www.w3.org/1999/xlink" contentScriptType="application/ecmascript" contentStyleType="text/css" height="85px" preserveAspectRatio="none" style="width:284px;height:85px;background:#FFFFFF;" version="1.1" viewBox="0 0 284 85" width="284px" zoomAndPan="magnify"><defs><filter height="300%" id="f1aakqb4midy9s" width="300%" x="-1" y="-1"><feGaussianBlur result="blurOut" stdDeviation="2.0"/><feColorMatrix in="blurOut" result="blurOut2" type="matrix" values="0 0 0 0 0 0 0 0 0 0 0 0 0 0 0 0 0 0 .4 0"/><feOffset dx="4.0" dy="4.0" in="blurOut2" result="blurOut3"/><feBlend in="SourceGraphic" in2="blurOut3" mode="normal"/></filter></defs><g><!--MD5=[d10371c429a20e8e62c953c705282488]
class Foo--><rect codeLine="1" fill="#FEFECE" filter="url(#f1aakqb4midy9s)" height="61.1999" id="Foo" style="stroke:#A80036;stroke-width:1.5;" width="154" x="7" y="10"/><ellipse cx="22" cy="26" fill="#ADD1B2" rx="11" ry="11" style="stroke:#A80036;stroke-width:1.0;"/><path d="M21.3594,29.7813 Q22.1563,29.7813 22.7188,29.5938 Q23.2969,29.3906 23.5313,29.1719 Q23.7813,28.9375 24.0156,28.75 Q24.2656,28.5469 24.4844,28.5469 Q24.8281,28.5469 25.0781,28.8125 Q25.3438,29.0625 25.3438,29.3906 Q25.3438,30.125 24.1719,30.8125 Q23.0156,31.4844 21.3125,31.4844 Q19.1563,31.4844 17.7344,30.2188 Q16.3125,28.9531 16.3125,27.0156 L16.3125,25.8906 Q16.3125,23.8594 17.6406,22.4844 Q18.9688,21.0938 20.9375,21.0938 Q22.125,21.0938 23.3438,21.6719 L23.5156,21.75 Q23.8125,21.3438 24.2344,21.3438 Q24.7188,21.3438 24.8906,21.6406 Q25.0781,21.9219 25.0781,22.4688 L25.0781,23.8906 Q25.0781,25.0156 24.2344,25.0156 Q23.9219,25.0156 23.7188,24.8438 Q23.5313,24.6719 23.4844,24.5313 Q23.4531,24.375 23.4063,24.1094 Q23.2969,23.5938 22.7813,23.2813 Q22.2656,22.9688 21.8125,22.8906 Q21.375,22.7969 21,22.7969 Q19.7188,22.7969 18.8594,23.6719 Q18.0156,24.5469 18.0156,25.8906 L18.0156,26.9844 Q18.0156,28.2656 18.9219,29.0313 Q19.8281,29.7813 21.3594,29.7813 Z " fill="#000000"/><text fill="#000000" font-family="sans-serif" font-size="12" lengthAdjust="spacing" textLength="19" x="36" y="30.8">Foo</text><rect fill="#FFFFFF" height="16.4001" style="stroke:#000000;stroke-width:1.0;stroke-dasharray:2.0,2.0;" width="101" x="63" y="7"/><text fill="#000000" font-family="sans-serif" font-size="12" font-style="italic" lengthAdjust="spacing" textLength="99" x="64" y="20.0001">? extends Element</text><line style="stroke:#A80036;stroke-width:1.5;" x1="8" x2="160" y1="42" y2="42"/><line style="stroke:#A80036;stroke-width:1.5;" x1="8" x2="160" y1="50" y2="50"/><text fill="#000000" font-family="sans-serif" font-size="11" lengthAdjust="spacing" textLength="40" x="13" y="64.9999">int size()</text><!--MD5=[95174e42ee347a14b6cb78d6855f19b5]
class Element--><rect fill="#FEFECE" filter="url(#f1aakqb4midy9s)" height="48" id="Element" style="stroke:#A80036;stroke-width:1.5;" width="74" x="196" y="16.5"/><ellipse cx="211" cy="32.5" fill="#ADD1B2" rx="11" ry="11" style="stroke:#A80036;stroke-width:1.0;"/><path d="M210.3594,36.2813 Q211.1563,36.2813 211.7188,36.0938 Q212.2969,35.8906 212.5313,35.6719 Q212.7813,35.4375 213.0156,35.25 Q213.2656,35.0469 213.4844,35.0469 Q213.8281,35.0469 214.0781,35.3125 Q214.3438,35.5625 214.3438,35.8906 Q214.3438,36.625 213.1719,37.3125 Q212.0156,37.9844 210.3125,37.9844 Q208.1563,37.9844 206.7344,36.7188 Q205.3125,35.4531 205.3125,33.5156 L205.3125,32.3906 Q205.3125,30.3594 206.6406,28.9844 Q207.9688,27.5938 209.9375,27.5938 Q211.125,27.5938 212.3438,28.1719 L212.5156,28.25 Q212.8125,27.8438 213.2344,27.8438 Q213.7188,27.8438 213.8906,28.1406 Q214.0781,28.4219 214.0781,28.9688 L214.0781,30.3906 Q214.0781,31.5156 213.2344,31.5156 Q212.9219,31.5156 212.7188,31.3438 Q212.5313,31.1719 212.4844,31.0313 Q212.4531,30.875 212.4063,30.6094 Q212.2969,30.0938 211.7813,29.7813 Q211.2656,29.4688 210.8125,29.3906 Q210.375,29.2969 210,29.2969 Q208.7188,29.2969 207.8594,30.1719 Q207.0156,31.0469 207.0156,32.3906 L207.0156,33.4844 Q207.0156,34.7656 207.9219,35.5313 Q208.8281,36.2813 210.3594,36.2813 Z " fill="#000000"/><text fill="#000000" font-family="sans-serif" font-size="12" lengthAdjust="spacing" textLength="42" x="225" y="37.3">Element</text><line style="stroke:#A80036;stroke-width:1.5;" x1="197" x2="269" y1="48.5" y2="48.5"/><line style="stroke:#A80036;stroke-width:1.5;" x1="197" x2="269" y1="56.5" y2="56.5"/><!--MD5=[1d3323b51c92ad2499afdb564f3833d0]
reverse link Foo to Element--><path codeLine="4" d="M174.18,40.5 C181.43,40.5 188.68,40.5 195.94,40.5 " fill="none" id="Foo-backto-Element" style="stroke:#A80036;stroke-width:1.0;"/><polygon fill="#A80036" points="161.12,40.5,167.12,44.5,173.12,40.5,167.12,36.5,161.12,40.5" style="stroke:#A80036;stroke-width:1.0;"/><!--MD5=[a315132a4d815f61d4abaa4bcac1fca2]
@startuml
class Foo<? extends Element> {
  int size()
}
Foo *- Element
@enduml

PlantUML version 1.2021.8(Sat Jun 26 08:20:59 GMT 2021)
(GPL source distribution)
Java Runtime: OpenJDK Runtime Environment
JVM: OpenJDK 64-Bit Server VM
Default Encoding: UTF-8
Language: en
Country: US
--></g></svg>