<?xml version="1.0" encoding="UTF-8" standalone="no"?><svg xmlns="http://www.w3.org/2000/svg" xmlns:xlink="http://www.w3.org/1999/xlink" contentScriptType="application/ecmascript" contentStyleType="text/css" height="177px" preserveAspectRatio="none" style="width:216px;height:177px;background:#FFFFFF;" version="1.1" viewBox="0 0 216 177" width="216px" zoomAndPan="magnify"><defs><filter height="300%" id="f1hrpur70e1vmu" width="300%" x="-1" y="-1"><feGaussianBlur result="blurOut" stdDeviation="2.0"/><feColorMatrix in="blurOut" result="blurOut2" type="matrix" values="0 0 0 0 0 0 0 0 0 0 0 0 0 0 0 0 0 0 .4 0"/><feOffset dx="4.0" dy="4.0" in="blurOut2" result="blurOut3"/><feBlend in="SourceGraphic" in2="blurOut3" mode="normal"/></filter></defs><g><!--MD5=[f7e826e1488aa6662a4b5ddfe29b6b3b]
class abstract--><rect codeLine="1" fill="#FEFECE" filter="url(#f1hrpur70e1vmu)" height="48" id="abstract" style="stroke:#A80036;stroke-width:1.5;" width="75" x="7" y="7"/><ellipse cx="22" cy="23" fill="#A9DCDF" rx="11" ry="11" style="stroke:#A80036;stroke-width:1.0;"/><path d="M22.9531,26.6563 Q22.9531,26.1563 23.2344,25.9844 Q23.5313,25.7969 24.0781,25.7969 L24.4688,25.7969 L24.0781,24.8125 L20.0313,24.8125 L19.6406,25.7969 L20.0313,25.7969 Q21.1406,25.7969 21.1406,26.6563 Q21.1406,27.5 20.0313,27.5 L17.7656,27.5 Q16.6406,27.5 16.6406,26.6563 Q16.6406,26.1406 16.9375,25.9688 Q17.2344,25.7969 17.7813,25.7969 L20.4219,19.2813 L19.3438,19.2813 Q18.2031,19.2813 18.2031,18.4375 Q18.2031,17.9219 18.5,17.7656 Q18.7969,17.5938 19.3438,17.5938 L23.0156,17.5938 L26.4063,25.7969 Q27.5625,25.7969 27.5625,26.6563 Q27.5625,27.5 26.4375,27.5 L24.0781,27.5 Q22.9531,27.5 22.9531,26.6563 Z M23.375,23.1094 L22.0469,19.8438 L20.7031,23.1094 L23.375,23.1094 Z " fill="#000000"/><text fill="#000000" font-family="sans-serif" font-size="12" font-style="italic" lengthAdjust="spacing" textLength="43" x="36" y="27.8">abstract</text><line style="stroke:#A80036;stroke-width:1.5;" x1="8" x2="81" y1="39" y2="39"/><line style="stroke:#A80036;stroke-width:1.5;" x1="8" x2="81" y1="47" y2="47"/><!--MD5=[7cb74e68c9f11cf3f5cc35e0143045f8]
class annotation--><rect codeLine="2" fill="#FFC0CB" filter="url(#f1hrpur70e1vmu)" height="48" id="annotation" style="stroke:#FF0000;stroke-width:2.0;" width="85" x="117" y="7"/><ellipse cx="132" cy="23" fill="#E3664A" rx="11" ry="11" style="stroke:#FF0000;stroke-width:1.0;"/><path d="M131.1406,29.5781 Q130.25,29.5781 129.5469,29.2188 Q128.8594,28.875 128.4531,28.3281 Q128.0469,27.7813 127.7656,27.0625 Q127.5,26.3438 127.3906,25.6875 Q127.2969,25.0313 127.2969,24.375 L127.2969,21.5156 Q127.2969,19.3125 128.375,17.8906 Q129.4531,16.4531 131.1094,16.4531 Q132.5,16.4531 133.375,17.375 Q134.2656,18.2969 134.2656,19.7031 L134.2656,24.4844 Q134.6563,24.6563 134.6563,25.0781 Q134.6563,25.7813 133.7188,25.7813 L132.9219,25.7813 L132.9219,25.7188 Q132.5313,25.7813 132.3594,25.7813 Q131.2656,25.7813 130.4844,25 Q129.7031,24.2188 129.7031,23.1563 Q129.7031,21.9688 130.5938,21.1719 Q131.4844,20.3594 132.9219,20.25 L132.9219,19.7031 Q132.9219,18.8594 132.4219,18.3281 Q131.9219,17.7969 131.1406,17.7969 Q130.0625,17.7969 129.3438,18.8906 Q128.6406,19.9844 128.6406,21.6094 L128.6406,24.2656 Q128.6406,24.9063 128.75,25.5469 Q128.875,26.1875 129.1406,26.8281 Q129.4063,27.4688 129.9219,27.8594 Q130.4531,28.2656 131.1875,28.2656 Q131.7656,28.2656 132.1719,28.125 Q132.5938,28 132.7656,27.8438 Q132.9375,27.6875 133.1094,27.5469 Q133.2969,27.4219 133.4688,27.4219 Q133.75,27.4219 133.9375,27.625 Q134.1406,27.8281 134.1406,28.125 Q134.1406,28.7188 133.25,29.1406 Q132.3594,29.5781 131.1406,29.5781 Z M132.9219,24.3594 L132.9219,21.625 Q132.0625,21.7188 131.5469,22.1406 Q131.0469,22.5469 131.0469,23.1719 Q131.0469,23.7031 131.4531,24.0625 Q131.8594,24.4063 132.4844,24.4063 Q132.6875,24.4063 132.9219,24.3594 Z " fill="#000000"/><text fill="#000000" font-family="sans-serif" font-size="12" lengthAdjust="spacing" textLength="53" x="146" y="27.8">annotation</text><line style="stroke:#FF0000;stroke-width:2.0;" x1="118" x2="201" y1="39" y2="39"/><line style="stroke:#FF0000;stroke-width:2.0;" x1="118" x2="201" y1="47" y2="47"/><!--MD5=[c4c892d05414254cdeba8adc63897f88]
class class--><rect codeLine="3" fill="#98FB98" filter="url(#f1hrpur70e1vmu)" height="48" id="class" style="stroke:#008000;stroke-width:1.0;stroke-dasharray:7.0,7.0;" width="60" x="14.5" y="115"/><ellipse cx="29.5" cy="131" fill="#ADD1B2" rx="11" ry="11" style="stroke:#008000;stroke-width:1.0;"/><path d="M28.8594,134.7813 Q29.6563,134.7813 30.2188,134.5938 Q30.7969,134.3906 31.0313,134.1719 Q31.2813,133.9375 31.5156,133.75 Q31.7656,133.5469 31.9844,133.5469 Q32.3281,133.5469 32.5781,133.8125 Q32.8438,134.0625 32.8438,134.3906 Q32.8438,135.125 31.6719,135.8125 Q30.5156,136.4844 28.8125,136.4844 Q26.6563,136.4844 25.2344,135.2188 Q23.8125,133.9531 23.8125,132.0156 L23.8125,130.8906 Q23.8125,128.8594 25.1406,127.4844 Q26.4688,126.0938 28.4375,126.0938 Q29.625,126.0938 30.8438,126.6719 L31.0156,126.75 Q31.3125,126.3438 31.7344,126.3438 Q32.2188,126.3438 32.3906,126.6406 Q32.5781,126.9219 32.5781,127.4688 L32.5781,128.8906 Q32.5781,130.0156 31.7344,130.0156 Q31.4219,130.0156 31.2188,129.8438 Q31.0313,129.6719 30.9844,129.5313 Q30.9531,129.375 30.9063,129.1094 Q30.7969,128.5938 30.2813,128.2813 Q29.7656,127.9688 29.3125,127.8906 Q28.875,127.7969 28.5,127.7969 Q27.2188,127.7969 26.3594,128.6719 Q25.5156,129.5469 25.5156,130.8906 L25.5156,131.9844 Q25.5156,133.2656 26.4219,134.0313 Q27.3281,134.7813 28.8594,134.7813 Z " fill="#000000"/><text fill="#000000" font-family="sans-serif" font-size="12" lengthAdjust="spacing" textLength="28" x="43.5" y="135.8">class</text><line style="stroke:#008000;stroke-width:1.0;stroke-dasharray:7.0,7.0;" x1="15.5" x2="73.5" y1="147" y2="147"/><line style="stroke:#008000;stroke-width:1.0;stroke-dasharray:7.0,7.0;" x1="15.5" x2="73.5" y1="155" y2="155"/><!--MD5=[d9847530b5dea828dbcbb50914b76f30]
class interface--><rect codeLine="4" fill="#F0F8FF" filter="url(#f1hrpur70e1vmu)" height="48" id="interface" style="stroke:#0000FF;stroke-width:1.0;stroke-dasharray:1.0,3.0;" width="78" x="109.5" y="115"/><ellipse cx="124.5" cy="131" fill="#B4A7E5" rx="11" ry="11" style="stroke:#0000FF;stroke-width:1.0;"/><path d="M127.1719,134.2969 Q127.7188,134.2969 128,134.4844 Q128.2813,134.6563 128.2813,135.1563 Q128.2813,136 127.1719,136 L122.0313,136 Q120.9063,136 120.9063,135.1563 Q120.9063,134.6563 121.1875,134.4844 Q121.4844,134.2969 122.0313,134.2969 L123.75,134.2969 L123.75,127.7813 L122.0313,127.7813 Q120.9063,127.7813 120.9063,126.9375 Q120.9063,126.4531 121.1875,126.2813 Q121.4844,126.0938 122.0313,126.0938 L127.1719,126.0938 Q127.7188,126.0938 128,126.2813 Q128.2813,126.4531 128.2813,126.9375 Q128.2813,127.7813 127.1719,127.7813 L125.4531,127.7813 L125.4531,134.2969 L127.1719,134.2969 Z " fill="#000000"/><text fill="#000000" font-family="sans-serif" font-size="12" font-style="italic" lengthAdjust="spacing" textLength="46" x="138.5" y="135.8">interface</text><line style="stroke:#0000FF;stroke-width:1.0;stroke-dasharray:1.0,3.0;" x1="110.5" x2="186.5" y1="147" y2="147"/><line style="stroke:#0000FF;stroke-width:1.0;stroke-dasharray:1.0,3.0;" x1="110.5" x2="186.5" y1="155" y2="155"/><!--MD5=[554b4a3f1d51780c66532a541a629e50]
link abstract to annotation--><!--MD5=[d34b0fefae0fad0fb285bbc65b963cd5]
link abstract to class--><!--MD5=[ddc9402d036112e944daf1d58d87d60a]
link class to interface--><!--MD5=[05a01afe31d20618a86aad7f8fbfd7eb]
@startuml
abstract   abstract
annotation annotation #pink ##[bold]red
class      class      #palegreen ##[dashed]green
interface  interface  #aliceblue ##[dotted]blue
@enduml

PlantUML version 1.2021.8(Sat Jun 26 08:20:59 GMT 2021)
(GPL source distribution)
Java Runtime: OpenJDK Runtime Environment
JVM: OpenJDK 64-Bit Server VM
Default Encoding: UTF-8
Language: en
Country: US
--></g></svg>