<?xml version="1.0" encoding="UTF-8" standalone="no"?><svg xmlns="http://www.w3.org/2000/svg" xmlns:xlink="http://www.w3.org/1999/xlink" contentScriptType="application/ecmascript" contentStyleType="text/css" height="78px" preserveAspectRatio="none" style="width:778px;height:78px;background:#FFFFFF;" version="1.1" viewBox="0 0 778 78" width="778px" zoomAndPan="magnify"><defs><filter height="300%" id="f1ba1cxdfv4un8" width="300%" x="-1" y="-1"><feGaussianBlur result="blurOut" stdDeviation="2.0"/><feColorMatrix in="blurOut" result="blurOut2" type="matrix" values="0 0 0 0 0 0 0 0 0 0 0 0 0 0 0 0 0 0 .4 0"/><feOffset dx="4.0" dy="4.0" in="blurOut2" result="blurOut3"/><feBlend in="SourceGraphic" in2="blurOut3" mode="normal"/></filter></defs><g><!--MD5=[e10654843314b0a937d61fa739197104]
class docs.RepoObject_Adoc--><rect codeLine="20" fill="#F0F8FF" filter="url(#f1ba1cxdfv4un8)" height="54.8002" id="docs.RepoObject_Adoc" style="stroke:#A80036;stroke-width:1.0;stroke-dasharray:1.0,3.0;" width="378" x="7" y="10"/><ellipse cx="22" cy="29.4001" fill="#ADD1B2" rx="11" ry="11" style="stroke:#A80036;stroke-width:1.0;"/><path d="M24.1563,31.822 Q24.1563,30.6814 25,30.6814 Q25.8438,30.6814 25.8438,31.822 L25.8438,34.4001 L17.8438,34.4001 Q16.7188,34.4001 16.7188,33.5564 Q16.7188,32.697 17.8438,32.697 L18.0938,32.697 L18.0938,26.1814 L17.8438,26.1814 Q16.7188,26.1814 16.7188,25.3376 Q16.7188,24.8532 17,24.6814 Q17.2969,24.4939 17.8438,24.4939 L25.4688,24.4939 L25.4688,27.0407 Q25.4688,28.1814 24.625,28.1814 Q23.7813,28.1814 23.7813,27.0407 L23.7813,26.1814 L19.7969,26.1814 L19.7969,28.5876 L21.25,28.5876 L21.25,28.4626 Q21.25,27.322 22.0781,27.322 Q22.9219,27.322 22.9219,28.4626 L22.9219,30.3845 Q22.9219,31.5095 22.0938,31.5095 Q21.25,31.5095 21.25,30.3845 L21.25,30.2751 L19.7969,30.2751 L19.7969,32.697 L24.1563,32.697 L24.1563,31.822 Z " fill="#000000"/><text fill="#000000" font-family="sans-serif" font-size="12" font-style="italic" lengthAdjust="spacing" textLength="59" x="132.5" y="27.0001">«EXTERN»</text><text fill="#000000" font-family="sans-serif" font-size="12" lengthAdjust="spacing" textLength="252" x="36" y="41.4002">puml-link:docs.RepoObject_Adoc.adoc[prefix=..]</text><rect fill="#FFFFFF" height="16.4001" style="stroke:#000000;stroke-width:1.0;stroke-dasharray:2.0,2.0;" width="92" x="296" y="7"/><text fill="#000000" font-family="sans-serif" font-size="12" font-style="italic" lengthAdjust="spacing" textLength="90" x="297" y="20.0001">DatenbankName</text><line style="stroke:#A80036;stroke-width:1.5;" x1="8" x2="384" y1="48.8002" y2="48.8002"/><line style="stroke:#A80036;stroke-width:1.0;stroke-dasharray:1.0,2.0;" x1="8" x2="384" y1="56.8002" y2="56.8002"/><!--MD5=[546e184986ef2d27324413f3d7ee272f]
class aaa.bbb.ccc.ddd--><rect codeLine="24" fill="#F0F8FF" filter="url(#f1ba1cxdfv4un8)" height="54.8002" id="aaa.bbb.ccc.ddd" style="stroke:#A80036;stroke-width:1.0;stroke-dasharray:1.0,3.0;" width="344" x="420" y="10"/><ellipse cx="435" cy="29.4001" fill="#ADD1B2" rx="11" ry="11" style="stroke:#A80036;stroke-width:1.0;"/><path d="M437.1563,31.822 Q437.1563,30.6814 438,30.6814 Q438.8438,30.6814 438.8438,31.822 L438.8438,34.4001 L430.8438,34.4001 Q429.7188,34.4001 429.7188,33.5564 Q429.7188,32.697 430.8438,32.697 L431.0938,32.697 L431.0938,26.1814 L430.8438,26.1814 Q429.7188,26.1814 429.7188,25.3376 Q429.7188,24.8532 430,24.6814 Q430.2969,24.4939 430.8438,24.4939 L438.4688,24.4939 L438.4688,27.0407 Q438.4688,28.1814 437.625,28.1814 Q436.7813,28.1814 436.7813,27.0407 L436.7813,26.1814 L432.7969,26.1814 L432.7969,28.5876 L434.25,28.5876 L434.25,28.4626 Q434.25,27.322 435.0781,27.322 Q435.9219,27.322 435.9219,28.4626 L435.9219,30.3845 Q435.9219,31.5095 435.0938,31.5095 Q434.25,31.5095 434.25,30.3845 L434.25,30.2751 L432.7969,30.2751 L432.7969,32.697 L437.1563,32.697 L437.1563,31.822 Z " fill="#000000"/><text fill="#000000" font-family="sans-serif" font-size="12" font-style="italic" lengthAdjust="spacing" textLength="59" x="528.5" y="27.0001">«EXTERN»</text><text fill="#000000" font-family="sans-serif" font-size="12" lengthAdjust="spacing" textLength="218" x="449" y="41.4002">puml-link:aaa:bbb:ccc.ddd.adoc[prefix=..]</text><rect fill="#FFFFFF" height="16.4001" style="stroke:#000000;stroke-width:1.0;stroke-dasharray:2.0,2.0;" width="92" x="675" y="7"/><text fill="#000000" font-family="sans-serif" font-size="12" font-style="italic" lengthAdjust="spacing" textLength="90" x="676" y="20.0001">DatenbankName</text><line style="stroke:#A80036;stroke-width:1.5;" x1="421" x2="763" y1="48.8002" y2="48.8002"/><line style="stroke:#A80036;stroke-width:1.0;stroke-dasharray:1.0,2.0;" x1="421" x2="763" y1="56.8002" y2="56.8002"/><!--MD5=[9e0c4c32485a6f9245c10ba7e0798ef2]
@startuml
skinparam class {
  BackgroundColor White
  BackgroundColor<<FN>> Yellow
  BackgroundColor<<FS>> Yellow
  BackgroundColor<<FT>> LightGray
  BackgroundColor<<IF>> Yellow
  BackgroundColor<<IS>> Yellow
  BackgroundColor<<P>> Aqua
  BackgroundColor<<PC>> Aqua
  BackgroundColor<<SN>> Yellow
  BackgroundColor<<SO>> SlateBlue
  BackgroundColor<<TF>> LightGray
  BackgroundColor<<TR>> Tomato
  BackgroundColor<<U>> White
  BackgroundColor<<V>> WhiteSmoke
  BackgroundColor<<X>> Aqua
  BackgroundColor<<EXTERN>> AliceBlue
}

entity "puml-link:docs.RepoObject_Adoc.adoc[prefix=..]" as docs.RepoObject_Adoc <DatenbankName> << EXTERN >> #line.dotted {
  ..
}

entity "puml-link:aaa:bbb:ccc.ddd.adoc[prefix=..]" as aaa.bbb.ccc.ddd <DatenbankName> << EXTERN >> #line.dotted {
  ..
}
@enduml

PlantUML version 1.2021.8(Sat Jun 26 08:20:59 GMT 2021)
(GPL source distribution)
Java Runtime: OpenJDK Runtime Environment
JVM: OpenJDK 64-Bit Server VM
Default Encoding: UTF-8
Language: en
Country: US
--></g></svg>