<?xml version="1.0" encoding="UTF-8" standalone="no"?><svg xmlns="http://www.w3.org/2000/svg" xmlns:xlink="http://www.w3.org/1999/xlink" contentScriptType="application/ecmascript" contentStyleType="text/css" height="720px" preserveAspectRatio="none" style="width:5482px;height:720px;background:#FFFFFF;" version="1.1" viewBox="0 0 5482 720" width="5482px" zoomAndPan="magnify"><defs><filter height="300%" id="fm1fkhyc7kfis" width="300%" x="-1" y="-1"><feGaussianBlur result="blurOut" stdDeviation="2.0"/><feColorMatrix in="blurOut" result="blurOut2" type="matrix" values="0 0 0 0 0 0 0 0 0 0 0 0 0 0 0 0 0 0 .4 0"/><feOffset dx="4.0" dy="4.0" in="blurOut2" result="blurOut3"/><feBlend in="SourceGraphic" in2="blurOut3" mode="normal"/></filter></defs><g><rect fill="#FFFFFF" filter="url(#fm1fkhyc7kfis)" height="602" style="stroke:#A80036;stroke-width:1.0;" width="10" x="63" y="56.7999"/><rect fill="#FFFFFF" filter="url(#fm1fkhyc7kfis)" height="154" style="stroke:#A80036;stroke-width:1.0;" width="10" x="216" y="70.7999"/><rect fill="#FFFFFF" filter="url(#fm1fkhyc7kfis)" height="14" style="stroke:#A80036;stroke-width:1.0;" width="10" x="431" y="84.7999"/><rect fill="#FFFFFF" filter="url(#fm1fkhyc7kfis)" height="42" style="stroke:#A80036;stroke-width:1.0;" width="10" x="686" y="112.7999"/><rect fill="#FFFFFF" filter="url(#fm1fkhyc7kfis)" height="14" style="stroke:#A80036;stroke-width:1.0;" width="10" x="938.5" y="126.7999"/><rect fill="#FFFFFF" filter="url(#fm1fkhyc7kfis)" height="42" style="stroke:#A80036;stroke-width:1.0;" width="10" x="1214.5" y="168.7999"/><rect fill="#FFFFFF" filter="url(#fm1fkhyc7kfis)" height="14" style="stroke:#A80036;stroke-width:1.0;" width="10" x="1514" y="182.7999"/><rect fill="#FFFFFF" filter="url(#fm1fkhyc7kfis)" height="14" style="stroke:#A80036;stroke-width:1.0;" width="10" x="1818" y="238.7999"/><rect fill="#FFFFFF" filter="url(#fm1fkhyc7kfis)" height="126" style="stroke:#A80036;stroke-width:1.0;" width="10" x="2078.5" y="266.7999"/><rect fill="#FFFFFF" filter="url(#fm1fkhyc7kfis)" height="14" style="stroke:#A80036;stroke-width:1.0;" width="10" x="2495" y="280.7999"/><rect fill="#FFFFFF" filter="url(#fm1fkhyc7kfis)" height="70" style="stroke:#A80036;stroke-width:1.0;" width="10" x="2894.5" y="308.7999"/><rect fill="#FFFFFF" filter="url(#fm1fkhyc7kfis)" height="70" style="stroke:#A80036;stroke-width:1.0;" width="10" x="2894.5" y="448.7999"/><rect fill="#FFFFFF" filter="url(#fm1fkhyc7kfis)" height="14" style="stroke:#A80036;stroke-width:1.0;" width="10" x="3084" y="322.7999"/><rect fill="#FFFFFF" filter="url(#fm1fkhyc7kfis)" height="14" style="stroke:#A80036;stroke-width:1.0;" width="10" x="3084" y="462.7999"/><rect fill="#FFFFFF" filter="url(#fm1fkhyc7kfis)" height="14" style="stroke:#A80036;stroke-width:1.0;" width="10" x="3291.5" y="350.7999"/><rect fill="#FFFFFF" filter="url(#fm1fkhyc7kfis)" height="14" style="stroke:#A80036;stroke-width:1.0;" width="10" x="3291.5" y="490.7999"/><rect fill="#FFFFFF" filter="url(#fm1fkhyc7kfis)" height="126" style="stroke:#A80036;stroke-width:1.0;" width="10" x="3508.5" y="406.7999"/><rect fill="#FFFFFF" filter="url(#fm1fkhyc7kfis)" height="14" style="stroke:#A80036;stroke-width:1.0;" width="10" x="3795.5" y="420.7999"/><rect fill="#FFFFFF" filter="url(#fm1fkhyc7kfis)" height="14" style="stroke:#A80036;stroke-width:1.0;" width="10" x="4211" y="546.7999"/><rect fill="#FFFFFF" filter="url(#fm1fkhyc7kfis)" height="14" style="stroke:#A80036;stroke-width:1.0;" width="10" x="4657.5" y="574.7999"/><rect fill="#FFFFFF" filter="url(#fm1fkhyc7kfis)" height="14" style="stroke:#A80036;stroke-width:1.0;" width="10" x="5006.5" y="602.7999"/><rect fill="#FFFFFF" filter="url(#fm1fkhyc7kfis)" height="14" style="stroke:#A80036;stroke-width:1.0;" width="10" x="5309" y="630.7999"/><line style="stroke:#A80036;stroke-width:1.0;stroke-dasharray:5.0,5.0;" x1="68" x2="68" y1="40.7999" y2="676.7999"/><line style="stroke:#A80036;stroke-width:1.0;stroke-dasharray:5.0,5.0;" x1="221" x2="221" y1="40.7999" y2="676.7999"/><line style="stroke:#A80036;stroke-width:1.0;stroke-dasharray:5.0,5.0;" x1="436" x2="436" y1="40.7999" y2="676.7999"/><line style="stroke:#A80036;stroke-width:1.0;stroke-dasharray:5.0,5.0;" x1="691" x2="691" y1="40.7999" y2="676.7999"/><line style="stroke:#A80036;stroke-width:1.0;stroke-dasharray:5.0,5.0;" x1="943" x2="943" y1="40.7999" y2="676.7999"/><line style="stroke:#A80036;stroke-width:1.0;stroke-dasharray:5.0,5.0;" x1="1219" x2="1219" y1="40.7999" y2="676.7999"/><line style="stroke:#A80036;stroke-width:1.0;stroke-dasharray:5.0,5.0;" x1="1519" x2="1519" y1="40.7999" y2="676.7999"/><line style="stroke:#A80036;stroke-width:1.0;stroke-dasharray:5.0,5.0;" x1="1823" x2="1823" y1="40.7999" y2="676.7999"/><line style="stroke:#A80036;stroke-width:1.0;stroke-dasharray:5.0,5.0;" x1="2083" x2="2083" y1="40.7999" y2="676.7999"/><line style="stroke:#A80036;stroke-width:1.0;stroke-dasharray:5.0,5.0;" x1="2500" x2="2500" y1="40.7999" y2="676.7999"/><line style="stroke:#A80036;stroke-width:1.0;stroke-dasharray:5.0,5.0;" x1="2899" x2="2899" y1="40.7999" y2="676.7999"/><line style="stroke:#A80036;stroke-width:1.0;stroke-dasharray:5.0,5.0;" x1="3089" x2="3089" y1="40.7999" y2="676.7999"/><line style="stroke:#A80036;stroke-width:1.0;stroke-dasharray:5.0,5.0;" x1="3296" x2="3296" y1="40.7999" y2="676.7999"/><line style="stroke:#A80036;stroke-width:1.0;stroke-dasharray:5.0,5.0;" x1="3513" x2="3513" y1="40.7999" y2="676.7999"/><line style="stroke:#A80036;stroke-width:1.0;stroke-dasharray:5.0,5.0;" x1="3800" x2="3800" y1="40.7999" y2="676.7999"/><line style="stroke:#A80036;stroke-width:1.0;stroke-dasharray:5.0,5.0;" x1="4216" x2="4216" y1="40.7999" y2="676.7999"/><line style="stroke:#A80036;stroke-width:1.0;stroke-dasharray:5.0,5.0;" x1="4662" x2="4662" y1="40.7999" y2="676.7999"/><line style="stroke:#A80036;stroke-width:1.0;stroke-dasharray:5.0,5.0;" x1="5011" x2="5011" y1="40.7999" y2="676.7999"/><line style="stroke:#A80036;stroke-width:1.0;stroke-dasharray:5.0,5.0;" x1="5314" x2="5314" y1="40.7999" y2="676.7999"/><rect fill="#FEFECE" filter="url(#fm1fkhyc7kfis)" height="30.7999" style="stroke:#A80036;stroke-width:1.5;" width="122" x="5" y="5"/><text fill="#000000" font-family="sans-serif" font-size="14" lengthAdjust="spacing" textLength="108" x="12" y="25.9999">[repo].[usp_main]</text><rect fill="#FEFECE" filter="url(#fm1fkhyc7kfis)" height="30.7999" style="stroke:#A80036;stroke-width:1.5;" width="122" x="5" y="675.7999"/><text fill="#000000" font-family="sans-serif" font-size="14" lengthAdjust="spacing" textLength="108" x="12" y="696.7999">[repo].[usp_main]</text><rect fill="#FEFECE" filter="url(#fm1fkhyc7kfis)" height="30.7999" style="stroke:#A80036;stroke-width:1.5;" width="156" x="141" y="5"/><text fill="#000000" font-family="sans-serif" font-size="14" lengthAdjust="spacing" textLength="142" x="148" y="25.9999">[repo].[usp_sync_guid]</text><rect fill="#FEFECE" filter="url(#fm1fkhyc7kfis)" height="30.7999" style="stroke:#A80036;stroke-width:1.5;" width="156" x="141" y="675.7999"/><text fill="#000000" font-family="sans-serif" font-size="14" lengthAdjust="spacing" textLength="142" x="148" y="696.7999">[repo].[usp_sync_guid]</text><rect fill="#FEFECE" filter="url(#fm1fkhyc7kfis)" height="30.7999" style="stroke:#A80036;stroke-width:1.5;" width="246" x="311" y="5"/><text fill="#000000" font-family="sans-serif" font-size="14" lengthAdjust="spacing" textLength="232" x="318" y="25.9999">[repo].[usp_sync_guid_RepoSchema]</text><rect fill="#FEFECE" filter="url(#fm1fkhyc7kfis)" height="30.7999" style="stroke:#A80036;stroke-width:1.5;" width="246" x="311" y="675.7999"/><text fill="#000000" font-family="sans-serif" font-size="14" lengthAdjust="spacing" textLength="232" x="318" y="696.7999">[repo].[usp_sync_guid_RepoSchema]</text><rect fill="#FEFECE" filter="url(#fm1fkhyc7kfis)" height="30.7999" style="stroke:#A80036;stroke-width:1.5;" width="236" x="571" y="5"/><text fill="#000000" font-family="sans-serif" font-size="14" lengthAdjust="spacing" textLength="222" x="578" y="25.9999">[repo].[usp_sync_guid_RepoObject]</text><rect fill="#FEFECE" filter="url(#fm1fkhyc7kfis)" height="30.7999" style="stroke:#A80036;stroke-width:1.5;" width="236" x="571" y="675.7999"/><text fill="#000000" font-family="sans-serif" font-size="14" lengthAdjust="spacing" textLength="222" x="578" y="696.7999">[repo].[usp_sync_guid_RepoObject]</text><rect fill="#FEFECE" filter="url(#fm1fkhyc7kfis)" height="30.7999" style="stroke:#A80036;stroke-width:1.5;" width="241" x="821" y="5"/><text fill="#000000" font-family="sans-serif" font-size="14" lengthAdjust="spacing" textLength="227" x="828" y="25.9999">[graph].[usp_PERSIST_RepoObject]</text><rect fill="#FEFECE" filter="url(#fm1fkhyc7kfis)" height="30.7999" style="stroke:#A80036;stroke-width:1.5;" width="241" x="821" y="675.7999"/><text fill="#000000" font-family="sans-serif" font-size="14" lengthAdjust="spacing" textLength="227" x="828" y="696.7999">[graph].[usp_PERSIST_RepoObject]</text><rect fill="#FEFECE" filter="url(#fm1fkhyc7kfis)" height="30.7999" style="stroke:#A80036;stroke-width:1.5;" width="283" x="1076" y="5"/><text fill="#000000" font-family="sans-serif" font-size="14" lengthAdjust="spacing" textLength="269" x="1083" y="25.9999">[repo].[usp_sync_guid_RepoObjectColumn]</text><rect fill="#FEFECE" filter="url(#fm1fkhyc7kfis)" height="30.7999" style="stroke:#A80036;stroke-width:1.5;" width="283" x="1076" y="675.7999"/><text fill="#000000" font-family="sans-serif" font-size="14" lengthAdjust="spacing" textLength="269" x="1083" y="696.7999">[repo].[usp_sync_guid_RepoObjectColumn]</text><rect fill="#FEFECE" filter="url(#fm1fkhyc7kfis)" height="30.7999" style="stroke:#A80036;stroke-width:1.5;" width="288" x="1373" y="5"/><text fill="#000000" font-family="sans-serif" font-size="14" lengthAdjust="spacing" textLength="274" x="1380" y="25.9999">[graph].[usp_PERSIST_RepoObjectColumn]</text><rect fill="#FEFECE" filter="url(#fm1fkhyc7kfis)" height="30.7999" style="stroke:#A80036;stroke-width:1.5;" width="288" x="1373" y="675.7999"/><text fill="#000000" font-family="sans-serif" font-size="14" lengthAdjust="spacing" textLength="274" x="1380" y="696.7999">[graph].[usp_PERSIST_RepoObjectColumn]</text><rect fill="#FEFECE" filter="url(#fm1fkhyc7kfis)" height="30.7999" style="stroke:#A80036;stroke-width:1.5;" width="292" x="1675" y="5"/><text fill="#000000" font-family="sans-serif" font-size="14" lengthAdjust="spacing" textLength="278" x="1682" y="25.9999">[reference].[usp_update_Referencing_Count]</text><rect fill="#FEFECE" filter="url(#fm1fkhyc7kfis)" height="30.7999" style="stroke:#A80036;stroke-width:1.5;" width="292" x="1675" y="675.7999"/><text fill="#000000" font-family="sans-serif" font-size="14" lengthAdjust="spacing" textLength="278" x="1682" y="696.7999">[reference].[usp_update_Referencing_Count]</text><rect fill="#FEFECE" filter="url(#fm1fkhyc7kfis)" height="30.7999" style="stroke:#A80036;stroke-width:1.5;" width="201" x="1981" y="5"/><text fill="#000000" font-family="sans-serif" font-size="14" lengthAdjust="spacing" textLength="187" x="1988" y="25.9999">[repo].[usp_index_inheritance]</text><rect fill="#FEFECE" filter="url(#fm1fkhyc7kfis)" height="30.7999" style="stroke:#A80036;stroke-width:1.5;" width="201" x="1981" y="675.7999"/><text fill="#000000" font-family="sans-serif" font-size="14" lengthAdjust="spacing" textLength="187" x="1988" y="696.7999">[repo].[usp_index_inheritance]</text><rect fill="#FEFECE" filter="url(#fm1fkhyc7kfis)" height="30.7999" style="stroke:#A80036;stroke-width:1.5;" width="604" x="2196" y="5"/><text fill="#000000" font-family="sans-serif" font-size="14" lengthAdjust="spacing" textLength="590" x="2203" y="25.9999">[repo].[usp_PERSIST_IndexColumn_ReferencedReferencing_HasFullColumnsInReferencing_T]</text><rect fill="#FEFECE" filter="url(#fm1fkhyc7kfis)" height="30.7999" style="stroke:#A80036;stroke-width:1.5;" width="604" x="2196" y="675.7999"/><text fill="#000000" font-family="sans-serif" font-size="14" lengthAdjust="spacing" textLength="590" x="2203" y="696.7999">[repo].[usp_PERSIST_IndexColumn_ReferencedReferencing_HasFullColumnsInReferencing_T]</text><rect fill="#FEFECE" filter="url(#fm1fkhyc7kfis)" height="30.7999" style="stroke:#A80036;stroke-width:1.5;" width="167" x="2814" y="5"/><text fill="#000000" font-family="sans-serif" font-size="14" lengthAdjust="spacing" textLength="153" x="2821" y="25.9999">[repo].[usp_Index_finish]</text><rect fill="#FEFECE" filter="url(#fm1fkhyc7kfis)" height="30.7999" style="stroke:#A80036;stroke-width:1.5;" width="167" x="2814" y="675.7999"/><text fill="#000000" font-family="sans-serif" font-size="14" lengthAdjust="spacing" textLength="153" x="2821" y="696.7999">[repo].[usp_Index_finish]</text><rect fill="#FEFECE" filter="url(#fm1fkhyc7kfis)" height="30.7999" style="stroke:#A80036;stroke-width:1.5;" width="184" x="2995" y="5"/><text fill="#000000" font-family="sans-serif" font-size="14" lengthAdjust="spacing" textLength="170" x="3002" y="25.9999">[repo].[usp_Index_Settings]</text><rect fill="#FEFECE" filter="url(#fm1fkhyc7kfis)" height="30.7999" style="stroke:#A80036;stroke-width:1.5;" width="184" x="2995" y="675.7999"/><text fill="#000000" font-family="sans-serif" font-size="14" lengthAdjust="spacing" textLength="170" x="3002" y="696.7999">[repo].[usp_Index_Settings]</text><rect fill="#FEFECE" filter="url(#fm1fkhyc7kfis)" height="30.7999" style="stroke:#A80036;stroke-width:1.5;" width="203" x="3193" y="5"/><text fill="#000000" font-family="sans-serif" font-size="14" lengthAdjust="spacing" textLength="189" x="3200" y="25.9999">[graph].[usp_PERSIST_Index]</text><rect fill="#FEFECE" filter="url(#fm1fkhyc7kfis)" height="30.7999" style="stroke:#A80036;stroke-width:1.5;" width="203" x="3193" y="675.7999"/><text fill="#000000" font-family="sans-serif" font-size="14" lengthAdjust="spacing" textLength="189" x="3200" y="696.7999">[graph].[usp_PERSIST_Index]</text><rect fill="#FEFECE" filter="url(#fm1fkhyc7kfis)" height="30.7999" style="stroke:#A80036;stroke-width:1.5;" width="203" x="3410" y="5"/><text fill="#000000" font-family="sans-serif" font-size="14" lengthAdjust="spacing" textLength="189" x="3417" y="25.9999">[repo].[usp_Index_ForeignKey]</text><rect fill="#FEFECE" filter="url(#fm1fkhyc7kfis)" height="30.7999" style="stroke:#A80036;stroke-width:1.5;" width="203" x="3410" y="675.7999"/><text fill="#000000" font-family="sans-serif" font-size="14" lengthAdjust="spacing" textLength="189" x="3417" y="696.7999">[repo].[usp_Index_ForeignKey]</text><rect fill="#FEFECE" filter="url(#fm1fkhyc7kfis)" height="30.7999" style="stroke:#A80036;stroke-width:1.5;" width="343" x="3627" y="5"/><text fill="#000000" font-family="sans-serif" font-size="14" lengthAdjust="spacing" textLength="329" x="3634" y="25.9999">[repo].[usp_PERSIST_ForeignKey_Indexes_union_T]</text><rect fill="#FEFECE" filter="url(#fm1fkhyc7kfis)" height="30.7999" style="stroke:#A80036;stroke-width:1.5;" width="343" x="3627" y="675.7999"/><text fill="#000000" font-family="sans-serif" font-size="14" lengthAdjust="spacing" textLength="329" x="3634" y="696.7999">[repo].[usp_PERSIST_ForeignKey_Indexes_union_T]</text><rect fill="#FEFECE" filter="url(#fm1fkhyc7kfis)" height="30.7999" style="stroke:#A80036;stroke-width:1.5;" width="460" x="3984" y="5"/><text fill="#000000" font-family="sans-serif" font-size="14" lengthAdjust="spacing" textLength="446" x="3991" y="25.9999">[repo].[usp_RepoObjectColumn_update_RepoObjectColumn_column_id]</text><rect fill="#FEFECE" filter="url(#fm1fkhyc7kfis)" height="30.7999" style="stroke:#A80036;stroke-width:1.5;" width="460" x="3984" y="675.7999"/><text fill="#000000" font-family="sans-serif" font-size="14" lengthAdjust="spacing" textLength="446" x="3991" y="696.7999">[repo].[usp_RepoObjectColumn_update_RepoObjectColumn_column_id]</text><rect fill="#FEFECE" filter="url(#fm1fkhyc7kfis)" height="30.7999" style="stroke:#A80036;stroke-width:1.5;" width="405" x="4458" y="5"/><text fill="#000000" font-family="sans-serif" font-size="14" lengthAdjust="spacing" textLength="391" x="4465" y="25.9999">[uspgenerator].[usp_GeneratorUsp_insert_update_persistence]</text><rect fill="#FEFECE" filter="url(#fm1fkhyc7kfis)" height="30.7999" style="stroke:#A80036;stroke-width:1.5;" width="405" x="4458" y="675.7999"/><text fill="#000000" font-family="sans-serif" font-size="14" lengthAdjust="spacing" textLength="391" x="4465" y="696.7999">[uspgenerator].[usp_GeneratorUsp_insert_update_persistence]</text><rect fill="#FEFECE" filter="url(#fm1fkhyc7kfis)" height="30.7999" style="stroke:#A80036;stroke-width:1.5;" width="265" x="4877" y="5"/><text fill="#000000" font-family="sans-serif" font-size="14" lengthAdjust="spacing" textLength="251" x="4884" y="25.9999">[property].[usp_RepoObject_Inheritance]</text><rect fill="#FEFECE" filter="url(#fm1fkhyc7kfis)" height="30.7999" style="stroke:#A80036;stroke-width:1.5;" width="265" x="4877" y="675.7999"/><text fill="#000000" font-family="sans-serif" font-size="14" lengthAdjust="spacing" textLength="251" x="4884" y="696.7999">[property].[usp_RepoObject_Inheritance]</text><rect fill="#FEFECE" filter="url(#fm1fkhyc7kfis)" height="30.7999" style="stroke:#A80036;stroke-width:1.5;" width="312" x="5156" y="5"/><text fill="#000000" font-family="sans-serif" font-size="14" lengthAdjust="spacing" textLength="298" x="5163" y="25.9999">[property].[usp_RepoObjectColumn_Inheritance]</text><rect fill="#FEFECE" filter="url(#fm1fkhyc7kfis)" height="30.7999" style="stroke:#A80036;stroke-width:1.5;" width="312" x="5156" y="675.7999"/><text fill="#000000" font-family="sans-serif" font-size="14" lengthAdjust="spacing" textLength="298" x="5163" y="696.7999">[property].[usp_RepoObjectColumn_Inheritance]</text><rect fill="#FFFFFF" filter="url(#fm1fkhyc7kfis)" height="602" style="stroke:#A80036;stroke-width:1.0;" width="10" x="63" y="56.7999"/><rect fill="#FFFFFF" filter="url(#fm1fkhyc7kfis)" height="154" style="stroke:#A80036;stroke-width:1.0;" width="10" x="216" y="70.7999"/><rect fill="#FFFFFF" filter="url(#fm1fkhyc7kfis)" height="14" style="stroke:#A80036;stroke-width:1.0;" width="10" x="431" y="84.7999"/><rect fill="#FFFFFF" filter="url(#fm1fkhyc7kfis)" height="42" style="stroke:#A80036;stroke-width:1.0;" width="10" x="686" y="112.7999"/><rect fill="#FFFFFF" filter="url(#fm1fkhyc7kfis)" height="14" style="stroke:#A80036;stroke-width:1.0;" width="10" x="938.5" y="126.7999"/><rect fill="#FFFFFF" filter="url(#fm1fkhyc7kfis)" height="42" style="stroke:#A80036;stroke-width:1.0;" width="10" x="1214.5" y="168.7999"/><rect fill="#FFFFFF" filter="url(#fm1fkhyc7kfis)" height="14" style="stroke:#A80036;stroke-width:1.0;" width="10" x="1514" y="182.7999"/><rect fill="#FFFFFF" filter="url(#fm1fkhyc7kfis)" height="14" style="stroke:#A80036;stroke-width:1.0;" width="10" x="1818" y="238.7999"/><rect fill="#FFFFFF" filter="url(#fm1fkhyc7kfis)" height="126" style="stroke:#A80036;stroke-width:1.0;" width="10" x="2078.5" y="266.7999"/><rect fill="#FFFFFF" filter="url(#fm1fkhyc7kfis)" height="14" style="stroke:#A80036;stroke-width:1.0;" width="10" x="2495" y="280.7999"/><rect fill="#FFFFFF" filter="url(#fm1fkhyc7kfis)" height="70" style="stroke:#A80036;stroke-width:1.0;" width="10" x="2894.5" y="308.7999"/><rect fill="#FFFFFF" filter="url(#fm1fkhyc7kfis)" height="70" style="stroke:#A80036;stroke-width:1.0;" width="10" x="2894.5" y="448.7999"/><rect fill="#FFFFFF" filter="url(#fm1fkhyc7kfis)" height="14" style="stroke:#A80036;stroke-width:1.0;" width="10" x="3084" y="322.7999"/><rect fill="#FFFFFF" filter="url(#fm1fkhyc7kfis)" height="14" style="stroke:#A80036;stroke-width:1.0;" width="10" x="3084" y="462.7999"/><rect fill="#FFFFFF" filter="url(#fm1fkhyc7kfis)" height="14" style="stroke:#A80036;stroke-width:1.0;" width="10" x="3291.5" y="350.7999"/><rect fill="#FFFFFF" filter="url(#fm1fkhyc7kfis)" height="14" style="stroke:#A80036;stroke-width:1.0;" width="10" x="3291.5" y="490.7999"/><rect fill="#FFFFFF" filter="url(#fm1fkhyc7kfis)" height="126" style="stroke:#A80036;stroke-width:1.0;" width="10" x="3508.5" y="406.7999"/><rect fill="#FFFFFF" filter="url(#fm1fkhyc7kfis)" height="14" style="stroke:#A80036;stroke-width:1.0;" width="10" x="3795.5" y="420.7999"/><rect fill="#FFFFFF" filter="url(#fm1fkhyc7kfis)" height="14" style="stroke:#A80036;stroke-width:1.0;" width="10" x="4211" y="546.7999"/><rect fill="#FFFFFF" filter="url(#fm1fkhyc7kfis)" height="14" style="stroke:#A80036;stroke-width:1.0;" width="10" x="4657.5" y="574.7999"/><rect fill="#FFFFFF" filter="url(#fm1fkhyc7kfis)" height="14" style="stroke:#A80036;stroke-width:1.0;" width="10" x="5006.5" y="602.7999"/><rect fill="#FFFFFF" filter="url(#fm1fkhyc7kfis)" height="14" style="stroke:#A80036;stroke-width:1.0;" width="10" x="5309" y="630.7999"/><polygon fill="#A80036" points="51,52.7999,61,56.7999,51,60.7999,55,56.7999" style="stroke:#A80036;stroke-width:1.0;"/><line style="stroke:#A80036;stroke-width:1.0;" x1="0" x2="57" y1="56.7999" y2="56.7999"/><polygon fill="#A80036" points="204,66.7999,214,70.7999,204,74.7999,208,70.7999" style="stroke:#A80036;stroke-width:1.0;"/><line style="stroke:#A80036;stroke-width:1.0;" x1="73" x2="210" y1="70.7999" y2="70.7999"/><polygon fill="#A80036" points="419,80.7999,429,84.7999,419,88.7999,423,84.7999" style="stroke:#A80036;stroke-width:1.0;"/><line style="stroke:#A80036;stroke-width:1.0;" x1="226" x2="425" y1="84.7999" y2="84.7999"/><polygon fill="#A80036" points="237,94.7999,227,98.7999,237,102.7999,233,98.7999" style="stroke:#A80036;stroke-width:1.0;"/><line style="stroke:#A80036;stroke-width:1.0;" x1="231" x2="435" y1="98.7999" y2="98.7999"/><polygon fill="#A80036" points="674,108.7999,684,112.7999,674,116.7999,678,112.7999" style="stroke:#A80036;stroke-width:1.0;"/><line style="stroke:#A80036;stroke-width:1.0;" x1="226" x2="680" y1="112.7999" y2="112.7999"/><polygon fill="#A80036" points="926.5,122.7999,936.5,126.7999,926.5,130.7999,930.5,126.7999" style="stroke:#A80036;stroke-width:1.0;"/><line style="stroke:#A80036;stroke-width:1.0;" x1="696" x2="932.5" y1="126.7999" y2="126.7999"/><polygon fill="#A80036" points="707,136.7999,697,140.7999,707,144.7999,703,140.7999" style="stroke:#A80036;stroke-width:1.0;"/><line style="stroke:#A80036;stroke-width:1.0;" x1="701" x2="942.5" y1="140.7999" y2="140.7999"/><polygon fill="#A80036" points="237,150.7999,227,154.7999,237,158.7999,233,154.7999" style="stroke:#A80036;stroke-width:1.0;"/><line style="stroke:#A80036;stroke-width:1.0;" x1="231" x2="690" y1="154.7999" y2="154.7999"/><polygon fill="#A80036" points="1202.5,164.7999,1212.5,168.7999,1202.5,172.7999,1206.5,168.7999" style="stroke:#A80036;stroke-width:1.0;"/><line style="stroke:#A80036;stroke-width:1.0;" x1="226" x2="1208.5" y1="168.7999" y2="168.7999"/><polygon fill="#A80036" points="1502,178.7999,1512,182.7999,1502,186.7999,1506,182.7999" style="stroke:#A80036;stroke-width:1.0;"/><line style="stroke:#A80036;stroke-width:1.0;" x1="1224.5" x2="1508" y1="182.7999" y2="182.7999"/><polygon fill="#A80036" points="1235.5,192.7999,1225.5,196.7999,1235.5,200.7999,1231.5,196.7999" style="stroke:#A80036;stroke-width:1.0;"/><line style="stroke:#A80036;stroke-width:1.0;" x1="1229.5" x2="1518" y1="196.7999" y2="196.7999"/><polygon fill="#A80036" points="237,206.7999,227,210.7999,237,214.7999,233,210.7999" style="stroke:#A80036;stroke-width:1.0;"/><line style="stroke:#A80036;stroke-width:1.0;" x1="231" x2="1218.5" y1="210.7999" y2="210.7999"/><polygon fill="#A80036" points="84,220.7999,74,224.7999,84,228.7999,80,224.7999" style="stroke:#A80036;stroke-width:1.0;"/><line style="stroke:#A80036;stroke-width:1.0;" x1="78" x2="220" y1="224.7999" y2="224.7999"/><polygon fill="#A80036" points="1806,234.7999,1816,238.7999,1806,242.7999,1810,238.7999" style="stroke:#A80036;stroke-width:1.0;"/><line style="stroke:#A80036;stroke-width:1.0;" x1="73" x2="1812" y1="238.7999" y2="238.7999"/><polygon fill="#A80036" points="84,248.7999,74,252.7999,84,256.7999,80,252.7999" style="stroke:#A80036;stroke-width:1.0;"/><line style="stroke:#A80036;stroke-width:1.0;" x1="78" x2="1822" y1="252.7999" y2="252.7999"/><polygon fill="#A80036" points="2066.5,262.7999,2076.5,266.7999,2066.5,270.7999,2070.5,266.7999" style="stroke:#A80036;stroke-width:1.0;"/><line style="stroke:#A80036;stroke-width:1.0;" x1="73" x2="2072.5" y1="266.7999" y2="266.7999"/><polygon fill="#A80036" points="2483,276.7999,2493,280.7999,2483,284.7999,2487,280.7999" style="stroke:#A80036;stroke-width:1.0;"/><line style="stroke:#A80036;stroke-width:1.0;" x1="2088.5" x2="2489" y1="280.7999" y2="280.7999"/><polygon fill="#A80036" points="2099.5,290.7999,2089.5,294.7999,2099.5,298.7999,2095.5,294.7999" style="stroke:#A80036;stroke-width:1.0;"/><line style="stroke:#A80036;stroke-width:1.0;" x1="2093.5" x2="2499" y1="294.7999" y2="294.7999"/><polygon fill="#A80036" points="2882.5,304.7999,2892.5,308.7999,2882.5,312.7999,2886.5,308.7999" style="stroke:#A80036;stroke-width:1.0;"/><line style="stroke:#A80036;stroke-width:1.0;" x1="2088.5" x2="2888.5" y1="308.7999" y2="308.7999"/><polygon fill="#A80036" points="3072,318.7999,3082,322.7999,3072,326.7999,3076,322.7999" style="stroke:#A80036;stroke-width:1.0;"/><line style="stroke:#A80036;stroke-width:1.0;" x1="2904.5" x2="3078" y1="322.7999" y2="322.7999"/><polygon fill="#A80036" points="2915.5,332.7999,2905.5,336.7999,2915.5,340.7999,2911.5,336.7999" style="stroke:#A80036;stroke-width:1.0;"/><line style="stroke:#A80036;stroke-width:1.0;" x1="2909.5" x2="3088" y1="336.7999" y2="336.7999"/><polygon fill="#A80036" points="3279.5,346.7999,3289.5,350.7999,3279.5,354.7999,3283.5,350.7999" style="stroke:#A80036;stroke-width:1.0;"/><line style="stroke:#A80036;stroke-width:1.0;" x1="2904.5" x2="3285.5" y1="350.7999" y2="350.7999"/><polygon fill="#A80036" points="2915.5,360.7999,2905.5,364.7999,2915.5,368.7999,2911.5,364.7999" style="stroke:#A80036;stroke-width:1.0;"/><line style="stroke:#A80036;stroke-width:1.0;" x1="2909.5" x2="3295.5" y1="364.7999" y2="364.7999"/><polygon fill="#A80036" points="2099.5,374.7999,2089.5,378.7999,2099.5,382.7999,2095.5,378.7999" style="stroke:#A80036;stroke-width:1.0;"/><line style="stroke:#A80036;stroke-width:1.0;" x1="2093.5" x2="2898.5" y1="378.7999" y2="378.7999"/><polygon fill="#A80036" points="84,388.7999,74,392.7999,84,396.7999,80,392.7999" style="stroke:#A80036;stroke-width:1.0;"/><line style="stroke:#A80036;stroke-width:1.0;" x1="78" x2="2082.5" y1="392.7999" y2="392.7999"/><polygon fill="#A80036" points="3496.5,402.7999,3506.5,406.7999,3496.5,410.7999,3500.5,406.7999" style="stroke:#A80036;stroke-width:1.0;"/><line style="stroke:#A80036;stroke-width:1.0;" x1="73" x2="3502.5" y1="406.7999" y2="406.7999"/><polygon fill="#A80036" points="3783.5,416.7999,3793.5,420.7999,3783.5,424.7999,3787.5,420.7999" style="stroke:#A80036;stroke-width:1.0;"/><line style="stroke:#A80036;stroke-width:1.0;" x1="3518.5" x2="3789.5" y1="420.7999" y2="420.7999"/><polygon fill="#A80036" points="3529.5,430.7999,3519.5,434.7999,3529.5,438.7999,3525.5,434.7999" style="stroke:#A80036;stroke-width:1.0;"/><line style="stroke:#A80036;stroke-width:1.0;" x1="3523.5" x2="3799.5" y1="434.7999" y2="434.7999"/><polygon fill="#A80036" points="2915.5,444.7999,2905.5,448.7999,2915.5,452.7999,2911.5,448.7999" style="stroke:#A80036;stroke-width:1.0;"/><line style="stroke:#A80036;stroke-width:1.0;" x1="2909.5" x2="3507.5" y1="448.7999" y2="448.7999"/><polygon fill="#A80036" points="3072,458.7999,3082,462.7999,3072,466.7999,3076,462.7999" style="stroke:#A80036;stroke-width:1.0;"/><line style="stroke:#A80036;stroke-width:1.0;" x1="2904.5" x2="3078" y1="462.7999" y2="462.7999"/><polygon fill="#A80036" points="2915.5,472.7999,2905.5,476.7999,2915.5,480.7999,2911.5,476.7999" style="stroke:#A80036;stroke-width:1.0;"/><line style="stroke:#A80036;stroke-width:1.0;" x1="2909.5" x2="3088" y1="476.7999" y2="476.7999"/><polygon fill="#A80036" points="3279.5,486.7999,3289.5,490.7999,3279.5,494.7999,3283.5,490.7999" style="stroke:#A80036;stroke-width:1.0;"/><line style="stroke:#A80036;stroke-width:1.0;" x1="2904.5" x2="3285.5" y1="490.7999" y2="490.7999"/><polygon fill="#A80036" points="2915.5,500.7999,2905.5,504.7999,2915.5,508.7999,2911.5,504.7999" style="stroke:#A80036;stroke-width:1.0;"/><line style="stroke:#A80036;stroke-width:1.0;" x1="2909.5" x2="3295.5" y1="504.7999" y2="504.7999"/><polygon fill="#A80036" points="3496.5,514.7999,3506.5,518.7999,3496.5,522.7999,3500.5,518.7999" style="stroke:#A80036;stroke-width:1.0;"/><line style="stroke:#A80036;stroke-width:1.0;" x1="2899.5" x2="3502.5" y1="518.7999" y2="518.7999"/><polygon fill="#A80036" points="84,528.7999,74,532.7999,84,536.7999,80,532.7999" style="stroke:#A80036;stroke-width:1.0;"/><line style="stroke:#A80036;stroke-width:1.0;" x1="78" x2="3512.5" y1="532.7999" y2="532.7999"/><polygon fill="#A80036" points="4199,542.7999,4209,546.7999,4199,550.7999,4203,546.7999" style="stroke:#A80036;stroke-width:1.0;"/><line style="stroke:#A80036;stroke-width:1.0;" x1="73" x2="4205" y1="546.7999" y2="546.7999"/><polygon fill="#A80036" points="84,556.7999,74,560.7999,84,564.7999,80,560.7999" style="stroke:#A80036;stroke-width:1.0;"/><line style="stroke:#A80036;stroke-width:1.0;" x1="78" x2="4215" y1="560.7999" y2="560.7999"/><polygon fill="#A80036" points="4645.5,570.7999,4655.5,574.7999,4645.5,578.7999,4649.5,574.7999" style="stroke:#A80036;stroke-width:1.0;"/><line style="stroke:#A80036;stroke-width:1.0;" x1="73" x2="4651.5" y1="574.7999" y2="574.7999"/><polygon fill="#A80036" points="84,584.7999,74,588.7999,84,592.7999,80,588.7999" style="stroke:#A80036;stroke-width:1.0;"/><line style="stroke:#A80036;stroke-width:1.0;" x1="78" x2="4661.5" y1="588.7999" y2="588.7999"/><polygon fill="#A80036" points="4994.5,598.7999,5004.5,602.7999,4994.5,606.7999,4998.5,602.7999" style="stroke:#A80036;stroke-width:1.0;"/><line style="stroke:#A80036;stroke-width:1.0;" x1="73" x2="5000.5" y1="602.7999" y2="602.7999"/><polygon fill="#A80036" points="84,612.7999,74,616.7999,84,620.7999,80,616.7999" style="stroke:#A80036;stroke-width:1.0;"/><line style="stroke:#A80036;stroke-width:1.0;" x1="78" x2="5010.5" y1="616.7999" y2="616.7999"/><polygon fill="#A80036" points="5297,626.7999,5307,630.7999,5297,634.7999,5301,630.7999" style="stroke:#A80036;stroke-width:1.0;"/><line style="stroke:#A80036;stroke-width:1.0;" x1="73" x2="5303" y1="630.7999" y2="630.7999"/><polygon fill="#A80036" points="84,640.7999,74,644.7999,84,648.7999,80,644.7999" style="stroke:#A80036;stroke-width:1.0;"/><line style="stroke:#A80036;stroke-width:1.0;" x1="78" x2="5313" y1="644.7999" y2="644.7999"/><polygon fill="#A80036" points="11,654.7999,1,658.7999,11,662.7999,7,658.7999" style="stroke:#A80036;stroke-width:1.0;"/><line style="stroke:#A80036;stroke-width:1.0;" x1="5" x2="67" y1="658.7999" y2="658.7999"/><!--MD5=[f2d8b697d15299865328182c7faa8eb2]
@startuml
-> "[repo].[usp_main]"
activate "[repo].[usp_main]"
"[repo].[usp_main]" -> "[repo].[usp_sync_guid]"
activate "[repo].[usp_sync_guid]"
"[repo].[usp_sync_guid]" -> "[repo].[usp_sync_guid_RepoSchema]"
activate "[repo].[usp_sync_guid_RepoSchema]"
"[repo].[usp_sync_guid]" <- "[repo].[usp_sync_guid_RepoSchema]"
deactivate "[repo].[usp_sync_guid_RepoSchema]"
"[repo].[usp_sync_guid]" -> "[repo].[usp_sync_guid_RepoObject]"
activate "[repo].[usp_sync_guid_RepoObject]"
"[repo].[usp_sync_guid_RepoObject]" -> "[graph].[usp_PERSIST_RepoObject]"
activate "[graph].[usp_PERSIST_RepoObject]"
"[repo].[usp_sync_guid_RepoObject]" <- "[graph].[usp_PERSIST_RepoObject]"
deactivate "[graph].[usp_PERSIST_RepoObject]"
"[repo].[usp_sync_guid]" <- "[repo].[usp_sync_guid_RepoObject]"
deactivate "[repo].[usp_sync_guid_RepoObject]"
"[repo].[usp_sync_guid]" -> "[repo].[usp_sync_guid_RepoObjectColumn]"
activate "[repo].[usp_sync_guid_RepoObjectColumn]"
"[repo].[usp_sync_guid_RepoObjectColumn]" -> "[graph].[usp_PERSIST_RepoObjectColumn]"
activate "[graph].[usp_PERSIST_RepoObjectColumn]"
"[repo].[usp_sync_guid_RepoObjectColumn]" <- "[graph].[usp_PERSIST_RepoObjectColumn]"
deactivate "[graph].[usp_PERSIST_RepoObjectColumn]"
"[repo].[usp_sync_guid]" <- "[repo].[usp_sync_guid_RepoObjectColumn]"
deactivate "[repo].[usp_sync_guid_RepoObjectColumn]"
"[repo].[usp_main]" <- "[repo].[usp_sync_guid]"
deactivate "[repo].[usp_sync_guid]"
"[repo].[usp_main]" -> "[reference].[usp_update_Referencing_Count]"
activate "[reference].[usp_update_Referencing_Count]"
"[repo].[usp_main]" <- "[reference].[usp_update_Referencing_Count]"
deactivate "[reference].[usp_update_Referencing_Count]"
"[repo].[usp_main]" -> "[repo].[usp_index_inheritance]"
activate "[repo].[usp_index_inheritance]"
"[repo].[usp_index_inheritance]" -> "[repo].[usp_PERSIST_IndexColumn_ReferencedReferencing_HasFullColumnsInReferencing_T]"
activate "[repo].[usp_PERSIST_IndexColumn_ReferencedReferencing_HasFullColumnsInReferencing_T]"
"[repo].[usp_index_inheritance]" <- "[repo].[usp_PERSIST_IndexColumn_ReferencedReferencing_HasFullColumnsInReferencing_T]"
deactivate "[repo].[usp_PERSIST_IndexColumn_ReferencedReferencing_HasFullColumnsInReferencing_T]"
"[repo].[usp_index_inheritance]" -> "[repo].[usp_Index_finish]"
activate "[repo].[usp_Index_finish]"
"[repo].[usp_Index_finish]" -> "[repo].[usp_Index_Settings]"
activate "[repo].[usp_Index_Settings]"
"[repo].[usp_Index_finish]" <- "[repo].[usp_Index_Settings]"
deactivate "[repo].[usp_Index_Settings]"
"[repo].[usp_Index_finish]" -> "[graph].[usp_PERSIST_Index]"
activate "[graph].[usp_PERSIST_Index]"
"[repo].[usp_Index_finish]" <- "[graph].[usp_PERSIST_Index]"
deactivate "[graph].[usp_PERSIST_Index]"
"[repo].[usp_index_inheritance]" <- "[repo].[usp_Index_finish]"
deactivate "[repo].[usp_Index_finish]"
"[repo].[usp_main]" <- "[repo].[usp_index_inheritance]"
deactivate "[repo].[usp_index_inheritance]"
"[repo].[usp_main]" -> "[repo].[usp_Index_ForeignKey]"
activate "[repo].[usp_Index_ForeignKey]"
"[repo].[usp_Index_ForeignKey]" -> "[repo].[usp_PERSIST_ForeignKey_Indexes_union_T]"
activate "[repo].[usp_PERSIST_ForeignKey_Indexes_union_T]"
"[repo].[usp_Index_ForeignKey]" <- "[repo].[usp_PERSIST_ForeignKey_Indexes_union_T]"
deactivate "[repo].[usp_PERSIST_ForeignKey_Indexes_union_T]"
"[repo].[usp_Index_ForeignKey]" -> "[repo].[usp_Index_finish]"
activate "[repo].[usp_Index_finish]"
"[repo].[usp_Index_finish]" -> "[repo].[usp_Index_Settings]"
activate "[repo].[usp_Index_Settings]"
"[repo].[usp_Index_finish]" <- "[repo].[usp_Index_Settings]"
deactivate "[repo].[usp_Index_Settings]"
"[repo].[usp_Index_finish]" -> "[graph].[usp_PERSIST_Index]"
activate "[graph].[usp_PERSIST_Index]"
"[repo].[usp_Index_finish]" <- "[graph].[usp_PERSIST_Index]"
deactivate "[graph].[usp_PERSIST_Index]"
"[repo].[usp_Index_ForeignKey]" <- "[repo].[usp_Index_finish]"
deactivate "[repo].[usp_Index_finish]"
"[repo].[usp_main]" <- "[repo].[usp_Index_ForeignKey]"
deactivate "[repo].[usp_Index_ForeignKey]"
"[repo].[usp_main]" -> "[repo].[usp_RepoObjectColumn_update_RepoObjectColumn_column_id]"
activate "[repo].[usp_RepoObjectColumn_update_RepoObjectColumn_column_id]"
"[repo].[usp_main]" <- "[repo].[usp_RepoObjectColumn_update_RepoObjectColumn_column_id]"
deactivate "[repo].[usp_RepoObjectColumn_update_RepoObjectColumn_column_id]"
"[repo].[usp_main]" -> "[uspgenerator].[usp_GeneratorUsp_insert_update_persistence]"
activate "[uspgenerator].[usp_GeneratorUsp_insert_update_persistence]"
"[repo].[usp_main]" <- "[uspgenerator].[usp_GeneratorUsp_insert_update_persistence]"
deactivate "[uspgenerator].[usp_GeneratorUsp_insert_update_persistence]"
"[repo].[usp_main]" -> "[property].[usp_RepoObject_Inheritance]"
activate "[property].[usp_RepoObject_Inheritance]"
"[repo].[usp_main]" <- "[property].[usp_RepoObject_Inheritance]"
deactivate "[property].[usp_RepoObject_Inheritance]"
"[repo].[usp_main]" -> "[property].[usp_RepoObjectColumn_Inheritance]"
activate "[property].[usp_RepoObjectColumn_Inheritance]"
"[repo].[usp_main]" <- "[property].[usp_RepoObjectColumn_Inheritance]"
deactivate "[property].[usp_RepoObjectColumn_Inheritance]"
 <- "[repo].[usp_main]"
deactivate "[repo].[usp_main]"
@enduml

PlantUML version 1.2021.8(Sat Jun 26 08:20:59 GMT 2021)
(GPL source distribution)
Java Runtime: OpenJDK Runtime Environment
JVM: OpenJDK 64-Bit Server VM
Default Encoding: UTF-8
Language: en
Country: US
--></g></svg>