<?xml version="1.0" encoding="UTF-8" standalone="no"?><svg xmlns="http://www.w3.org/2000/svg" xmlns:xlink="http://www.w3.org/1999/xlink" contentScriptType="application/ecmascript" contentStyleType="text/css" height="285px" preserveAspectRatio="none" style="width:341px;height:285px;background:#FFFFFF;" version="1.1" viewBox="0 0 341 285" width="341px" zoomAndPan="magnify"><defs><filter height="300%" id="ftulwbady4pmk" width="300%" x="-1" y="-1"><feGaussianBlur result="blurOut" stdDeviation="2.0"/><feColorMatrix in="blurOut" result="blurOut2" type="matrix" values="0 0 0 0 0 0 0 0 0 0 0 0 0 0 0 0 0 0 .4 0"/><feOffset dx="4.0" dy="4.0" in="blurOut2" result="blurOut3"/><feBlend in="SourceGraphic" in2="blurOut3" mode="normal"/></filter><linearGradient id="gtulwbady4pmk0" x1="0%" x2="100%" y1="50%" y2="50%"><stop offset="0%" stop-color="#90EE90"/><stop offset="100%" stop-color="#FFFF00"/></linearGradient><linearGradient id="gtulwbady4pmk1" x1="0%" x2="100%" y1="0%" y2="100%"><stop offset="0%" stop-color="#0000FF"/><stop offset="100%" stop-color="#FF0000"/></linearGradient></defs><g><!--MD5=[2217d9c190fa51e57760702350f4fec1]
class bar--><rect codeLine="1" fill="#ADD8E6" filter="url(#ftulwbady4pmk)" height="48" id="bar" style="stroke:#008000;stroke-width:1.5;" width="50" x="27.5" y="7"/><ellipse cx="42.5" cy="23" fill="#ADD1B2" rx="11" ry="11" style="stroke:#008000;stroke-width:1.0;"/><path d="M41.8594,26.7813 Q42.6563,26.7813 43.2188,26.5938 Q43.7969,26.3906 44.0313,26.1719 Q44.2813,25.9375 44.5156,25.75 Q44.7656,25.5469 44.9844,25.5469 Q45.3281,25.5469 45.5781,25.8125 Q45.8438,26.0625 45.8438,26.3906 Q45.8438,27.125 44.6719,27.8125 Q43.5156,28.4844 41.8125,28.4844 Q39.6563,28.4844 38.2344,27.2188 Q36.8125,25.9531 36.8125,24.0156 L36.8125,22.8906 Q36.8125,20.8594 38.1406,19.4844 Q39.4688,18.0938 41.4375,18.0938 Q42.625,18.0938 43.8438,18.6719 L44.0156,18.75 Q44.3125,18.3438 44.7344,18.3438 Q45.2188,18.3438 45.3906,18.6406 Q45.5781,18.9219 45.5781,19.4688 L45.5781,20.8906 Q45.5781,22.0156 44.7344,22.0156 Q44.4219,22.0156 44.2188,21.8438 Q44.0313,21.6719 43.9844,21.5313 Q43.9531,21.375 43.9063,21.1094 Q43.7969,20.5938 43.2813,20.2813 Q42.7656,19.9688 42.3125,19.8906 Q41.875,19.7969 41.5,19.7969 Q40.2188,19.7969 39.3594,20.6719 Q38.5156,21.5469 38.5156,22.8906 L38.5156,23.9844 Q38.5156,25.2656 39.4219,26.0313 Q40.3281,26.7813 41.8594,26.7813 Z " fill="#000000"/><text fill="#000000" font-family="sans-serif" font-size="12" lengthAdjust="spacing" textLength="18" x="56.5" y="27.8">bar</text><line style="stroke:#008000;stroke-width:1.5;" x1="28.5" x2="76.5" y1="39" y2="39"/><line style="stroke:#008000;stroke-width:1.5;" x1="28.5" x2="76.5" y1="47" y2="47"/><!--MD5=[4189a83cf503f5d4a3dfa4b8319fd212]
class bar2--><rect codeLine="2" fill="#ADD8E6" filter="url(#ftulwbady4pmk)" height="48" id="bar2" style="stroke:#008000;stroke-width:1.5;" width="57" x="113" y="7"/><ellipse cx="128" cy="23" fill="#ADD1B2" rx="11" ry="11" style="stroke:#008000;stroke-width:1.0;"/><path d="M127.3594,26.7813 Q128.1563,26.7813 128.7188,26.5938 Q129.2969,26.3906 129.5313,26.1719 Q129.7813,25.9375 130.0156,25.75 Q130.2656,25.5469 130.4844,25.5469 Q130.8281,25.5469 131.0781,25.8125 Q131.3438,26.0625 131.3438,26.3906 Q131.3438,27.125 130.1719,27.8125 Q129.0156,28.4844 127.3125,28.4844 Q125.1563,28.4844 123.7344,27.2188 Q122.3125,25.9531 122.3125,24.0156 L122.3125,22.8906 Q122.3125,20.8594 123.6406,19.4844 Q124.9688,18.0938 126.9375,18.0938 Q128.125,18.0938 129.3438,18.6719 L129.5156,18.75 Q129.8125,18.3438 130.2344,18.3438 Q130.7188,18.3438 130.8906,18.6406 Q131.0781,18.9219 131.0781,19.4688 L131.0781,20.8906 Q131.0781,22.0156 130.2344,22.0156 Q129.9219,22.0156 129.7188,21.8438 Q129.5313,21.6719 129.4844,21.5313 Q129.4531,21.375 129.4063,21.1094 Q129.2969,20.5938 128.7813,20.2813 Q128.2656,19.9688 127.8125,19.8906 Q127.375,19.7969 127,19.7969 Q125.7188,19.7969 124.8594,20.6719 Q124.0156,21.5469 124.0156,22.8906 L124.0156,23.9844 Q124.0156,25.2656 124.9219,26.0313 Q125.8281,26.7813 127.3594,26.7813 Z " fill="#000000"/><text fill="#000000" font-family="sans-serif" font-size="12" lengthAdjust="spacing" textLength="25" x="142" y="27.8">bar2</text><line style="stroke:#008000;stroke-width:1.5;" x1="114" x2="169" y1="39" y2="39"/><line style="stroke:#008000;stroke-width:1.5;" x1="114" x2="169" y1="47" y2="47"/><!--MD5=[4272a0a1957754cd214430d460c5f4ca]
class Foo1--><rect codeLine="4" fill="#FF0000" filter="url(#ftulwbady4pmk)" height="48" id="Foo1" style="stroke:#00FFFF;stroke-width:1.5;" width="58" x="205.5" y="7"/><ellipse cx="220.5" cy="23" fill="#ADD1B2" rx="11" ry="11" style="stroke:#00FFFF;stroke-width:1.0;"/><path d="M219.8594,26.7813 Q220.6563,26.7813 221.2188,26.5938 Q221.7969,26.3906 222.0313,26.1719 Q222.2813,25.9375 222.5156,25.75 Q222.7656,25.5469 222.9844,25.5469 Q223.3281,25.5469 223.5781,25.8125 Q223.8438,26.0625 223.8438,26.3906 Q223.8438,27.125 222.6719,27.8125 Q221.5156,28.4844 219.8125,28.4844 Q217.6563,28.4844 216.2344,27.2188 Q214.8125,25.9531 214.8125,24.0156 L214.8125,22.8906 Q214.8125,20.8594 216.1406,19.4844 Q217.4688,18.0938 219.4375,18.0938 Q220.625,18.0938 221.8438,18.6719 L222.0156,18.75 Q222.3125,18.3438 222.7344,18.3438 Q223.2188,18.3438 223.3906,18.6406 Q223.5781,18.9219 223.5781,19.4688 L223.5781,20.8906 Q223.5781,22.0156 222.7344,22.0156 Q222.4219,22.0156 222.2188,21.8438 Q222.0313,21.6719 221.9844,21.5313 Q221.9531,21.375 221.9063,21.1094 Q221.7969,20.5938 221.2813,20.2813 Q220.7656,19.9688 220.3125,19.8906 Q219.875,19.7969 219.5,19.7969 Q218.2188,19.7969 217.3594,20.6719 Q216.5156,21.5469 216.5156,22.8906 L216.5156,23.9844 Q216.5156,25.2656 217.4219,26.0313 Q218.3281,26.7813 219.8594,26.7813 Z " fill="#000000"/><text fill="#000000" font-family="sans-serif" font-size="12" lengthAdjust="spacing" textLength="26" x="234.5" y="27.8">Foo1</text><line style="stroke:#00FFFF;stroke-width:1.5;" x1="206.5" x2="262.5" y1="39" y2="39"/><line style="stroke:#00FFFF;stroke-width:1.5;" x1="206.5" x2="262.5" y1="47" y2="47"/><!--MD5=[e8068828b39a25d44496916f923338ce]
class FooDashed--><rect codeLine="5" fill="#FEFECE" filter="url(#ftulwbady4pmk)" height="48" id="FooDashed" style="stroke:#0000FF;stroke-width:1.0;stroke-dasharray:7.0,7.0;" width="91" x="7" y="115"/><ellipse cx="22" cy="131" fill="#ADD1B2" rx="11" ry="11" style="stroke:#0000FF;stroke-width:1.0;"/><path d="M21.3594,134.7813 Q22.1563,134.7813 22.7188,134.5938 Q23.2969,134.3906 23.5313,134.1719 Q23.7813,133.9375 24.0156,133.75 Q24.2656,133.5469 24.4844,133.5469 Q24.8281,133.5469 25.0781,133.8125 Q25.3438,134.0625 25.3438,134.3906 Q25.3438,135.125 24.1719,135.8125 Q23.0156,136.4844 21.3125,136.4844 Q19.1563,136.4844 17.7344,135.2188 Q16.3125,133.9531 16.3125,132.0156 L16.3125,130.8906 Q16.3125,128.8594 17.6406,127.4844 Q18.9688,126.0938 20.9375,126.0938 Q22.125,126.0938 23.3438,126.6719 L23.5156,126.75 Q23.8125,126.3438 24.2344,126.3438 Q24.7188,126.3438 24.8906,126.6406 Q25.0781,126.9219 25.0781,127.4688 L25.0781,128.8906 Q25.0781,130.0156 24.2344,130.0156 Q23.9219,130.0156 23.7188,129.8438 Q23.5313,129.6719 23.4844,129.5313 Q23.4531,129.375 23.4063,129.1094 Q23.2969,128.5938 22.7813,128.2813 Q22.2656,127.9688 21.8125,127.8906 Q21.375,127.7969 21,127.7969 Q19.7188,127.7969 18.8594,128.6719 Q18.0156,129.5469 18.0156,130.8906 L18.0156,131.9844 Q18.0156,133.2656 18.9219,134.0313 Q19.8281,134.7813 21.3594,134.7813 Z " fill="#000000"/><text fill="#000000" font-family="sans-serif" font-size="12" lengthAdjust="spacing" textLength="59" x="36" y="135.8">FooDashed</text><line style="stroke:#0000FF;stroke-width:1.0;stroke-dasharray:7.0,7.0;" x1="8" x2="97" y1="147" y2="147"/><line style="stroke:#0000FF;stroke-width:1.0;stroke-dasharray:7.0,7.0;" x1="8" x2="97" y1="155" y2="155"/><!--MD5=[cd62521492cd234e3c8bd374c2e93419]
class FooDotted--><rect codeLine="6" fill="#FEFECE" filter="url(#ftulwbady4pmk)" height="48" id="FooDotted" style="stroke:#0000FF;stroke-width:1.0;stroke-dasharray:1.0,3.0;" width="84" x="133.5" y="115"/><ellipse cx="148.5" cy="131" fill="#ADD1B2" rx="11" ry="11" style="stroke:#0000FF;stroke-width:1.0;"/><path d="M147.8594,134.7813 Q148.6563,134.7813 149.2188,134.5938 Q149.7969,134.3906 150.0313,134.1719 Q150.2813,133.9375 150.5156,133.75 Q150.7656,133.5469 150.9844,133.5469 Q151.3281,133.5469 151.5781,133.8125 Q151.8438,134.0625 151.8438,134.3906 Q151.8438,135.125 150.6719,135.8125 Q149.5156,136.4844 147.8125,136.4844 Q145.6563,136.4844 144.2344,135.2188 Q142.8125,133.9531 142.8125,132.0156 L142.8125,130.8906 Q142.8125,128.8594 144.1406,127.4844 Q145.4688,126.0938 147.4375,126.0938 Q148.625,126.0938 149.8438,126.6719 L150.0156,126.75 Q150.3125,126.3438 150.7344,126.3438 Q151.2188,126.3438 151.3906,126.6406 Q151.5781,126.9219 151.5781,127.4688 L151.5781,128.8906 Q151.5781,130.0156 150.7344,130.0156 Q150.4219,130.0156 150.2188,129.8438 Q150.0313,129.6719 149.9844,129.5313 Q149.9531,129.375 149.9063,129.1094 Q149.7969,128.5938 149.2813,128.2813 Q148.7656,127.9688 148.3125,127.8906 Q147.875,127.7969 147.5,127.7969 Q146.2188,127.7969 145.3594,128.6719 Q144.5156,129.5469 144.5156,130.8906 L144.5156,131.9844 Q144.5156,133.2656 145.4219,134.0313 Q146.3281,134.7813 147.8594,134.7813 Z " fill="#000000"/><text fill="#000000" font-family="sans-serif" font-size="12" lengthAdjust="spacing" textLength="52" x="162.5" y="135.8">FooDotted</text><line style="stroke:#0000FF;stroke-width:1.0;stroke-dasharray:1.0,3.0;" x1="134.5" x2="216.5" y1="147" y2="147"/><line style="stroke:#0000FF;stroke-width:1.0;stroke-dasharray:1.0,3.0;" x1="134.5" x2="216.5" y1="155" y2="155"/><!--MD5=[9fe6b0e10ae60ce99b08fe65b9618e10]
class FooBold--><rect codeLine="7" fill="#FEFECE" filter="url(#ftulwbady4pmk)" height="48" id="FooBold" style="stroke:#A80036;stroke-width:2.0;" width="75" x="252" y="115"/><ellipse cx="267" cy="131" fill="#ADD1B2" rx="11" ry="11" style="stroke:#A80036;stroke-width:1.0;"/><path d="M266.3594,134.7813 Q267.1563,134.7813 267.7188,134.5938 Q268.2969,134.3906 268.5313,134.1719 Q268.7813,133.9375 269.0156,133.75 Q269.2656,133.5469 269.4844,133.5469 Q269.8281,133.5469 270.0781,133.8125 Q270.3438,134.0625 270.3438,134.3906 Q270.3438,135.125 269.1719,135.8125 Q268.0156,136.4844 266.3125,136.4844 Q264.1563,136.4844 262.7344,135.2188 Q261.3125,133.9531 261.3125,132.0156 L261.3125,130.8906 Q261.3125,128.8594 262.6406,127.4844 Q263.9688,126.0938 265.9375,126.0938 Q267.125,126.0938 268.3438,126.6719 L268.5156,126.75 Q268.8125,126.3438 269.2344,126.3438 Q269.7188,126.3438 269.8906,126.6406 Q270.0781,126.9219 270.0781,127.4688 L270.0781,128.8906 Q270.0781,130.0156 269.2344,130.0156 Q268.9219,130.0156 268.7188,129.8438 Q268.5313,129.6719 268.4844,129.5313 Q268.4531,129.375 268.4063,129.1094 Q268.2969,128.5938 267.7813,128.2813 Q267.2656,127.9688 266.8125,127.8906 Q266.375,127.7969 266,127.7969 Q264.7188,127.7969 263.8594,128.6719 Q263.0156,129.5469 263.0156,130.8906 L263.0156,131.9844 Q263.0156,133.2656 263.9219,134.0313 Q264.8281,134.7813 266.3594,134.7813 Z " fill="#000000"/><text fill="#000000" font-family="sans-serif" font-size="12" lengthAdjust="spacing" textLength="43" x="281" y="135.8">FooBold</text><line style="stroke:#A80036;stroke-width:2.0;" x1="253" x2="326" y1="147" y2="147"/><line style="stroke:#A80036;stroke-width:2.0;" x1="253" x2="326" y1="155" y2="155"/><!--MD5=[060322837cf907fb29556f3e6b48a9e1]
class Demo1--><rect codeLine="8" fill="url(#gtulwbady4pmk0)" filter="url(#ftulwbady4pmk)" height="48" id="Demo1" style="stroke:#A80036;stroke-width:1.5;" width="69" x="18" y="223"/><rect fill="url(#gtulwbady4pmk1)" height="32" style="stroke:#A80036;stroke-width:1.5;" width="69" x="18" y="223"/><ellipse cx="33" cy="239" fill="#ADD1B2" rx="11" ry="11" style="stroke:#A80036;stroke-width:1.0;"/><path d="M32.3594,242.7813 Q33.1563,242.7813 33.7188,242.5938 Q34.2969,242.3906 34.5313,242.1719 Q34.7813,241.9375 35.0156,241.75 Q35.2656,241.5469 35.4844,241.5469 Q35.8281,241.5469 36.0781,241.8125 Q36.3438,242.0625 36.3438,242.3906 Q36.3438,243.125 35.1719,243.8125 Q34.0156,244.4844 32.3125,244.4844 Q30.1563,244.4844 28.7344,243.2188 Q27.3125,241.9531 27.3125,240.0156 L27.3125,238.8906 Q27.3125,236.8594 28.6406,235.4844 Q29.9688,234.0938 31.9375,234.0938 Q33.125,234.0938 34.3438,234.6719 L34.5156,234.75 Q34.8125,234.3438 35.2344,234.3438 Q35.7188,234.3438 35.8906,234.6406 Q36.0781,234.9219 36.0781,235.4688 L36.0781,236.8906 Q36.0781,238.0156 35.2344,238.0156 Q34.9219,238.0156 34.7188,237.8438 Q34.5313,237.6719 34.4844,237.5313 Q34.4531,237.375 34.4063,237.1094 Q34.2969,236.5938 33.7813,236.2813 Q33.2656,235.9688 32.8125,235.8906 Q32.375,235.7969 32,235.7969 Q30.7188,235.7969 29.8594,236.6719 Q29.0156,237.5469 29.0156,238.8906 L29.0156,239.9844 Q29.0156,241.2656 29.9219,242.0313 Q30.8281,242.7813 32.3594,242.7813 Z " fill="#000000"/><text fill="#000000" font-family="sans-serif" font-size="12" lengthAdjust="spacing" textLength="37" x="47" y="243.8">Demo1</text><line style="stroke:#A80036;stroke-width:1.5;" x1="19" x2="86" y1="255" y2="255"/><line style="stroke:#A80036;stroke-width:1.5;" x1="19" x2="86" y1="263" y2="263"/><!--MD5=[2461576b221d4c9c71d325a4a067cf83]
link bar to bar2--><!--MD5=[a6134e8993f57e8c8432679a0f391cbd]
link bar2 to Foo1--><!--MD5=[714f0ce2f59e9de558c0c26aa82c3def]
link bar to FooDashed--><!--MD5=[a35f4d5271c3c292160337f077d1dae7]
link FooDashed to FooDotted--><!--MD5=[1124c7a8d66a1fbd7db6d45359050823]
link FooDotted to FooBold--><!--MD5=[0385a55acc74404c41977baa4d8b119b]
link FooDashed to Demo1--><!--MD5=[488d0483c504a6d1767f87f0b33b3fb8]
@startuml
class bar #line:green;back:lightblue
class bar2 #lightblue;line:green

class Foo1 #back:red;line:00FFFF
class FooDashed #line.dashed:blue
class FooDotted #line.dotted:blue
class FooBold #line.bold
class Demo1 #back:lightgreen|yellow;header:blue/red
@enduml

PlantUML version 1.2021.8(Sat Jun 26 08:20:59 GMT 2021)
(GPL source distribution)
Java Runtime: OpenJDK Runtime Environment
JVM: OpenJDK 64-Bit Server VM
Default Encoding: UTF-8
Language: en
Country: US
--></g></svg>