<?xml version="1.0" encoding="UTF-8" standalone="no"?><svg xmlns="http://www.w3.org/2000/svg" xmlns:xlink="http://www.w3.org/1999/xlink" contentScriptType="application/ecmascript" contentStyleType="text/css" height="804px" preserveAspectRatio="none" style="width:1546px;height:804px;background:#FFFFFF;" version="1.1" viewBox="0 0 1546 804" width="1546px" zoomAndPan="magnify"><defs><filter height="300%" id="f1fy5ww46dbyub" width="300%" x="-1" y="-1"><feGaussianBlur result="blurOut" stdDeviation="2.0"/><feColorMatrix in="blurOut" result="blurOut2" type="matrix" values="0 0 0 0 0 0 0 0 0 0 0 0 0 0 0 0 0 0 .4 0"/><feOffset dx="4.0" dy="4.0" in="blurOut2" result="blurOut3"/><feBlend in="SourceGraphic" in2="blurOut3" mode="normal"/></filter></defs><g><!--MD5=[364ffc45e8e00404f2e98a5e8e82c5a4]
class config.ftv_dwh_database--><rect codeLine="26" fill="#FFFF00" filter="url(#f1fy5ww46dbyub)" height="54.8002" id="config.ftv_dwh_database" style="stroke:#A80036;stroke-width:1.5;" width="138" x="887.5" y="148"/><text fill="#000000" font-family="sans-serif" font-size="12" font-style="italic" lengthAdjust="spacing" textLength="20" x="946.5" y="165.0001">«IF»</text><text fill="#000000" font-family="sans-serif" font-size="12" lengthAdjust="spacing" textLength="132" x="890.5" y="179.4002">config.ftv_dwh_database</text><line style="stroke:#A80036;stroke-width:1.5;" x1="888.5" x2="1024.5" y1="186.8002" y2="186.8002"/><line style="stroke:#A80036;stroke-width:1.0;" x1="888.5" x2="1024.5" y1="194.8002" y2="194.8002"/><!--MD5=[f5c945fa00204d4c338bf8988b1b6f50]
class config.Parameter--><rect codeLine="30" fill="#FFFFFF" filter="url(#f1fy5ww46dbyub)" height="81.2" id="config.Parameter" style="stroke:#A80036;stroke-width:1.5;" width="186" x="863.5" y="7"/><text fill="#000000" font-family="sans-serif" font-size="12" font-style="italic" lengthAdjust="spacing" textLength="19" x="947" y="24.0001">«U»</text><text fill="#000000" font-family="sans-serif" font-size="12" lengthAdjust="spacing" textLength="89" x="912" y="38.4002">config.Parameter</text><line style="stroke:#A80036;stroke-width:1.5;" x1="864.5" x2="1048.5" y1="45.8002" y2="45.8002"/><ellipse cx="874.5" cy="56.8002" fill="#000000" rx="3" ry="3" style="stroke:#000000;stroke-width:1.0;"/><text fill="#000000" font-family="sans-serif" font-size="11" font-weight="bold" lengthAdjust="spacing" textLength="88" x="883.5" y="60.8001">Parameter_name</text><text fill="#000000" font-family="sans-serif" font-size="11" lengthAdjust="spacing" textLength="69" x="974.5" y="60.8001">: varchar(100)</text><ellipse cx="874.5" cy="70.0001" fill="#000000" rx="3" ry="3" style="stroke:#000000;stroke-width:1.0;"/><text fill="#000000" font-family="sans-serif" font-size="11" font-weight="bold" lengthAdjust="spacing" textLength="79" x="883.5" y="74">sub_Parameter</text><text fill="#000000" font-family="sans-serif" font-size="11" lengthAdjust="spacing" textLength="75" x="965.5" y="74">: nvarchar(128)</text><line style="stroke:#A80036;stroke-width:1.0;" x1="864.5" x2="1048.5" y1="80.2" y2="80.2"/><!--MD5=[04197324ff093c4e006e17f566671fc0]
class repo.RepoObject--><rect codeLine="36" fill="#FFFFFF" filter="url(#f1fy5ww46dbyub)" height="68.0001" id="repo.RepoObject" style="stroke:#A80036;stroke-width:1.5;" width="200" x="540.5" y="493"/><text fill="#000000" font-family="sans-serif" font-size="12" font-style="italic" lengthAdjust="spacing" textLength="19" x="631" y="510.0001">«U»</text><text fill="#000000" font-family="sans-serif" font-size="12" lengthAdjust="spacing" textLength="88" x="596.5" y="524.4002">repo.RepoObject</text><line style="stroke:#A80036;stroke-width:1.5;" x1="541.5" x2="739.5" y1="531.8002" y2="531.8002"/><ellipse cx="551.5" cy="542.8002" fill="#000000" rx="3" ry="3" style="stroke:#000000;stroke-width:1.0;"/><text fill="#000000" font-family="sans-serif" font-size="11" font-weight="bold" lengthAdjust="spacing" textLength="93" x="560.5" y="546.8001">RepoObject_guid</text><text fill="#000000" font-family="sans-serif" font-size="11" lengthAdjust="spacing" textLength="78" x="656.5" y="546.8001">: uniqueidentifier</text><line style="stroke:#A80036;stroke-width:1.0;" x1="541.5" x2="739.5" y1="553.0001" y2="553.0001"/><!--MD5=[1c0e51147a15ae45b57d2f55be655232]
class repo.RepoObjectColumn--><rect codeLine="41" fill="#FFFFFF" filter="url(#f1fy5ww46dbyub)" height="68.0001" id="repo.RepoObjectColumn" style="stroke:#A80036;stroke-width:1.5;" width="242" x="948.5" y="493"/><text fill="#000000" font-family="sans-serif" font-size="12" font-style="italic" lengthAdjust="spacing" textLength="19" x="1060" y="510.0001">«U»</text><text fill="#000000" font-family="sans-serif" font-size="12" lengthAdjust="spacing" textLength="128" x="1005.5" y="524.4002">repo.RepoObjectColumn</text><line style="stroke:#A80036;stroke-width:1.5;" x1="949.5" x2="1189.5" y1="531.8002" y2="531.8002"/><ellipse cx="959.5" cy="542.8002" fill="#000000" rx="3" ry="3" style="stroke:#000000;stroke-width:1.0;"/><text fill="#000000" font-family="sans-serif" font-size="11" font-weight="bold" lengthAdjust="spacing" textLength="135" x="968.5" y="546.8001">RepoObjectColumn_guid</text><text fill="#000000" font-family="sans-serif" font-size="11" lengthAdjust="spacing" textLength="78" x="1106.5" y="546.8001">: uniqueidentifier</text><line style="stroke:#A80036;stroke-width:1.0;" x1="949.5" x2="1189.5" y1="553.0001" y2="553.0001"/><!--MD5=[2da0b9f4ece38ae8e4483de1e4d75ba1]
class repo.SysColumn_RepoObjectColumn_via_name--><rect codeLine="46" fill="#F5F5F5" filter="url(#f1fy5ww46dbyub)" height="54.8002" id="repo.SysColumn_RepoObjectColumn_via_name" style="stroke:#A80036;stroke-width:1.5;" width="260" x="753.5" y="621"/><text fill="#000000" font-family="sans-serif" font-size="12" font-style="italic" lengthAdjust="spacing" textLength="18" x="874.5" y="638.0001">«V»</text><text fill="#000000" font-family="sans-serif" font-size="12" lengthAdjust="spacing" textLength="254" x="756.5" y="652.4002">repo.SysColumn_RepoObjectColumn_via_name</text><line style="stroke:#A80036;stroke-width:1.5;" x1="754.5" x2="1012.5" y1="659.8002" y2="659.8002"/><line style="stroke:#A80036;stroke-width:1.0;" x1="754.5" x2="1012.5" y1="667.8002" y2="667.8002"/><!--MD5=[03fe6c491144b18b8f50eef4b3f318b7]
class repo.SysObject_RepoObject_via_name--><rect codeLine="50" fill="#F5F5F5" filter="url(#f1fy5ww46dbyub)" height="54.8002" id="repo.SysObject_RepoObject_via_name" style="stroke:#A80036;stroke-width:1.5;" width="214" x="504.5" y="621"/><text fill="#000000" font-family="sans-serif" font-size="12" font-style="italic" lengthAdjust="spacing" textLength="18" x="602.5" y="638.0001">«V»</text><text fill="#000000" font-family="sans-serif" font-size="12" lengthAdjust="spacing" textLength="208" x="507.5" y="652.4002">repo.SysObject_RepoObject_via_name</text><line style="stroke:#A80036;stroke-width:1.5;" x1="505.5" x2="717.5" y1="659.8002" y2="659.8002"/><line style="stroke:#A80036;stroke-width:1.0;" x1="505.5" x2="717.5" y1="667.8002" y2="667.8002"/><!--MD5=[2a618efffcd1b59417075f7df2095830]
class repo_sys.ExtendedProperties--><rect codeLine="54" fill="#F5F5F5" filter="url(#f1fy5ww46dbyub)" height="54.8002" id="repo_sys.ExtendedProperties" style="stroke:#A80036;stroke-width:1.5;" width="159" x="505" y="263"/><text fill="#000000" font-family="sans-serif" font-size="12" font-style="italic" lengthAdjust="spacing" textLength="18" x="575.5" y="280.0001">«V»</text><text fill="#000000" font-family="sans-serif" font-size="12" lengthAdjust="spacing" textLength="153" x="508" y="294.4002">repo_sys.ExtendedProperties</text><line style="stroke:#A80036;stroke-width:1.5;" x1="506" x2="663" y1="301.8002" y2="301.8002"/><line style="stroke:#A80036;stroke-width:1.0;" x1="506" x2="663" y1="309.8002" y2="309.8002"/><!--MD5=[0384bb01ee38a6f1c61656f155b16d49]
class repo_sys.sql_expression_dependencies--><rect codeLine="58" fill="#F5F5F5" filter="url(#f1fy5ww46dbyub)" height="54.8002" id="repo_sys.sql_expression_dependencies" style="stroke:#A80036;stroke-width:1.5;" width="215" x="912" y="736"/><text fill="#000000" font-family="sans-serif" font-size="12" font-style="italic" lengthAdjust="spacing" textLength="18" x="1010.5" y="753.0001">«V»</text><text fill="#000000" font-family="sans-serif" font-size="12" lengthAdjust="spacing" textLength="209" x="915" y="767.4002">repo_sys.sql_expression_dependencies</text><line style="stroke:#A80036;stroke-width:1.5;" x1="913" x2="1126" y1="774.8002" y2="774.8002"/><line style="stroke:#A80036;stroke-width:1.0;" x1="913" x2="1126" y1="782.8002" y2="782.8002"/><!--MD5=[a07488a5fe404a212914d893d860276d]
class repo_sys.SysColumn--><rect codeLine="62" fill="#F5F5F5" filter="url(#f1fy5ww46dbyub)" height="54.8002" id="repo_sys.SysColumn" style="stroke:#A80036;stroke-width:1.5;" width="117" x="796" y="499.5"/><text fill="#000000" font-family="sans-serif" font-size="12" font-style="italic" lengthAdjust="spacing" textLength="18" x="845.5" y="516.5001">«V»</text><text fill="#000000" font-family="sans-serif" font-size="12" lengthAdjust="spacing" textLength="111" x="799" y="530.9002">repo_sys.SysColumn</text><line style="stroke:#A80036;stroke-width:1.5;" x1="797" x2="912" y1="538.3002" y2="538.3002"/><line style="stroke:#A80036;stroke-width:1.0;" x1="797" x2="912" y1="546.3002" y2="546.3002"/><!--MD5=[d3946cda6009a263e351d60ae5c15cc2]
class repo_sys.SysObject--><rect codeLine="66" fill="#F5F5F5" filter="url(#f1fy5ww46dbyub)" height="54.8002" id="repo_sys.SysObject" style="stroke:#A80036;stroke-width:1.5;" width="111" x="371" y="378"/><text fill="#000000" font-family="sans-serif" font-size="12" font-style="italic" lengthAdjust="spacing" textLength="18" x="417.5" y="395.0001">«V»</text><text fill="#000000" font-family="sans-serif" font-size="12" lengthAdjust="spacing" textLength="105" x="374" y="409.4002">repo_sys.SysObject</text><line style="stroke:#A80036;stroke-width:1.5;" x1="372" x2="481" y1="416.8002" y2="416.8002"/><line style="stroke:#A80036;stroke-width:1.0;" x1="372" x2="481" y1="424.8002" y2="424.8002"/><!--MD5=[4d0aaf62819860aea8bdf7fa33eb28bb]
class sys_dwh.columns--><rect codeLine="70" fill="#FFFF00" filter="url(#f1fy5ww46dbyub)" height="54.8002" id="sys_dwh.columns" style="stroke:#A80036;stroke-width:1.5;" width="99" x="753" y="148"/><text fill="#000000" font-family="sans-serif" font-size="12" font-style="italic" lengthAdjust="spacing" textLength="27" x="789" y="165.0001">«SN»</text><text fill="#000000" font-family="sans-serif" font-size="12" lengthAdjust="spacing" textLength="93" x="756" y="179.4002">sys_dwh.columns</text><line style="stroke:#A80036;stroke-width:1.5;" x1="754" x2="851" y1="186.8002" y2="186.8002"/><line style="stroke:#A80036;stroke-width:1.0;" x1="754" x2="851" y1="194.8002" y2="194.8002"/><!--MD5=[2e8e63f6a6d20ce3c8803ba1112c34f0]
class sys_dwh.computed_columns--><rect codeLine="74" fill="#FFFF00" filter="url(#f1fy5ww46dbyub)" height="54.8002" id="sys_dwh.computed_columns" style="stroke:#A80036;stroke-width:1.5;" width="157" x="842" y="378"/><text fill="#000000" font-family="sans-serif" font-size="12" font-style="italic" lengthAdjust="spacing" textLength="27" x="907" y="395.0001">«SN»</text><text fill="#000000" font-family="sans-serif" font-size="12" lengthAdjust="spacing" textLength="151" x="845" y="409.4002">sys_dwh.computed_columns</text><line style="stroke:#A80036;stroke-width:1.5;" x1="843" x2="998" y1="416.8002" y2="416.8002"/><line style="stroke:#A80036;stroke-width:1.0;" x1="843" x2="998" y1="424.8002" y2="424.8002"/><!--MD5=[5f5b642a276f92d5b532039eb3580f99]
class sys_dwh.default_constraints--><rect codeLine="78" fill="#FFFF00" filter="url(#f1fy5ww46dbyub)" height="54.8002" id="sys_dwh.default_constraints" style="stroke:#A80036;stroke-width:1.5;" width="154" x="1034.5" y="378"/><text fill="#000000" font-family="sans-serif" font-size="12" font-style="italic" lengthAdjust="spacing" textLength="27" x="1098" y="395.0001">«SN»</text><text fill="#000000" font-family="sans-serif" font-size="12" lengthAdjust="spacing" textLength="148" x="1037.5" y="409.4002">sys_dwh.default_constraints</text><line style="stroke:#A80036;stroke-width:1.5;" x1="1035.5" x2="1187.5" y1="416.8002" y2="416.8002"/><line style="stroke:#A80036;stroke-width:1.0;" x1="1035.5" x2="1187.5" y1="424.8002" y2="424.8002"/><!--MD5=[97f4b9377e562468b64e4f8fe3d7d702]
class sys_dwh.extended_properties--><rect codeLine="82" fill="#FFFF00" filter="url(#f1fy5ww46dbyub)" height="54.8002" id="sys_dwh.extended_properties" style="stroke:#A80036;stroke-width:1.5;" width="162" x="273.5" y="148"/><text fill="#000000" font-family="sans-serif" font-size="12" font-style="italic" lengthAdjust="spacing" textLength="27" x="341" y="165.0001">«SN»</text><text fill="#000000" font-family="sans-serif" font-size="12" lengthAdjust="spacing" textLength="156" x="276.5" y="179.4002">sys_dwh.extended_properties</text><line style="stroke:#A80036;stroke-width:1.5;" x1="274.5" x2="434.5" y1="186.8002" y2="186.8002"/><line style="stroke:#A80036;stroke-width:1.0;" x1="274.5" x2="434.5" y1="194.8002" y2="194.8002"/><!--MD5=[1971bad57cc0bea05f9094e73f947d7f]
class sys_dwh.identity_columns--><rect codeLine="86" fill="#FFFF00" filter="url(#f1fy5ww46dbyub)" height="54.8002" id="sys_dwh.identity_columns" style="stroke:#A80036;stroke-width:1.5;" width="143" x="1224" y="378"/><text fill="#000000" font-family="sans-serif" font-size="12" font-style="italic" lengthAdjust="spacing" textLength="27" x="1282" y="395.0001">«SN»</text><text fill="#000000" font-family="sans-serif" font-size="12" lengthAdjust="spacing" textLength="137" x="1227" y="409.4002">sys_dwh.identity_columns</text><line style="stroke:#A80036;stroke-width:1.5;" x1="1225" x2="1366" y1="416.8002" y2="416.8002"/><line style="stroke:#A80036;stroke-width:1.0;" x1="1225" x2="1366" y1="424.8002" y2="424.8002"/><!--MD5=[0c6c8729321fa8b4fa47ce2f2159269c]
class sys_dwh.indexes--><rect codeLine="90" fill="#FFFF00" filter="url(#f1fy5ww46dbyub)" height="54.8002" id="sys_dwh.indexes" style="stroke:#A80036;stroke-width:1.5;" width="96" x="470.5" y="148"/><text fill="#000000" font-family="sans-serif" font-size="12" font-style="italic" lengthAdjust="spacing" textLength="27" x="505" y="165.0001">«SN»</text><text fill="#000000" font-family="sans-serif" font-size="12" lengthAdjust="spacing" textLength="90" x="473.5" y="179.4002">sys_dwh.indexes</text><line style="stroke:#A80036;stroke-width:1.5;" x1="471.5" x2="565.5" y1="186.8002" y2="186.8002"/><line style="stroke:#A80036;stroke-width:1.0;" x1="471.5" x2="565.5" y1="194.8002" y2="194.8002"/><!--MD5=[a82225d83ae443ba4decdf7ac191cc27]
class sys_dwh.objects--><rect codeLine="94" fill="#FFFF00" filter="url(#f1fy5ww46dbyub)" height="54.8002" id="sys_dwh.objects" style="stroke:#A80036;stroke-width:1.5;" width="93" x="7" y="148"/><text fill="#000000" font-family="sans-serif" font-size="12" font-style="italic" lengthAdjust="spacing" textLength="27" x="40" y="165.0001">«SN»</text><text fill="#000000" font-family="sans-serif" font-size="12" lengthAdjust="spacing" textLength="87" x="10" y="179.4002">sys_dwh.objects</text><line style="stroke:#A80036;stroke-width:1.5;" x1="8" x2="99" y1="186.8002" y2="186.8002"/><line style="stroke:#A80036;stroke-width:1.0;" x1="8" x2="99" y1="194.8002" y2="194.8002"/><!--MD5=[7ade1243dd64a0967b7fe0f952f0edce]
class sys_dwh.parameters--><rect codeLine="98" fill="#FFFF00" filter="url(#f1fy5ww46dbyub)" height="54.8002" id="sys_dwh.parameters" style="stroke:#A80036;stroke-width:1.5;" width="116" x="601.5" y="148"/><text fill="#000000" font-family="sans-serif" font-size="12" font-style="italic" lengthAdjust="spacing" textLength="27" x="646" y="165.0001">«SN»</text><text fill="#000000" font-family="sans-serif" font-size="12" lengthAdjust="spacing" textLength="110" x="604.5" y="179.4002">sys_dwh.parameters</text><line style="stroke:#A80036;stroke-width:1.5;" x1="602.5" x2="716.5" y1="186.8002" y2="186.8002"/><line style="stroke:#A80036;stroke-width:1.0;" x1="602.5" x2="716.5" y1="194.8002" y2="194.8002"/><!--MD5=[dc37f360d31b38a003f60cd9e50921c3]
class sys_dwh.schemas--><rect codeLine="102" fill="#FFFF00" filter="url(#f1fy5ww46dbyub)" height="54.8002" id="sys_dwh.schemas" style="stroke:#A80036;stroke-width:1.5;" width="103" x="135" y="148"/><text fill="#000000" font-family="sans-serif" font-size="12" font-style="italic" lengthAdjust="spacing" textLength="27" x="173" y="165.0001">«SN»</text><text fill="#000000" font-family="sans-serif" font-size="12" lengthAdjust="spacing" textLength="97" x="138" y="179.4002">sys_dwh.schemas</text><line style="stroke:#A80036;stroke-width:1.5;" x1="136" x2="237" y1="186.8002" y2="186.8002"/><line style="stroke:#A80036;stroke-width:1.0;" x1="136" x2="237" y1="194.8002" y2="194.8002"/><!--MD5=[5680ddd7df6ea1bd36994206cb41da01]
class sys_dwh.sql_expression_dependencies--><rect codeLine="106" fill="#FFFF00" filter="url(#f1fy5ww46dbyub)" height="54.8002" id="sys_dwh.sql_expression_dependencies" style="stroke:#A80036;stroke-width:1.5;" width="214" x="1048.5" y="621"/><text fill="#000000" font-family="sans-serif" font-size="12" font-style="italic" lengthAdjust="spacing" textLength="27" x="1142" y="638.0001">«SN»</text><text fill="#000000" font-family="sans-serif" font-size="12" lengthAdjust="spacing" textLength="208" x="1051.5" y="652.4002">sys_dwh.sql_expression_dependencies</text><line style="stroke:#A80036;stroke-width:1.5;" x1="1049.5" x2="1261.5" y1="659.8002" y2="659.8002"/><line style="stroke:#A80036;stroke-width:1.0;" x1="1049.5" x2="1261.5" y1="667.8002" y2="667.8002"/><!--MD5=[0a930d678e42d63d72522a654d268739]
class sys_dwh.sql_modules--><rect codeLine="110" fill="#FFFF00" filter="url(#f1fy5ww46dbyub)" height="54.8002" id="sys_dwh.sql_modules" style="stroke:#A80036;stroke-width:1.5;" width="123" x="224" y="263"/><text fill="#000000" font-family="sans-serif" font-size="12" font-style="italic" lengthAdjust="spacing" textLength="27" x="272" y="280.0001">«SN»</text><text fill="#000000" font-family="sans-serif" font-size="12" lengthAdjust="spacing" textLength="117" x="227" y="294.4002">sys_dwh.sql_modules</text><line style="stroke:#A80036;stroke-width:1.5;" x1="225" x2="346" y1="301.8002" y2="301.8002"/><line style="stroke:#A80036;stroke-width:1.0;" x1="225" x2="346" y1="309.8002" y2="309.8002"/><!--MD5=[1a0949be450258e968113a2c263d87ff]
class sys_dwh.tables--><rect codeLine="114" fill="#FFFF00" filter="url(#f1fy5ww46dbyub)" height="54.8002" id="sys_dwh.tables" style="stroke:#A80036;stroke-width:1.5;" width="88" x="382.5" y="263"/><text fill="#000000" font-family="sans-serif" font-size="12" font-style="italic" lengthAdjust="spacing" textLength="27" x="413" y="280.0001">«SN»</text><text fill="#000000" font-family="sans-serif" font-size="12" lengthAdjust="spacing" textLength="82" x="385.5" y="294.4002">sys_dwh.tables</text><line style="stroke:#A80036;stroke-width:1.5;" x1="383.5" x2="469.5" y1="301.8002" y2="301.8002"/><line style="stroke:#A80036;stroke-width:1.0;" x1="383.5" x2="469.5" y1="309.8002" y2="309.8002"/><!--MD5=[99f3f05bb9a076457946029a8732ce1d]
class sys_dwh.types--><rect codeLine="118" fill="#FFFF00" filter="url(#f1fy5ww46dbyub)" height="54.8002" id="sys_dwh.types" style="stroke:#A80036;stroke-width:1.5;" width="84" x="1402.5" y="378"/><text fill="#000000" font-family="sans-serif" font-size="12" font-style="italic" lengthAdjust="spacing" textLength="27" x="1431" y="395.0001">«SN»</text><text fill="#000000" font-family="sans-serif" font-size="12" lengthAdjust="spacing" textLength="78" x="1405.5" y="409.4002">sys_dwh.types</text><line style="stroke:#A80036;stroke-width:1.5;" x1="1403.5" x2="1485.5" y1="416.8002" y2="416.8002"/><line style="stroke:#A80036;stroke-width:1.0;" x1="1403.5" x2="1485.5" y1="424.8002" y2="424.8002"/><!--MD5=[9c420bcacad551d9c719f44bf19d8efa]
reverse link config.ftv_dwh_database to repo_sys.ExtendedProperties--><path codeLine="122" d="M882.14,199.16 C877.86,200.46 873.63,201.75 869.5,203 C800.12,224.1 721.22,248.04 664.05,265.38 " fill="none" id="config.ftv_dwh_database-backto-repo_sys.ExtendedProperties" style="stroke:#A80036;stroke-width:1.0;stroke-dasharray:7.0,7.0;"/><polygon fill="#A80036" points="887.17,197.62,877.3941,196.4231,882.388,199.0804,879.7307,204.0742,887.17,197.62" style="stroke:#A80036;stroke-width:1.0;"/><!--MD5=[26d87cc3c2f4f7de28854c1c8a489cdb]
reverse link config.ftv_dwh_database to repo_sys.SysColumn--><path codeLine="123" d="M928.04,207.13 C895.67,244.27 844.69,310.33 824.5,378 C812.06,419.7 828.36,469.55 841.37,499.45 " fill="none" id="config.ftv_dwh_database-backto-repo_sys.SysColumn" style="stroke:#A80036;stroke-width:1.0;stroke-dasharray:7.0,7.0;"/><polygon fill="#A80036" points="931.5,203.19,922.5554,207.3124,928.2004,206.9467,928.5661,212.5917,931.5,203.19" style="stroke:#A80036;stroke-width:1.0;"/><!--MD5=[e6e5cee9aae7e06a011e5ddb56a64e96]
reverse link config.ftv_dwh_database to repo_sys.sql_expression_dependencies--><path codeLine="124" d="M1030.71,189.36 C1187.78,218.7 1539.5,296.45 1539.5,404.5 C1539.5,404.5 1539.5,404.5 1539.5,528 C1539.5,707.25 1279.56,750.25 1127.24,760.07 " fill="none" id="config.ftv_dwh_database-backto-repo_sys.sql_expression_dependencies" style="stroke:#A80036;stroke-width:1.0;stroke-dasharray:7.0,7.0;"/><polygon fill="#A80036" points="1025.67,188.43,1033.7865,194.0087,1030.5857,189.3445,1035.2498,186.1437,1025.67,188.43" style="stroke:#A80036;stroke-width:1.0;"/><!--MD5=[adf7a6ba0b6c2098454909f668c7a1f4]
reverse link config.Parameter to config.ftv_dwh_database--><path codeLine="125" d="M956.5,93.12 C956.5,111.42 956.5,131.98 956.5,147.86 " fill="none" id="config.Parameter-backto-config.ftv_dwh_database" style="stroke:#A80036;stroke-width:1.0;stroke-dasharray:7.0,7.0;"/><polygon fill="#A80036" points="956.5,88.02,952.5,97.02,956.5,93.02,960.5,97.02,956.5,88.02" style="stroke:#A80036;stroke-width:1.0;"/><!--MD5=[e1c2592cf041e35e2f91b0abea679dbd]
reverse link repo.RepoObject to repo.SysObject_RepoObject_via_name--><path codeLine="126" d="M631.22,566.22 C626.91,584.01 621.88,604.74 617.98,620.81 " fill="none" id="repo.RepoObject-backto-repo.SysObject_RepoObject_via_name" style="stroke:#A80036;stroke-width:1.0;stroke-dasharray:7.0,7.0;"/><polygon fill="#A80036" points="632.42,561.29,626.3997,569.0846,631.2342,566.1474,634.1715,570.9819,632.42,561.29" style="stroke:#A80036;stroke-width:1.0;"/><!--MD5=[33bb436eb1e52312385f70acca2d0750]
reverse link repo.RepoObject to repo.SysColumn_RepoObjectColumn_via_name--><path codeLine="127" d="M712.4,563.36 C749.9,581.8 795,603.98 829.48,620.94 " fill="none" id="repo.RepoObject-backto-repo.SysColumn_RepoObjectColumn_via_name" style="stroke:#A80036;stroke-width:1.0;stroke-dasharray:7.0,7.0;"/><polygon fill="#A80036" points="707.87,561.13,714.1793,568.6926,712.3563,563.3375,717.7113,561.5145,707.87,561.13" style="stroke:#A80036;stroke-width:1.0;"/><!--MD5=[c1cab050a578252dfce2bc53364c3fa6]
reverse link repo.RepoObjectColumn to repo.SysColumn_RepoObjectColumn_via_name--><path codeLine="128" d="M1013.18,564.18 C984.81,582.41 951.02,604.12 925.04,620.81 " fill="none" id="repo.RepoObjectColumn-backto-repo.SysColumn_RepoObjectColumn_via_name" style="stroke:#A80036;stroke-width:1.0;stroke-dasharray:7.0,7.0;"/><polygon fill="#A80036" points="1017.69,561.29,1007.9564,562.7921,1013.4841,563.9938,1012.2824,569.5215,1017.69,561.29" style="stroke:#A80036;stroke-width:1.0;"/><!--MD5=[d9c283fb4c1163e20a32c2d86840b106]
reverse link repo.SysColumn_RepoObjectColumn_via_name to repo_sys.sql_expression_dependencies--><path codeLine="129" d="M919.61,679.5 C940.72,697.04 967.14,718.99 987.5,735.91 " fill="none" id="repo.SysColumn_RepoObjectColumn_via_name-backto-repo_sys.sql_expression_dependencies" style="stroke:#A80036;stroke-width:1.0;stroke-dasharray:7.0,7.0;"/><polygon fill="#A80036" points="915.73,676.28,920.1059,685.1033,919.5793,679.4711,925.2116,678.9445,915.73,676.28" style="stroke:#A80036;stroke-width:1.0;"/><!--MD5=[35585fa20268a993b0d2f66b26cea3bb]
reverse link repo.SysObject_RepoObject_via_name to repo_sys.sql_expression_dependencies--><path codeLine="130" d="M712.42,677.45 C776.89,695.31 860,718.33 923.5,735.91 " fill="none" id="repo.SysObject_RepoObject_via_name-backto-repo_sys.sql_expression_dependencies" style="stroke:#A80036;stroke-width:1.0;stroke-dasharray:7.0,7.0;"/><polygon fill="#A80036" points="707.42,676.06,715.0364,682.3043,712.2408,677.3864,717.1587,674.5909,707.42,676.06" style="stroke:#A80036;stroke-width:1.0;"/><!--MD5=[f46952d724e0ccce60c376f5fc57f720]
reverse link repo_sys.ExtendedProperties to repo_sys.SysColumn--><path codeLine="131" d="M602.69,322.48 C621.89,353.26 654.45,400.45 691.5,433 C722.58,460.31 762.94,483.41 795.72,499.76 " fill="none" id="repo_sys.ExtendedProperties-backto-repo_sys.SysColumn" style="stroke:#A80036;stroke-width:1.0;stroke-dasharray:7.0,7.0;"/><polygon fill="#A80036" points="599.96,318.06,601.2848,327.8193,602.5869,322.3144,608.0918,323.6164,599.96,318.06" style="stroke:#A80036;stroke-width:1.0;"/><!--MD5=[8a19f997197710646af8af39b36fa211]
reverse link repo_sys.ExtendedProperties to repo_sys.SysObject--><path codeLine="132" d="M542.86,321.28 C518.28,338.86 487.43,360.92 463.68,377.91 " fill="none" id="repo_sys.ExtendedProperties-backto-repo_sys.SysObject" style="stroke:#A80036;stroke-width:1.0;stroke-dasharray:7.0,7.0;"/><polygon fill="#A80036" points="547.06,318.28,537.4134,320.2658,542.9942,321.1902,542.0698,326.771,547.06,318.28" style="stroke:#A80036;stroke-width:1.0;"/><!--MD5=[093e0e604ec0380d87a16587f80511aa]
reverse link repo_sys.SysColumn to repo.SysColumn_RepoObjectColumn_via_name--><path codeLine="133" d="M862.2,559.74 C866.81,578.73 872.6,602.59 876.98,620.64 " fill="none" id="repo_sys.SysColumn-backto-repo.SysColumn_RepoObjectColumn_via_name" style="stroke:#A80036;stroke-width:1.0;stroke-dasharray:7.0,7.0;"/><polygon fill="#A80036" points="860.94,554.52,859.1551,564.2058,862.109,559.3814,866.9334,562.3353,860.94,554.52" style="stroke:#A80036;stroke-width:1.0;"/><!--MD5=[e7ed35f4a37560726da38106fbb635f8]
reverse link repo_sys.SysObject to repo.SysObject_RepoObject_via_name--><path codeLine="134" d="M442.99,437.84 C460.66,470.15 490.51,521.26 522.5,561 C539.93,582.65 562.39,604.45 580.39,620.74 " fill="none" id="repo_sys.SysObject-backto-repo.SysObject_RepoObject_via_name" style="stroke:#A80036;stroke-width:1.0;stroke-dasharray:7.0,7.0;"/><polygon fill="#A80036" points="440.48,433.22,441.2915,443.0354,442.8803,437.6062,448.3094,439.1949,440.48,433.22" style="stroke:#A80036;stroke-width:1.0;"/><!--MD5=[088ca921d9c9f22c2e617da000077732]
reverse link repo_sys.SysObject to repo_sys.SysColumn--><path codeLine="135" d="M487.21,420.85 C554.08,436.98 664.57,464.67 758.5,493 C770.65,496.66 783.56,500.88 795.84,505.04 " fill="none" id="repo_sys.SysObject-backto-repo_sys.SysColumn" style="stroke:#A80036;stroke-width:1.0;stroke-dasharray:7.0,7.0;"/><polygon fill="#A80036" points="482.08,419.61,489.8913,425.6086,486.9406,420.7823,491.767,417.8316,482.08,419.61" style="stroke:#A80036;stroke-width:1.0;"/><!--MD5=[64952d7050d75c8059c84ba53403f565]
reverse link sys_dwh.columns to repo_sys.SysColumn--><path codeLine="136" d="M783.97,207.9 C775.63,223.82 766.72,243.82 762.5,263 C746.26,336.79 733.77,363.12 762.5,433 C773.47,459.68 796.19,482.77 816.31,499.28 " fill="none" id="sys_dwh.columns-backto-repo_sys.SysColumn" style="stroke:#A80036;stroke-width:1.0;stroke-dasharray:7.0,7.0;"/><polygon fill="#A80036" points="786.53,203.09,778.7694,209.1541,784.18,207.5034,785.8307,212.914,786.53,203.09" style="stroke:#A80036;stroke-width:1.0;"/><!--MD5=[8e1288507b8a630d1ed2a8cbd30a9bbd]
reverse link sys_dwh.columns to repo_sys.ExtendedProperties--><path codeLine="137" d="M748.19,204.65 C713.84,222.46 669.7,245.33 635.92,262.85 " fill="none" id="sys_dwh.columns-backto-repo_sys.ExtendedProperties" style="stroke:#A80036;stroke-width:1.0;stroke-dasharray:7.0,7.0;"/><polygon fill="#A80036" points="752.76,202.28,742.9286,202.8654,748.3197,204.5787,746.6064,209.9698,752.76,202.28" style="stroke:#A80036;stroke-width:1.0;"/><!--MD5=[6ce5305535880cd531787807672932f0]
reverse link sys_dwh.computed_columns to repo_sys.SysColumn--><path codeLine="138" d="M903.24,437.75 C892.71,456.82 879.39,480.94 869.33,499.14 " fill="none" id="sys_dwh.computed_columns-backto-repo_sys.SysColumn" style="stroke:#A80036;stroke-width:1.0;stroke-dasharray:7.0,7.0;"/><polygon fill="#A80036" points="905.85,433.02,898.0056,438.9753,903.4388,437.4002,905.0139,442.8333,905.85,433.02" style="stroke:#A80036;stroke-width:1.0;"/><!--MD5=[421752a766d1854f2c6f388d15e1506a]
reverse link sys_dwh.default_constraints to repo_sys.SysColumn--><path codeLine="139" d="M1049.68,435.25 C1007.76,454.74 952.75,480.31 911.82,499.35 " fill="none" id="sys_dwh.default_constraints-backto-repo_sys.SysColumn" style="stroke:#A80036;stroke-width:1.0;stroke-dasharray:7.0,7.0;"/><polygon fill="#A80036" points="1054.46,433.02,1044.6126,433.1911,1049.9269,435.1297,1047.9882,440.444,1054.46,433.02" style="stroke:#A80036;stroke-width:1.0;"/><!--MD5=[41b9bba9178db75acf7d4ad6724d8126]
reverse link sys_dwh.extended_properties to repo_sys.ExtendedProperties--><path codeLine="140" d="M413.5,205.49 C449.49,223.17 495.16,245.61 530.25,262.85 " fill="none" id="sys_dwh.extended_properties-backto-repo_sys.ExtendedProperties" style="stroke:#A80036;stroke-width:1.0;stroke-dasharray:7.0,7.0;"/><polygon fill="#A80036" points="408.72,203.14,415.0391,210.6944,413.2092,205.3417,418.5618,203.5117,408.72,203.14" style="stroke:#A80036;stroke-width:1.0;"/><!--MD5=[b50b13c5ab26fbb2da26e69f02398827]
reverse link sys_dwh.identity_columns to repo_sys.SysColumn--><path codeLine="141" d="M1218.84,429.72 C1214.67,430.86 1210.54,431.96 1206.5,433 C1085.36,464.2 1050.64,454.86 931.5,493 C925.54,494.91 919.42,497.1 913.34,499.44 " fill="none" id="sys_dwh.identity_columns-backto-repo_sys.SysColumn" style="stroke:#A80036;stroke-width:1.0;stroke-dasharray:7.0,7.0;"/><polygon fill="#A80036" points="1223.74,428.37,1214.0002,426.9083,1218.9202,429.7001,1216.1284,434.6201,1223.74,428.37" style="stroke:#A80036;stroke-width:1.0;"/><!--MD5=[2cd36de836a5121f2068095c8dd33561]
reverse link sys_dwh.indexes to repo_sys.ExtendedProperties--><path codeLine="142" d="M536.66,207.6 C546.8,224.95 559.29,246.34 568.97,262.91 " fill="none" id="sys_dwh.indexes-backto-repo_sys.ExtendedProperties" style="stroke:#A80036;stroke-width:1.0;stroke-dasharray:7.0,7.0;"/><polygon fill="#A80036" points="534.14,203.28,535.2399,213.0673,536.6682,207.5937,542.1418,209.0221,534.14,203.28" style="stroke:#A80036;stroke-width:1.0;"/><!--MD5=[df5fdf9f4180d9872d637e59df61e44c]
reverse link sys_dwh.objects to repo_sys.SysObject--><path codeLine="143" d="M73.34,207.36 C95.29,239.21 133.42,288.31 177.5,318 C237.28,358.27 317.75,381.73 370.83,393.82 " fill="none" id="sys_dwh.objects-backto-repo_sys.SysObject" style="stroke:#A80036;stroke-width:1.0;stroke-dasharray:7.0,7.0;"/><polygon fill="#A80036" points="70.49,203.17,72.2541,212.8596,73.3062,207.3014,78.8644,208.3536,70.49,203.17" style="stroke:#A80036;stroke-width:1.0;"/><!--MD5=[1ae2a4abfba97f349b96daf62f0efa9d]
reverse link sys_dwh.objects to repo_sys.ExtendedProperties--><path codeLine="144" d="M105.11,199.05 C109.26,200.5 113.43,201.84 117.5,203 C277.76,248.5 324.7,227.67 487.5,263 C493.13,264.22 498.92,265.57 504.74,266.99 " fill="none" id="sys_dwh.objects-backto-repo_sys.ExtendedProperties" style="stroke:#A80036;stroke-width:1.0;stroke-dasharray:7.0,7.0;"/><polygon fill="#A80036" points="100.24,197.3,107.3612,204.1036,104.9464,198.988,110.062,196.5733,100.24,197.3" style="stroke:#A80036;stroke-width:1.0;"/><!--MD5=[03cec27adeaece081318aa67ce96f74d]
reverse link sys_dwh.parameters to repo_sys.ExtendedProperties--><path codeLine="145" d="M638.86,207.6 C627.34,224.95 613.14,246.34 602.15,262.91 " fill="none" id="sys_dwh.parameters-backto-repo_sys.ExtendedProperties" style="stroke:#A80036;stroke-width:1.0;stroke-dasharray:7.0,7.0;"/><polygon fill="#A80036" points="641.73,203.28,633.4304,208.5826,638.973,207.4512,640.1044,212.9938,641.73,203.28" style="stroke:#A80036;stroke-width:1.0;"/><!--MD5=[a6492c40c0b77532d78d84f3345fcee9]
reverse link sys_dwh.schemas to repo_sys.SysObject--><path codeLine="146" d="M182.44,208.27 C180.24,239.5 181.94,286.89 206.5,318 C246.3,368.41 319.66,389.51 370.67,398.3 " fill="none" id="sys_dwh.schemas-backto-repo_sys.SysObject" style="stroke:#A80036;stroke-width:1.0;stroke-dasharray:7.0,7.0;"/><polygon fill="#A80036" points="182.86,203.02,178.1531,211.6713,182.4601,208.004,186.1274,212.3111,182.86,203.02" style="stroke:#A80036;stroke-width:1.0;"/><!--MD5=[2257c0a1f9949d03afe82add4e44c78d]
reverse link sys_dwh.schemas to repo_sys.ExtendedProperties--><path codeLine="147" d="M243.15,198.84 C247.31,200.3 251.46,201.71 255.5,203 C356.93,235.48 384.57,235.63 487.5,263 C493.15,264.5 498.99,266.07 504.86,267.65 " fill="none" id="sys_dwh.schemas-backto-repo_sys.ExtendedProperties" style="stroke:#A80036;stroke-width:1.0;stroke-dasharray:7.0,7.0;"/><polygon fill="#A80036" points="238.27,197.11,245.3977,203.9067,242.9781,198.7935,248.0913,196.3738,238.27,197.11" style="stroke:#A80036;stroke-width:1.0;"/><!--MD5=[90ccf58b786bfe65590b32062ce80a6c]
reverse link sys_dwh.sql_expression_dependencies to repo_sys.sql_expression_dependencies--><path codeLine="148" d="M1119.39,679.5 C1098.28,697.04 1071.86,718.99 1051.5,735.91 " fill="none" id="sys_dwh.sql_expression_dependencies-backto-repo_sys.sql_expression_dependencies" style="stroke:#A80036;stroke-width:1.0;stroke-dasharray:7.0,7.0;"/><polygon fill="#A80036" points="1123.27,676.28,1113.7884,678.9445,1119.4207,679.4711,1118.8941,685.1033,1123.27,676.28" style="stroke:#A80036;stroke-width:1.0;"/><!--MD5=[60a1120b8546b9e0b9c12ff941e142ed]
reverse link sys_dwh.sql_modules to repo_sys.SysObject--><path codeLine="149" d="M322.94,321.5 C344.83,339.04 372.21,360.99 393.32,377.91 " fill="none" id="sys_dwh.sql_modules-backto-repo_sys.SysObject" style="stroke:#A80036;stroke-width:1.0;stroke-dasharray:7.0,7.0;"/><polygon fill="#A80036" points="318.92,318.28,323.4373,327.0318,322.8202,321.4087,328.4432,320.7915,318.92,318.28" style="stroke:#A80036;stroke-width:1.0;"/><!--MD5=[27a43e40e16f1a4bcacd7d4d069d59ee]
reverse link sys_dwh.tables to repo_sys.SysObject--><path codeLine="150" d="M426.5,323.48 C426.5,340.68 426.5,361.62 426.5,377.91 " fill="none" id="sys_dwh.tables-backto-repo_sys.SysObject" style="stroke:#A80036;stroke-width:1.0;stroke-dasharray:7.0,7.0;"/><polygon fill="#A80036" points="426.5,318.28,422.5,327.28,426.5,323.28,430.5,327.28,426.5,318.28" style="stroke:#A80036;stroke-width:1.0;"/><!--MD5=[e344da2a8f152dfdc1b586597a395e39]
reverse link sys_dwh.types to repo_sys.SysColumn--><path codeLine="151" d="M1397.69,428.67 C1393.29,430.3 1388.85,431.78 1384.5,433 C1188.97,487.91 1127.33,439.16 931.5,493 C925.05,494.77 918.43,496.98 911.91,499.39 " fill="none" id="sys_dwh.types-backto-repo_sys.SysColumn" style="stroke:#A80036;stroke-width:1.0;stroke-dasharray:7.0,7.0;"/><polygon fill="#A80036" points="1402.44,426.85,1392.605,426.3273,1397.7696,428.6353,1395.4615,433.7999,1402.44,426.85" style="stroke:#A80036;stroke-width:1.0;"/><!--MD5=[3fd81de77d28d8dc02c8d07fcbea0191]
@startuml
'Left to right direction
hide circle
'avoide "." issues:
set namespaceSeparator none


skinparam class {
  BackgroundColor White
  BackgroundColor<<FN>> Yellow
  BackgroundColor<<FS>> Yellow
  BackgroundColor<<FT>> LightGray
  BackgroundColor<<IF>> Yellow
  BackgroundColor<<IS>> Yellow
  BackgroundColor<<P>> Aqua
  BackgroundColor<<PC>> Aqua
  BackgroundColor<<SN>> Yellow
  BackgroundColor<<SO>> SlateBlue
  BackgroundColor<<TF>> LightGray
  BackgroundColor<<TR>> Tomato
  BackgroundColor<<U>> White
  BackgroundColor<<V>> WhiteSmoke
  BackgroundColor<<X>> Aqua
}


entity config.ftv_dwh_database << IF >> {
  - -
}

entity config.Parameter << U >> {
  * **Parameter_name** : varchar(100)
  * **sub_Parameter** : nvarchar(128)
  - -
}

entity repo.RepoObject << U >> {
  * **RepoObject_guid** : uniqueidentifier
  - -
}

entity repo.RepoObjectColumn << U >> {
  * **RepoObjectColumn_guid** : uniqueidentifier
  - -
}

entity repo.SysColumn_RepoObjectColumn_via_name << V >> {
  - -
}

entity repo.SysObject_RepoObject_via_name << V >> {
  - -
}

entity repo_sys.ExtendedProperties << V >> {
  - -
}

entity repo_sys.sql_expression_dependencies << V >> {
  - -
}

entity repo_sys.SysColumn << V >> {
  - -
}

entity repo_sys.SysObject << V >> {
  - -
}

entity sys_dwh.columns << SN >> {
  - -
}

entity sys_dwh.computed_columns << SN >> {
  - -
}

entity sys_dwh.default_constraints << SN >> {
  - -
}

entity sys_dwh.extended_properties << SN >> {
  - -
}

entity sys_dwh.identity_columns << SN >> {
  - -
}

entity sys_dwh.indexes << SN >> {
  - -
}

entity sys_dwh.objects << SN >> {
  - -
}

entity sys_dwh.parameters << SN >> {
  - -
}

entity sys_dwh.schemas << SN >> {
  - -
}

entity sys_dwh.sql_expression_dependencies << SN >> {
  - -
}

entity sys_dwh.sql_modules << SN >> {
  - -
}

entity sys_dwh.tables << SN >> {
  - -
}

entity sys_dwh.types << SN >> {
  - -
}

config.ftv_dwh_database <.. repo_sys.ExtendedProperties
config.ftv_dwh_database <.. repo_sys.SysColumn
config.ftv_dwh_database <.. repo_sys.sql_expression_dependencies
config.Parameter <.. config.ftv_dwh_database
repo.RepoObject <.. repo.SysObject_RepoObject_via_name
repo.RepoObject <.. repo.SysColumn_RepoObjectColumn_via_name
repo.RepoObjectColumn <.. repo.SysColumn_RepoObjectColumn_via_name
repo.SysColumn_RepoObjectColumn_via_name <.. repo_sys.sql_expression_dependencies
repo.SysObject_RepoObject_via_name <.. repo_sys.sql_expression_dependencies
repo_sys.ExtendedProperties <.. repo_sys.SysColumn
repo_sys.ExtendedProperties <.. repo_sys.SysObject
repo_sys.SysColumn <.. repo.SysColumn_RepoObjectColumn_via_name
repo_sys.SysObject <.. repo.SysObject_RepoObject_via_name
repo_sys.SysObject <.. repo_sys.SysColumn
sys_dwh.columns <.. repo_sys.SysColumn
sys_dwh.columns <.. repo_sys.ExtendedProperties
sys_dwh.computed_columns <.. repo_sys.SysColumn
sys_dwh.default_constraints <.. repo_sys.SysColumn
sys_dwh.extended_properties <.. repo_sys.ExtendedProperties
sys_dwh.identity_columns <.. repo_sys.SysColumn
sys_dwh.indexes <.. repo_sys.ExtendedProperties
sys_dwh.objects <.. repo_sys.SysObject
sys_dwh.objects <.. repo_sys.ExtendedProperties
sys_dwh.parameters <.. repo_sys.ExtendedProperties
sys_dwh.schemas <.. repo_sys.SysObject
sys_dwh.schemas <.. repo_sys.ExtendedProperties
sys_dwh.sql_expression_dependencies <.. repo_sys.sql_expression_dependencies
sys_dwh.sql_modules <.. repo_sys.SysObject
sys_dwh.tables <.. repo_sys.SysObject
sys_dwh.types <.. repo_sys.SysColumn
@enduml

@startuml
hide circle
set namespaceSeparator none


skinparam class {
  BackgroundColor White
  BackgroundColor<<FN>> Yellow
  BackgroundColor<<FS>> Yellow
  BackgroundColor<<FT>> LightGray
  BackgroundColor<<IF>> Yellow
  BackgroundColor<<IS>> Yellow
  BackgroundColor<<P>> Aqua
  BackgroundColor<<PC>> Aqua
  BackgroundColor<<SN>> Yellow
  BackgroundColor<<SO>> SlateBlue
  BackgroundColor<<TF>> LightGray
  BackgroundColor<<TR>> Tomato
  BackgroundColor<<U>> White
  BackgroundColor<<V>> WhiteSmoke
  BackgroundColor<<X>> Aqua
}


entity config.ftv_dwh_database << IF >> {
  - -
}

entity config.Parameter << U >> {
  * **Parameter_name** : varchar(100)
  * **sub_Parameter** : nvarchar(128)
  - -
}

entity repo.RepoObject << U >> {
  * **RepoObject_guid** : uniqueidentifier
  - -
}

entity repo.RepoObjectColumn << U >> {
  * **RepoObjectColumn_guid** : uniqueidentifier
  - -
}

entity repo.SysColumn_RepoObjectColumn_via_name << V >> {
  - -
}

entity repo.SysObject_RepoObject_via_name << V >> {
  - -
}

entity repo_sys.ExtendedProperties << V >> {
  - -
}

entity repo_sys.sql_expression_dependencies << V >> {
  - -
}

entity repo_sys.SysColumn << V >> {
  - -
}

entity repo_sys.SysObject << V >> {
  - -
}

entity sys_dwh.columns << SN >> {
  - -
}

entity sys_dwh.computed_columns << SN >> {
  - -
}

entity sys_dwh.default_constraints << SN >> {
  - -
}

entity sys_dwh.extended_properties << SN >> {
  - -
}

entity sys_dwh.identity_columns << SN >> {
  - -
}

entity sys_dwh.indexes << SN >> {
  - -
}

entity sys_dwh.objects << SN >> {
  - -
}

entity sys_dwh.parameters << SN >> {
  - -
}

entity sys_dwh.schemas << SN >> {
  - -
}

entity sys_dwh.sql_expression_dependencies << SN >> {
  - -
}

entity sys_dwh.sql_modules << SN >> {
  - -
}

entity sys_dwh.tables << SN >> {
  - -
}

entity sys_dwh.types << SN >> {
  - -
}

config.ftv_dwh_database <.. repo_sys.ExtendedProperties
config.ftv_dwh_database <.. repo_sys.SysColumn
config.ftv_dwh_database <.. repo_sys.sql_expression_dependencies
config.Parameter <.. config.ftv_dwh_database
repo.RepoObject <.. repo.SysObject_RepoObject_via_name
repo.RepoObject <.. repo.SysColumn_RepoObjectColumn_via_name
repo.RepoObjectColumn <.. repo.SysColumn_RepoObjectColumn_via_name
repo.SysColumn_RepoObjectColumn_via_name <.. repo_sys.sql_expression_dependencies
repo.SysObject_RepoObject_via_name <.. repo_sys.sql_expression_dependencies
repo_sys.ExtendedProperties <.. repo_sys.SysColumn
repo_sys.ExtendedProperties <.. repo_sys.SysObject
repo_sys.SysColumn <.. repo.SysColumn_RepoObjectColumn_via_name
repo_sys.SysObject <.. repo.SysObject_RepoObject_via_name
repo_sys.SysObject <.. repo_sys.SysColumn
sys_dwh.columns <.. repo_sys.SysColumn
sys_dwh.columns <.. repo_sys.ExtendedProperties
sys_dwh.computed_columns <.. repo_sys.SysColumn
sys_dwh.default_constraints <.. repo_sys.SysColumn
sys_dwh.extended_properties <.. repo_sys.ExtendedProperties
sys_dwh.identity_columns <.. repo_sys.SysColumn
sys_dwh.indexes <.. repo_sys.ExtendedProperties
sys_dwh.objects <.. repo_sys.SysObject
sys_dwh.objects <.. repo_sys.ExtendedProperties
sys_dwh.parameters <.. repo_sys.ExtendedProperties
sys_dwh.schemas <.. repo_sys.SysObject
sys_dwh.schemas <.. repo_sys.ExtendedProperties
sys_dwh.sql_expression_dependencies <.. repo_sys.sql_expression_dependencies
sys_dwh.sql_modules <.. repo_sys.SysObject
sys_dwh.tables <.. repo_sys.SysObject
sys_dwh.types <.. repo_sys.SysColumn
@enduml

PlantUML version 1.2021.8(Sat Jun 26 08:20:59 GMT 2021)
(GPL source distribution)
Java Runtime: OpenJDK Runtime Environment
JVM: OpenJDK 64-Bit Server VM
Default Encoding: UTF-8
Language: en
Country: US
--></g></svg>