<?xml version="1.0" encoding="UTF-8" standalone="no"?><svg xmlns="http://www.w3.org/2000/svg" xmlns:xlink="http://www.w3.org/1999/xlink" contentScriptType="application/ecmascript" contentStyleType="text/css" height="1685px" preserveAspectRatio="none" style="width:761px;height:1685px;" version="1.1" viewBox="0 0 761 1685" width="761px" zoomAndPan="magnify"><defs><filter height="300%" id="f1l13tb0yeoyo3" width="300%" x="-1" y="-1"><feGaussianBlur result="blurOut" stdDeviation="2.0"/><feColorMatrix in="blurOut" result="blurOut2" type="matrix" values="0 0 0 0 0 0 0 0 0 0 0 0 0 0 0 0 0 0 .4 0"/><feOffset dx="4.0" dy="4.0" in="blurOut2" result="blurOut3"/><feBlend in="SourceGraphic" in2="blurOut3" mode="normal"/></filter></defs><g><!--MD5=[269c2a73284074725fc999651cd91ca2]
class graph.ReferencedObject--><rect codeLine="26" fill="#FFFFFF" filter="url(#f1l13tb0yeoyo3)" height="54.8002" id="graph.ReferencedObject" style="stroke:#A80036;stroke-width:1.5;" width="133" x="350" y="7"/><text fill="#000000" font-family="sans-serif" font-size="12" font-style="italic" lengthAdjust="spacing" textLength="19" x="407" y="24.0001">«U»</text><text fill="#000000" font-family="sans-serif" font-size="12" lengthAdjust="spacing" textLength="127" x="353" y="38.4002">graph.ReferencedObject</text><line style="stroke:#A80036;stroke-width:1.5;" x1="351" x2="482" y1="45.8002" y2="45.8002"/><line style="stroke:#A80036;stroke-width:1.5;" x1="351" x2="482" y1="53.8002" y2="53.8002"/><!--MD5=[abfb95ed16298e832a8cf6eb89969790]
class graph.ReferencedObjectColumn--><rect codeLine="29" fill="#FFFFFF" filter="url(#f1l13tb0yeoyo3)" height="54.8002" id="graph.ReferencedObjectColumn" style="stroke:#A80036;stroke-width:1.5;" width="173" x="330" y="97"/><text fill="#000000" font-family="sans-serif" font-size="12" font-style="italic" lengthAdjust="spacing" textLength="19" x="407" y="114.0001">«U»</text><text fill="#000000" font-family="sans-serif" font-size="12" lengthAdjust="spacing" textLength="167" x="333" y="128.4002">graph.ReferencedObjectColumn</text><line style="stroke:#A80036;stroke-width:1.5;" x1="331" x2="502" y1="135.8002" y2="135.8002"/><line style="stroke:#A80036;stroke-width:1.5;" x1="331" x2="502" y1="143.8002" y2="143.8002"/><!--MD5=[437b64d6f6b97fea0e02d4c920389cba]
class graph.ReferencingObject--><rect codeLine="32" fill="#FFFFFF" filter="url(#f1l13tb0yeoyo3)" height="54.8002" id="graph.ReferencingObject" style="stroke:#A80036;stroke-width:1.5;" width="136" x="348.5" y="187"/><text fill="#000000" font-family="sans-serif" font-size="12" font-style="italic" lengthAdjust="spacing" textLength="19" x="407" y="204.0001">«U»</text><text fill="#000000" font-family="sans-serif" font-size="12" lengthAdjust="spacing" textLength="130" x="351.5" y="218.4002">graph.ReferencingObject</text><line style="stroke:#A80036;stroke-width:1.5;" x1="349.5" x2="483.5" y1="225.8002" y2="225.8002"/><line style="stroke:#A80036;stroke-width:1.5;" x1="349.5" x2="483.5" y1="233.8002" y2="233.8002"/><!--MD5=[01cdeb648afdb6018f7ca0c5a5c177d5]
class graph.ReferencingObjectColumn--><rect codeLine="35" fill="#FFFFFF" filter="url(#f1l13tb0yeoyo3)" height="54.8002" id="graph.ReferencingObjectColumn" style="stroke:#A80036;stroke-width:1.5;" width="176" x="328.5" y="277"/><text fill="#000000" font-family="sans-serif" font-size="12" font-style="italic" lengthAdjust="spacing" textLength="19" x="407" y="294.0001">«U»</text><text fill="#000000" font-family="sans-serif" font-size="12" lengthAdjust="spacing" textLength="170" x="331.5" y="308.4002">graph.ReferencingObjectColumn</text><line style="stroke:#A80036;stroke-width:1.5;" x1="329.5" x2="503.5" y1="315.8002" y2="315.8002"/><line style="stroke:#A80036;stroke-width:1.5;" x1="329.5" x2="503.5" y1="323.8002" y2="323.8002"/><!--MD5=[69d688e85ab903302de62e697dc3d84b]
class graph.RepoObject--><rect codeLine="38" fill="#FFFFFF" filter="url(#f1l13tb0yeoyo3)" height="54.8002" id="graph.RepoObject" style="stroke:#A80036;stroke-width:1.5;" width="102" x="365.5" y="367"/><text fill="#000000" font-family="sans-serif" font-size="12" font-style="italic" lengthAdjust="spacing" textLength="19" x="407" y="384.0001">«U»</text><text fill="#000000" font-family="sans-serif" font-size="12" lengthAdjust="spacing" textLength="96" x="368.5" y="398.4002">graph.RepoObject</text><line style="stroke:#A80036;stroke-width:1.5;" x1="366.5" x2="466.5" y1="405.8002" y2="405.8002"/><line style="stroke:#A80036;stroke-width:1.5;" x1="366.5" x2="466.5" y1="413.8002" y2="413.8002"/><!--MD5=[b868a5af9223ecffa8959e48ec8e238d]
class graph.RepoObjectColumn--><rect codeLine="41" fill="#FFFFFF" filter="url(#f1l13tb0yeoyo3)" height="54.8002" id="graph.RepoObjectColumn" style="stroke:#A80036;stroke-width:1.5;" width="142" x="345.5" y="457"/><text fill="#000000" font-family="sans-serif" font-size="12" font-style="italic" lengthAdjust="spacing" textLength="19" x="407" y="474.0001">«U»</text><text fill="#000000" font-family="sans-serif" font-size="12" lengthAdjust="spacing" textLength="136" x="348.5" y="488.4002">graph.RepoObjectColumn</text><line style="stroke:#A80036;stroke-width:1.5;" x1="346.5" x2="486.5" y1="495.8002" y2="495.8002"/><line style="stroke:#A80036;stroke-width:1.5;" x1="346.5" x2="486.5" y1="503.8002" y2="503.8002"/><!--MD5=[869ddc50dd3fad06d2bb70a9844c7221]
class repo.fs_get_parameter_value--><rect codeLine="44" fill="#FFFF00" filter="url(#f1l13tb0yeoyo3)" height="54.8002" id="repo.fs_get_parameter_value" style="stroke:#A80036;stroke-width:1.5;" width="160" x="8.5" y="579"/><text fill="#000000" font-family="sans-serif" font-size="12" font-style="italic" lengthAdjust="spacing" textLength="26" x="75.5" y="596.0001">«FN»</text><text fill="#000000" font-family="sans-serif" font-size="12" lengthAdjust="spacing" textLength="154" x="11.5" y="610.4002">repo.fs_get_parameter_value</text><line style="stroke:#A80036;stroke-width:1.5;" x1="9.5" x2="167.5" y1="617.8002" y2="617.8002"/><line style="stroke:#A80036;stroke-width:1.5;" x1="9.5" x2="167.5" y1="625.8002" y2="625.8002"/><!--MD5=[848abd19df973e66cbcf23003b50d550]
class repo.RepoObject_reference_union--><rect codeLine="47" fill="#F5F5F5" filter="url(#f1l13tb0yeoyo3)" height="81.2" id="repo.RepoObject_reference_union" style="stroke:#A80036;stroke-width:1.5;" width="252" x="290.5" y="1501"/><text fill="#000000" font-family="sans-serif" font-size="12" font-style="italic" lengthAdjust="spacing" textLength="18" x="407.5" y="1518.0001">«V»</text><text fill="#000000" font-family="sans-serif" font-size="12" lengthAdjust="spacing" textLength="176" x="328.5" y="1532.4002">repo.RepoObject_reference_union</text><line style="stroke:#A80036;stroke-width:1.5;" x1="291.5" x2="541.5" y1="1539.8002" y2="1539.8002"/><text fill="#000000" font-family="sans-serif" font-size="11" font-weight="bold" lengthAdjust="spacing" textLength="155" x="296.5" y="1554.8001">referenced_RepoObject_guid</text><text fill="#000000" font-family="sans-serif" font-size="11" lengthAdjust="spacing" textLength="78" x="454.5" y="1554.8001">: uniqueidentifier</text><text fill="#000000" font-family="sans-serif" font-size="11" font-weight="bold" lengthAdjust="spacing" textLength="159" x="296.5" y="1568">referencing_RepoObject_guid</text><text fill="#000000" font-family="sans-serif" font-size="11" lengthAdjust="spacing" textLength="78" x="458.5" y="1568">: uniqueidentifier</text><line style="stroke:#A80036;stroke-width:1.5;" x1="291.5" x2="541.5" y1="1574.2" y2="1574.2"/><!--MD5=[60e06c87b249ca2e45e663f3da3d76a9]
class repo.RepoObjectColumn_reference_union--><rect codeLine="52" fill="#F5F5F5" filter="url(#f1l13tb0yeoyo3)" height="54.8002" id="repo.RepoObjectColumn_reference_union" style="stroke:#A80036;stroke-width:1.5;" width="222" x="305.5" y="1617"/><text fill="#000000" font-family="sans-serif" font-size="12" font-style="italic" lengthAdjust="spacing" textLength="18" x="407.5" y="1634.0001">«V»</text><text fill="#000000" font-family="sans-serif" font-size="12" lengthAdjust="spacing" textLength="216" x="308.5" y="1648.4002">repo.RepoObjectColumn_reference_union</text><line style="stroke:#A80036;stroke-width:1.5;" x1="306.5" x2="526.5" y1="1655.8002" y2="1655.8002"/><line style="stroke:#A80036;stroke-width:1.5;" x1="306.5" x2="526.5" y1="1663.8002" y2="1663.8002"/><!--MD5=[766547c06d7214e35c354867103b9f6b]
class repo.usp_ExecutionLog_insert--><rect codeLine="55" fill="#00FFFF" filter="url(#f1l13tb0yeoyo3)" height="54.8002" id="repo.usp_ExecutionLog_insert" style="stroke:#A80036;stroke-width:1.5;" width="163" x="7" y="1010"/><text fill="#000000" font-family="sans-serif" font-size="12" font-style="italic" lengthAdjust="spacing" textLength="18" x="79.5" y="1027.0001">«P»</text><text fill="#000000" font-family="sans-serif" font-size="12" lengthAdjust="spacing" textLength="157" x="10" y="1041.4002">repo.usp_ExecutionLog_insert</text><line style="stroke:#A80036;stroke-width:1.5;" x1="8" x2="169" y1="1048.8002" y2="1048.8002"/><line style="stroke:#A80036;stroke-width:1.5;" x1="8" x2="169" y1="1056.8002" y2="1056.8002"/><!--MD5=[3c8c524928c564b8a12e2f13b93699d7]
class repo.usp_GeneratorUsp_insert_update_persistence--><rect codeLine="58" fill="#00FFFF" filter="url(#f1l13tb0yeoyo3)" height="54.8002" id="repo.usp_GeneratorUsp_insert_update_persistence" style="stroke:#A80036;stroke-width:1.5;" width="275" x="279" y="709"/><text fill="#000000" font-family="sans-serif" font-size="12" font-style="italic" lengthAdjust="spacing" textLength="18" x="407.5" y="726.0001">«P»</text><text fill="#000000" font-family="sans-serif" font-size="12" lengthAdjust="spacing" textLength="269" x="282" y="740.4002">repo.usp_GeneratorUsp_insert_update_persistence</text><line style="stroke:#A80036;stroke-width:1.5;" x1="280" x2="553" y1="747.8002" y2="747.8002"/><line style="stroke:#A80036;stroke-width:1.5;" x1="280" x2="553" y1="755.8002" y2="755.8002"/><!--MD5=[050f58d1b8974ab6bcec1db860beaa3f]
class repo.usp_Index_ForeignKey--><rect codeLine="61" fill="#00FFFF" filter="url(#f1l13tb0yeoyo3)" height="54.8002" id="repo.usp_Index_ForeignKey" style="stroke:#A80036;stroke-width:1.5;" width="152" x="340.5" y="799"/><text fill="#000000" font-family="sans-serif" font-size="12" font-style="italic" lengthAdjust="spacing" textLength="18" x="407.5" y="816.0001">«P»</text><text fill="#000000" font-family="sans-serif" font-size="12" lengthAdjust="spacing" textLength="146" x="343.5" y="830.4002">repo.usp_Index_ForeignKey</text><line style="stroke:#A80036;stroke-width:1.5;" x1="341.5" x2="491.5" y1="837.8002" y2="837.8002"/><line style="stroke:#A80036;stroke-width:1.5;" x1="341.5" x2="491.5" y1="845.8002" y2="845.8002"/><!--MD5=[41c92b7e9ea902507dcc75772e6d8599]
class repo.usp_index_inheritance--><rect codeLine="64" fill="#00FFFF" filter="url(#f1l13tb0yeoyo3)" height="54.8002" id="repo.usp_index_inheritance" style="stroke:#A80036;stroke-width:1.5;" width="149" x="342" y="889"/><text fill="#000000" font-family="sans-serif" font-size="12" font-style="italic" lengthAdjust="spacing" textLength="18" x="407.5" y="906.0001">«P»</text><text fill="#000000" font-family="sans-serif" font-size="12" lengthAdjust="spacing" textLength="143" x="345" y="920.4002">repo.usp_index_inheritance</text><line style="stroke:#A80036;stroke-width:1.5;" x1="343" x2="490" y1="927.8002" y2="927.8002"/><line style="stroke:#A80036;stroke-width:1.5;" x1="343" x2="490" y1="935.8002" y2="935.8002"/><!--MD5=[4452eacb8c1804d4dea234bf1d108de9]
class repo.usp_main--><rect codeLine="67" fill="#00FFFF" filter="url(#f1l13tb0yeoyo3)" height="54.8002" id="repo.usp_main" style="stroke:#A80036;stroke-width:1.5;" width="84" x="663" y="799"/><text fill="#000000" font-family="sans-serif" font-size="12" font-style="italic" lengthAdjust="spacing" textLength="18" x="696" y="816.0001">«P»</text><text fill="#000000" font-family="sans-serif" font-size="12" lengthAdjust="spacing" textLength="78" x="666" y="830.4002">repo.usp_main</text><line style="stroke:#A80036;stroke-width:1.5;" x1="664" x2="746" y1="837.8002" y2="837.8002"/><line style="stroke:#A80036;stroke-width:1.5;" x1="664" x2="746" y1="845.8002" y2="845.8002"/><!--MD5=[e12f920118b9a3d100c008b1b905c72c]
class repo.usp_RepoObject_update_SysObjectQueryPlan--><rect codeLine="70" fill="#00FFFF" filter="url(#f1l13tb0yeoyo3)" height="54.8002" id="repo.usp_RepoObject_update_SysObjectQueryPlan" style="stroke:#A80036;stroke-width:1.5;" width="279" x="277" y="1051"/><text fill="#000000" font-family="sans-serif" font-size="12" font-style="italic" lengthAdjust="spacing" textLength="18" x="407.5" y="1068.0001">«P»</text><text fill="#000000" font-family="sans-serif" font-size="12" lengthAdjust="spacing" textLength="273" x="280" y="1082.4002">repo.usp_RepoObject_update_SysObjectQueryPlan</text><line style="stroke:#A80036;stroke-width:1.5;" x1="278" x2="555" y1="1089.8002" y2="1089.8002"/><line style="stroke:#A80036;stroke-width:1.5;" x1="278" x2="555" y1="1097.8002" y2="1097.8002"/><!--MD5=[1318768df54f6b155099118edc9cf251]
class repo.usp_RepoObjectColumn_update_RepoObjectColumn_column_id--><rect codeLine="73" fill="#00FFFF" filter="url(#f1l13tb0yeoyo3)" height="54.8002" id="repo.usp_RepoObjectColumn_update_RepoObjectColumn_column_id" style="stroke:#A80036;stroke-width:1.5;" width="373" x="230" y="619"/><text fill="#000000" font-family="sans-serif" font-size="12" font-style="italic" lengthAdjust="spacing" textLength="18" x="407.5" y="636.0001">«P»</text><text fill="#000000" font-family="sans-serif" font-size="12" lengthAdjust="spacing" textLength="367" x="233" y="650.4002">repo.usp_RepoObjectColumn_update_RepoObjectColumn_column_id</text><line style="stroke:#A80036;stroke-width:1.5;" x1="231" x2="602" y1="657.8002" y2="657.8002"/><line style="stroke:#A80036;stroke-width:1.5;" x1="231" x2="602" y1="665.8002" y2="665.8002"/><!--MD5=[8eaa38bae6cf81a32758b54ac2f2938f]
class repo.usp_RepoObjectSource_FirstResultSet--><rect codeLine="76" fill="#00FFFF" filter="url(#f1l13tb0yeoyo3)" height="54.8002" id="repo.usp_RepoObjectSource_FirstResultSet" style="stroke:#A80036;stroke-width:1.5;" width="236" x="298.5" y="1141"/><text fill="#000000" font-family="sans-serif" font-size="12" font-style="italic" lengthAdjust="spacing" textLength="18" x="407.5" y="1158.0001">«P»</text><text fill="#000000" font-family="sans-serif" font-size="12" lengthAdjust="spacing" textLength="230" x="301.5" y="1172.4002">repo.usp_RepoObjectSource_FirstResultSet</text><line style="stroke:#A80036;stroke-width:1.5;" x1="299.5" x2="533.5" y1="1179.8002" y2="1179.8002"/><line style="stroke:#A80036;stroke-width:1.5;" x1="299.5" x2="533.5" y1="1187.8002" y2="1187.8002"/><!--MD5=[209e385d9bf5998b59f17aedd629ee5c]
class repo.usp_RepoObjectSource_QueryPlan--><rect codeLine="79" fill="#00FFFF" filter="url(#f1l13tb0yeoyo3)" height="54.8002" id="repo.usp_RepoObjectSource_QueryPlan" style="stroke:#A80036;stroke-width:1.5;" width="218" x="307.5" y="1231"/><text fill="#000000" font-family="sans-serif" font-size="12" font-style="italic" lengthAdjust="spacing" textLength="18" x="407.5" y="1248.0001">«P»</text><text fill="#000000" font-family="sans-serif" font-size="12" lengthAdjust="spacing" textLength="212" x="310.5" y="1262.4002">repo.usp_RepoObjectSource_QueryPlan</text><line style="stroke:#A80036;stroke-width:1.5;" x1="308.5" x2="524.5" y1="1269.8002" y2="1269.8002"/><line style="stroke:#A80036;stroke-width:1.5;" x1="308.5" x2="524.5" y1="1277.8002" y2="1277.8002"/><!--MD5=[59f96848d6e1d1de63b1474194737aef]
class repo.usp_sync_guid--><rect codeLine="82" fill="#00FFFF" filter="url(#f1l13tb0yeoyo3)" height="54.8002" id="repo.usp_sync_guid" style="stroke:#A80036;stroke-width:1.5;" width="112" x="360.5" y="1321"/><text fill="#000000" font-family="sans-serif" font-size="12" font-style="italic" lengthAdjust="spacing" textLength="18" x="407.5" y="1338.0001">«P»</text><text fill="#000000" font-family="sans-serif" font-size="12" lengthAdjust="spacing" textLength="106" x="363.5" y="1352.4002">repo.usp_sync_guid</text><line style="stroke:#A80036;stroke-width:1.5;" x1="361.5" x2="471.5" y1="1359.8002" y2="1359.8002"/><line style="stroke:#A80036;stroke-width:1.5;" x1="361.5" x2="471.5" y1="1367.8002" y2="1367.8002"/><!--MD5=[7d7d12a87306f85d1a1a3f032dff63ff]
class repo.usp_update_Referencing_Count--><rect codeLine="85" fill="#00FFFF" filter="url(#f1l13tb0yeoyo3)" height="54.8002" id="repo.usp_update_Referencing_Count" style="stroke:#A80036;stroke-width:1.5;" width="200" x="316.5" y="1411"/><text fill="#000000" font-family="sans-serif" font-size="12" font-style="italic" lengthAdjust="spacing" textLength="18" x="407.5" y="1428.0001">«P»</text><text fill="#000000" font-family="sans-serif" font-size="12" lengthAdjust="spacing" textLength="194" x="319.5" y="1442.4002">repo.usp_update_Referencing_Count</text><line style="stroke:#A80036;stroke-width:1.5;" x1="317.5" x2="515.5" y1="1449.8002" y2="1449.8002"/><line style="stroke:#A80036;stroke-width:1.5;" x1="317.5" x2="515.5" y1="1457.8002" y2="1457.8002"/><!--MD5=[3d17ba0b03a5902be6def114937f6638]
reverse link graph.ReferencedObject to repo.usp_main--><path codeLine="88" d="M488.29,33.31 C527.7,36.62 574.44,47.82 603,79.5 C700.92,188.13 704.85,676.45 704.26,798.69 " fill="none" id="graph.ReferencedObject-backto-repo.usp_main" style="stroke:#A80036;stroke-width:1.0;stroke-dasharray:7.0,7.0;"/><polygon fill="#A80036" points="483.02,32.92,491.698,37.5776,488.0062,33.2915,492.2923,29.5997,483.02,32.92" style="stroke:#A80036;stroke-width:1.0;"/><!--MD5=[b4ef2e142e033c09101fd6635ea31581]
reverse link graph.ReferencedObjectColumn to repo.usp_main--><path codeLine="89" d="M508.28,125.91 C542.53,131.18 578.97,143.32 603,169.5 C689.33,263.55 701.88,685.77 703.69,798.67 " fill="none" id="graph.ReferencedObjectColumn-backto-repo.usp_main" style="stroke:#A80036;stroke-width:1.0;stroke-dasharray:7.0,7.0;"/><polygon fill="#A80036" points="503.25,125.18,511.5875,130.4227,508.1989,125.8931,512.7285,122.5045,503.25,125.18" style="stroke:#A80036;stroke-width:1.0;"/><!--MD5=[be730a935bdcde0c17b5f790a38f18a2]
reverse link graph.ReferencingObject to repo.usp_main--><path codeLine="90" d="M490,213.96 C528.78,217.64 574.33,229 603,259.5 C677.82,339.09 698.5,695.87 702.95,798.69 " fill="none" id="graph.ReferencingObject-backto-repo.usp_main" style="stroke:#A80036;stroke-width:1.0;stroke-dasharray:7.0,7.0;"/><polygon fill="#A80036" points="484.81,213.51,493.4208,218.2906,489.7904,213.9524,494.1286,210.322,484.81,213.51" style="stroke:#A80036;stroke-width:1.0;"/><!--MD5=[69dd76b19af883f15ba3031b3e09f793]
reverse link graph.ReferencingObjectColumn to repo.usp_main--><path codeLine="91" d="M510.24,307.04 C543.59,312.62 578.89,324.68 603,349.5 C666.39,414.78 694.55,706.86 701.94,798.74 " fill="none" id="graph.ReferencingObjectColumn-backto-repo.usp_main" style="stroke:#A80036;stroke-width:1.0;stroke-dasharray:7.0,7.0;"/><polygon fill="#A80036" points="504.91,306.2,513.168,311.567,509.8476,306.9872,514.4275,303.6668,504.91,306.2" style="stroke:#A80036;stroke-width:1.0;"/><!--MD5=[24e0376ab158ff9993a75ab161b65f63]
reverse link graph.RepoObject to repo.usp_main--><path codeLine="92" d="M472.72,393.56 C513.92,395.88 568.78,405.86 603,439.5 C655.06,490.67 689.73,718.83 700.46,798.74 " fill="none" id="graph.RepoObject-backto-repo.usp_main" style="stroke:#A80036;stroke-width:1.0;stroke-dasharray:7.0,7.0;"/><polygon fill="#A80036" points="467.51,393.3,476.3047,397.7331,472.5041,393.5433,476.694,389.7426,467.51,393.3" style="stroke:#A80036;stroke-width:1.0;"/><!--MD5=[9a772460763b4056ea5bc260cbf2f851]
reverse link graph.RepoObjectColumn to repo.usp_main--><path codeLine="93" d="M492.78,490.79 C530.11,497.55 573.42,511.36 603,539.5 C678.21,611.03 697.47,741.84 702.36,798.79 " fill="none" id="graph.RepoObjectColumn-backto-repo.usp_main" style="stroke:#A80036;stroke-width:1.0;stroke-dasharray:7.0,7.0;"/><polygon fill="#A80036" points="487.79,489.93,495.9715,495.4129,492.7161,490.7867,497.3423,487.5312,487.79,489.93" style="stroke:#A80036;stroke-width:1.0;"/><!--MD5=[702f3a88f247ddbb6f5474af0f5bef98]
reverse link repo.fs_get_parameter_value to repo.usp_main--><path codeLine="94" d="M173.74,579.34 C282.37,549.81 472.78,517.22 603,601.5 C671.66,645.94 694.09,749.31 701.05,798.94 " fill="none" id="repo.fs_get_parameter_value-backto-repo.usp_main" style="stroke:#A80036;stroke-width:1.0;stroke-dasharray:7.0,7.0;"/><polygon fill="#A80036" points="168.63,580.74,178.3687,582.2091,173.4508,579.4136,176.2464,574.4957,168.63,580.74" style="stroke:#A80036;stroke-width:1.0;"/><!--MD5=[b29836e0346e7d86fb8bda8081e8dd5d]
reverse link repo.fs_get_parameter_value to repo.usp_RepoObjectColumn_update_RepoObjectColumn_column_id--><path codeLine="95" d="M174.19,616.89 C191.6,619.03 210.58,621.36 230,623.74 " fill="none" id="repo.fs_get_parameter_value-backto-repo.usp_RepoObjectColumn_update_RepoObjectColumn_column_id" style="stroke:#A80036;stroke-width:1.0;stroke-dasharray:7.0,7.0;"/><polygon fill="#A80036" points="168.83,616.23,177.2698,621.3064,173.792,616.8449,178.2536,613.3672,168.83,616.23" style="stroke:#A80036;stroke-width:1.0;"/><!--MD5=[2586a0915449e014cd498f845b8947b1]
reverse link repo.RepoObject_reference_union to repo.usp_main--><path codeLine="96" d="M547.49,1521.35 C568.57,1512.76 588.27,1500.63 603,1483.5 C686.23,1386.7 701.04,966.48 703.52,854.18 " fill="none" id="repo.RepoObject_reference_union-backto-repo.usp_main" style="stroke:#A80036;stroke-width:1.0;stroke-dasharray:7.0,7.0;"/><polygon fill="#A80036" points="542.69,1523.23,552.5297,1523.6537,547.3422,1521.3978,549.5981,1516.2102,542.69,1523.23" style="stroke:#A80036;stroke-width:1.0;"/><!--MD5=[802bf7ec12a0fde7c32e12bd3e85860b]
reverse link repo.RepoObjectColumn_reference_union to repo.usp_main--><path codeLine="97" d="M532.58,1638.52 C559.06,1631.72 584.77,1619.82 603,1599.5 C704.35,1486.56 705.64,978.33 704.4,854.01 " fill="none" id="repo.RepoObjectColumn_reference_union-backto-repo.usp_main" style="stroke:#A80036;stroke-width:1.0;stroke-dasharray:7.0,7.0;"/><polygon fill="#A80036" points="527.63,1639.73,537.3219,1641.4815,532.4874,1638.5442,535.4246,1633.7097,527.63,1639.73" style="stroke:#A80036;stroke-width:1.0;"/><!--MD5=[bb7ca4e76d3a3914e72657b64a0ea143]
reverse link repo.usp_ExecutionLog_insert to repo.usp_RepoObjectSource_QueryPlan--><path codeLine="98" d="M106.45,1069.9 C129.11,1109.95 173.13,1177.25 230,1213.5 C253.05,1228.2 280.51,1238.09 307.15,1244.76 " fill="none" id="repo.usp_ExecutionLog_insert-backto-repo.usp_RepoObjectSource_QueryPlan" style="stroke:#A80036;stroke-width:1.0;stroke-dasharray:7.0,7.0;"/><polygon fill="#A80036" points="103.79,1065.15,104.6886,1074.9578,106.2291,1069.5147,111.6722,1071.0552,103.79,1065.15" style="stroke:#A80036;stroke-width:1.0;"/><!--MD5=[c5414aef64d8b65b61bdc5d2a4d0c27c]
reverse link repo.usp_ExecutionLog_insert to repo.usp_update_Referencing_Count--><path codeLine="99" d="M92.55,1070.38 C100.89,1140.83 130.62,1306.96 230,1393.5 C253.87,1414.28 285.74,1425.82 316.33,1432.12 " fill="none" id="repo.usp_ExecutionLog_insert-backto-repo.usp_update_Referencing_Count" style="stroke:#A80036;stroke-width:1.0;stroke-dasharray:7.0,7.0;"/><polygon fill="#A80036" points="91.94,1065.07,88.9939,1074.4679,92.511,1070.0373,96.9416,1073.5544,91.94,1065.07" style="stroke:#A80036;stroke-width:1.0;"/><!--MD5=[e8ba09a6d34714beaa035971e3c77ed8]
reverse link repo.usp_ExecutionLog_insert to repo.usp_Index_ForeignKey--><path codeLine="100" d="M107.89,1005.36 C131.31,967.42 175.36,905.24 230,871.5 C263.13,851.04 304.93,839.88 340.45,833.8 " fill="none" id="repo.usp_ExecutionLog_insert-backto-repo.usp_Index_ForeignKey" style="stroke:#A80036;stroke-width:1.0;stroke-dasharray:7.0,7.0;"/><polygon fill="#A80036" points="105.14,1009.86,113.25,1004.2717,107.7501,1005.5954,106.4265,1000.0955,105.14,1009.86" style="stroke:#A80036;stroke-width:1.0;"/><!--MD5=[f33c64b971aa9a6c114be721145a9c78]
reverse link repo.usp_ExecutionLog_insert to repo.usp_main--><path codeLine="101" d="M175.29,1032.68 C302.17,1024.25 532.48,1003.55 603,961.5 C645.36,936.24 675.71,885.75 691.51,854.18 " fill="none" id="repo.usp_ExecutionLog_insert-backto-repo.usp_main" style="stroke:#A80036;stroke-width:1.0;stroke-dasharray:7.0,7.0;"/><polygon fill="#A80036" points="170.07,1033.02,179.3136,1036.4195,175.0592,1032.6912,178.7875,1028.4368,170.07,1033.02" style="stroke:#A80036;stroke-width:1.0;"/><!--MD5=[27ccfd782eb807533177feaad20ad0ee]
reverse link repo.usp_ExecutionLog_insert to repo.usp_RepoObjectSource_FirstResultSet--><path codeLine="102" d="M131.37,1067.92 C158.38,1086.31 194.9,1108.92 230,1123.5 C251.58,1132.46 275.34,1139.9 298.44,1145.97 " fill="none" id="repo.usp_ExecutionLog_insert-backto-repo.usp_RepoObjectSource_FirstResultSet" style="stroke:#A80036;stroke-width:1.0;stroke-dasharray:7.0,7.0;"/><polygon fill="#A80036" points="127.12,1065.01,132.2838,1073.3966,131.2448,1067.836,136.8054,1066.7969,127.12,1065.01" style="stroke:#A80036;stroke-width:1.0;"/><!--MD5=[7167afc2cdb20b92913ceb0cd88971e4]
reverse link repo.usp_ExecutionLog_insert to repo.usp_RepoObjectColumn_update_RepoObjectColumn_column_id--><path codeLine="103" d="M92.98,1004.5 C102.1,935.42 133.09,775.05 230,691.5 C237.78,684.79 246.4,679.05 255.53,674.13 " fill="none" id="repo.usp_ExecutionLog_insert-backto-repo.usp_RepoObjectColumn_update_RepoObjectColumn_column_id" style="stroke:#A80036;stroke-width:1.0;stroke-dasharray:7.0,7.0;"/><polygon fill="#A80036" points="92.32,1009.71,97.4442,1001.2992,92.963,1004.7515,89.5107,1000.2703,92.32,1009.71" style="stroke:#A80036;stroke-width:1.0;"/><!--MD5=[a34b4d0f36f977506a841e1f007e92c6]
reverse link repo.usp_ExecutionLog_insert to repo.usp_RepoObject_update_SysObjectQueryPlan--><path codeLine="104" d="M175.43,1048.31 C206.49,1052.21 242.4,1056.73 276.83,1061.06 " fill="none" id="repo.usp_ExecutionLog_insert-backto-repo.usp_RepoObject_update_SysObjectQueryPlan" style="stroke:#A80036;stroke-width:1.0;stroke-dasharray:7.0,7.0;"/><polygon fill="#A80036" points="170.08,1047.63,178.5215,1052.7035,175.0423,1048.2432,179.5026,1044.7639,170.08,1047.63" style="stroke:#A80036;stroke-width:1.0;"/><!--MD5=[125dcb86f126bdcc7e82dd68fedd4d5e]
reverse link repo.usp_ExecutionLog_insert to repo.usp_index_inheritance--><path codeLine="105" d="M147.98,1007.61 C172.89,995.52 202.5,981.97 230,971.5 C266.26,957.7 307.56,945.16 341.97,935.54 " fill="none" id="repo.usp_ExecutionLog_insert-backto-repo.usp_index_inheritance" style="stroke:#A80036;stroke-width:1.0;stroke-dasharray:7.0,7.0;"/><polygon fill="#A80036" points="143.39,1009.85,153.2318,1009.4783,147.8792,1007.6483,149.7091,1002.2956,143.39,1009.85" style="stroke:#A80036;stroke-width:1.0;"/><!--MD5=[b8af04b2ef6824a91779ffa3eee40726]
reverse link repo.usp_ExecutionLog_insert to repo.usp_GeneratorUsp_insert_update_persistence--><path codeLine="106" d="M98,1005.02 C114.1,950.14 154.39,839.39 230,781.5 C244.47,770.42 261.29,762.02 278.77,755.67 " fill="none" id="repo.usp_ExecutionLog_insert-backto-repo.usp_GeneratorUsp_insert_update_persistence" style="stroke:#A80036;stroke-width:1.0;stroke-dasharray:7.0,7.0;"/><polygon fill="#A80036" points="96.61,1009.84,102.9434,1002.2976,97.993,1005.0351,95.2555,1000.0847,96.61,1009.84" style="stroke:#A80036;stroke-width:1.0;"/><!--MD5=[252dd8ff33f0ae399d74823e79ff5a19]
reverse link repo.usp_ExecutionLog_insert to repo.usp_sync_guid--><path codeLine="107" d="M97.38,1070.34 C112.73,1127.02 152.19,1242.93 230,1303.5 C267.26,1332.51 320.52,1343.16 360.42,1346.91 " fill="none" id="repo.usp_ExecutionLog_insert-backto-repo.usp_sync_guid" style="stroke:#A80036;stroke-width:1.0;stroke-dasharray:7.0,7.0;"/><polygon fill="#A80036" points="96.05,1065.38,94.5004,1075.1062,97.3365,1070.2116,102.2311,1073.0477,96.05,1065.38" style="stroke:#A80036;stroke-width:1.0;"/><!--MD5=[3834f711365c9499f67a3e4874a4e076]
reverse link repo.usp_GeneratorUsp_insert_update_persistence to repo.usp_main--><path codeLine="108" d="M549.7,765.45 C567.76,770.31 585.94,775.68 603,781.5 C623.17,788.38 644.84,797.75 662.91,806.16 " fill="none" id="repo.usp_GeneratorUsp_insert_update_persistence-backto-repo.usp_main" style="stroke:#A80036;stroke-width:1.0;stroke-dasharray:7.0,7.0;"/><polygon fill="#A80036" points="544.61,764.09,552.2777,770.2711,549.4416,765.3765,554.3362,762.5404,544.61,764.09" style="stroke:#A80036;stroke-width:1.0;"/><!--MD5=[0867a4a4317b49a59fecb564943beac5]
reverse link repo.usp_Index_ForeignKey to repo.usp_main--><path codeLine="109" d="M497.92,826.5 C551.59,826.5 619.93,826.5 662.84,826.5 " fill="none" id="repo.usp_Index_ForeignKey-backto-repo.usp_main" style="stroke:#A80036;stroke-width:1.0;stroke-dasharray:7.0,7.0;"/><polygon fill="#A80036" points="492.77,826.5,501.77,830.5,497.77,826.5,501.77,822.5,492.77,826.5" style="stroke:#A80036;stroke-width:1.0;"/><!--MD5=[1dacdf4811700a7af5288268cb5220df]
reverse link repo.usp_index_inheritance to repo.usp_main--><path codeLine="110" d="M495.94,900.78 C529.34,893.24 568.47,883.27 603,871.5 C623.17,864.62 644.84,855.25 662.91,846.84 " fill="none" id="repo.usp_index_inheritance-backto-repo.usp_main" style="stroke:#A80036;stroke-width:1.0;stroke-dasharray:7.0,7.0;"/><polygon fill="#A80036" points="491.06,901.88,500.7188,903.8055,495.9379,900.7818,498.9616,896.0009,491.06,901.88" style="stroke:#A80036;stroke-width:1.0;"/><!--MD5=[bbb146f0c0ce3fce48054c7fbfb3fa9c]
reverse link repo.usp_RepoObject_update_SysObjectQueryPlan to repo.usp_main--><path codeLine="111" d="M560.85,1049.17 C576.03,1042.33 590.47,1033.9 603,1023.5 C657.27,978.46 685.64,896.77 697.35,854.11 " fill="none" id="repo.usp_RepoObject_update_SysObjectQueryPlan-backto-repo.usp_main" style="stroke:#A80036;stroke-width:1.0;stroke-dasharray:7.0,7.0;"/><polygon fill="#A80036" points="556.12,1051.24,565.9687,1051.2973,560.7008,1049.2359,562.7621,1043.968,556.12,1051.24" style="stroke:#A80036;stroke-width:1.0;"/><!--MD5=[22e50c43782eb3b8d5d437622c1edcde]
reverse link repo.usp_RepoObjectColumn_update_RepoObjectColumn_column_id to repo.usp_main--><path codeLine="112" d="M574.62,676.12 C584.56,680.55 594.12,685.64 603,691.5 C643.92,718.5 674.53,767.96 690.81,798.93 " fill="none" id="repo.usp_RepoObjectColumn_update_RepoObjectColumn_column_id-backto-repo.usp_main" style="stroke:#A80036;stroke-width:1.0;stroke-dasharray:7.0,7.0;"/><polygon fill="#A80036" points="570.03,674.13,576.6995,681.3769,574.6183,676.1168,579.8784,674.0357,570.03,674.13" style="stroke:#A80036;stroke-width:1.0;"/><!--MD5=[2e12ec8f97a6b73ac2321f321b962da2]
reverse link repo.usp_RepoObjectSource_FirstResultSet to repo.usp_main--><path codeLine="113" d="M539.6,1157.23 C562.79,1150.3 585.3,1139.68 603,1123.5 C682.6,1050.75 699.49,912.87 703.05,854.12 " fill="none" id="repo.usp_RepoObjectSource_FirstResultSet-backto-repo.usp_main" style="stroke:#A80036;stroke-width:1.0;stroke-dasharray:7.0,7.0;"/><polygon fill="#A80036" points="534.64,1158.65,544.3926,1160.0236,539.4476,1157.2764,542.1948,1152.3314,534.64,1158.65" style="stroke:#A80036;stroke-width:1.0;"/><!--MD5=[cb3821a825329dc80864adcdec387410]
reverse link repo.usp_RepoObjectSource_QueryPlan to repo.usp_main--><path codeLine="114" d="M530.88,1250.88 C557.39,1244.11 583.53,1232.63 603,1213.5 C655.06,1162.33 689.73,934.17 700.46,854.26 " fill="none" id="repo.usp_RepoObjectSource_QueryPlan-backto-repo.usp_main" style="stroke:#A80036;stroke-width:1.0;stroke-dasharray:7.0,7.0;"/><polygon fill="#A80036" points="525.92,1252.09,535.6167,1253.8146,530.7741,1250.8908,533.6979,1246.0481,525.92,1252.09" style="stroke:#A80036;stroke-width:1.0;"/><!--MD5=[32508e61a5981a899886f8905cd58642]
reverse link repo.usp_sync_guid to repo.usp_main--><path codeLine="115" d="M478,1349.61 C518.79,1347.01 570.85,1336.6 603,1303.5 C666.39,1238.22 694.55,946.14 701.94,854.26 " fill="none" id="repo.usp_sync_guid-backto-repo.usp_main" style="stroke:#A80036;stroke-width:1.0;stroke-dasharray:7.0,7.0;"/><polygon fill="#A80036" points="472.57,1349.92,481.7736,1353.4263,477.5626,1349.649,481.3399,1345.438,472.57,1349.92" style="stroke:#A80036;stroke-width:1.0;"/><!--MD5=[b871504f90beca6beb2beca71f38f440]
reverse link repo.usp_update_Referencing_Count to repo.usp_main--><path codeLine="116" d="M522.02,1434.24 C551.87,1427.94 581.97,1415.87 603,1393.5 C677.82,1313.91 698.5,957.13 702.95,854.31 " fill="none" id="repo.usp_update_Referencing_Count-backto-repo.usp_main" style="stroke:#A80036;stroke-width:1.0;stroke-dasharray:7.0,7.0;"/><polygon fill="#A80036" points="516.84,1435.27,526.4521,1437.4165,521.7418,1434.2839,524.8744,1429.5736,516.84,1435.27" style="stroke:#A80036;stroke-width:1.0;"/><!--MD5=[90e8bf4f3f858835dd815ed0c89b3bd7]
@startuml
left to right direction
hide circle
'avoide "." issues:
set namespaceSeparator none


skinparam class {
  BackgroundColor White
  BackgroundColor<<FN>> Yellow
  BackgroundColor<<FS>> Yellow
  BackgroundColor<<FT>> LightGray
  BackgroundColor<<IF>> Yellow
  BackgroundColor<<IS>> Yellow
  BackgroundColor<<P>> Aqua
  BackgroundColor<<PC>> Aqua
  BackgroundColor<<SN>> Yellow
  BackgroundColor<<SO>> SlateBlue
  BackgroundColor<<TF>> LightGray
  BackgroundColor<<TR>> Tomato
  BackgroundColor<<U>> White
  BackgroundColor<<V>> WhiteSmoke
  BackgroundColor<<X>> Aqua
}


entity graph.ReferencedObject << U >> {
}

entity graph.ReferencedObjectColumn << U >> {
}

entity graph.ReferencingObject << U >> {
}

entity graph.ReferencingObjectColumn << U >> {
}

entity graph.RepoObject << U >> {
}

entity graph.RepoObjectColumn << U >> {
}

entity repo.fs_get_parameter_value << FN >> {
}

entity repo.RepoObject_reference_union << V >> {
  **referenced_RepoObject_guid** : uniqueidentifier
  **referencing_RepoObject_guid** : uniqueidentifier
}

entity repo.RepoObjectColumn_reference_union << V >> {
}

entity repo.usp_ExecutionLog_insert << P >> {
}

entity repo.usp_GeneratorUsp_insert_update_persistence << P >> {
}

entity repo.usp_Index_ForeignKey << P >> {
}

entity repo.usp_index_inheritance << P >> {
}

entity repo.usp_main << P >> {
}

entity repo.usp_RepoObject_update_SysObjectQueryPlan << P >> {
}

entity repo.usp_RepoObjectColumn_update_RepoObjectColumn_column_id << P >> {
}

entity repo.usp_RepoObjectSource_FirstResultSet << P >> {
}

entity repo.usp_RepoObjectSource_QueryPlan << P >> {
}

entity repo.usp_sync_guid << P >> {
}

entity repo.usp_update_Referencing_Count << P >> {
}

graph.ReferencedObject <.. repo.usp_main
graph.ReferencedObjectColumn <.. repo.usp_main
graph.ReferencingObject <.. repo.usp_main
graph.ReferencingObjectColumn <.. repo.usp_main
graph.RepoObject <.. repo.usp_main
graph.RepoObjectColumn <.. repo.usp_main
repo.fs_get_parameter_value <.. repo.usp_main
repo.fs_get_parameter_value <.. repo.usp_RepoObjectColumn_update_RepoObjectColumn_column_id
repo.RepoObject_reference_union <.. repo.usp_main
repo.RepoObjectColumn_reference_union <.. repo.usp_main
repo.usp_ExecutionLog_insert <.. repo.usp_RepoObjectSource_QueryPlan
repo.usp_ExecutionLog_insert <.. repo.usp_update_Referencing_Count
repo.usp_ExecutionLog_insert <.. repo.usp_Index_ForeignKey
repo.usp_ExecutionLog_insert <.. repo.usp_main
repo.usp_ExecutionLog_insert <.. repo.usp_RepoObjectSource_FirstResultSet
repo.usp_ExecutionLog_insert <.. repo.usp_RepoObjectColumn_update_RepoObjectColumn_column_id
repo.usp_ExecutionLog_insert <.. repo.usp_RepoObject_update_SysObjectQueryPlan
repo.usp_ExecutionLog_insert <.. repo.usp_index_inheritance
repo.usp_ExecutionLog_insert <.. repo.usp_GeneratorUsp_insert_update_persistence
repo.usp_ExecutionLog_insert <.. repo.usp_sync_guid
repo.usp_GeneratorUsp_insert_update_persistence <.. repo.usp_main
repo.usp_Index_ForeignKey <.. repo.usp_main
repo.usp_index_inheritance <.. repo.usp_main
repo.usp_RepoObject_update_SysObjectQueryPlan <.. repo.usp_main
repo.usp_RepoObjectColumn_update_RepoObjectColumn_column_id <.. repo.usp_main
repo.usp_RepoObjectSource_FirstResultSet <.. repo.usp_main
repo.usp_RepoObjectSource_QueryPlan <.. repo.usp_main
repo.usp_sync_guid <.. repo.usp_main
repo.usp_update_Referencing_Count <.. repo.usp_main
@enduml

@startuml
left to right direction
hide circle
set namespaceSeparator none


skinparam class {
  BackgroundColor White
  BackgroundColor<<FN>> Yellow
  BackgroundColor<<FS>> Yellow
  BackgroundColor<<FT>> LightGray
  BackgroundColor<<IF>> Yellow
  BackgroundColor<<IS>> Yellow
  BackgroundColor<<P>> Aqua
  BackgroundColor<<PC>> Aqua
  BackgroundColor<<SN>> Yellow
  BackgroundColor<<SO>> SlateBlue
  BackgroundColor<<TF>> LightGray
  BackgroundColor<<TR>> Tomato
  BackgroundColor<<U>> White
  BackgroundColor<<V>> WhiteSmoke
  BackgroundColor<<X>> Aqua
}


entity graph.ReferencedObject << U >> {
}

entity graph.ReferencedObjectColumn << U >> {
}

entity graph.ReferencingObject << U >> {
}

entity graph.ReferencingObjectColumn << U >> {
}

entity graph.RepoObject << U >> {
}

entity graph.RepoObjectColumn << U >> {
}

entity repo.fs_get_parameter_value << FN >> {
}

entity repo.RepoObject_reference_union << V >> {
  **referenced_RepoObject_guid** : uniqueidentifier
  **referencing_RepoObject_guid** : uniqueidentifier
}

entity repo.RepoObjectColumn_reference_union << V >> {
}

entity repo.usp_ExecutionLog_insert << P >> {
}

entity repo.usp_GeneratorUsp_insert_update_persistence << P >> {
}

entity repo.usp_Index_ForeignKey << P >> {
}

entity repo.usp_index_inheritance << P >> {
}

entity repo.usp_main << P >> {
}

entity repo.usp_RepoObject_update_SysObjectQueryPlan << P >> {
}

entity repo.usp_RepoObjectColumn_update_RepoObjectColumn_column_id << P >> {
}

entity repo.usp_RepoObjectSource_FirstResultSet << P >> {
}

entity repo.usp_RepoObjectSource_QueryPlan << P >> {
}

entity repo.usp_sync_guid << P >> {
}

entity repo.usp_update_Referencing_Count << P >> {
}

graph.ReferencedObject <.. repo.usp_main
graph.ReferencedObjectColumn <.. repo.usp_main
graph.ReferencingObject <.. repo.usp_main
graph.ReferencingObjectColumn <.. repo.usp_main
graph.RepoObject <.. repo.usp_main
graph.RepoObjectColumn <.. repo.usp_main
repo.fs_get_parameter_value <.. repo.usp_main
repo.fs_get_parameter_value <.. repo.usp_RepoObjectColumn_update_RepoObjectColumn_column_id
repo.RepoObject_reference_union <.. repo.usp_main
repo.RepoObjectColumn_reference_union <.. repo.usp_main
repo.usp_ExecutionLog_insert <.. repo.usp_RepoObjectSource_QueryPlan
repo.usp_ExecutionLog_insert <.. repo.usp_update_Referencing_Count
repo.usp_ExecutionLog_insert <.. repo.usp_Index_ForeignKey
repo.usp_ExecutionLog_insert <.. repo.usp_main
repo.usp_ExecutionLog_insert <.. repo.usp_RepoObjectSource_FirstResultSet
repo.usp_ExecutionLog_insert <.. repo.usp_RepoObjectColumn_update_RepoObjectColumn_column_id
repo.usp_ExecutionLog_insert <.. repo.usp_RepoObject_update_SysObjectQueryPlan
repo.usp_ExecutionLog_insert <.. repo.usp_index_inheritance
repo.usp_ExecutionLog_insert <.. repo.usp_GeneratorUsp_insert_update_persistence
repo.usp_ExecutionLog_insert <.. repo.usp_sync_guid
repo.usp_GeneratorUsp_insert_update_persistence <.. repo.usp_main
repo.usp_Index_ForeignKey <.. repo.usp_main
repo.usp_index_inheritance <.. repo.usp_main
repo.usp_RepoObject_update_SysObjectQueryPlan <.. repo.usp_main
repo.usp_RepoObjectColumn_update_RepoObjectColumn_column_id <.. repo.usp_main
repo.usp_RepoObjectSource_FirstResultSet <.. repo.usp_main
repo.usp_RepoObjectSource_QueryPlan <.. repo.usp_main
repo.usp_sync_guid <.. repo.usp_main
repo.usp_update_Referencing_Count <.. repo.usp_main
@enduml

PlantUML version 1.2021.4(Sun Apr 04 08:49:39 GMT 2021)
(GPL source distribution)
Java Runtime: OpenJDK Runtime Environment
JVM: OpenJDK 64-Bit Server VM
Default Encoding: UTF-8
Language: en
Country: US
--></g></svg>