<?xml version="1.0" encoding="UTF-8" standalone="no"?><svg xmlns="http://www.w3.org/2000/svg" xmlns:xlink="http://www.w3.org/1999/xlink" contentScriptType="application/ecmascript" contentStyleType="text/css" height="1082px" preserveAspectRatio="none" style="width:1102px;height:1082px;" version="1.1" viewBox="0 0 1102 1082" width="1102px" zoomAndPan="magnify"><defs><filter height="300%" id="fg31bij8bwh6n" width="300%" x="-1" y="-1"><feGaussianBlur result="blurOut" stdDeviation="2.0"/><feColorMatrix in="blurOut" result="blurOut2" type="matrix" values="0 0 0 0 0 0 0 0 0 0 0 0 0 0 0 0 0 0 .4 0"/><feOffset dx="4.0" dy="4.0" in="blurOut2" result="blurOut3"/><feBlend in="SourceGraphic" in2="blurOut3" mode="normal"/></filter></defs><g><!--MD5=[cf0a97ef6e7b4b4bd933cd51465e70fb]
class graph.usp_PERSIST_Index--><rect codeLine="26" fill="#00FFFF" filter="url(#fg31bij8bwh6n)" height="54.8002" id="graph.usp_PERSIST_Index" style="stroke:#A80036;stroke-width:1.5;" width="153" x="501" y="170.31"/><text fill="#000000" font-family="sans-serif" font-size="12" font-style="italic" lengthAdjust="spacing" textLength="18" x="568.5" y="187.3101">«P»</text><text fill="#000000" font-family="sans-serif" font-size="12" lengthAdjust="spacing" textLength="147" x="504" y="201.7102">graph.usp_PERSIST_Index</text><line style="stroke:#A80036;stroke-width:1.5;" x1="502" x2="653" y1="209.1102" y2="209.1102"/><line style="stroke:#A80036;stroke-width:1.5;" x1="502" x2="653" y1="217.1102" y2="217.1102"/><!--MD5=[62ac621268a7733942c7f2d10719df98]
class repo.Index_gross--><rect codeLine="29" fill="#F5F5F5" filter="url(#fg31bij8bwh6n)" height="68.0001" id="repo.Index_gross" style="stroke:#A80036;stroke-width:1.5;" width="166" x="494.5" y="770.81"/><text fill="#000000" font-family="sans-serif" font-size="12" font-style="italic" lengthAdjust="spacing" textLength="18" x="568.5" y="787.8101">«V»</text><text fill="#000000" font-family="sans-serif" font-size="12" lengthAdjust="spacing" textLength="90" x="532.5" y="802.2102">repo.Index_gross</text><line style="stroke:#A80036;stroke-width:1.5;" x1="495.5" x2="659.5" y1="809.6102" y2="809.6102"/><ellipse cx="505.5" cy="820.6102" fill="#000000" rx="3" ry="3" style="stroke:#000000;stroke-width:1.0;"/><text fill="#000000" font-family="sans-serif" font-size="11" font-weight="bold" lengthAdjust="spacing" textLength="59" x="514.5" y="824.6101">index_guid</text><text fill="#000000" font-family="sans-serif" font-size="11" lengthAdjust="spacing" textLength="78" x="576.5" y="824.6101">: uniqueidentifier</text><line style="stroke:#A80036;stroke-width:1.5;" x1="495.5" x2="659.5" y1="830.8101" y2="830.8101"/><!--MD5=[286b67bd122e215bddea983f5980c4e0]
class repo.Index_Settings--><rect codeLine="33" fill="#FFFFFF" filter="url(#fg31bij8bwh6n)" height="68.0001" id="repo.Index_Settings" style="stroke:#A80036;stroke-width:1.5;" width="166" x="233" y="390.81"/><text fill="#000000" font-family="sans-serif" font-size="12" font-style="italic" lengthAdjust="spacing" textLength="19" x="306.5" y="407.8101">«U»</text><text fill="#000000" font-family="sans-serif" font-size="12" lengthAdjust="spacing" textLength="103" x="264.5" y="422.2102">repo.Index_Settings</text><line style="stroke:#A80036;stroke-width:1.5;" x1="234" x2="398" y1="429.6102" y2="429.6102"/><ellipse cx="244" cy="440.6102" fill="#000000" rx="3" ry="3" style="stroke:#000000;stroke-width:1.0;"/><text fill="#000000" font-family="sans-serif" font-size="11" font-weight="bold" lengthAdjust="spacing" textLength="59" x="253" y="444.6101">index_guid</text><text fill="#000000" font-family="sans-serif" font-size="11" lengthAdjust="spacing" textLength="78" x="315" y="444.6101">: uniqueidentifier</text><line style="stroke:#A80036;stroke-width:1.5;" x1="234" x2="398" y1="450.8101" y2="450.8101"/><!--MD5=[4f3f43b39956acb10f9f4abba2c363d2]
class repo.Index_union--><rect codeLine="37" fill="#F5F5F5" filter="url(#fg31bij8bwh6n)" height="68.0001" id="repo.Index_union" style="stroke:#A80036;stroke-width:1.5;" width="152" x="240" y="814.81"/><text fill="#000000" font-family="sans-serif" font-size="12" font-style="italic" lengthAdjust="spacing" textLength="18" x="307" y="831.8101">«V»</text><text fill="#000000" font-family="sans-serif" font-size="12" lengthAdjust="spacing" textLength="88" x="272" y="846.2102">repo.Index_union</text><line style="stroke:#A80036;stroke-width:1.5;" x1="241" x2="391" y1="853.6102" y2="853.6102"/><text fill="#000000" font-family="sans-serif" font-size="11" font-weight="bold" lengthAdjust="spacing" textLength="59" x="246" y="868.6101">index_guid</text><text fill="#000000" font-family="sans-serif" font-size="11" lengthAdjust="spacing" textLength="78" x="308" y="868.6101">: uniqueidentifier</text><line style="stroke:#A80036;stroke-width:1.5;" x1="241" x2="391" y1="874.8101" y2="874.8101"/><!--MD5=[190787cb5a1cbe0bcef448b4e1a01a54]
class repo.Index_virtual--><rect codeLine="41" fill="#FFFFFF" filter="url(#fg31bij8bwh6n)" height="68.0001" id="repo.Index_virtual" style="stroke:#A80036;stroke-width:1.5;" width="166" x="7" y="814.81"/><text fill="#000000" font-family="sans-serif" font-size="12" font-style="italic" lengthAdjust="spacing" textLength="19" x="80.5" y="831.8101">«U»</text><text fill="#000000" font-family="sans-serif" font-size="12" lengthAdjust="spacing" textLength="93" x="43.5" y="846.2102">repo.Index_virtual</text><line style="stroke:#A80036;stroke-width:1.5;" x1="8" x2="172" y1="853.6102" y2="853.6102"/><ellipse cx="18" cy="864.6102" fill="#000000" rx="3" ry="3" style="stroke:#000000;stroke-width:1.0;"/><text fill="#000000" font-family="sans-serif" font-size="11" font-weight="bold" lengthAdjust="spacing" textLength="59" x="27" y="868.6101">index_guid</text><text fill="#000000" font-family="sans-serif" font-size="11" lengthAdjust="spacing" textLength="78" x="89" y="868.6101">: uniqueidentifier</text><line style="stroke:#A80036;stroke-width:1.5;" x1="8" x2="172" y1="874.8101" y2="874.8101"/><!--MD5=[a6624c6ad43a7635f639bb5ffc01020d]
class repo.IndexColumn_virtual--><rect codeLine="45" fill="#FFFFFF" filter="url(#fg31bij8bwh6n)" height="81.2" id="repo.IndexColumn_virtual" style="stroke:#A80036;stroke-width:1.5;" width="166" x="494.5" y="945.31"/><text fill="#000000" font-family="sans-serif" font-size="12" font-style="italic" lengthAdjust="spacing" textLength="19" x="568" y="962.3101">«U»</text><text fill="#000000" font-family="sans-serif" font-size="12" lengthAdjust="spacing" textLength="133" x="511" y="976.7102">repo.IndexColumn_virtual</text><line style="stroke:#A80036;stroke-width:1.5;" x1="495.5" x2="659.5" y1="984.1102" y2="984.1102"/><ellipse cx="505.5" cy="995.1102" fill="#000000" rx="3" ry="3" style="stroke:#000000;stroke-width:1.0;"/><text fill="#000000" font-family="sans-serif" font-size="11" font-weight="bold" lengthAdjust="spacing" textLength="59" x="514.5" y="999.1101">index_guid</text><text fill="#000000" font-family="sans-serif" font-size="11" lengthAdjust="spacing" textLength="78" x="576.5" y="999.1101">: uniqueidentifier</text><ellipse cx="505.5" cy="1008.3101" fill="#000000" rx="3" ry="3" style="stroke:#000000;stroke-width:1.0;"/><text fill="#000000" font-family="sans-serif" font-size="11" font-weight="bold" lengthAdjust="spacing" textLength="91" x="514.5" y="1012.31">index_column_id</text><text fill="#000000" font-family="sans-serif" font-size="11" lengthAdjust="spacing" textLength="17" x="608.5" y="1012.31">: int</text><line style="stroke:#A80036;stroke-width:1.5;" x1="495.5" x2="659.5" y1="1018.51" y2="1018.51"/><!--MD5=[04197324ff093c4e006e17f566671fc0]
class repo.RepoObject--><rect codeLine="50" fill="#FFFFFF" filter="url(#fg31bij8bwh6n)" height="68.0001" id="repo.RepoObject" style="stroke:#A80036;stroke-width:1.5;" width="200" x="477.5" y="564.81"/><text fill="#000000" font-family="sans-serif" font-size="12" font-style="italic" lengthAdjust="spacing" textLength="19" x="568" y="581.8101">«U»</text><text fill="#000000" font-family="sans-serif" font-size="12" lengthAdjust="spacing" textLength="88" x="533.5" y="596.2102">repo.RepoObject</text><line style="stroke:#A80036;stroke-width:1.5;" x1="478.5" x2="676.5" y1="603.6102" y2="603.6102"/><ellipse cx="488.5" cy="614.6102" fill="#000000" rx="3" ry="3" style="stroke:#000000;stroke-width:1.0;"/><text fill="#000000" font-family="sans-serif" font-size="11" font-weight="bold" lengthAdjust="spacing" textLength="93" x="497.5" y="618.6101">RepoObject_guid</text><text fill="#000000" font-family="sans-serif" font-size="11" lengthAdjust="spacing" textLength="78" x="593.5" y="618.6101">: uniqueidentifier</text><line style="stroke:#A80036;stroke-width:1.5;" x1="478.5" x2="676.5" y1="624.8101" y2="624.8101"/><!--MD5=[f794353a4c1ccb4424c4f96f520320d0]
class repo.RepoObject_persistence--><rect codeLine="54" fill="#FFFFFF" filter="url(#fg31bij8bwh6n)" height="68.0001" id="repo.RepoObject_persistence" style="stroke:#A80036;stroke-width:1.5;" width="237" x="459" y="667.81"/><text fill="#000000" font-family="sans-serif" font-size="12" font-style="italic" lengthAdjust="spacing" textLength="19" x="568" y="684.8101">«U»</text><text fill="#000000" font-family="sans-serif" font-size="12" lengthAdjust="spacing" textLength="154" x="500.5" y="699.2102">repo.RepoObject_persistence</text><line style="stroke:#A80036;stroke-width:1.5;" x1="460" x2="695" y1="706.6102" y2="706.6102"/><ellipse cx="470" cy="717.6102" fill="#000000" rx="3" ry="3" style="stroke:#000000;stroke-width:1.0;"/><text fill="#000000" font-family="sans-serif" font-size="11" font-weight="bold" lengthAdjust="spacing" textLength="130" x="479" y="721.6101">target_RepoObject_guid</text><text fill="#000000" font-family="sans-serif" font-size="11" lengthAdjust="spacing" textLength="78" x="612" y="721.6101">: uniqueidentifier</text><line style="stroke:#A80036;stroke-width:1.5;" x1="460" x2="695" y1="727.8101" y2="727.8101"/><!--MD5=[766547c06d7214e35c354867103b9f6b]
class repo.usp_ExecutionLog_insert--><rect codeLine="58" fill="#00FFFF" filter="url(#fg31bij8bwh6n)" height="54.8002" id="repo.usp_ExecutionLog_insert" style="stroke:#A80036;stroke-width:1.5;" width="163" x="234.5" y="170.31"/><text fill="#000000" font-family="sans-serif" font-size="12" font-style="italic" lengthAdjust="spacing" textLength="18" x="307" y="187.3101">«P»</text><text fill="#000000" font-family="sans-serif" font-size="12" lengthAdjust="spacing" textLength="157" x="237.5" y="201.7102">repo.usp_ExecutionLog_insert</text><line style="stroke:#A80036;stroke-width:1.5;" x1="235.5" x2="396.5" y1="209.1102" y2="209.1102"/><line style="stroke:#A80036;stroke-width:1.5;" x1="235.5" x2="396.5" y1="217.1102" y2="217.1102"/><!--MD5=[4276122b64d569d5c71d95f92c398c48]
class repo.usp_Index_finish--><rect codeLine="61" fill="#00FFFF" filter="url(#fg31bij8bwh6n)" height="54.8002" id="repo.usp_Index_finish" style="stroke:#A80036;stroke-width:1.5;" width="120" x="756" y="528.31"/><text fill="#000000" font-family="sans-serif" font-size="12" font-style="italic" lengthAdjust="spacing" textLength="18" x="807" y="545.3101">«P»</text><text fill="#000000" font-family="sans-serif" font-size="12" lengthAdjust="spacing" textLength="114" x="759" y="559.7102">repo.usp_Index_finish</text><line style="stroke:#A80036;stroke-width:1.5;" x1="757" x2="875" y1="567.1102" y2="567.1102"/><line style="stroke:#A80036;stroke-width:1.5;" x1="757" x2="875" y1="575.1102" y2="575.1102"/><!--MD5=[050f58d1b8974ab6bcec1db860beaa3f]
class repo.usp_Index_ForeignKey--><rect codeLine="64" fill="#00FFFF" filter="url(#fg31bij8bwh6n)" height="54.8002" id="repo.usp_Index_ForeignKey" style="stroke:#A80036;stroke-width:1.5;" width="152" x="936" y="252.31"/><text fill="#000000" font-family="sans-serif" font-size="12" font-style="italic" lengthAdjust="spacing" textLength="18" x="1003" y="269.3101">«P»</text><text fill="#000000" font-family="sans-serif" font-size="12" lengthAdjust="spacing" textLength="146" x="939" y="283.7102">repo.usp_Index_ForeignKey</text><line style="stroke:#A80036;stroke-width:1.5;" x1="937" x2="1087" y1="291.1102" y2="291.1102"/><line style="stroke:#A80036;stroke-width:1.5;" x1="937" x2="1087" y1="299.1102" y2="299.1102"/><!--MD5=[41c92b7e9ea902507dcc75772e6d8599]
class repo.usp_index_inheritance--><rect codeLine="67" fill="#00FFFF" filter="url(#fg31bij8bwh6n)" height="54.8002" id="repo.usp_index_inheritance" style="stroke:#A80036;stroke-width:1.5;" width="149" x="937.5" y="777.31"/><text fill="#000000" font-family="sans-serif" font-size="12" font-style="italic" lengthAdjust="spacing" textLength="18" x="1003" y="794.3101">«P»</text><text fill="#000000" font-family="sans-serif" font-size="12" lengthAdjust="spacing" textLength="143" x="940.5" y="808.7102">repo.usp_index_inheritance</text><line style="stroke:#A80036;stroke-width:1.5;" x1="938.5" x2="1085.5" y1="816.1102" y2="816.1102"/><line style="stroke:#A80036;stroke-width:1.5;" x1="938.5" x2="1085.5" y1="824.1102" y2="824.1102"/><!--MD5=[e23c02f927e5473890cdfeb5dd60677a]
class repo.usp_Index_Settings--><rect codeLine="70" fill="#00FFFF" filter="url(#fg31bij8bwh6n)" height="54.8002" id="repo.usp_Index_Settings" style="stroke:#A80036;stroke-width:1.5;" width="135" x="510" y="332.31"/><text fill="#000000" font-family="sans-serif" font-size="12" font-style="italic" lengthAdjust="spacing" textLength="18" x="568.5" y="349.3101">«P»</text><text fill="#000000" font-family="sans-serif" font-size="12" lengthAdjust="spacing" textLength="129" x="513" y="363.7102">repo.usp_Index_Settings</text><line style="stroke:#A80036;stroke-width:1.5;" x1="511" x2="644" y1="371.1102" y2="371.1102"/><line style="stroke:#A80036;stroke-width:1.5;" x1="511" x2="644" y1="379.1102" y2="379.1102"/><!--MD5=[ef423eefdce71783fc457134dd75e4e5]
reverse link graph.usp_PERSIST_Index to repo.usp_Index_finish--><path codeLine="73" d="M658.68,225.21 C672.38,232.57 685.55,241.67 696,252.81 C772.19,334 801.59,469.66 811.09,527.88 " fill="none" id="graph.usp_PERSIST_Index-backto-repo.usp_Index_finish" style="stroke:#A80036;stroke-width:1.0;stroke-dasharray:7.0,7.0;"/><polygon fill="#A80036" points="654.01,222.78,660.1339,230.4935,658.4414,225.0958,663.8391,223.4033,654.01,222.78" style="stroke:#A80036;stroke-width:1.0;"/><!--MD5=[3fea031d62b931dd13b24dac77eb826c]
reverse link repo.Index_gross to repo.usp_index_inheritance--><path codeLine="74" d="M665.82,804.81 C745.63,804.81 862.34,804.81 937.49,804.81 " fill="none" id="repo.Index_gross-backto-repo.usp_index_inheritance" style="stroke:#A80036;stroke-width:1.0;stroke-dasharray:7.0,7.0;"/><polygon fill="#A80036" points="660.61,804.81,669.61,808.81,665.61,804.81,669.61,800.81,660.61,804.81" style="stroke:#A80036;stroke-width:1.0;"/><!--MD5=[9ee25f7828981fe0e8ac62297a8e0cfd]
reverse link repo.Index_gross to repo.usp_Index_finish--><path codeLine="75" d="M665.5,774.52 C676.42,768.63 686.93,761.76 696,753.81 C751.05,705.57 788.09,625.48 804.82,583.47 " fill="none" id="repo.Index_gross-backto-repo.usp_Index_finish" style="stroke:#A80036;stroke-width:1.0;stroke-dasharray:7.0,7.0;"/><polygon fill="#A80036" points="660.8,776.99,670.6275,776.3419,665.2255,774.663,666.9044,769.261,660.8,776.99" style="stroke:#A80036;stroke-width:1.0;"/><!--MD5=[c312e1fa53351c7a01044216c058897b]
reverse link repo.Index_Settings to repo.Index_gross--><path codeLine="76" d="M324.11,463.96 C338.29,531.53 376.13,670.76 459,753.81 C469.05,763.88 481.42,772.11 494.32,778.78 " fill="none" id="repo.Index_Settings-backto-repo.Index_gross" style="stroke:#A80036;stroke-width:1.0;stroke-dasharray:7.0,7.0;"/><polygon fill="#A80036" points="323.05,458.83,320.9573,468.454,324.0635,463.7262,328.7913,466.8324,323.05,458.83" style="stroke:#A80036;stroke-width:1.0;"/><!--MD5=[1c14eef6775c5327da426afcbd044e58]
reverse link repo.Index_Settings to repo.usp_Index_Settings--><path codeLine="77" d="M404.15,402.98 C438.59,394.35 477.53,384.6 509.67,376.55 " fill="none" id="repo.Index_Settings-backto-repo.usp_Index_Settings" style="stroke:#A80036;stroke-width:1.0;stroke-dasharray:7.0,7.0;"/><polygon fill="#A80036" points="399.11,404.24,408.8126,405.931,403.9599,403.024,406.8669,398.1712,399.11,404.24" style="stroke:#A80036;stroke-width:1.0;"/><!--MD5=[e801598faffc75774180be5049ac1c84]
reverse link repo.Index_Settings to repo.usp_Index_finish--><path codeLine="78" d="M404.14,429.63 C482.47,436.1 599.67,451.12 696,485.81 C724.64,496.12 754.15,513.43 776.62,528.25 " fill="none" id="repo.Index_Settings-backto-repo.usp_Index_finish" style="stroke:#A80036;stroke-width:1.0;stroke-dasharray:7.0,7.0;"/><polygon fill="#A80036" points="399.03,429.21,407.6813,433.9169,404.014,429.6099,408.3211,425.9426,399.03,429.21" style="stroke:#A80036;stroke-width:1.0;"/><!--MD5=[07102fc8893bbf86649aa5204425f32f]
reverse link repo.Index_union to repo.Index_gross--><path codeLine="79" d="M397.36,835.18 C428.18,829.96 463.36,823.99 494.34,818.74 " fill="none" id="repo.Index_union-backto-repo.Index_gross" style="stroke:#A80036;stroke-width:1.0;stroke-dasharray:7.0,7.0;"/><polygon fill="#A80036" points="392.06,836.08,401.5986,838.5325,396.9908,835.2511,400.2723,830.6433,392.06,836.08" style="stroke:#A80036;stroke-width:1.0;"/><!--MD5=[d297f7fc4ea18e00407d3a519d13807b]
reverse link repo.Index_union to repo.usp_Index_finish--><path codeLine="80" d="M397.08,875.49 C479.45,897.62 607.82,916.77 696,856.81 C788.94,793.61 809.29,645.44 813.75,583.64 " fill="none" id="repo.Index_union-backto-repo.usp_Index_finish" style="stroke:#A80036;stroke-width:1.0;stroke-dasharray:7.0,7.0;"/><polygon fill="#A80036" points="392.21,874.16,399.8435,880.3833,397.0345,875.4732,401.9446,872.6641,392.21,874.16" style="stroke:#A80036;stroke-width:1.0;"/><!--MD5=[f8bd526375a899eece959dde76990019]
reverse link repo.Index_virtual to repo.Index_union--><path codeLine="81" d="M178.29,848.81 C198.65,848.81 220.15,848.81 239.93,848.81 " fill="none" id="repo.Index_virtual-backto-repo.Index_union" style="stroke:#A80036;stroke-width:1.0;stroke-dasharray:7.0,7.0;"/><polygon fill="#A80036" points="173.14,848.81,182.14,852.81,178.14,848.81,182.14,844.81,173.14,848.81" style="stroke:#A80036;stroke-width:1.0;"/><!--MD5=[7e2a1d819dd7dee2bb0eee0d77b6f429]
reverse link repo.Index_virtual to repo.usp_index_inheritance--><path codeLine="82" d="M141.44,885.93 C209.46,933.45 336.27,1013.3 459,1043.81 C561.22,1069.22 595.48,1075.29 696,1043.81 C823.42,1003.9 939.05,886.67 987.26,832.65 " fill="none" id="repo.Index_virtual-backto-repo.usp_index_inheritance" style="stroke:#A80036;stroke-width:1.0;stroke-dasharray:7.0,7.0;"/><polygon fill="#A80036" points="137.04,882.84,142.1173,891.2793,141.1355,885.7083,146.7065,884.7265,137.04,882.84" style="stroke:#A80036;stroke-width:1.0;"/><!--MD5=[bc21021c3f5794720143cfbfd863b465]
reverse link repo.Index_virtual to repo.usp_Index_finish--><path codeLine="83" d="M121.21,810.78 C178.41,742.21 310.22,600.04 459,546.81 C558.4,511.24 683.58,527.13 755.93,541.65 " fill="none" id="repo.Index_virtual-backto-repo.usp_Index_finish" style="stroke:#A80036;stroke-width:1.0;stroke-dasharray:7.0,7.0;"/><polygon fill="#A80036" points="117.88,814.79,126.713,810.4335,121.0795,810.9477,120.5653,805.3143,117.88,814.79" style="stroke:#A80036;stroke-width:1.0;"/><!--MD5=[f33fabf530f0f473504c1868ccb8a650]
reverse link repo.IndexColumn_virtual to repo.usp_index_inheritance--><path codeLine="84" d="M665.5,949.4 C748.07,914.84 870.34,863.67 945.12,832.38 " fill="none" id="repo.IndexColumn_virtual-backto-repo.usp_index_inheritance" style="stroke:#A80036;stroke-width:1.0;stroke-dasharray:7.0,7.0;"/><polygon fill="#A80036" points="660.61,951.44,670.4564,951.66,665.2233,949.5119,667.3714,944.2787,660.61,951.44" style="stroke:#A80036;stroke-width:1.0;"/><!--MD5=[32711f30b40490d31044dc79c269a53d]
reverse link repo.IndexColumn_virtual to repo.usp_Index_finish--><path codeLine="85" d="M664.98,945.88 C676.52,937.82 687.33,928.48 696,917.81 C780.22,814.05 805.62,648.65 812.59,583.48 " fill="none" id="repo.IndexColumn_virtual-backto-repo.usp_Index_finish" style="stroke:#A80036;stroke-width:1.0;stroke-dasharray:7.0,7.0;"/><polygon fill="#A80036" points="660.7,948.79,670.3896,947.0259,664.8314,945.9738,665.8836,940.4156,660.7,948.79" style="stroke:#A80036;stroke-width:1.0;"/><!--MD5=[d696823a64d0be3eda2237b2f7b2b957]
reverse link repo.RepoObject to repo.usp_Index_finish--><path codeLine="86" d="M682.76,579.85 C707.78,575.3 733.65,570.6 755.8,566.57 " fill="none" id="repo.RepoObject-backto-repo.usp_Index_finish" style="stroke:#A80036;stroke-width:1.0;stroke-dasharray:7.0,7.0;"/><polygon fill="#A80036" points="677.77,580.76,687.3356,583.105,682.6912,579.8756,685.9206,575.2312,677.77,580.76" style="stroke:#A80036;stroke-width:1.0;"/><!--MD5=[f06767f56a5b285a3a708b6b6b738df0]
reverse link repo.RepoObject_persistence to repo.usp_Index_finish--><path codeLine="87" d="M667.19,665.46 C677.09,660.55 686.89,655.3 696,649.81 C728.02,630.5 761.13,603.69 784.27,583.64 " fill="none" id="repo.RepoObject_persistence-backto-repo.usp_Index_finish" style="stroke:#A80036;stroke-width:1.0;stroke-dasharray:7.0,7.0;"/><polygon fill="#A80036" points="662.63,667.69,672.4723,667.3306,667.1219,665.4939,668.9586,660.1436,662.63,667.69" style="stroke:#A80036;stroke-width:1.0;"/><!--MD5=[e3979b499c734ff06c6c1672e3188461]
reverse link repo.usp_ExecutionLog_insert to graph.usp_PERSIST_Index--><path codeLine="88" d="M402.73,197.81 C434.39,197.81 470.02,197.81 500.74,197.81 " fill="none" id="repo.usp_ExecutionLog_insert-backto-graph.usp_PERSIST_Index" style="stroke:#A80036;stroke-width:1.0;stroke-dasharray:7.0,7.0;"/><polygon fill="#A80036" points="397.68,197.81,406.68,201.81,402.68,197.81,406.68,193.81,397.68,197.81" style="stroke:#A80036;stroke-width:1.0;"/><!--MD5=[76ee38e87be28760f21d1e40c4a04e0c]
reverse link repo.usp_ExecutionLog_insert to repo.usp_Index_Settings--><path codeLine="89" d="M353.49,228.66 C381.32,251.34 421.19,282.05 459,304.81 C475.4,314.68 493.87,324.06 511.22,332.19 " fill="none" id="repo.usp_ExecutionLog_insert-backto-repo.usp_Index_Settings" style="stroke:#A80036;stroke-width:1.0;stroke-dasharray:7.0,7.0;"/><polygon fill="#A80036" points="349.47,225.37,353.8974,234.1676,353.3379,228.5385,358.967,227.979,349.47,225.37" style="stroke:#A80036;stroke-width:1.0;"/><!--MD5=[125dcb86f126bdcc7e82dd68fedd4d5e]
reverse link repo.usp_ExecutionLog_insert to repo.usp_index_inheritance--><path codeLine="90" d="M378.49,168.31 C457.99,134.85 597.84,92.29 696,152.81 C930.62,297.45 994.41,672.58 1007.89,777.3 " fill="none" id="repo.usp_ExecutionLog_insert-backto-repo.usp_index_inheritance" style="stroke:#A80036;stroke-width:1.0;stroke-dasharray:7.0,7.0;"/><polygon fill="#A80036" points="373.81,170.3,383.6576,170.4572,378.4109,168.3425,380.5256,163.0958,373.81,170.3" style="stroke:#A80036;stroke-width:1.0;"/><!--MD5=[cea9e16e56faa21c2565cebc40baed17]
reverse link repo.usp_ExecutionLog_insert to repo.usp_Index_finish--><path codeLine="91" d="M402.87,225.2 C421.37,231.05 440.83,237.17 459,242.81 C564.14,275.44 612.05,243.59 696,314.81 C763.96,372.46 796.75,478.24 809.03,528.24 " fill="none" id="repo.usp_ExecutionLog_insert-backto-repo.usp_Index_finish" style="stroke:#A80036;stroke-width:1.0;stroke-dasharray:7.0,7.0;"/><polygon fill="#A80036" points="397.67,223.56,405.0327,230.1014,402.4344,225.0766,407.4593,222.4783,397.67,223.56" style="stroke:#A80036;stroke-width:1.0;"/><!--MD5=[e8ba09a6d34714beaa035971e3c77ed8]
reverse link repo.usp_ExecutionLog_insert to repo.usp_Index_ForeignKey--><path codeLine="92" d="M346.47,166.32 C373.04,140.42 414.64,105.65 459,90.81 C634.76,32 711.21,6 876,90.81 C942.33,124.94 983.29,208.44 1000.91,252.13 " fill="none" id="repo.usp_ExecutionLog_insert-backto-repo.usp_Index_ForeignKey" style="stroke:#A80036;stroke-width:1.0;stroke-dasharray:7.0,7.0;"/><polygon fill="#A80036" points="342.66,170.07,351.8876,166.6275,346.2311,166.5704,346.2882,160.9138,342.66,170.07" style="stroke:#A80036;stroke-width:1.0;"/><!--MD5=[2b2e22431003cd1a4acf075188e0cd2e]
reverse link repo.usp_Index_finish to repo.usp_index_inheritance--><path codeLine="93" d="M841.65,587.44 C879.93,636.58 953.06,730.45 989.4,777.08 " fill="none" id="repo.usp_Index_finish-backto-repo.usp_index_inheritance" style="stroke:#A80036;stroke-width:1.0;stroke-dasharray:7.0,7.0;"/><polygon fill="#A80036" points="838.5,583.41,840.8968,592.9628,841.5815,587.3475,847.1968,588.0323,838.5,583.41" style="stroke:#A80036;stroke-width:1.0;"/><!--MD5=[7e134c76c4b7a33609f24110a8438b2a]
reverse link repo.usp_Index_finish to repo.usp_Index_ForeignKey--><path codeLine="94" d="M839.4,523.93 C877.74,469.39 955.29,359.06 991.52,307.52 " fill="none" id="repo.usp_Index_finish-backto-repo.usp_Index_ForeignKey" style="stroke:#A80036;stroke-width:1.0;stroke-dasharray:7.0,7.0;"/><polygon fill="#A80036" points="836.49,528.08,844.9411,523.0224,839.3678,523.9912,838.399,518.4179,836.49,528.08" style="stroke:#A80036;stroke-width:1.0;"/><!--MD5=[1113307769d46e6789a9c35faf4e9488]
reverse link repo.usp_Index_Settings to repo.usp_Index_finish--><path codeLine="95" d="M650.01,387.26 C665.92,394.96 682.15,404.19 696,414.81 C738.33,447.24 775.94,497.13 797.06,528.05 " fill="none" id="repo.usp_Index_Settings-backto-repo.usp_Index_finish" style="stroke:#A80036;stroke-width:1.0;stroke-dasharray:7.0,7.0;"/><polygon fill="#A80036" points="645.09,384.91,651.5052,392.383,649.6069,387.0541,654.9358,385.1559,645.09,384.91" style="stroke:#A80036;stroke-width:1.0;"/><!--MD5=[0a77dab891a78d5c06535c7913ff999b]
@startuml
left to right direction
hide circle
'avoide "." issues:
set namespaceSeparator none


skinparam class {
  BackgroundColor White
  BackgroundColor<<FN>> Yellow
  BackgroundColor<<FS>> Yellow
  BackgroundColor<<FT>> LightGray
  BackgroundColor<<IF>> Yellow
  BackgroundColor<<IS>> Yellow
  BackgroundColor<<P>> Aqua
  BackgroundColor<<PC>> Aqua
  BackgroundColor<<SN>> Yellow
  BackgroundColor<<SO>> SlateBlue
  BackgroundColor<<TF>> LightGray
  BackgroundColor<<TR>> Tomato
  BackgroundColor<<U>> White
  BackgroundColor<<V>> WhiteSmoke
  BackgroundColor<<X>> Aqua
}


entity graph.usp_PERSIST_Index << P >> {
}

entity repo.Index_gross << V >> {
  * **index_guid** : uniqueidentifier
}

entity repo.Index_Settings << U >> {
  * **index_guid** : uniqueidentifier
}

entity repo.Index_union << V >> {
  **index_guid** : uniqueidentifier
}

entity repo.Index_virtual << U >> {
  * **index_guid** : uniqueidentifier
}

entity repo.IndexColumn_virtual << U >> {
  * **index_guid** : uniqueidentifier
  * **index_column_id** : int
}

entity repo.RepoObject << U >> {
  * **RepoObject_guid** : uniqueidentifier
}

entity repo.RepoObject_persistence << U >> {
  * **target_RepoObject_guid** : uniqueidentifier
}

entity repo.usp_ExecutionLog_insert << P >> {
}

entity repo.usp_Index_finish << P >> {
}

entity repo.usp_Index_ForeignKey << P >> {
}

entity repo.usp_index_inheritance << P >> {
}

entity repo.usp_Index_Settings << P >> {
}

graph.usp_PERSIST_Index <.. repo.usp_Index_finish
repo.Index_gross <.. repo.usp_index_inheritance
repo.Index_gross <.. repo.usp_Index_finish
repo.Index_Settings <.. repo.Index_gross
repo.Index_Settings <.. repo.usp_Index_Settings
repo.Index_Settings <.. repo.usp_Index_finish
repo.Index_union <.. repo.Index_gross
repo.Index_union <.. repo.usp_Index_finish
repo.Index_virtual <.. repo.Index_union
repo.Index_virtual <.. repo.usp_index_inheritance
repo.Index_virtual <.. repo.usp_Index_finish
repo.IndexColumn_virtual <.. repo.usp_index_inheritance
repo.IndexColumn_virtual <.. repo.usp_Index_finish
repo.RepoObject <.. repo.usp_Index_finish
repo.RepoObject_persistence <.. repo.usp_Index_finish
repo.usp_ExecutionLog_insert <.. graph.usp_PERSIST_Index
repo.usp_ExecutionLog_insert <.. repo.usp_Index_Settings
repo.usp_ExecutionLog_insert <.. repo.usp_index_inheritance
repo.usp_ExecutionLog_insert <.. repo.usp_Index_finish
repo.usp_ExecutionLog_insert <.. repo.usp_Index_ForeignKey
repo.usp_Index_finish <.. repo.usp_index_inheritance
repo.usp_Index_finish <.. repo.usp_Index_ForeignKey
repo.usp_Index_Settings <.. repo.usp_Index_finish
@enduml

@startuml
left to right direction
hide circle
set namespaceSeparator none


skinparam class {
  BackgroundColor White
  BackgroundColor<<FN>> Yellow
  BackgroundColor<<FS>> Yellow
  BackgroundColor<<FT>> LightGray
  BackgroundColor<<IF>> Yellow
  BackgroundColor<<IS>> Yellow
  BackgroundColor<<P>> Aqua
  BackgroundColor<<PC>> Aqua
  BackgroundColor<<SN>> Yellow
  BackgroundColor<<SO>> SlateBlue
  BackgroundColor<<TF>> LightGray
  BackgroundColor<<TR>> Tomato
  BackgroundColor<<U>> White
  BackgroundColor<<V>> WhiteSmoke
  BackgroundColor<<X>> Aqua
}


entity graph.usp_PERSIST_Index << P >> {
}

entity repo.Index_gross << V >> {
  * **index_guid** : uniqueidentifier
}

entity repo.Index_Settings << U >> {
  * **index_guid** : uniqueidentifier
}

entity repo.Index_union << V >> {
  **index_guid** : uniqueidentifier
}

entity repo.Index_virtual << U >> {
  * **index_guid** : uniqueidentifier
}

entity repo.IndexColumn_virtual << U >> {
  * **index_guid** : uniqueidentifier
  * **index_column_id** : int
}

entity repo.RepoObject << U >> {
  * **RepoObject_guid** : uniqueidentifier
}

entity repo.RepoObject_persistence << U >> {
  * **target_RepoObject_guid** : uniqueidentifier
}

entity repo.usp_ExecutionLog_insert << P >> {
}

entity repo.usp_Index_finish << P >> {
}

entity repo.usp_Index_ForeignKey << P >> {
}

entity repo.usp_index_inheritance << P >> {
}

entity repo.usp_Index_Settings << P >> {
}

graph.usp_PERSIST_Index <.. repo.usp_Index_finish
repo.Index_gross <.. repo.usp_index_inheritance
repo.Index_gross <.. repo.usp_Index_finish
repo.Index_Settings <.. repo.Index_gross
repo.Index_Settings <.. repo.usp_Index_Settings
repo.Index_Settings <.. repo.usp_Index_finish
repo.Index_union <.. repo.Index_gross
repo.Index_union <.. repo.usp_Index_finish
repo.Index_virtual <.. repo.Index_union
repo.Index_virtual <.. repo.usp_index_inheritance
repo.Index_virtual <.. repo.usp_Index_finish
repo.IndexColumn_virtual <.. repo.usp_index_inheritance
repo.IndexColumn_virtual <.. repo.usp_Index_finish
repo.RepoObject <.. repo.usp_Index_finish
repo.RepoObject_persistence <.. repo.usp_Index_finish
repo.usp_ExecutionLog_insert <.. graph.usp_PERSIST_Index
repo.usp_ExecutionLog_insert <.. repo.usp_Index_Settings
repo.usp_ExecutionLog_insert <.. repo.usp_index_inheritance
repo.usp_ExecutionLog_insert <.. repo.usp_Index_finish
repo.usp_ExecutionLog_insert <.. repo.usp_Index_ForeignKey
repo.usp_Index_finish <.. repo.usp_index_inheritance
repo.usp_Index_finish <.. repo.usp_Index_ForeignKey
repo.usp_Index_Settings <.. repo.usp_Index_finish
@enduml

PlantUML version 1.2021.4(Sun Apr 04 08:49:39 GMT 2021)
(GPL source distribution)
Java Runtime: OpenJDK Runtime Environment
JVM: OpenJDK 64-Bit Server VM
Default Encoding: UTF-8
Language: en
Country: US
--></g></svg>