<?xml version="1.0" encoding="UTF-8" standalone="no"?><svg xmlns="http://www.w3.org/2000/svg" xmlns:xlink="http://www.w3.org/1999/xlink" contentScriptType="application/ecmascript" contentStyleType="text/css" height="669px" preserveAspectRatio="none" style="width:1097px;height:669px;" version="1.1" viewBox="0 0 1097 669" width="1097px" zoomAndPan="magnify"><defs><filter height="300%" id="f1h6qcclxoix0w" width="300%" x="-1" y="-1"><feGaussianBlur result="blurOut" stdDeviation="2.0"/><feColorMatrix in="blurOut" result="blurOut2" type="matrix" values="0 0 0 0 0 0 0 0 0 0 0 0 0 0 0 0 0 0 .4 0"/><feOffset dx="4.0" dy="4.0" in="blurOut2" result="blurOut3"/><feBlend in="SourceGraphic" in2="blurOut3" mode="normal"/></filter></defs><g><!--MD5=[a2c5c25b728afa7467f8eb58ba480c7b]
class repo.SysObject_RepoObject_via_guid--><rect codeLine="26" fill="#F5F5F5" filter="url(#f1h6qcclxoix0w)" height="54.8002" id="repo.SysObject_RepoObject_via_guid" style="stroke:#A80036;stroke-width:1.5;" width="208" x="580" y="349"/><text fill="#000000" font-family="sans-serif" font-size="12" font-style="italic" lengthAdjust="spacing" textLength="18" x="675" y="366.0001">«V»</text><text fill="#000000" font-family="sans-serif" font-size="12" lengthAdjust="spacing" textLength="202" x="583" y="380.4002">repo.SysObject_RepoObject_via_guid</text><line style="stroke:#A80036;stroke-width:1.5;" x1="581" x2="787" y1="387.8002" y2="387.8002"/><line style="stroke:#A80036;stroke-width:1.0;" x1="581" x2="787" y1="395.8002" y2="395.8002"/><!--MD5=[03fe6c491144b18b8f50eef4b3f318b7]
class repo.SysObject_RepoObject_via_name--><rect codeLine="30" fill="#F5F5F5" filter="url(#f1h6qcclxoix0w)" height="54.8002" id="repo.SysObject_RepoObject_via_name" style="stroke:#A80036;stroke-width:1.5;" width="214" x="577" y="439"/><text fill="#000000" font-family="sans-serif" font-size="12" font-style="italic" lengthAdjust="spacing" textLength="18" x="675" y="456.0001">«V»</text><text fill="#000000" font-family="sans-serif" font-size="12" lengthAdjust="spacing" textLength="208" x="580" y="470.4002">repo.SysObject_RepoObject_via_name</text><line style="stroke:#A80036;stroke-width:1.5;" x1="578" x2="790" y1="477.8002" y2="477.8002"/><line style="stroke:#A80036;stroke-width:1.0;" x1="578" x2="790" y1="485.8002" y2="485.8002"/><!--MD5=[d094aade7caebee394835e0c1b7788ad]
class repo.usp_sync_guid_RepoObject--><rect codeLine="34" fill="#00FFFF" filter="url(#f1h6qcclxoix0w)" height="54.8002" id="repo.usp_sync_guid_RepoObject" style="stroke:#A80036;stroke-width:1.5;" width="181" x="885" y="439"/><text fill="#000000" font-family="sans-serif" font-size="12" font-style="italic" lengthAdjust="spacing" textLength="18" x="966.5" y="456.0001">«P»</text><text fill="#000000" font-family="sans-serif" font-size="12" lengthAdjust="spacing" textLength="175" x="888" y="470.4002">repo.usp_sync_guid_RepoObject</text><line style="stroke:#A80036;stroke-width:1.5;" x1="886" x2="1065" y1="477.8002" y2="477.8002"/><line style="stroke:#A80036;stroke-width:1.0;" x1="886" x2="1065" y1="485.8002" y2="485.8002"/><!--MD5=[0d64e2350086c6ff3acd22328b353b20]
class repo_sys.ColumnReference--><rect codeLine="38" fill="#F5F5F5" filter="url(#f1h6qcclxoix0w)" height="54.8002" id="repo_sys.ColumnReference" style="stroke:#A80036;stroke-width:1.5;" width="149" x="609.5" y="601"/><text fill="#000000" font-family="sans-serif" font-size="12" font-style="italic" lengthAdjust="spacing" textLength="18" x="675" y="618.0001">«V»</text><text fill="#000000" font-family="sans-serif" font-size="12" lengthAdjust="spacing" textLength="143" x="612.5" y="632.4002">repo_sys.ColumnReference</text><line style="stroke:#A80036;stroke-width:1.5;" x1="610.5" x2="757.5" y1="639.8002" y2="639.8002"/><line style="stroke:#A80036;stroke-width:1.0;" x1="610.5" x2="757.5" y1="647.8002" y2="647.8002"/><!--MD5=[2a618efffcd1b59417075f7df2095830]
class repo_sys.ExtendedProperties--><rect codeLine="42" fill="#F5F5F5" filter="url(#f1h6qcclxoix0w)" height="54.8002" id="repo_sys.ExtendedProperties" style="stroke:#A80036;stroke-width:1.5;" width="159" x="170" y="133"/><text fill="#000000" font-family="sans-serif" font-size="12" font-style="italic" lengthAdjust="spacing" textLength="18" x="240.5" y="150.0001">«V»</text><text fill="#000000" font-family="sans-serif" font-size="12" lengthAdjust="spacing" textLength="153" x="173" y="164.4002">repo_sys.ExtendedProperties</text><line style="stroke:#A80036;stroke-width:1.5;" x1="171" x2="328" y1="171.8002" y2="171.8002"/><line style="stroke:#A80036;stroke-width:1.0;" x1="171" x2="328" y1="179.8002" y2="179.8002"/><!--MD5=[576c618ab2a7c4ef9c0d096566b22507]
class repo_sys.parameters--><rect codeLine="46" fill="#F5F5F5" filter="url(#f1h6qcclxoix0w)" height="54.8002" id="repo_sys.parameters" style="stroke:#A80036;stroke-width:1.5;" width="117" x="625.5" y="97"/><text fill="#000000" font-family="sans-serif" font-size="12" font-style="italic" lengthAdjust="spacing" textLength="18" x="675" y="114.0001">«V»</text><text fill="#000000" font-family="sans-serif" font-size="12" lengthAdjust="spacing" textLength="111" x="628.5" y="128.4002">repo_sys.parameters</text><line style="stroke:#A80036;stroke-width:1.5;" x1="626.5" x2="741.5" y1="135.8002" y2="135.8002"/><line style="stroke:#A80036;stroke-width:1.0;" x1="626.5" x2="741.5" y1="143.8002" y2="143.8002"/><!--MD5=[0384bb01ee38a6f1c61656f155b16d49]
class repo_sys.sql_expression_dependencies--><rect codeLine="50" fill="#F5F5F5" filter="url(#f1h6qcclxoix0w)" height="54.8002" id="repo_sys.sql_expression_dependencies" style="stroke:#A80036;stroke-width:1.5;" width="215" x="868" y="138"/><text fill="#000000" font-family="sans-serif" font-size="12" font-style="italic" lengthAdjust="spacing" textLength="18" x="966.5" y="155.0001">«V»</text><text fill="#000000" font-family="sans-serif" font-size="12" lengthAdjust="spacing" textLength="209" x="871" y="169.4002">repo_sys.sql_expression_dependencies</text><line style="stroke:#A80036;stroke-width:1.5;" x1="869" x2="1082" y1="176.8002" y2="176.8002"/><line style="stroke:#A80036;stroke-width:1.0;" x1="869" x2="1082" y1="184.8002" y2="184.8002"/><!--MD5=[a07488a5fe404a212914d893d860276d]
class repo_sys.SysColumn--><rect codeLine="54" fill="#F5F5F5" filter="url(#f1h6qcclxoix0w)" height="54.8002" id="repo_sys.SysColumn" style="stroke:#A80036;stroke-width:1.5;" width="117" x="625.5" y="7"/><text fill="#000000" font-family="sans-serif" font-size="12" font-style="italic" lengthAdjust="spacing" textLength="18" x="675" y="24.0001">«V»</text><text fill="#000000" font-family="sans-serif" font-size="12" lengthAdjust="spacing" textLength="111" x="628.5" y="38.4002">repo_sys.SysColumn</text><line style="stroke:#A80036;stroke-width:1.5;" x1="626.5" x2="741.5" y1="45.8002" y2="45.8002"/><line style="stroke:#A80036;stroke-width:1.0;" x1="626.5" x2="741.5" y1="53.8002" y2="53.8002"/><!--MD5=[d3946cda6009a263e351d60ae5c15cc2]
class repo_sys.SysObject--><rect codeLine="58" fill="#F5F5F5" filter="url(#f1h6qcclxoix0w)" height="54.8002" id="repo_sys.SysObject" style="stroke:#A80036;stroke-width:1.5;" width="111" x="389" y="268"/><text fill="#000000" font-family="sans-serif" font-size="12" font-style="italic" lengthAdjust="spacing" textLength="18" x="435.5" y="285.0001">«V»</text><text fill="#000000" font-family="sans-serif" font-size="12" lengthAdjust="spacing" textLength="105" x="392" y="299.4002">repo_sys.SysObject</text><line style="stroke:#A80036;stroke-width:1.5;" x1="390" x2="499" y1="306.8002" y2="306.8002"/><line style="stroke:#A80036;stroke-width:1.0;" x1="390" x2="499" y1="314.8002" y2="314.8002"/><!--MD5=[80de971860482ac3b029728d3861804d]
class sqlparse.RepoObject_SqlModules_Repo_Sys--><rect codeLine="62" fill="#F5F5F5" filter="url(#f1h6qcclxoix0w)" height="54.8002" id="sqlparse.RepoObject_SqlModules_Repo_Sys" style="stroke:#A80036;stroke-width:1.5;" width="248" x="560" y="187"/><text fill="#000000" font-family="sans-serif" font-size="12" font-style="italic" lengthAdjust="spacing" textLength="18" x="675" y="204.0001">«V»</text><text fill="#000000" font-family="sans-serif" font-size="12" lengthAdjust="spacing" textLength="242" x="563" y="218.4002">sqlparse.RepoObject_SqlModules_Repo_Sys</text><line style="stroke:#A80036;stroke-width:1.5;" x1="561" x2="807" y1="225.8002" y2="225.8002"/><line style="stroke:#A80036;stroke-width:1.0;" x1="561" x2="807" y1="233.8002" y2="233.8002"/><!--MD5=[a82225d83ae443ba4decdf7ac191cc27]
class sys_dwh.objects--><rect codeLine="66" fill="#FFFF00" filter="url(#f1h6qcclxoix0w)" height="54.8002" id="sys_dwh.objects" style="stroke:#A80036;stroke-width:1.5;" width="93" x="12" y="93"/><text fill="#000000" font-family="sans-serif" font-size="12" font-style="italic" lengthAdjust="spacing" textLength="27" x="45" y="110.0001">«SN»</text><text fill="#000000" font-family="sans-serif" font-size="12" lengthAdjust="spacing" textLength="87" x="15" y="124.4002">sys_dwh.objects</text><line style="stroke:#A80036;stroke-width:1.5;" x1="13" x2="104" y1="131.8002" y2="131.8002"/><line style="stroke:#A80036;stroke-width:1.0;" x1="13" x2="104" y1="139.8002" y2="139.8002"/><!--MD5=[dc37f360d31b38a003f60cd9e50921c3]
class sys_dwh.schemas--><rect codeLine="70" fill="#FFFF00" filter="url(#f1h6qcclxoix0w)" height="54.8002" id="sys_dwh.schemas" style="stroke:#A80036;stroke-width:1.5;" width="103" x="7" y="268"/><text fill="#000000" font-family="sans-serif" font-size="12" font-style="italic" lengthAdjust="spacing" textLength="27" x="45" y="285.0001">«SN»</text><text fill="#000000" font-family="sans-serif" font-size="12" lengthAdjust="spacing" textLength="97" x="10" y="299.4002">sys_dwh.schemas</text><line style="stroke:#A80036;stroke-width:1.5;" x1="8" x2="109" y1="306.8002" y2="306.8002"/><line style="stroke:#A80036;stroke-width:1.0;" x1="8" x2="109" y1="314.8002" y2="314.8002"/><!--MD5=[0a930d678e42d63d72522a654d268739]
class sys_dwh.sql_modules--><rect codeLine="74" fill="#FFFF00" filter="url(#f1h6qcclxoix0w)" height="54.8002" id="sys_dwh.sql_modules" style="stroke:#A80036;stroke-width:1.5;" width="123" x="188" y="313"/><text fill="#000000" font-family="sans-serif" font-size="12" font-style="italic" lengthAdjust="spacing" textLength="27" x="236" y="330.0001">«SN»</text><text fill="#000000" font-family="sans-serif" font-size="12" lengthAdjust="spacing" textLength="117" x="191" y="344.4002">sys_dwh.sql_modules</text><line style="stroke:#A80036;stroke-width:1.5;" x1="189" x2="310" y1="351.8002" y2="351.8002"/><line style="stroke:#A80036;stroke-width:1.0;" x1="189" x2="310" y1="359.8002" y2="359.8002"/><!--MD5=[1a0949be450258e968113a2c263d87ff]
class sys_dwh.tables--><rect codeLine="78" fill="#FFFF00" filter="url(#f1h6qcclxoix0w)" height="54.8002" id="sys_dwh.tables" style="stroke:#A80036;stroke-width:1.5;" width="88" x="205.5" y="223"/><text fill="#000000" font-family="sans-serif" font-size="12" font-style="italic" lengthAdjust="spacing" textLength="27" x="236" y="240.0001">«SN»</text><text fill="#000000" font-family="sans-serif" font-size="12" lengthAdjust="spacing" textLength="82" x="208.5" y="254.4002">sys_dwh.tables</text><line style="stroke:#A80036;stroke-width:1.5;" x1="206.5" x2="292.5" y1="261.8002" y2="261.8002"/><line style="stroke:#A80036;stroke-width:1.0;" x1="206.5" x2="292.5" y1="269.8002" y2="269.8002"/><!--MD5=[93f252a52db9e32462c27bdd33451551]
reverse link repo.SysObject_RepoObject_via_guid to repo.usp_sync_guid_RepoObject--><path codeLine="82" d="M778.86,405.68 C813.22,416.36 851.96,428.4 885.84,438.94 " fill="none" id="repo.SysObject_RepoObject_via_guid-backto-repo.usp_sync_guid_RepoObject" style="stroke:#A80036;stroke-width:1.0;stroke-dasharray:7.0,7.0;"/><polygon fill="#A80036" points="773.83,404.11,781.2339,410.6048,778.6039,405.5965,783.6123,402.9665,773.83,404.11" style="stroke:#A80036;stroke-width:1.0;"/><!--MD5=[8b636becff5259c4acf4a5c4f9540191]
reverse link repo.SysObject_RepoObject_via_name to repo.usp_sync_guid_RepoObject--><path codeLine="83" d="M796.21,466.5 C825.43,466.5 856.59,466.5 884.54,466.5 " fill="none" id="repo.SysObject_RepoObject_via_name-backto-repo.usp_sync_guid_RepoObject" style="stroke:#A80036;stroke-width:1.0;stroke-dasharray:7.0,7.0;"/><polygon fill="#A80036" points="791.16,466.5,800.16,470.5,796.16,466.5,800.16,462.5,791.16,466.5" style="stroke:#A80036;stroke-width:1.0;"/><!--MD5=[8a19f997197710646af8af39b36fa211]
reverse link repo_sys.ExtendedProperties to repo_sys.SysObject--><path codeLine="84" d="M305.8,190.84 C313.7,195.57 321.64,200.53 329,205.5 C357.72,224.87 388.49,249.28 410.89,267.79 " fill="none" id="repo_sys.ExtendedProperties-backto-repo_sys.SysObject" style="stroke:#A80036;stroke-width:1.0;stroke-dasharray:7.0,7.0;"/><polygon fill="#A80036" points="301.41,188.24,307.101,196.2782,305.7075,190.7957,311.19,189.4022,301.41,188.24" style="stroke:#A80036;stroke-width:1.0;"/><!--MD5=[f46952d724e0ccce60c376f5fc57f720]
reverse link repo_sys.ExtendedProperties to repo_sys.SysColumn--><path codeLine="85" d="M333.88,136.21 C419.53,111.26 550.58,73.08 625.38,51.29 " fill="none" id="repo_sys.ExtendedProperties-backto-repo_sys.SysColumn" style="stroke:#A80036;stroke-width:1.0;stroke-dasharray:7.0,7.0;"/><polygon fill="#A80036" points="329.07,137.61,338.83,138.93,333.87,136.21,336.59,131.25,329.07,137.61" style="stroke:#A80036;stroke-width:1.0;"/><!--MD5=[946b549a2387f088f1d7ddfd0a95be3d]
reverse link repo_sys.SysColumn to repo_sys.sql_expression_dependencies--><path codeLine="86" d="M747.48,55.63 C767.06,62.72 788.61,70.99 808,79.5 C848.22,97.16 892.32,120.11 925.03,137.86 " fill="none" id="repo_sys.SysColumn-backto-repo_sys.sql_expression_dependencies" style="stroke:#A80036;stroke-width:1.0;stroke-dasharray:7.0,7.0;"/><polygon fill="#A80036" points="742.54,53.86,749.6677,60.6567,747.2481,55.5435,752.3613,53.1238,742.54,53.86" style="stroke:#A80036;stroke-width:1.0;"/><!--MD5=[bd845bdf683fc2131851d564f4d5f90c]
reverse link repo_sys.SysObject to repo_sys.parameters--><path codeLine="87" d="M467.39,263.75 C488.29,235.55 522.13,194.97 560,169.5 C579.72,156.24 603.83,146.31 625.47,139.2 " fill="none" id="repo_sys.SysObject-backto-repo_sys.parameters" style="stroke:#A80036;stroke-width:1.0;stroke-dasharray:7.0,7.0;"/><polygon fill="#A80036" points="464.4,267.82,472.9501,262.9318,467.3587,263.7893,466.5011,258.1979,464.4,267.82" style="stroke:#A80036;stroke-width:1.0;"/><!--MD5=[aad1764f73d2a522238bff664b995e81]
reverse link repo_sys.SysObject to repo_sys.sql_expression_dependencies--><path codeLine="88" d="M505.2,297.02 C578.3,297.21 705.1,292.06 808,259.5 C855.16,244.58 903.82,215.18 936.27,193.22 " fill="none" id="repo_sys.SysObject-backto-repo_sys.sql_expression_dependencies" style="stroke:#A80036;stroke-width:1.0;stroke-dasharray:7.0,7.0;"/><polygon fill="#A80036" points="500.03,297,509.0185,301.0257,505.03,297.0143,509.0414,293.0257,500.03,297" style="stroke:#A80036;stroke-width:1.0;"/><!--MD5=[12cfa8182ebda2ad54038a8156ee9c89]
reverse link repo_sys.SysObject to sqlparse.RepoObject_SqlModules_Repo_Sys--><path codeLine="89" d="M505.32,275.1 C534.72,265.07 570.58,252.84 602.36,242 " fill="none" id="repo_sys.SysObject-backto-sqlparse.RepoObject_SqlModules_Repo_Sys" style="stroke:#A80036;stroke-width:1.0;stroke-dasharray:7.0,7.0;"/><polygon fill="#A80036" points="500.29,276.82,510.0989,277.7068,505.0233,275.209,507.5212,270.1334,500.29,276.82" style="stroke:#A80036;stroke-width:1.0;"/><!--MD5=[cebb90da9a8cc9d4d75e5d71036e0a45]
reverse link repo_sys.SysObject to repo.usp_sync_guid_RepoObject--><path codeLine="90" d="M451.85,328.24 C463.47,378.07 493.37,471.41 560,511.5 C671.33,578.49 830.32,529.41 915.4,494.1 " fill="none" id="repo_sys.SysObject-backto-repo.usp_sync_guid_RepoObject" style="stroke:#A80036;stroke-width:1.0;stroke-dasharray:7.0,7.0;"/><polygon fill="#A80036" points="450.71,323.26,448.7906,332.92,451.8113,328.1372,456.5941,331.1579,450.71,323.26" style="stroke:#A80036;stroke-width:1.0;"/><!--MD5=[088ca921d9c9f22c2e617da000077732]
reverse link repo_sys.SysObject to repo_sys.SysColumn--><path codeLine="91" d="M454.57,262.92 C469.22,216.04 502.43,129.69 560,79.5 C578.42,63.44 603.06,52.93 625.45,46.14 " fill="none" id="repo_sys.SysObject-backto-repo_sys.SysColumn" style="stroke:#A80036;stroke-width:1.0;stroke-dasharray:7.0,7.0;"/><polygon fill="#A80036" points="453.04,267.89,459.5083,260.463,454.5094,263.1108,451.8616,258.1119,453.04,267.89" style="stroke:#A80036;stroke-width:1.0;"/><!--MD5=[b327be79bbc703e0349bd0001e5efc03]
reverse link repo_sys.SysObject to repo_sys.ColumnReference--><path codeLine="92" d="M450.84,328.29 C461.69,385.17 491.36,502.78 560,573.5 C573.6,587.52 591.42,598.24 609.25,606.33 " fill="none" id="repo_sys.SysObject-backto-repo_sys.ColumnReference" style="stroke:#A80036;stroke-width:1.0;stroke-dasharray:7.0,7.0;"/><polygon fill="#A80036" points="449.91,323.31,447.6506,332.8962,450.8383,328.2231,455.5115,331.4108,449.91,323.31" style="stroke:#A80036;stroke-width:1.0;"/><!--MD5=[e7ed35f4a37560726da38106fbb635f8]
reverse link repo_sys.SysObject to repo.SysObject_RepoObject_via_name--><path codeLine="93" d="M467.39,327.25 C488.29,355.45 522.13,396.03 560,421.5 C569.81,428.1 580.71,433.87 591.86,438.88 " fill="none" id="repo_sys.SysObject-backto-repo.SysObject_RepoObject_via_name" style="stroke:#A80036;stroke-width:1.0;stroke-dasharray:7.0,7.0;"/><polygon fill="#A80036" points="464.4,323.18,466.5011,332.8021,467.3587,327.2107,472.9501,328.0682,464.4,323.18" style="stroke:#A80036;stroke-width:1.0;"/><!--MD5=[88f2f51983307abf1d64dcfa337cbf72]
reverse link repo_sys.SysObject to repo.SysObject_RepoObject_via_guid--><path codeLine="94" d="M505.32,315.9 C534.72,325.93 570.58,338.16 602.36,349 " fill="none" id="repo_sys.SysObject-backto-repo.SysObject_RepoObject_via_guid" style="stroke:#A80036;stroke-width:1.0;stroke-dasharray:7.0,7.0;"/><polygon fill="#A80036" points="500.29,314.18,507.5212,320.8666,505.0233,315.791,510.0989,313.2932,500.29,314.18" style="stroke:#A80036;stroke-width:1.0;"/><!--MD5=[df5fdf9f4180d9872d637e59df61e44c]
reverse link sys_dwh.objects to repo_sys.SysObject--><path codeLine="95" d="M110.27,105.34 C167.27,91.39 260.71,78.01 329,115.5 C388.41,148.12 421.39,226.08 435.37,267.9 " fill="none" id="sys_dwh.objects-backto-repo_sys.SysObject" style="stroke:#A80036;stroke-width:1.0;stroke-dasharray:7.0,7.0;"/><polygon fill="#A80036" points="105.21,106.6,114.9067,108.3246,110.0641,105.4008,112.9879,100.5581,105.21,106.6" style="stroke:#A80036;stroke-width:1.0;"/><!--MD5=[1ae2a4abfba97f349b96daf62f0efa9d]
reverse link sys_dwh.objects to repo_sys.ExtendedProperties--><path codeLine="96" d="M110.35,131.26 C128.68,135.14 149.83,139.62 169.98,143.88 " fill="none" id="sys_dwh.objects-backto-repo_sys.ExtendedProperties" style="stroke:#A80036;stroke-width:1.0;stroke-dasharray:7.0,7.0;"/><polygon fill="#A80036" points="105.25,130.18,113.2167,135.9706,110.1398,131.2237,114.8867,128.1469,105.25,130.18" style="stroke:#A80036;stroke-width:1.0;"/><!--MD5=[2257c0a1f9949d03afe82add4e44c78d]
reverse link sys_dwh.schemas to repo_sys.ExtendedProperties--><path codeLine="97" d="M94.69,264.36 C115.85,246.28 143.7,223.57 170,205.5 C178.67,199.54 188.19,193.62 197.5,188.12 " fill="none" id="sys_dwh.schemas-backto-repo_sys.ExtendedProperties" style="stroke:#A80036;stroke-width:1.0;stroke-dasharray:7.0,7.0;"/><polygon fill="#A80036" points="90.82,267.68,100.2512,264.8423,94.6102,264.419,95.0336,258.778,90.82,267.68" style="stroke:#A80036;stroke-width:1.0;"/><!--MD5=[a6492c40c0b77532d78d84f3345fcee9]
reverse link sys_dwh.schemas to repo_sys.SysObject--><path codeLine="98" d="M86.78,326.92 C107.26,347.96 137.3,373.87 170,385.5 C236.58,409.18 262.22,408.6 329,385.5 C364.6,373.18 397.55,344.71 418.87,323.07 " fill="none" id="sys_dwh.schemas-backto-repo_sys.SysObject" style="stroke:#A80036;stroke-width:1.0;stroke-dasharray:7.0,7.0;"/><polygon fill="#A80036" points="83.07,323.05,86.4004,332.3187,86.5261,326.6632,92.1816,326.7889,83.07,323.05" style="stroke:#A80036;stroke-width:1.0;"/><!--MD5=[60a1120b8546b9e0b9c12ff941e142ed]
reverse link sys_dwh.sql_modules to repo_sys.SysObject--><path codeLine="99" d="M316.04,325.22 C339.69,319.7 366.11,313.54 388.74,308.27 " fill="none" id="sys_dwh.sql_modules-backto-repo_sys.SysObject" style="stroke:#A80036;stroke-width:1.0;stroke-dasharray:7.0,7.0;"/><polygon fill="#A80036" points="311.04,326.39,320.7118,328.2493,315.9103,325.2584,318.9012,320.4569,311.04,326.39" style="stroke:#A80036;stroke-width:1.0;"/><!--MD5=[27a43e40e16f1a4bcacd7d4d069d59ee]
reverse link sys_dwh.tables to repo_sys.SysObject--><path codeLine="100" d="M298.84,261.77 C326.23,268.16 360.57,276.17 388.93,282.78 " fill="none" id="sys_dwh.tables-backto-repo_sys.SysObject" style="stroke:#A80036;stroke-width:1.0;stroke-dasharray:7.0,7.0;"/><polygon fill="#A80036" points="293.81,260.6,301.6585,266.5499,298.6778,261.742,303.4857,258.7614,293.81,260.6" style="stroke:#A80036;stroke-width:1.0;"/><!--MD5=[5b7191c4306e0224e4ef3c2c205fb860]
@startuml
left to right direction
hide circle
'avoide "." issues:
set namespaceSeparator none


skinparam class {
  BackgroundColor White
  BackgroundColor<<FN>> Yellow
  BackgroundColor<<FS>> Yellow
  BackgroundColor<<FT>> LightGray
  BackgroundColor<<IF>> Yellow
  BackgroundColor<<IS>> Yellow
  BackgroundColor<<P>> Aqua
  BackgroundColor<<PC>> Aqua
  BackgroundColor<<SN>> Yellow
  BackgroundColor<<SO>> SlateBlue
  BackgroundColor<<TF>> LightGray
  BackgroundColor<<TR>> Tomato
  BackgroundColor<<U>> White
  BackgroundColor<<V>> WhiteSmoke
  BackgroundColor<<X>> Aqua
}


entity repo.SysObject_RepoObject_via_guid << V >> {
  - -
}

entity repo.SysObject_RepoObject_via_name << V >> {
  - -
}

entity repo.usp_sync_guid_RepoObject << P >> {
  - -
}

entity repo_sys.ColumnReference << V >> {
  - -
}

entity repo_sys.ExtendedProperties << V >> {
  - -
}

entity repo_sys.parameters << V >> {
  - -
}

entity repo_sys.sql_expression_dependencies << V >> {
  - -
}

entity repo_sys.SysColumn << V >> {
  - -
}

entity repo_sys.SysObject << V >> {
  - -
}

entity sqlparse.RepoObject_SqlModules_Repo_Sys << V >> {
  - -
}

entity sys_dwh.objects << SN >> {
  - -
}

entity sys_dwh.schemas << SN >> {
  - -
}

entity sys_dwh.sql_modules << SN >> {
  - -
}

entity sys_dwh.tables << SN >> {
  - -
}

repo.SysObject_RepoObject_via_guid <.. repo.usp_sync_guid_RepoObject
repo.SysObject_RepoObject_via_name <.. repo.usp_sync_guid_RepoObject
repo_sys.ExtendedProperties <.. repo_sys.SysObject
repo_sys.ExtendedProperties <.. repo_sys.SysColumn
repo_sys.SysColumn <.. repo_sys.sql_expression_dependencies
repo_sys.SysObject <.. repo_sys.parameters
repo_sys.SysObject <.. repo_sys.sql_expression_dependencies
repo_sys.SysObject <.. sqlparse.RepoObject_SqlModules_Repo_Sys
repo_sys.SysObject <.. repo.usp_sync_guid_RepoObject
repo_sys.SysObject <.. repo_sys.SysColumn
repo_sys.SysObject <.. repo_sys.ColumnReference
repo_sys.SysObject <.. repo.SysObject_RepoObject_via_name
repo_sys.SysObject <.. repo.SysObject_RepoObject_via_guid
sys_dwh.objects <.. repo_sys.SysObject
sys_dwh.objects <.. repo_sys.ExtendedProperties
sys_dwh.schemas <.. repo_sys.ExtendedProperties
sys_dwh.schemas <.. repo_sys.SysObject
sys_dwh.sql_modules <.. repo_sys.SysObject
sys_dwh.tables <.. repo_sys.SysObject
@enduml

@startuml
left to right direction
hide circle
set namespaceSeparator none


skinparam class {
  BackgroundColor White
  BackgroundColor<<FN>> Yellow
  BackgroundColor<<FS>> Yellow
  BackgroundColor<<FT>> LightGray
  BackgroundColor<<IF>> Yellow
  BackgroundColor<<IS>> Yellow
  BackgroundColor<<P>> Aqua
  BackgroundColor<<PC>> Aqua
  BackgroundColor<<SN>> Yellow
  BackgroundColor<<SO>> SlateBlue
  BackgroundColor<<TF>> LightGray
  BackgroundColor<<TR>> Tomato
  BackgroundColor<<U>> White
  BackgroundColor<<V>> WhiteSmoke
  BackgroundColor<<X>> Aqua
}


entity repo.SysObject_RepoObject_via_guid << V >> {
  - -
}

entity repo.SysObject_RepoObject_via_name << V >> {
  - -
}

entity repo.usp_sync_guid_RepoObject << P >> {
  - -
}

entity repo_sys.ColumnReference << V >> {
  - -
}

entity repo_sys.ExtendedProperties << V >> {
  - -
}

entity repo_sys.parameters << V >> {
  - -
}

entity repo_sys.sql_expression_dependencies << V >> {
  - -
}

entity repo_sys.SysColumn << V >> {
  - -
}

entity repo_sys.SysObject << V >> {
  - -
}

entity sqlparse.RepoObject_SqlModules_Repo_Sys << V >> {
  - -
}

entity sys_dwh.objects << SN >> {
  - -
}

entity sys_dwh.schemas << SN >> {
  - -
}

entity sys_dwh.sql_modules << SN >> {
  - -
}

entity sys_dwh.tables << SN >> {
  - -
}

repo.SysObject_RepoObject_via_guid <.. repo.usp_sync_guid_RepoObject
repo.SysObject_RepoObject_via_name <.. repo.usp_sync_guid_RepoObject
repo_sys.ExtendedProperties <.. repo_sys.SysObject
repo_sys.ExtendedProperties <.. repo_sys.SysColumn
repo_sys.SysColumn <.. repo_sys.sql_expression_dependencies
repo_sys.SysObject <.. repo_sys.parameters
repo_sys.SysObject <.. repo_sys.sql_expression_dependencies
repo_sys.SysObject <.. sqlparse.RepoObject_SqlModules_Repo_Sys
repo_sys.SysObject <.. repo.usp_sync_guid_RepoObject
repo_sys.SysObject <.. repo_sys.SysColumn
repo_sys.SysObject <.. repo_sys.ColumnReference
repo_sys.SysObject <.. repo.SysObject_RepoObject_via_name
repo_sys.SysObject <.. repo.SysObject_RepoObject_via_guid
sys_dwh.objects <.. repo_sys.SysObject
sys_dwh.objects <.. repo_sys.ExtendedProperties
sys_dwh.schemas <.. repo_sys.ExtendedProperties
sys_dwh.schemas <.. repo_sys.SysObject
sys_dwh.sql_modules <.. repo_sys.SysObject
sys_dwh.tables <.. repo_sys.SysObject
@enduml

PlantUML version 1.2021.4(Sun Apr 04 08:49:39 GMT 2021)
(GPL source distribution)
Java Runtime: OpenJDK Runtime Environment
JVM: OpenJDK 64-Bit Server VM
Default Encoding: UTF-8
Language: en
Country: US
--></g></svg>