<?xml version="1.0" encoding="UTF-8" standalone="no"?><svg xmlns="http://www.w3.org/2000/svg" xmlns:xlink="http://www.w3.org/1999/xlink" contentScriptType="application/ecmascript" contentStyleType="text/css" height="1037px" preserveAspectRatio="none" style="width:1470px;height:1037px;" version="1.1" viewBox="0 0 1470 1037" width="1470px" zoomAndPan="magnify"><defs><filter height="300%" id="f1n38oloqidmy1" width="300%" x="-1" y="-1"><feGaussianBlur result="blurOut" stdDeviation="2.0"/><feColorMatrix in="blurOut" result="blurOut2" type="matrix" values="0 0 0 0 0 0 0 0 0 0 0 0 0 0 0 0 0 0 .4 0"/><feOffset dx="4.0" dy="4.0" in="blurOut2" result="blurOut3"/><feBlend in="SourceGraphic" in2="blurOut3" mode="normal"/></filter></defs><g><!--MD5=[75be8a6a617db0fa97a59c786840156e]
class config.type_level1type_level2type--><rect codeLine="26" fill="#F5F5F5" filter="url(#f1n38oloqidmy1)" height="68.0001" id="config.type_level1type_level2type" style="stroke:#A80036;stroke-width:1.5;" width="182" x="827" y="224.81"/><text fill="#000000" font-family="sans-serif" font-size="12" font-style="italic" lengthAdjust="spacing" textLength="18" x="909" y="241.8101">«V»</text><text fill="#000000" font-family="sans-serif" font-size="12" lengthAdjust="spacing" textLength="176" x="830" y="256.2102">config.type_level1type_level2type</text><line style="stroke:#A80036;stroke-width:1.5;" x1="828" x2="1008" y1="263.6102" y2="263.6102"/><text fill="#000000" font-family="sans-serif" font-size="11" font-weight="bold" lengthAdjust="spacing" textLength="23" x="833" y="278.6101">type</text><text fill="#000000" font-family="sans-serif" font-size="11" lengthAdjust="spacing" textLength="75" x="859" y="278.6101">: nvarchar(128)</text><line style="stroke:#A80036;stroke-width:1.0;" x1="828" x2="1008" y1="284.8101" y2="284.8101"/><!--MD5=[69d688e85ab903302de62e697dc3d84b]
class graph.RepoObject--><rect codeLine="31" fill="#FFFFFF" filter="url(#f1n38oloqidmy1)" height="54.8002" id="graph.RepoObject" style="stroke:#A80036;stroke-width:1.5;" width="102" x="601" y="399.31"/><text fill="#000000" font-family="sans-serif" font-size="12" font-style="italic" lengthAdjust="spacing" textLength="19" x="642.5" y="416.3101">«U»</text><text fill="#000000" font-family="sans-serif" font-size="12" lengthAdjust="spacing" textLength="96" x="604" y="430.7102">graph.RepoObject</text><line style="stroke:#A80036;stroke-width:1.5;" x1="602" x2="702" y1="438.1102" y2="438.1102"/><line style="stroke:#A80036;stroke-width:1.0;" x1="602" x2="702" y1="446.1102" y2="446.1102"/><!--MD5=[e9a16e47363493b644354a6e5d348491]
class graph.RepoObject_S--><rect codeLine="35" fill="#F5F5F5" filter="url(#f1n38oloqidmy1)" height="68.0001" id="graph.RepoObject_S" style="stroke:#A80036;stroke-width:1.5;" width="200" x="289" y="407.81"/><text fill="#000000" font-family="sans-serif" font-size="12" font-style="italic" lengthAdjust="spacing" textLength="18" x="380" y="424.8101">«V»</text><text fill="#000000" font-family="sans-serif" font-size="12" lengthAdjust="spacing" textLength="111" x="333.5" y="439.2102">graph.RepoObject_S</text><line style="stroke:#A80036;stroke-width:1.5;" x1="290" x2="488" y1="446.6102" y2="446.6102"/><ellipse cx="300" cy="457.6102" fill="#000000" rx="3" ry="3" style="stroke:#000000;stroke-width:1.0;"/><text fill="#000000" font-family="sans-serif" font-size="11" font-weight="bold" lengthAdjust="spacing" textLength="93" x="309" y="461.6101">RepoObject_guid</text><text fill="#000000" font-family="sans-serif" font-size="11" lengthAdjust="spacing" textLength="78" x="405" y="461.6101">: uniqueidentifier</text><line style="stroke:#A80036;stroke-width:1.0;" x1="290" x2="488" y1="467.8101" y2="467.8101"/><!--MD5=[cf440fca81df74a1c92d27699cb1f026]
class graph.usp_PERSIST_RepoObject--><rect codeLine="40" fill="#00FFFF" filter="url(#f1n38oloqidmy1)" height="54.8002" id="graph.usp_PERSIST_RepoObject" style="stroke:#A80036;stroke-width:1.5;" width="187" x="824.5" y="328.31"/><text fill="#000000" font-family="sans-serif" font-size="12" font-style="italic" lengthAdjust="spacing" textLength="18" x="909" y="345.3101">«P»</text><text fill="#000000" font-family="sans-serif" font-size="12" lengthAdjust="spacing" textLength="181" x="827.5" y="359.7102">graph.usp_PERSIST_RepoObject</text><line style="stroke:#A80036;stroke-width:1.5;" x1="825.5" x2="1010.5" y1="367.1102" y2="367.1102"/><line style="stroke:#A80036;stroke-width:1.0;" x1="825.5" x2="1010.5" y1="375.1102" y2="375.1102"/><!--MD5=[30b75435024ccafa03f20277af589fa2]
class logs.usp_ExecutionLog_insert--><rect codeLine="44" fill="#00FFFF" filter="url(#f1n38oloqidmy1)" height="54.8002" id="logs.usp_ExecutionLog_insert" style="stroke:#A80036;stroke-width:1.5;" width="162" x="571" y="144.31"/><text fill="#000000" font-family="sans-serif" font-size="12" font-style="italic" lengthAdjust="spacing" textLength="18" x="643" y="161.3101">«P»</text><text fill="#000000" font-family="sans-serif" font-size="12" lengthAdjust="spacing" textLength="156" x="574" y="175.7102">logs.usp_ExecutionLog_insert</text><line style="stroke:#A80036;stroke-width:1.5;" x1="572" x2="732" y1="183.1102" y2="183.1102"/><line style="stroke:#A80036;stroke-width:1.0;" x1="572" x2="732" y1="191.1102" y2="191.1102"/><!--MD5=[04197324ff093c4e006e17f566671fc0]
class repo.RepoObject--><rect codeLine="48" fill="#FFFFFF" filter="url(#f1n38oloqidmy1)" height="68.0001" id="repo.RepoObject" style="stroke:#A80036;stroke-width:1.5;" width="200" x="7" y="625.81"/><text fill="#000000" font-family="sans-serif" font-size="12" font-style="italic" lengthAdjust="spacing" textLength="19" x="97.5" y="642.8101">«U»</text><text fill="#000000" font-family="sans-serif" font-size="12" lengthAdjust="spacing" textLength="88" x="63" y="657.2102">repo.RepoObject</text><line style="stroke:#A80036;stroke-width:1.5;" x1="8" x2="206" y1="664.6102" y2="664.6102"/><ellipse cx="18" cy="675.6102" fill="#000000" rx="3" ry="3" style="stroke:#000000;stroke-width:1.0;"/><text fill="#000000" font-family="sans-serif" font-size="11" font-weight="bold" lengthAdjust="spacing" textLength="93" x="27" y="679.6101">RepoObject_guid</text><text fill="#000000" font-family="sans-serif" font-size="11" lengthAdjust="spacing" textLength="78" x="123" y="679.6101">: uniqueidentifier</text><line style="stroke:#A80036;stroke-width:1.0;" x1="8" x2="206" y1="685.8101" y2="685.8101"/><!--MD5=[f794353a4c1ccb4424c4f96f520320d0]
class repo.RepoObject_persistence--><rect codeLine="53" fill="#FFFFFF" filter="url(#f1n38oloqidmy1)" height="68.0001" id="repo.RepoObject_persistence" style="stroke:#A80036;stroke-width:1.5;" width="237" x="799.5" y="955.81"/><text fill="#000000" font-family="sans-serif" font-size="12" font-style="italic" lengthAdjust="spacing" textLength="19" x="908.5" y="972.8101">«U»</text><text fill="#000000" font-family="sans-serif" font-size="12" lengthAdjust="spacing" textLength="154" x="841" y="987.2102">repo.RepoObject_persistence</text><line style="stroke:#A80036;stroke-width:1.5;" x1="800.5" x2="1035.5" y1="994.6102" y2="994.6102"/><ellipse cx="810.5" cy="1005.6102" fill="#000000" rx="3" ry="3" style="stroke:#000000;stroke-width:1.0;"/><text fill="#000000" font-family="sans-serif" font-size="11" font-weight="bold" lengthAdjust="spacing" textLength="130" x="819.5" y="1009.6101">target_RepoObject_guid</text><text fill="#000000" font-family="sans-serif" font-size="11" lengthAdjust="spacing" textLength="78" x="952.5" y="1009.6101">: uniqueidentifier</text><line style="stroke:#A80036;stroke-width:1.0;" x1="800.5" x2="1035.5" y1="1015.8101" y2="1015.8101"/><!--MD5=[5b2b9eeaeab0535fdcb80e1ed5cbbee6]
class repo.RepoObject_RequiredRepoObjectMerge--><rect codeLine="58" fill="#F5F5F5" filter="url(#f1n38oloqidmy1)" height="81.2" id="repo.RepoObject_RequiredRepoObjectMerge" style="stroke:#A80036;stroke-width:1.5;" width="244" x="267" y="525.31"/><text fill="#000000" font-family="sans-serif" font-size="12" font-style="italic" lengthAdjust="spacing" textLength="18" x="380" y="542.3101">«V»</text><text fill="#000000" font-family="sans-serif" font-size="12" lengthAdjust="spacing" textLength="238" x="270" y="556.7102">repo.RepoObject_RequiredRepoObjectMerge</text><line style="stroke:#A80036;stroke-width:1.5;" x1="268" x2="510" y1="564.1102" y2="564.1102"/><ellipse cx="278" cy="575.1102" fill="#000000" rx="3" ry="3" style="stroke:#000000;stroke-width:1.0;"/><text fill="#000000" font-family="sans-serif" font-size="11" font-weight="bold" lengthAdjust="spacing" textLength="93" x="287" y="579.1101">RepoObject_guid</text><text fill="#000000" font-family="sans-serif" font-size="11" lengthAdjust="spacing" textLength="78" x="383" y="579.1101">: uniqueidentifier</text><ellipse cx="278" cy="588.3101" fill="#000000" rx="3" ry="3" style="stroke:#000000;stroke-width:1.0;"/><text fill="#000000" font-family="sans-serif" font-size="11" font-weight="bold" lengthAdjust="spacing" textLength="116" x="287" y="592.31">ro2_RepoObject_guid</text><text fill="#000000" font-family="sans-serif" font-size="11" lengthAdjust="spacing" textLength="78" x="406" y="592.31">: uniqueidentifier</text><line style="stroke:#A80036;stroke-width:1.0;" x1="268" x2="510" y1="598.51" y2="598.51"/><!--MD5=[a2c5c25b728afa7467f8eb58ba480c7b]
class repo.SysObject_RepoObject_via_guid--><rect codeLine="64" fill="#F5F5F5" filter="url(#f1n38oloqidmy1)" height="54.8002" id="repo.SysObject_RepoObject_via_guid" style="stroke:#A80036;stroke-width:1.5;" width="208" x="814" y="632.31"/><text fill="#000000" font-family="sans-serif" font-size="12" font-style="italic" lengthAdjust="spacing" textLength="18" x="909" y="649.3101">«V»</text><text fill="#000000" font-family="sans-serif" font-size="12" lengthAdjust="spacing" textLength="202" x="817" y="663.7102">repo.SysObject_RepoObject_via_guid</text><line style="stroke:#A80036;stroke-width:1.5;" x1="815" x2="1021" y1="671.1102" y2="671.1102"/><line style="stroke:#A80036;stroke-width:1.0;" x1="815" x2="1021" y1="679.1102" y2="679.1102"/><!--MD5=[03fe6c491144b18b8f50eef4b3f318b7]
class repo.SysObject_RepoObject_via_name--><rect codeLine="68" fill="#F5F5F5" filter="url(#f1n38oloqidmy1)" height="54.8002" id="repo.SysObject_RepoObject_via_name" style="stroke:#A80036;stroke-width:1.5;" width="214" x="811" y="794.31"/><text fill="#000000" font-family="sans-serif" font-size="12" font-style="italic" lengthAdjust="spacing" textLength="18" x="909" y="811.3101">«V»</text><text fill="#000000" font-family="sans-serif" font-size="12" lengthAdjust="spacing" textLength="208" x="814" y="825.7102">repo.SysObject_RepoObject_via_name</text><line style="stroke:#A80036;stroke-width:1.5;" x1="812" x2="1024" y1="833.1102" y2="833.1102"/><line style="stroke:#A80036;stroke-width:1.0;" x1="812" x2="1024" y1="841.1102" y2="841.1102"/><!--MD5=[59f96848d6e1d1de63b1474194737aef]
class repo.usp_sync_guid--><rect codeLine="72" fill="#00FFFF" filter="url(#f1n38oloqidmy1)" height="54.8002" id="repo.usp_sync_guid" style="stroke:#A80036;stroke-width:1.5;" width="112" x="1344" y="231.31"/><text fill="#000000" font-family="sans-serif" font-size="12" font-style="italic" lengthAdjust="spacing" textLength="18" x="1391" y="248.3101">«P»</text><text fill="#000000" font-family="sans-serif" font-size="12" lengthAdjust="spacing" textLength="106" x="1347" y="262.7102">repo.usp_sync_guid</text><line style="stroke:#A80036;stroke-width:1.5;" x1="1345" x2="1455" y1="270.1102" y2="270.1102"/><line style="stroke:#A80036;stroke-width:1.0;" x1="1345" x2="1455" y1="278.1102" y2="278.1102"/><!--MD5=[d094aade7caebee394835e0c1b7788ad]
class repo.usp_sync_guid_RepoObject--><rect codeLine="76" fill="#00FFFF" filter="url(#f1n38oloqidmy1)" height="54.8002" id="repo.usp_sync_guid_RepoObject" style="stroke:#A80036;stroke-width:1.5;" width="181" x="1103" y="480.31"/><text fill="#000000" font-family="sans-serif" font-size="12" font-style="italic" lengthAdjust="spacing" textLength="18" x="1184.5" y="497.3101">«P»</text><text fill="#000000" font-family="sans-serif" font-size="12" lengthAdjust="spacing" textLength="175" x="1106" y="511.7102">repo.usp_sync_guid_RepoObject</text><line style="stroke:#A80036;stroke-width:1.5;" x1="1104" x2="1283" y1="519.1102" y2="519.1102"/><line style="stroke:#A80036;stroke-width:1.0;" x1="1104" x2="1283" y1="527.1102" y2="527.1102"/><!--MD5=[d3946cda6009a263e351d60ae5c15cc2]
class repo_sys.SysObject--><rect codeLine="80" fill="#F5F5F5" filter="url(#f1n38oloqidmy1)" height="54.8002" id="repo_sys.SysObject" style="stroke:#A80036;stroke-width:1.5;" width="111" x="596.5" y="713.31"/><text fill="#000000" font-family="sans-serif" font-size="12" font-style="italic" lengthAdjust="spacing" textLength="18" x="643" y="730.3101">«V»</text><text fill="#000000" font-family="sans-serif" font-size="12" lengthAdjust="spacing" textLength="105" x="599.5" y="744.7102">repo_sys.SysObject</text><line style="stroke:#A80036;stroke-width:1.5;" x1="597.5" x2="706.5" y1="752.1102" y2="752.1102"/><line style="stroke:#A80036;stroke-width:1.0;" x1="597.5" x2="706.5" y1="760.1102" y2="760.1102"/><!--MD5=[d7d3e2c98d542f417ec9db978e975d53]
class repo_sys.usp_AddOrUpdateExtendedProperty--><rect codeLine="84" fill="#00FFFF" filter="url(#f1n38oloqidmy1)" height="54.8002" id="repo_sys.usp_AddOrUpdateExtendedProperty" style="stroke:#A80036;stroke-width:1.5;" width="250" x="793" y="63.31"/><text fill="#000000" font-family="sans-serif" font-size="12" font-style="italic" lengthAdjust="spacing" textLength="18" x="909" y="80.3101">«P»</text><text fill="#000000" font-family="sans-serif" font-size="12" lengthAdjust="spacing" textLength="244" x="796" y="94.7102">repo_sys.usp_AddOrUpdateExtendedProperty</text><line style="stroke:#A80036;stroke-width:1.5;" x1="794" x2="1042" y1="102.1102" y2="102.1102"/><line style="stroke:#A80036;stroke-width:1.0;" x1="794" x2="1042" y1="110.1102" y2="110.1102"/><!--MD5=[b2d2ff26b52283990a7740b56eb03581]
reverse link config.type_level1type_level2type to repo.usp_sync_guid_RepoObject--><path codeLine="88" d="M1013.66,292.23 C1024.02,297.68 1034.04,303.87 1043,310.81 C1104.93,358.81 1154.54,438.49 1177.92,480.29 " fill="none" id="config.type_level1type_level2type-backto-repo.usp_sync_guid_RepoObject" style="stroke:#A80036;stroke-width:1.0;stroke-dasharray:7.0,7.0;"/><polygon fill="#A80036" points="1009.2,289.93,1015.3636,297.6118,1013.6433,292.2229,1019.0322,290.5025,1009.2,289.93" style="stroke:#A80036;stroke-width:1.0;"/><!--MD5=[7928459591877eece9fe4897128e8505]
reverse link graph.RepoObject to repo.usp_sync_guid_RepoObject--><path codeLine="89" d="M708.59,434.08 C784.32,444.11 924.1,463.09 1043,481.81 C1062.39,484.86 1083.15,488.34 1102.85,491.74 " fill="none" id="graph.RepoObject-backto-repo.usp_sync_guid_RepoObject" style="stroke:#A80036;stroke-width:1.0;stroke-dasharray:7.0,7.0;"/><polygon fill="#A80036" points="703.25,433.37,711.6463,438.518,708.2066,434.0271,712.6976,430.5874,703.25,433.37" style="stroke:#A80036;stroke-width:1.0;"/><!--MD5=[8bcabca6064838d39a11836911da34ec]
reverse link graph.RepoObject to graph.usp_PERSIST_RepoObject--><path codeLine="90" d="M708.16,411.97 C741.79,402.93 785.61,391.15 824.43,380.71 " fill="none" id="graph.RepoObject-backto-graph.usp_PERSIST_RepoObject" style="stroke:#A80036;stroke-width:1.0;stroke-dasharray:7.0,7.0;"/><polygon fill="#A80036" points="703.28,413.29,713.0104,414.8127,708.1081,411.9901,710.9306,407.0878,703.28,413.29" style="stroke:#A80036;stroke-width:1.0;"/><!--MD5=[3935aea9123cbe8e035f756d70e05633]
reverse link graph.RepoObject_S to graph.usp_PERSIST_RepoObject--><path codeLine="91" d="M482.95,406.16 C510.88,396.77 541.85,387.64 571,381.81 C655.76,364.84 754.21,358.73 824.38,356.63 " fill="none" id="graph.RepoObject_S-backto-graph.usp_PERSIST_RepoObject" style="stroke:#A80036;stroke-width:1.0;stroke-dasharray:7.0,7.0;"/><polygon fill="#A80036" points="478.13,407.79,487.9373,408.6943,482.8662,406.1874,485.3731,401.1164,478.13,407.79" style="stroke:#A80036;stroke-width:1.0;"/><!--MD5=[a369fd0291bf7f7a412facb3cd21f1f5]
reverse link graph.RepoObject_S to repo.usp_sync_guid_RepoObject--><path codeLine="92" d="M494.31,460.95 C519.36,465.03 546.08,468.97 571,471.81 C759.59,493.33 981.93,502.27 1102.95,505.76 " fill="none" id="graph.RepoObject_S-backto-repo.usp_sync_guid_RepoObject" style="stroke:#A80036;stroke-width:1.0;stroke-dasharray:7.0,7.0;"/><polygon fill="#A80036" points="489.33,460.13,497.5753,465.5166,494.2658,460.9289,498.8535,457.6193,489.33,460.13" style="stroke:#A80036;stroke-width:1.0;"/><!--MD5=[1dd75269d709d586ff85b7bf47d05dfd]
reverse link graph.RepoObject_S to graph.RepoObject--><path codeLine="93" d="M494.44,435.81 C531.18,433.7 570.79,431.42 600.97,429.69 " fill="none" id="graph.RepoObject_S-backto-graph.RepoObject" style="stroke:#A80036;stroke-width:1.0;stroke-dasharray:7.0,7.0;"/><polygon fill="#A80036" points="489.05,436.12,498.2635,439.6,494.0419,435.8348,497.8071,431.6131,489.05,436.12" style="stroke:#A80036;stroke-width:1.0;"/><!--MD5=[744cd28b81eb64a5628e38ba30aa29a7]
reverse link graph.usp_PERSIST_RepoObject to repo.usp_sync_guid_RepoObject--><path codeLine="94" d="M991.06,385.47 C1008.33,393.2 1026.53,401.89 1043,410.81 C1081.9,431.89 1123.99,459.68 1153.57,480.12 " fill="none" id="graph.usp_PERSIST_RepoObject-backto-repo.usp_sync_guid_RepoObject" style="stroke:#A80036;stroke-width:1.0;stroke-dasharray:7.0,7.0;"/><polygon fill="#A80036" points="986.22,383.31,992.8049,390.6339,990.7849,385.35,996.0688,383.33,986.22,383.31" style="stroke:#A80036;stroke-width:1.0;"/><!--MD5=[1f1280589b328eb19831fa18f77e8269]
reverse link logs.usp_ExecutionLog_insert to repo.usp_sync_guid--><path codeLine="95" d="M676.55,140.03 C701.52,109.26 744.06,64.59 793,45.81 C896.74,6 935.9,16.22 1043,45.81 C1175.25,82.35 1307.81,182.46 1366.98,231.29 " fill="none" id="logs.usp_ExecutionLog_insert-backto-repo.usp_sync_guid" style="stroke:#A80036;stroke-width:1.0;stroke-dasharray:7.0,7.0;"/><polygon fill="#A80036" points="673.29,144.08,682.0418,139.5627,676.4187,140.1798,675.8015,134.5568,673.29,144.08" style="stroke:#A80036;stroke-width:1.0;"/><!--MD5=[e40a382c9d96a38c2369ec2431ca0b92]
reverse link logs.usp_ExecutionLog_insert to repo.usp_sync_guid_RepoObject--><path codeLine="96" d="M738.03,157.04 C822.81,147.11 953.04,145.31 1043,206.81 C1139.09,272.5 1176.21,418.61 1187.91,479.9 " fill="none" id="logs.usp_ExecutionLog_insert-backto-repo.usp_sync_guid_RepoObject" style="stroke:#A80036;stroke-width:1.0;stroke-dasharray:7.0,7.0;"/><polygon fill="#A80036" points="733.02,157.65,742.4344,160.5428,737.984,157.0509,741.4759,152.6004,733.02,157.65" style="stroke:#A80036;stroke-width:1.0;"/><!--MD5=[51f1725af68fedcd8e3e557d30d9cb1b]
reverse link logs.usp_ExecutionLog_insert to graph.usp_PERSIST_RepoObject--><path codeLine="97" d="M678.18,203.49 C704.11,234.3 747.12,280.61 793,309.81 C803.95,316.77 816.1,322.91 828.39,328.23 " fill="none" id="logs.usp_ExecutionLog_insert-backto-graph.usp_PERSIST_RepoObject" style="stroke:#A80036;stroke-width:1.0;stroke-dasharray:7.0,7.0;"/><polygon fill="#A80036" points="674.79,199.43,677.4927,208.9008,677.9966,203.2664,683.6309,203.7703,674.79,199.43" style="stroke:#A80036;stroke-width:1.0;"/><!--MD5=[7a3a7a501eb16db0829838fdb6291025]
reverse link repo.RepoObject to repo.SysObject_RepoObject_via_guid--><path codeLine="98" d="M212.22,659.81 C367.75,659.81 658.85,659.81 813.8,659.81 " fill="none" id="repo.RepoObject-backto-repo.SysObject_RepoObject_via_guid" style="stroke:#A80036;stroke-width:1.0;stroke-dasharray:7.0,7.0;"/><polygon fill="#A80036" points="207.2,659.81,216.2,663.81,212.2,659.81,216.2,655.81,207.2,659.81" style="stroke:#A80036;stroke-width:1.0;"/><!--MD5=[cfb3616fecce5926bafe4cf863b933d9]
reverse link repo.RepoObject to repo.RepoObject_RequiredRepoObjectMerge--><path codeLine="99" d="M212.12,624.85 C229.98,618.86 248.67,612.58 266.92,606.46 " fill="none" id="repo.RepoObject-backto-repo.RepoObject_RequiredRepoObjectMerge" style="stroke:#A80036;stroke-width:1.0;stroke-dasharray:7.0,7.0;"/><polygon fill="#A80036" points="207.11,626.54,216.9173,627.4443,211.8462,624.9374,214.3531,619.8664,207.11,626.54" style="stroke:#A80036;stroke-width:1.0;"/><!--MD5=[e356079e0dce58e8fd3f4ac86368f0f2]
reverse link repo.RepoObject to graph.RepoObject_S--><path codeLine="100" d="M142.3,621.78 C172.98,589.12 220.19,542.02 267,507.81 C282.75,496.3 300.73,485.43 317.93,475.96 " fill="none" id="repo.RepoObject-backto-graph.RepoObject_S" style="stroke:#A80036;stroke-width:1.0;stroke-dasharray:7.0,7.0;"/><polygon fill="#A80036" points="138.65,625.69,147.7236,621.8599,142.0697,622.0423,141.8873,616.3884,138.65,625.69" style="stroke:#A80036;stroke-width:1.0;"/><!--MD5=[712e19f68e4b7a4b0896175b2aceec76]
reverse link repo.RepoObject to repo.usp_sync_guid_RepoObject--><path codeLine="101" d="M146.67,697.6 C176.92,724.88 221.37,760.24 267,779.81 C426.47,848.22 898.63,963.08 1043,866.81 C1158.29,789.93 1184.81,605.56 1190.8,535.48 " fill="none" id="repo.RepoObject-backto-repo.usp_sync_guid_RepoObject" style="stroke:#A80036;stroke-width:1.0;stroke-dasharray:7.0,7.0;"/><polygon fill="#A80036" points="142.68,693.98,146.6574,702.99,146.3829,697.3398,152.0331,697.0653,142.68,693.98" style="stroke:#A80036;stroke-width:1.0;"/><!--MD5=[e1c2592cf041e35e2f91b0abea679dbd]
reverse link repo.RepoObject to repo.SysObject_RepoObject_via_name--><path codeLine="102" d="M212.12,693.35 C305.23,722.09 445.9,762.44 571,785.81 C650.7,800.7 741.96,809.87 810.74,815.23 " fill="none" id="repo.RepoObject-backto-repo.SysObject_RepoObject_via_name" style="stroke:#A80036;stroke-width:1.0;stroke-dasharray:7.0,7.0;"/><polygon fill="#A80036" points="207.17,691.82,214.5916,698.2946,211.948,693.2934,216.9491,690.6498,207.17,691.82" style="stroke:#A80036;stroke-width:1.0;"/><!--MD5=[84ef7a4ddbdacc1830a8e371d9489f28]
reverse link repo.RepoObject_persistence to repo.usp_sync_guid_RepoObject--><path codeLine="103" d="M1014.15,952.95 C1024.8,946.07 1034.76,938.06 1043,928.81 C1149.5,809.18 1181.46,608.62 1189.84,535.53 " fill="none" id="repo.RepoObject_persistence-backto-repo.usp_sync_guid_RepoObject" style="stroke:#A80036;stroke-width:1.0;stroke-dasharray:7.0,7.0;"/><polygon fill="#A80036" points="1009.87,955.63,1019.6207,954.2432,1014.1076,952.9762,1015.3746,947.463,1009.87,955.63" style="stroke:#A80036;stroke-width:1.0;"/><!--MD5=[6586cf48a9fb6e4cf015ba452374bac2]
reverse link repo.RepoObject_RequiredRepoObjectMerge to repo.usp_sync_guid_RepoObject--><path codeLine="104" d="M516.05,564.23 C647.84,561.51 860.48,554.08 1043,533.81 C1062.38,531.66 1083.04,528.58 1102.63,525.29 " fill="none" id="repo.RepoObject_RequiredRepoObjectMerge-backto-repo.usp_sync_guid_RepoObject" style="stroke:#A80036;stroke-width:1.0;stroke-dasharray:7.0,7.0;"/><polygon fill="#A80036" points="511.01,564.33,520.0882,568.1492,516.009,564.23,519.9282,560.1508,511.01,564.33" style="stroke:#A80036;stroke-width:1.0;"/><!--MD5=[93f252a52db9e32462c27bdd33451551]
reverse link repo.SysObject_RepoObject_via_guid to repo.usp_sync_guid_RepoObject--><path codeLine="105" d="M991.06,630.15 C1008.33,622.42 1026.53,613.73 1043,604.81 C1081.9,583.73 1123.99,555.94 1153.57,535.5 " fill="none" id="repo.SysObject_RepoObject_via_guid-backto-repo.usp_sync_guid_RepoObject" style="stroke:#A80036;stroke-width:1.0;stroke-dasharray:7.0,7.0;"/><polygon fill="#A80036" points="986.22,632.31,996.0688,632.29,990.7849,630.27,992.8049,624.9861,986.22,632.31" style="stroke:#A80036;stroke-width:1.0;"/><!--MD5=[8b636becff5259c4acf4a5c4f9540191]
reverse link repo.SysObject_RepoObject_via_name to repo.usp_sync_guid_RepoObject--><path codeLine="106" d="M1005.71,791.89 C1019.09,784.95 1032.07,776.64 1043,766.81 C1117.32,699.98 1164.4,587.21 1183.19,535.38 " fill="none" id="repo.SysObject_RepoObject_via_name-backto-repo.usp_sync_guid_RepoObject" style="stroke:#A80036;stroke-width:1.0;stroke-dasharray:7.0,7.0;"/><polygon fill="#A80036" points="1001.17,794.2,1011.0063,793.7025,1005.6306,791.9411,1007.392,786.5654,1001.17,794.2" style="stroke:#A80036;stroke-width:1.0;"/><!--MD5=[731becef6adce7a0b9e69675ce72cc0d]
reverse link repo.usp_sync_guid_RepoObject to repo.usp_sync_guid--><path codeLine="107" d="M1220.48,476.17 C1260.84,427.03 1337.93,333.17 1376.23,286.53 " fill="none" id="repo.usp_sync_guid_RepoObject-backto-repo.usp_sync_guid" style="stroke:#A80036;stroke-width:1.0;stroke-dasharray:7.0,7.0;"/><polygon fill="#A80036" points="1217.17,480.21,1225.9757,475.7986,1220.3455,476.3479,1219.7962,470.7177,1217.17,480.21" style="stroke:#A80036;stroke-width:1.0;"/><!--MD5=[e7ed35f4a37560726da38106fbb635f8]
reverse link repo_sys.SysObject to repo.SysObject_RepoObject_via_name--><path codeLine="108" d="M712.62,759.1 C746.45,769.48 789.47,782.68 827.3,794.29 " fill="none" id="repo_sys.SysObject-backto-repo.SysObject_RepoObject_via_name" style="stroke:#A80036;stroke-width:1.0;stroke-dasharray:7.0,7.0;"/><polygon fill="#A80036" points="707.7,757.59,715.1393,764.0442,712.482,759.0504,717.4759,756.3931,707.7,757.59" style="stroke:#A80036;stroke-width:1.0;"/><!--MD5=[cebb90da9a8cc9d4d75e5d71036e0a45]
reverse link repo_sys.SysObject to repo.usp_sync_guid_RepoObject--><path codeLine="109" d="M712.95,749.5 C793.46,758.14 938.44,762.86 1043,704.81 C1112.63,666.15 1159.85,580.08 1180.57,535.61 " fill="none" id="repo_sys.SysObject-backto-repo.usp_sync_guid_RepoObject" style="stroke:#A80036;stroke-width:1.0;stroke-dasharray:7.0,7.0;"/><polygon fill="#A80036" points="707.75,748.92,716.2485,753.8975,712.7189,749.4769,717.1395,745.9472,707.75,748.92" style="stroke:#A80036;stroke-width:1.0;"/><!--MD5=[88f2f51983307abf1d64dcfa337cbf72]
reverse link repo_sys.SysObject to repo.SysObject_RepoObject_via_guid--><path codeLine="110" d="M712.62,722.52 C746.45,712.14 789.47,698.94 827.3,687.33 " fill="none" id="repo_sys.SysObject-backto-repo.SysObject_RepoObject_via_guid" style="stroke:#A80036;stroke-width:1.0;stroke-dasharray:7.0,7.0;"/><polygon fill="#A80036" points="707.7,724.03,717.4759,725.2269,712.482,722.5696,715.1393,717.5758,707.7,724.03" style="stroke:#A80036;stroke-width:1.0;"/><!--MD5=[57f3713b9e918dce3ee8c3140d8979f0]
reverse link repo_sys.usp_AddOrUpdateExtendedProperty to repo.usp_sync_guid_RepoObject--><path codeLine="111" d="M1009.19,120.79 C1021.58,127.63 1033.34,135.9 1043,145.81 C1139.1,244.42 1176.71,413.53 1188.23,479.91 " fill="none" id="repo_sys.usp_AddOrUpdateExtendedProperty-backto-repo.usp_sync_guid_RepoObject" style="stroke:#A80036;stroke-width:1.0;stroke-dasharray:7.0,7.0;"/><polygon fill="#A80036" points="1004.6,118.33,1010.6549,126.0978,1009.0106,120.6852,1014.4232,119.0408,1004.6,118.33" style="stroke:#A80036;stroke-width:1.0;"/><!--MD5=[f1849180e9fe620ea4a84588969e75f5]
@startuml
left to right direction
hide circle
'avoide "." issues:
set namespaceSeparator none


skinparam class {
  BackgroundColor White
  BackgroundColor<<FN>> Yellow
  BackgroundColor<<FS>> Yellow
  BackgroundColor<<FT>> LightGray
  BackgroundColor<<IF>> Yellow
  BackgroundColor<<IS>> Yellow
  BackgroundColor<<P>> Aqua
  BackgroundColor<<PC>> Aqua
  BackgroundColor<<SN>> Yellow
  BackgroundColor<<SO>> SlateBlue
  BackgroundColor<<TF>> LightGray
  BackgroundColor<<TR>> Tomato
  BackgroundColor<<U>> White
  BackgroundColor<<V>> WhiteSmoke
  BackgroundColor<<X>> Aqua
}


entity config.type_level1type_level2type << V >> {
  **type** : nvarchar(128)
  - -
}

entity graph.RepoObject << U >> {
  - -
}

entity graph.RepoObject_S << V >> {
  * **RepoObject_guid** : uniqueidentifier
  - -
}

entity graph.usp_PERSIST_RepoObject << P >> {
  - -
}

entity logs.usp_ExecutionLog_insert << P >> {
  - -
}

entity repo.RepoObject << U >> {
  * **RepoObject_guid** : uniqueidentifier
  - -
}

entity repo.RepoObject_persistence << U >> {
  * **target_RepoObject_guid** : uniqueidentifier
  - -
}

entity repo.RepoObject_RequiredRepoObjectMerge << V >> {
  * **RepoObject_guid** : uniqueidentifier
  * **ro2_RepoObject_guid** : uniqueidentifier
  - -
}

entity repo.SysObject_RepoObject_via_guid << V >> {
  - -
}

entity repo.SysObject_RepoObject_via_name << V >> {
  - -
}

entity repo.usp_sync_guid << P >> {
  - -
}

entity repo.usp_sync_guid_RepoObject << P >> {
  - -
}

entity repo_sys.SysObject << V >> {
  - -
}

entity repo_sys.usp_AddOrUpdateExtendedProperty << P >> {
  - -
}

config.type_level1type_level2type <.. repo.usp_sync_guid_RepoObject
graph.RepoObject <.. repo.usp_sync_guid_RepoObject
graph.RepoObject <.. graph.usp_PERSIST_RepoObject
graph.RepoObject_S <.. graph.usp_PERSIST_RepoObject
graph.RepoObject_S <.. repo.usp_sync_guid_RepoObject
graph.RepoObject_S <.. graph.RepoObject
graph.usp_PERSIST_RepoObject <.. repo.usp_sync_guid_RepoObject
logs.usp_ExecutionLog_insert <.. repo.usp_sync_guid
logs.usp_ExecutionLog_insert <.. repo.usp_sync_guid_RepoObject
logs.usp_ExecutionLog_insert <.. graph.usp_PERSIST_RepoObject
repo.RepoObject <.. repo.SysObject_RepoObject_via_guid
repo.RepoObject <.. repo.RepoObject_RequiredRepoObjectMerge
repo.RepoObject <.. graph.RepoObject_S
repo.RepoObject <.. repo.usp_sync_guid_RepoObject
repo.RepoObject <.. repo.SysObject_RepoObject_via_name
repo.RepoObject_persistence <.. repo.usp_sync_guid_RepoObject
repo.RepoObject_RequiredRepoObjectMerge <.. repo.usp_sync_guid_RepoObject
repo.SysObject_RepoObject_via_guid <.. repo.usp_sync_guid_RepoObject
repo.SysObject_RepoObject_via_name <.. repo.usp_sync_guid_RepoObject
repo.usp_sync_guid_RepoObject <.. repo.usp_sync_guid
repo_sys.SysObject <.. repo.SysObject_RepoObject_via_name
repo_sys.SysObject <.. repo.usp_sync_guid_RepoObject
repo_sys.SysObject <.. repo.SysObject_RepoObject_via_guid
repo_sys.usp_AddOrUpdateExtendedProperty <.. repo.usp_sync_guid_RepoObject
@enduml

@startuml
left to right direction
hide circle
set namespaceSeparator none


skinparam class {
  BackgroundColor White
  BackgroundColor<<FN>> Yellow
  BackgroundColor<<FS>> Yellow
  BackgroundColor<<FT>> LightGray
  BackgroundColor<<IF>> Yellow
  BackgroundColor<<IS>> Yellow
  BackgroundColor<<P>> Aqua
  BackgroundColor<<PC>> Aqua
  BackgroundColor<<SN>> Yellow
  BackgroundColor<<SO>> SlateBlue
  BackgroundColor<<TF>> LightGray
  BackgroundColor<<TR>> Tomato
  BackgroundColor<<U>> White
  BackgroundColor<<V>> WhiteSmoke
  BackgroundColor<<X>> Aqua
}


entity config.type_level1type_level2type << V >> {
  **type** : nvarchar(128)
  - -
}

entity graph.RepoObject << U >> {
  - -
}

entity graph.RepoObject_S << V >> {
  * **RepoObject_guid** : uniqueidentifier
  - -
}

entity graph.usp_PERSIST_RepoObject << P >> {
  - -
}

entity logs.usp_ExecutionLog_insert << P >> {
  - -
}

entity repo.RepoObject << U >> {
  * **RepoObject_guid** : uniqueidentifier
  - -
}

entity repo.RepoObject_persistence << U >> {
  * **target_RepoObject_guid** : uniqueidentifier
  - -
}

entity repo.RepoObject_RequiredRepoObjectMerge << V >> {
  * **RepoObject_guid** : uniqueidentifier
  * **ro2_RepoObject_guid** : uniqueidentifier
  - -
}

entity repo.SysObject_RepoObject_via_guid << V >> {
  - -
}

entity repo.SysObject_RepoObject_via_name << V >> {
  - -
}

entity repo.usp_sync_guid << P >> {
  - -
}

entity repo.usp_sync_guid_RepoObject << P >> {
  - -
}

entity repo_sys.SysObject << V >> {
  - -
}

entity repo_sys.usp_AddOrUpdateExtendedProperty << P >> {
  - -
}

config.type_level1type_level2type <.. repo.usp_sync_guid_RepoObject
graph.RepoObject <.. repo.usp_sync_guid_RepoObject
graph.RepoObject <.. graph.usp_PERSIST_RepoObject
graph.RepoObject_S <.. graph.usp_PERSIST_RepoObject
graph.RepoObject_S <.. repo.usp_sync_guid_RepoObject
graph.RepoObject_S <.. graph.RepoObject
graph.usp_PERSIST_RepoObject <.. repo.usp_sync_guid_RepoObject
logs.usp_ExecutionLog_insert <.. repo.usp_sync_guid
logs.usp_ExecutionLog_insert <.. repo.usp_sync_guid_RepoObject
logs.usp_ExecutionLog_insert <.. graph.usp_PERSIST_RepoObject
repo.RepoObject <.. repo.SysObject_RepoObject_via_guid
repo.RepoObject <.. repo.RepoObject_RequiredRepoObjectMerge
repo.RepoObject <.. graph.RepoObject_S
repo.RepoObject <.. repo.usp_sync_guid_RepoObject
repo.RepoObject <.. repo.SysObject_RepoObject_via_name
repo.RepoObject_persistence <.. repo.usp_sync_guid_RepoObject
repo.RepoObject_RequiredRepoObjectMerge <.. repo.usp_sync_guid_RepoObject
repo.SysObject_RepoObject_via_guid <.. repo.usp_sync_guid_RepoObject
repo.SysObject_RepoObject_via_name <.. repo.usp_sync_guid_RepoObject
repo.usp_sync_guid_RepoObject <.. repo.usp_sync_guid
repo_sys.SysObject <.. repo.SysObject_RepoObject_via_name
repo_sys.SysObject <.. repo.usp_sync_guid_RepoObject
repo_sys.SysObject <.. repo.SysObject_RepoObject_via_guid
repo_sys.usp_AddOrUpdateExtendedProperty <.. repo.usp_sync_guid_RepoObject
@enduml

PlantUML version 1.2021.4(Sun Apr 04 08:49:39 GMT 2021)
(GPL source distribution)
Java Runtime: OpenJDK Runtime Environment
JVM: OpenJDK 64-Bit Server VM
Default Encoding: UTF-8
Language: en
Country: US
--></g></svg>