<?xml version="1.0" encoding="UTF-8" standalone="no"?><svg xmlns="http://www.w3.org/2000/svg" xmlns:xlink="http://www.w3.org/1999/xlink" contentScriptType="application/ecmascript" contentStyleType="text/css" height="1197px" preserveAspectRatio="none" style="width:1102px;height:1197px;background:#FFFFFF;" version="1.1" viewBox="0 0 1102 1197" width="1102px" zoomAndPan="magnify"><defs><filter height="300%" id="fuegdz05ij4om" width="300%" x="-1" y="-1"><feGaussianBlur result="blurOut" stdDeviation="2.0"/><feColorMatrix in="blurOut" result="blurOut2" type="matrix" values="0 0 0 0 0 0 0 0 0 0 0 0 0 0 0 0 0 0 .4 0"/><feOffset dx="4.0" dy="4.0" in="blurOut2" result="blurOut3"/><feBlend in="SourceGraphic" in2="blurOut3" mode="normal"/></filter></defs><g><!--MD5=[cf0a97ef6e7b4b4bd933cd51465e70fb]
class graph.usp_PERSIST_Index--><rect codeLine="26" fill="#00FFFF" filter="url(#fuegdz05ij4om)" height="54.8002" id="graph.usp_PERSIST_Index" style="stroke:#A80036;stroke-width:1.5;" width="153" x="501" y="715.09"/><text fill="#000000" font-family="sans-serif" font-size="12" font-style="italic" lengthAdjust="spacing" textLength="18" x="568.5" y="732.0901">«P»</text><text fill="#000000" font-family="sans-serif" font-size="12" lengthAdjust="spacing" textLength="147" x="504" y="746.4902">graph.usp_PERSIST_Index</text><line style="stroke:#A80036;stroke-width:1.5;" x1="502" x2="653" y1="753.8902" y2="753.8902"/><line style="stroke:#A80036;stroke-width:1.0;" x1="502" x2="653" y1="761.8902" y2="761.8902"/><!--MD5=[30b75435024ccafa03f20277af589fa2]
class logs.usp_ExecutionLog_insert--><rect codeLine="30" fill="#00FFFF" filter="url(#fuegdz05ij4om)" height="54.8002" id="logs.usp_ExecutionLog_insert" style="stroke:#A80036;stroke-width:1.5;" width="162" x="235" y="796.09"/><text fill="#000000" font-family="sans-serif" font-size="12" font-style="italic" lengthAdjust="spacing" textLength="18" x="307" y="813.0901">«P»</text><text fill="#000000" font-family="sans-serif" font-size="12" lengthAdjust="spacing" textLength="156" x="238" y="827.4902">logs.usp_ExecutionLog_insert</text><line style="stroke:#A80036;stroke-width:1.5;" x1="236" x2="396" y1="834.8902" y2="834.8902"/><line style="stroke:#A80036;stroke-width:1.0;" x1="236" x2="396" y1="842.8902" y2="842.8902"/><!--MD5=[292718ead1138fcbdd12d5ef9f09fac3]
class repo.ForeignKey_Indexes_union_T--><rect codeLine="34" fill="#FFFFFF" filter="url(#fuegdz05ij4om)" height="68.0001" id="repo.ForeignKey_Indexes_union_T" style="stroke:#A80036;stroke-width:1.5;" width="187" x="484" y="611.59"/><text fill="#000000" font-family="sans-serif" font-size="12" font-style="italic" lengthAdjust="spacing" textLength="19" x="568" y="628.5901">«U»</text><text fill="#000000" font-family="sans-serif" font-size="12" lengthAdjust="spacing" textLength="181" x="487" y="642.9902">repo.ForeignKey_Indexes_union_T</text><line style="stroke:#A80036;stroke-width:1.5;" x1="485" x2="670" y1="650.3902" y2="650.3902"/><text fill="#000000" font-family="sans-serif" font-size="11" font-weight="bold" lengthAdjust="spacing" textLength="91" x="490" y="665.3901">ForeignKey_guid</text><text fill="#000000" font-family="sans-serif" font-size="11" lengthAdjust="spacing" textLength="78" x="584" y="665.3901">: uniqueidentifier</text><line style="stroke:#A80036;stroke-width:1.0;" x1="485" x2="670" y1="671.5901" y2="671.5901"/><!--MD5=[62ac621268a7733942c7f2d10719df98]
class repo.Index_gross--><rect codeLine="39" fill="#F5F5F5" filter="url(#fuegdz05ij4om)" height="68.0001" id="repo.Index_gross" style="stroke:#A80036;stroke-width:1.5;" width="166" x="494.5" y="243.59"/><text fill="#000000" font-family="sans-serif" font-size="12" font-style="italic" lengthAdjust="spacing" textLength="18" x="568.5" y="260.5901">«V»</text><text fill="#000000" font-family="sans-serif" font-size="12" lengthAdjust="spacing" textLength="90" x="532.5" y="274.9902">repo.Index_gross</text><line style="stroke:#A80036;stroke-width:1.5;" x1="495.5" x2="659.5" y1="282.3902" y2="282.3902"/><ellipse cx="505.5" cy="293.3902" fill="#000000" rx="3" ry="3" style="stroke:#000000;stroke-width:1.0;"/><text fill="#000000" font-family="sans-serif" font-size="11" font-weight="bold" lengthAdjust="spacing" textLength="59" x="514.5" y="297.3901">index_guid</text><text fill="#000000" font-family="sans-serif" font-size="11" lengthAdjust="spacing" textLength="78" x="576.5" y="297.3901">: uniqueidentifier</text><line style="stroke:#A80036;stroke-width:1.0;" x1="495.5" x2="659.5" y1="303.5901" y2="303.5901"/><!--MD5=[286b67bd122e215bddea983f5980c4e0]
class repo.Index_Settings--><rect codeLine="44" fill="#FFFFFF" filter="url(#fuegdz05ij4om)" height="68.0001" id="repo.Index_Settings" style="stroke:#A80036;stroke-width:1.5;" width="166" x="233" y="433.59"/><text fill="#000000" font-family="sans-serif" font-size="12" font-style="italic" lengthAdjust="spacing" textLength="19" x="306.5" y="450.5901">«U»</text><text fill="#000000" font-family="sans-serif" font-size="12" lengthAdjust="spacing" textLength="103" x="264.5" y="464.9902">repo.Index_Settings</text><line style="stroke:#A80036;stroke-width:1.5;" x1="234" x2="398" y1="472.3902" y2="472.3902"/><ellipse cx="244" cy="483.3902" fill="#000000" rx="3" ry="3" style="stroke:#000000;stroke-width:1.0;"/><text fill="#000000" font-family="sans-serif" font-size="11" font-weight="bold" lengthAdjust="spacing" textLength="59" x="253" y="487.3901">index_guid</text><text fill="#000000" font-family="sans-serif" font-size="11" lengthAdjust="spacing" textLength="78" x="315" y="487.3901">: uniqueidentifier</text><line style="stroke:#A80036;stroke-width:1.0;" x1="234" x2="398" y1="493.5901" y2="493.5901"/><!--MD5=[4f3f43b39956acb10f9f4abba2c363d2]
class repo.Index_union--><rect codeLine="49" fill="#F5F5F5" filter="url(#fuegdz05ij4om)" height="68.0001" id="repo.Index_union" style="stroke:#A80036;stroke-width:1.5;" width="152" x="240" y="200.59"/><text fill="#000000" font-family="sans-serif" font-size="12" font-style="italic" lengthAdjust="spacing" textLength="18" x="307" y="217.5901">«V»</text><text fill="#000000" font-family="sans-serif" font-size="12" lengthAdjust="spacing" textLength="88" x="272" y="231.9902">repo.Index_union</text><line style="stroke:#A80036;stroke-width:1.5;" x1="241" x2="391" y1="239.3902" y2="239.3902"/><text fill="#000000" font-family="sans-serif" font-size="11" font-weight="bold" lengthAdjust="spacing" textLength="59" x="246" y="254.3901">index_guid</text><text fill="#000000" font-family="sans-serif" font-size="11" lengthAdjust="spacing" textLength="78" x="308" y="254.3901">: uniqueidentifier</text><line style="stroke:#A80036;stroke-width:1.0;" x1="241" x2="391" y1="260.5901" y2="260.5901"/><!--MD5=[190787cb5a1cbe0bcef448b4e1a01a54]
class repo.Index_virtual--><rect codeLine="54" fill="#FFFFFF" filter="url(#fuegdz05ij4om)" height="68.0001" id="repo.Index_virtual" style="stroke:#A80036;stroke-width:1.5;" width="166" x="7" y="200.59"/><text fill="#000000" font-family="sans-serif" font-size="12" font-style="italic" lengthAdjust="spacing" textLength="19" x="80.5" y="217.5901">«U»</text><text fill="#000000" font-family="sans-serif" font-size="12" lengthAdjust="spacing" textLength="93" x="43.5" y="231.9902">repo.Index_virtual</text><line style="stroke:#A80036;stroke-width:1.5;" x1="8" x2="172" y1="239.3902" y2="239.3902"/><ellipse cx="18" cy="250.3902" fill="#000000" rx="3" ry="3" style="stroke:#000000;stroke-width:1.0;"/><text fill="#000000" font-family="sans-serif" font-size="11" font-weight="bold" lengthAdjust="spacing" textLength="59" x="27" y="254.3901">index_guid</text><text fill="#000000" font-family="sans-serif" font-size="11" lengthAdjust="spacing" textLength="78" x="89" y="254.3901">: uniqueidentifier</text><line style="stroke:#A80036;stroke-width:1.0;" x1="8" x2="172" y1="260.5901" y2="260.5901"/><!--MD5=[a6624c6ad43a7635f639bb5ffc01020d]
class repo.IndexColumn_virtual--><rect codeLine="59" fill="#FFFFFF" filter="url(#fuegdz05ij4om)" height="81.2" id="repo.IndexColumn_virtual" style="stroke:#A80036;stroke-width:1.5;" width="166" x="494.5" y="56.09"/><text fill="#000000" font-family="sans-serif" font-size="12" font-style="italic" lengthAdjust="spacing" textLength="19" x="568" y="73.0901">«U»</text><text fill="#000000" font-family="sans-serif" font-size="12" lengthAdjust="spacing" textLength="133" x="511" y="87.4902">repo.IndexColumn_virtual</text><line style="stroke:#A80036;stroke-width:1.5;" x1="495.5" x2="659.5" y1="94.8902" y2="94.8902"/><ellipse cx="505.5" cy="105.8902" fill="#000000" rx="3" ry="3" style="stroke:#000000;stroke-width:1.0;"/><text fill="#000000" font-family="sans-serif" font-size="11" font-weight="bold" lengthAdjust="spacing" textLength="59" x="514.5" y="109.8901">index_guid</text><text fill="#000000" font-family="sans-serif" font-size="11" lengthAdjust="spacing" textLength="78" x="576.5" y="109.8901">: uniqueidentifier</text><ellipse cx="505.5" cy="119.0901" fill="#000000" rx="3" ry="3" style="stroke:#000000;stroke-width:1.0;"/><text fill="#000000" font-family="sans-serif" font-size="11" font-weight="bold" lengthAdjust="spacing" textLength="91" x="514.5" y="123.09">index_column_id</text><text fill="#000000" font-family="sans-serif" font-size="11" lengthAdjust="spacing" textLength="17" x="608.5" y="123.09">: int</text><line style="stroke:#A80036;stroke-width:1.0;" x1="495.5" x2="659.5" y1="129.29" y2="129.29"/><!--MD5=[04197324ff093c4e006e17f566671fc0]
class repo.RepoObject--><rect codeLine="65" fill="#FFFFFF" filter="url(#fuegdz05ij4om)" height="68.0001" id="repo.RepoObject" style="stroke:#A80036;stroke-width:1.5;" width="200" x="477.5" y="876.59"/><text fill="#000000" font-family="sans-serif" font-size="12" font-style="italic" lengthAdjust="spacing" textLength="19" x="568" y="893.5901">«U»</text><text fill="#000000" font-family="sans-serif" font-size="12" lengthAdjust="spacing" textLength="88" x="533.5" y="907.9902">repo.RepoObject</text><line style="stroke:#A80036;stroke-width:1.5;" x1="478.5" x2="676.5" y1="915.3902" y2="915.3902"/><ellipse cx="488.5" cy="926.3902" fill="#000000" rx="3" ry="3" style="stroke:#000000;stroke-width:1.0;"/><text fill="#000000" font-family="sans-serif" font-size="11" font-weight="bold" lengthAdjust="spacing" textLength="93" x="497.5" y="930.3901">RepoObject_guid</text><text fill="#000000" font-family="sans-serif" font-size="11" lengthAdjust="spacing" textLength="78" x="593.5" y="930.3901">: uniqueidentifier</text><line style="stroke:#A80036;stroke-width:1.0;" x1="478.5" x2="676.5" y1="936.5901" y2="936.5901"/><!--MD5=[f794353a4c1ccb4424c4f96f520320d0]
class repo.RepoObject_persistence--><rect codeLine="70" fill="#FFFFFF" filter="url(#fuegdz05ij4om)" height="68.0001" id="repo.RepoObject_persistence" style="stroke:#A80036;stroke-width:1.5;" width="237" x="459" y="346.59"/><text fill="#000000" font-family="sans-serif" font-size="12" font-style="italic" lengthAdjust="spacing" textLength="19" x="568" y="363.5901">«U»</text><text fill="#000000" font-family="sans-serif" font-size="12" lengthAdjust="spacing" textLength="154" x="500.5" y="377.9902">repo.RepoObject_persistence</text><line style="stroke:#A80036;stroke-width:1.5;" x1="460" x2="695" y1="385.3902" y2="385.3902"/><ellipse cx="470" cy="396.3902" fill="#000000" rx="3" ry="3" style="stroke:#000000;stroke-width:1.0;"/><text fill="#000000" font-family="sans-serif" font-size="11" font-weight="bold" lengthAdjust="spacing" textLength="130" x="479" y="400.3901">target_RepoObject_guid</text><text fill="#000000" font-family="sans-serif" font-size="11" lengthAdjust="spacing" textLength="78" x="612" y="400.3901">: uniqueidentifier</text><line style="stroke:#A80036;stroke-width:1.0;" x1="460" x2="695" y1="406.5901" y2="406.5901"/><!--MD5=[4276122b64d569d5c71d95f92c398c48]
class repo.usp_Index_finish--><rect codeLine="75" fill="#00FFFF" filter="url(#fuegdz05ij4om)" height="54.8002" id="repo.usp_Index_finish" style="stroke:#A80036;stroke-width:1.5;" width="120" x="756" y="521.09"/><text fill="#000000" font-family="sans-serif" font-size="12" font-style="italic" lengthAdjust="spacing" textLength="18" x="807" y="538.0901">«P»</text><text fill="#000000" font-family="sans-serif" font-size="12" lengthAdjust="spacing" textLength="114" x="759" y="552.4902">repo.usp_Index_finish</text><line style="stroke:#A80036;stroke-width:1.5;" x1="757" x2="875" y1="559.8902" y2="559.8902"/><line style="stroke:#A80036;stroke-width:1.0;" x1="757" x2="875" y1="567.8902" y2="567.8902"/><!--MD5=[050f58d1b8974ab6bcec1db860beaa3f]
class repo.usp_Index_ForeignKey--><rect codeLine="79" fill="#00FFFF" filter="url(#fuegdz05ij4om)" height="54.8002" id="repo.usp_Index_ForeignKey" style="stroke:#A80036;stroke-width:1.5;" width="152" x="936" y="816.09"/><text fill="#000000" font-family="sans-serif" font-size="12" font-style="italic" lengthAdjust="spacing" textLength="18" x="1003" y="833.0901">«P»</text><text fill="#000000" font-family="sans-serif" font-size="12" lengthAdjust="spacing" textLength="146" x="939" y="847.4902">repo.usp_Index_ForeignKey</text><line style="stroke:#A80036;stroke-width:1.5;" x1="937" x2="1087" y1="854.8902" y2="854.8902"/><line style="stroke:#A80036;stroke-width:1.0;" x1="937" x2="1087" y1="862.8902" y2="862.8902"/><!--MD5=[41c92b7e9ea902507dcc75772e6d8599]
class repo.usp_index_inheritance--><rect codeLine="83" fill="#00FFFF" filter="url(#fuegdz05ij4om)" height="54.8002" id="repo.usp_index_inheritance" style="stroke:#A80036;stroke-width:1.5;" width="149" x="937.5" y="250.09"/><text fill="#000000" font-family="sans-serif" font-size="12" font-style="italic" lengthAdjust="spacing" textLength="18" x="1003" y="267.0901">«P»</text><text fill="#000000" font-family="sans-serif" font-size="12" lengthAdjust="spacing" textLength="143" x="940.5" y="281.4902">repo.usp_index_inheritance</text><line style="stroke:#A80036;stroke-width:1.5;" x1="938.5" x2="1085.5" y1="288.8902" y2="288.8902"/><line style="stroke:#A80036;stroke-width:1.0;" x1="938.5" x2="1085.5" y1="296.8902" y2="296.8902"/><!--MD5=[e23c02f927e5473890cdfeb5dd60677a]
class repo.usp_Index_Settings--><rect codeLine="87" fill="#00FFFF" filter="url(#fuegdz05ij4om)" height="54.8002" id="repo.usp_Index_Settings" style="stroke:#A80036;stroke-width:1.5;" width="135" x="510" y="521.09"/><text fill="#000000" font-family="sans-serif" font-size="12" font-style="italic" lengthAdjust="spacing" textLength="18" x="568.5" y="538.0901">«P»</text><text fill="#000000" font-family="sans-serif" font-size="12" lengthAdjust="spacing" textLength="129" x="513" y="552.4902">repo.usp_Index_Settings</text><line style="stroke:#A80036;stroke-width:1.5;" x1="511" x2="644" y1="559.8902" y2="559.8902"/><line style="stroke:#A80036;stroke-width:1.0;" x1="511" x2="644" y1="567.8902" y2="567.8902"/><!--MD5=[ef423eefdce71783fc457134dd75e4e5]
reverse link graph.usp_PERSIST_Index to repo.usp_Index_finish--><path codeLine="91" d="M659.07,718.33 C672.04,712.61 684.85,705.74 696,697.59 C741.57,664.27 779.22,609.24 799.29,576.2 " fill="none" id="graph.usp_PERSIST_Index-backto-repo.usp_Index_finish" style="stroke:#A80036;stroke-width:1.0;stroke-dasharray:7.0,7.0;"/><polygon fill="#A80036" points="654.28,720.39,664.1281,720.5102,658.8735,718.4152,660.9685,713.1606,654.28,720.39" style="stroke:#A80036;stroke-width:1.0;"/><!--MD5=[e9b7d37936121cd7638d4398f543f215]
reverse link logs.usp_ExecutionLog_insert to repo.usp_Index_ForeignKey--><path codeLine="92" d="M322.98,856.75 C335.79,916.77 372.09,1042.01 459,1094.59 C617.57,1190.52 716.91,1189.66 876,1094.59 C958.82,1045.09 993.8,925.36 1005.77,871.12 " fill="none" id="logs.usp_ExecutionLog_insert-backto-repo.usp_Index_ForeignKey" style="stroke:#A80036;stroke-width:1.0;stroke-dasharray:7.0,7.0;"/><polygon fill="#A80036" points="321.88,851.5,319.7873,861.124,322.8935,856.3962,327.6213,859.5024,321.88,851.5" style="stroke:#A80036;stroke-width:1.0;"/><!--MD5=[3cca89629bb281f41050a7333ff9c088]
reverse link logs.usp_ExecutionLog_insert to repo.usp_Index_finish--><path codeLine="93" d="M402.44,837.7 C484.9,846.56 609.63,846.9 696,787.59 C769.36,737.21 799.62,627.96 810.16,576.48 " fill="none" id="logs.usp_ExecutionLog_insert-backto-repo.usp_Index_finish" style="stroke:#A80036;stroke-width:1.0;stroke-dasharray:7.0,7.0;"/><polygon fill="#A80036" points="397.07,837.11,405.5826,842.0633,402.0405,837.6528,406.451,834.1106,397.07,837.11" style="stroke:#A80036;stroke-width:1.0;"/><!--MD5=[9f0baed3373c3ac6442438a53a73ea9e]
reverse link logs.usp_ExecutionLog_insert to graph.usp_PERSIST_Index--><path codeLine="94" d="M402.4,796.93 C434.23,786.99 470.1,775.8 500.98,766.16 " fill="none" id="logs.usp_ExecutionLog_insert-backto-graph.usp_PERSIST_Index" style="stroke:#A80036;stroke-width:1.0;stroke-dasharray:7.0,7.0;"/><polygon fill="#A80036" points="397.33,798.51,407.1123,799.6535,402.1039,797.0235,404.7339,792.0152,397.33,798.51" style="stroke:#A80036;stroke-width:1.0;"/><!--MD5=[c7c600121b4ff2f4d8e789170ffd66aa]
reverse link logs.usp_ExecutionLog_insert to repo.usp_index_inheritance--><path codeLine="95" d="M338.05,855.58 C362.49,889.5 406.27,941.07 459,962.59 C556.53,1002.37 606.67,1018.4 696,962.59 C940.22,809.99 997.32,413.78 1008.55,305.36 " fill="none" id="logs.usp_ExecutionLog_insert-backto-repo.usp_index_inheritance" style="stroke:#A80036;stroke-width:1.0;stroke-dasharray:7.0,7.0;"/><polygon fill="#A80036" points="334.88,851.13,336.8434,860.7812,337.7808,855.2025,343.3594,856.1399,334.88,851.13" style="stroke:#A80036;stroke-width:1.0;"/><!--MD5=[4f558d97ee8240a5354a2c6dbc1f63de]
reverse link logs.usp_ExecutionLog_insert to repo.usp_Index_Settings--><path codeLine="96" d="M329.26,791.1 C349.29,742.07 393.49,649.14 459,594.59 C473.73,582.32 492.12,573.06 509.94,566.19 " fill="none" id="logs.usp_ExecutionLog_insert-backto-repo.usp_Index_Settings" style="stroke:#A80036;stroke-width:1.0;stroke-dasharray:7.0,7.0;"/><polygon fill="#A80036" points="327.28,795.99,334.3546,789.138,329.1492,791.3526,326.9347,786.1472,327.28,795.99" style="stroke:#A80036;stroke-width:1.0;"/><!--MD5=[f472508e185624cb6457aced55aa7123]
reverse link repo.ForeignKey_Indexes_union_T to repo.usp_Index_finish--><path codeLine="97" d="M666.32,609.57 C696.2,597.31 728.87,583.91 755.95,572.8 " fill="none" id="repo.ForeignKey_Indexes_union_T-backto-repo.usp_Index_finish" style="stroke:#A80036;stroke-width:1.0;stroke-dasharray:7.0,7.0;"/><polygon fill="#A80036" points="661.55,611.52,671.3951,611.792,666.1734,609.6163,668.3491,604.3945,661.55,611.52" style="stroke:#A80036;stroke-width:1.0;"/><!--MD5=[9ee25f7828981fe0e8ac62297a8e0cfd]
reverse link repo.Index_gross to repo.usp_Index_finish--><path codeLine="98" d="M665.02,307.04 C676.18,313.09 686.89,320.23 696,328.59 C755.68,383.33 791.56,475.07 806.65,520.85 " fill="none" id="repo.Index_gross-backto-repo.usp_Index_finish" style="stroke:#A80036;stroke-width:1.0;stroke-dasharray:7.0,7.0;"/><polygon fill="#A80036" points="660.55,304.69,666.6544,312.419,664.9755,307.017,670.3775,305.3381,660.55,304.69" style="stroke:#A80036;stroke-width:1.0;"/><!--MD5=[3fea031d62b931dd13b24dac77eb826c]
reverse link repo.Index_gross to repo.usp_index_inheritance--><path codeLine="99" d="M665.82,277.59 C745.63,277.59 862.34,277.59 937.49,277.59 " fill="none" id="repo.Index_gross-backto-repo.usp_index_inheritance" style="stroke:#A80036;stroke-width:1.0;stroke-dasharray:7.0,7.0;"/><polygon fill="#A80036" points="660.61,277.59,669.61,281.59,665.61,277.59,669.61,273.59,660.61,277.59" style="stroke:#A80036;stroke-width:1.0;"/><!--MD5=[c312e1fa53351c7a01044216c058897b]
reverse link repo.Index_Settings to repo.Index_gross--><path codeLine="100" d="M348.95,429.37 C375.87,399.01 416.67,357.05 459,328.59 C469.98,321.2 482.2,314.49 494.5,308.55 " fill="none" id="repo.Index_Settings-backto-repo.Index_gross" style="stroke:#A80036;stroke-width:1.0;stroke-dasharray:7.0,7.0;"/><polygon fill="#A80036" points="345.41,433.39,354.3546,429.2676,348.7096,429.6333,348.3439,423.9883,345.41,433.39" style="stroke:#A80036;stroke-width:1.0;"/><!--MD5=[e801598faffc75774180be5049ac1c84]
reverse link repo.Index_Settings to repo.usp_Index_finish--><path codeLine="101" d="M404.39,469.29 C481.89,472.36 597.72,480.77 696,503.59 C715.9,508.21 736.96,515.36 755.74,522.62 " fill="none" id="repo.Index_Settings-backto-repo.usp_Index_finish" style="stroke:#A80036;stroke-width:1.0;stroke-dasharray:7.0,7.0;"/><polygon fill="#A80036" points="399.34,469.1,408.1729,473.4565,404.336,469.2998,408.4927,465.4629,399.34,469.1" style="stroke:#A80036;stroke-width:1.0;"/><!--MD5=[1c14eef6775c5327da426afcbd044e58]
reverse link repo.Index_Settings to repo.usp_Index_Settings--><path codeLine="102" d="M404.15,494.79 C438.59,505.54 477.53,517.69 509.67,527.73 " fill="none" id="repo.Index_Settings-backto-repo.usp_Index_Settings" style="stroke:#A80036;stroke-width:1.0;stroke-dasharray:7.0,7.0;"/><polygon fill="#A80036" points="399.11,493.21,406.5139,499.7048,403.8839,494.6965,408.8923,492.0665,399.11,493.21" style="stroke:#A80036;stroke-width:1.0;"/><!--MD5=[d297f7fc4ea18e00407d3a519d13807b]
reverse link repo.Index_union to repo.usp_Index_finish--><path codeLine="103" d="M396.99,207.28 C479.57,184.47 608.39,164.5 696,225.59 C795.02,294.63 811.87,455.82 814.57,520.75 " fill="none" id="repo.Index_union-backto-repo.usp_Index_finish" style="stroke:#A80036;stroke-width:1.0;stroke-dasharray:7.0,7.0;"/><polygon fill="#A80036" points="392.11,208.65,401.8538,210.0848,396.9262,207.3066,399.7044,202.379,392.11,208.65" style="stroke:#A80036;stroke-width:1.0;"/><!--MD5=[07102fc8893bbf86649aa5204425f32f]
reverse link repo.Index_union to repo.Index_gross--><path codeLine="104" d="M397.36,247.9 C428.18,253.01 463.36,258.84 494.34,263.97 " fill="none" id="repo.Index_union-backto-repo.Index_gross" style="stroke:#A80036;stroke-width:1.0;stroke-dasharray:7.0,7.0;"/><polygon fill="#A80036" points="392.06,247.02,400.2749,252.4529,396.9912,247.8466,401.5974,244.563,392.06,247.02" style="stroke:#A80036;stroke-width:1.0;"/><!--MD5=[7e2a1d819dd7dee2bb0eee0d77b6f429]
reverse link repo.Index_virtual to repo.usp_index_inheritance--><path codeLine="105" d="M141.12,197.48 C209.04,149.74 335.99,69.3 459,38.59 C561.2,13.07 595.84,6 696,38.59 C822.97,79.9 938.84,196.4 987.18,249.99 " fill="none" id="repo.Index_virtual-backto-repo.usp_index_inheritance" style="stroke:#A80036;stroke-width:1.0;stroke-dasharray:7.0,7.0;"/><polygon fill="#A80036" points="136.73,200.58,146.3889,198.6551,140.814,197.6955,141.7737,192.1206,136.73,200.58" style="stroke:#A80036;stroke-width:1.0;"/><!--MD5=[f8bd526375a899eece959dde76990019]
reverse link repo.Index_virtual to repo.Index_union--><path codeLine="106" d="M178.29,234.59 C198.65,234.59 220.15,234.59 239.93,234.59 " fill="none" id="repo.Index_virtual-backto-repo.Index_union" style="stroke:#A80036;stroke-width:1.0;stroke-dasharray:7.0,7.0;"/><polygon fill="#A80036" points="173.14,234.59,182.14,238.59,178.14,234.59,182.14,230.59,173.14,234.59" style="stroke:#A80036;stroke-width:1.0;"/><!--MD5=[bc21021c3f5794720143cfbfd863b465]
reverse link repo.Index_virtual to repo.usp_Index_finish--><path codeLine="107" d="M95.08,273.94 C108.62,397.74 155.64,776.46 233,868.59 C302.96,951.9 352.32,941.28 459,962.59 C562.29,983.21 611.86,1025.95 696,962.59 C759.47,914.79 799.57,661.08 811.36,576.24 " fill="none" id="repo.Index_virtual-backto-repo.usp_Index_finish" style="stroke:#A80036;stroke-width:1.0;stroke-dasharray:7.0,7.0;"/><polygon fill="#A80036" points="94.53,268.94,91.5306,278.321,95.0728,273.9105,99.4833,277.4526,94.53,268.94" style="stroke:#A80036;stroke-width:1.0;"/><!--MD5=[32711f30b40490d31044dc79c269a53d]
reverse link repo.IndexColumn_virtual to repo.usp_Index_finish--><path codeLine="108" d="M664.88,136.19 C676.49,144.31 687.36,153.75 696,164.59 C784.68,275.75 807.58,453.21 813.23,521.02 " fill="none" id="repo.IndexColumn_virtual-backto-repo.usp_Index_finish" style="stroke:#A80036;stroke-width:1.0;stroke-dasharray:7.0,7.0;"/><polygon fill="#A80036" points="660.57,133.26,665.7536,141.6344,664.7014,136.0762,670.2596,135.0241,660.57,133.26" style="stroke:#A80036;stroke-width:1.0;"/><!--MD5=[f33fabf530f0f473504c1868ccb8a650]
reverse link repo.IndexColumn_virtual to repo.usp_index_inheritance--><path codeLine="109" d="M665.5,132.99 C748.07,167.55 870.34,218.72 945.12,250.01 " fill="none" id="repo.IndexColumn_virtual-backto-repo.usp_index_inheritance" style="stroke:#A80036;stroke-width:1.0;stroke-dasharray:7.0,7.0;"/><polygon fill="#A80036" points="660.61,130.95,667.3635,138.1187,665.2211,132.8832,670.4566,130.7409,660.61,130.95" style="stroke:#A80036;stroke-width:1.0;"/><!--MD5=[d696823a64d0be3eda2237b2f7b2b957]
reverse link repo.RepoObject to repo.usp_Index_finish--><path codeLine="110" d="M667.08,873.74 C677.7,866.8 687.71,858.77 696,849.59 C769.98,767.62 800.5,634.14 810.69,576.52 " fill="none" id="repo.RepoObject-backto-repo.usp_Index_finish" style="stroke:#A80036;stroke-width:1.0;stroke-dasharray:7.0,7.0;"/><polygon fill="#A80036" points="662.81,876.44,672.5552,875.0148,667.0371,873.7695,668.2824,868.2514,662.81,876.44" style="stroke:#A80036;stroke-width:1.0;"/><!--MD5=[f06767f56a5b285a3a708b6b6b738df0]
reverse link repo.RepoObject_persistence to repo.usp_Index_finish--><path codeLine="111" d="M655.97,417.23 C669.66,424.7 683.52,432.95 696,441.59 C730.26,465.31 765.23,497.97 788.31,520.94 " fill="none" id="repo.RepoObject_persistence-backto-repo.usp_Index_finish" style="stroke:#A80036;stroke-width:1.0;stroke-dasharray:7.0,7.0;"/><polygon fill="#A80036" points="651.33,414.73,657.3548,422.5211,655.7314,417.1022,661.1504,415.4788,651.33,414.73" style="stroke:#A80036;stroke-width:1.0;"/><!--MD5=[7e134c76c4b7a33609f24110a8438b2a]
reverse link repo.usp_Index_finish to repo.usp_Index_ForeignKey--><path codeLine="112" d="M838.16,580.76 C876.43,638.96 956.54,760.78 992.66,815.69 " fill="none" id="repo.usp_Index_finish-backto-repo.usp_Index_ForeignKey" style="stroke:#A80036;stroke-width:1.0;stroke-dasharray:7.0,7.0;"/><polygon fill="#A80036" points="835.25,576.34,836.8756,586.0538,838.007,580.5112,843.5496,581.6426,835.25,576.34" style="stroke:#A80036;stroke-width:1.0;"/><!--MD5=[2b2e22431003cd1a4acf075188e0cd2e]
reverse link repo.usp_Index_finish to repo.usp_index_inheritance--><path codeLine="113" d="M839.76,516.79 C878.05,463.3 954.71,356.22 991.03,305.48 " fill="none" id="repo.usp_Index_finish-backto-repo.usp_index_inheritance" style="stroke:#A80036;stroke-width:1.0;stroke-dasharray:7.0,7.0;"/><polygon fill="#A80036" points="836.85,520.86,845.3493,515.8839,839.767,516.7991,838.8519,511.2167,836.85,520.86" style="stroke:#A80036;stroke-width:1.0;"/><!--MD5=[1113307769d46e6789a9c35faf4e9488]
reverse link repo.usp_Index_Settings to repo.usp_Index_finish--><path codeLine="114" d="M650.37,548.59 C684.12,548.59 723.86,548.59 755.84,548.59 " fill="none" id="repo.usp_Index_Settings-backto-repo.usp_Index_finish" style="stroke:#A80036;stroke-width:1.0;stroke-dasharray:7.0,7.0;"/><polygon fill="#A80036" points="645.01,548.59,654.01,552.59,650.01,548.59,654.01,544.59,645.01,548.59" style="stroke:#A80036;stroke-width:1.0;"/><!--MD5=[90574d5305dca9632317687e5e39dd31]
@startuml
left to right direction
hide circle
'avoide "." issues:
set namespaceSeparator none


skinparam class {
  BackgroundColor White
  BackgroundColor<<FN>> Yellow
  BackgroundColor<<FS>> Yellow
  BackgroundColor<<FT>> LightGray
  BackgroundColor<<IF>> Yellow
  BackgroundColor<<IS>> Yellow
  BackgroundColor<<P>> Aqua
  BackgroundColor<<PC>> Aqua
  BackgroundColor<<SN>> Yellow
  BackgroundColor<<SO>> SlateBlue
  BackgroundColor<<TF>> LightGray
  BackgroundColor<<TR>> Tomato
  BackgroundColor<<U>> White
  BackgroundColor<<V>> WhiteSmoke
  BackgroundColor<<X>> Aqua
}


entity graph.usp_PERSIST_Index << P >> {
  - -
}

entity logs.usp_ExecutionLog_insert << P >> {
  - -
}

entity repo.ForeignKey_Indexes_union_T << U >> {
  **ForeignKey_guid** : uniqueidentifier
  - -
}

entity repo.Index_gross << V >> {
  * **index_guid** : uniqueidentifier
  - -
}

entity repo.Index_Settings << U >> {
  * **index_guid** : uniqueidentifier
  - -
}

entity repo.Index_union << V >> {
  **index_guid** : uniqueidentifier
  - -
}

entity repo.Index_virtual << U >> {
  * **index_guid** : uniqueidentifier
  - -
}

entity repo.IndexColumn_virtual << U >> {
  * **index_guid** : uniqueidentifier
  * **index_column_id** : int
  - -
}

entity repo.RepoObject << U >> {
  * **RepoObject_guid** : uniqueidentifier
  - -
}

entity repo.RepoObject_persistence << U >> {
  * **target_RepoObject_guid** : uniqueidentifier
  - -
}

entity repo.usp_Index_finish << P >> {
  - -
}

entity repo.usp_Index_ForeignKey << P >> {
  - -
}

entity repo.usp_index_inheritance << P >> {
  - -
}

entity repo.usp_Index_Settings << P >> {
  - -
}

graph.usp_PERSIST_Index <.. repo.usp_Index_finish
logs.usp_ExecutionLog_insert <.. repo.usp_Index_ForeignKey
logs.usp_ExecutionLog_insert <.. repo.usp_Index_finish
logs.usp_ExecutionLog_insert <.. graph.usp_PERSIST_Index
logs.usp_ExecutionLog_insert <.. repo.usp_index_inheritance
logs.usp_ExecutionLog_insert <.. repo.usp_Index_Settings
repo.ForeignKey_Indexes_union_T <.. repo.usp_Index_finish
repo.Index_gross <.. repo.usp_Index_finish
repo.Index_gross <.. repo.usp_index_inheritance
repo.Index_Settings <.. repo.Index_gross
repo.Index_Settings <.. repo.usp_Index_finish
repo.Index_Settings <.. repo.usp_Index_Settings
repo.Index_union <.. repo.usp_Index_finish
repo.Index_union <.. repo.Index_gross
repo.Index_virtual <.. repo.usp_index_inheritance
repo.Index_virtual <.. repo.Index_union
repo.Index_virtual <.. repo.usp_Index_finish
repo.IndexColumn_virtual <.. repo.usp_Index_finish
repo.IndexColumn_virtual <.. repo.usp_index_inheritance
repo.RepoObject <.. repo.usp_Index_finish
repo.RepoObject_persistence <.. repo.usp_Index_finish
repo.usp_Index_finish <.. repo.usp_Index_ForeignKey
repo.usp_Index_finish <.. repo.usp_index_inheritance
repo.usp_Index_Settings <.. repo.usp_Index_finish
@enduml

@startuml
left to right direction
hide circle
set namespaceSeparator none


skinparam class {
  BackgroundColor White
  BackgroundColor<<FN>> Yellow
  BackgroundColor<<FS>> Yellow
  BackgroundColor<<FT>> LightGray
  BackgroundColor<<IF>> Yellow
  BackgroundColor<<IS>> Yellow
  BackgroundColor<<P>> Aqua
  BackgroundColor<<PC>> Aqua
  BackgroundColor<<SN>> Yellow
  BackgroundColor<<SO>> SlateBlue
  BackgroundColor<<TF>> LightGray
  BackgroundColor<<TR>> Tomato
  BackgroundColor<<U>> White
  BackgroundColor<<V>> WhiteSmoke
  BackgroundColor<<X>> Aqua
}


entity graph.usp_PERSIST_Index << P >> {
  - -
}

entity logs.usp_ExecutionLog_insert << P >> {
  - -
}

entity repo.ForeignKey_Indexes_union_T << U >> {
  **ForeignKey_guid** : uniqueidentifier
  - -
}

entity repo.Index_gross << V >> {
  * **index_guid** : uniqueidentifier
  - -
}

entity repo.Index_Settings << U >> {
  * **index_guid** : uniqueidentifier
  - -
}

entity repo.Index_union << V >> {
  **index_guid** : uniqueidentifier
  - -
}

entity repo.Index_virtual << U >> {
  * **index_guid** : uniqueidentifier
  - -
}

entity repo.IndexColumn_virtual << U >> {
  * **index_guid** : uniqueidentifier
  * **index_column_id** : int
  - -
}

entity repo.RepoObject << U >> {
  * **RepoObject_guid** : uniqueidentifier
  - -
}

entity repo.RepoObject_persistence << U >> {
  * **target_RepoObject_guid** : uniqueidentifier
  - -
}

entity repo.usp_Index_finish << P >> {
  - -
}

entity repo.usp_Index_ForeignKey << P >> {
  - -
}

entity repo.usp_index_inheritance << P >> {
  - -
}

entity repo.usp_Index_Settings << P >> {
  - -
}

graph.usp_PERSIST_Index <.. repo.usp_Index_finish
logs.usp_ExecutionLog_insert <.. repo.usp_Index_ForeignKey
logs.usp_ExecutionLog_insert <.. repo.usp_Index_finish
logs.usp_ExecutionLog_insert <.. graph.usp_PERSIST_Index
logs.usp_ExecutionLog_insert <.. repo.usp_index_inheritance
logs.usp_ExecutionLog_insert <.. repo.usp_Index_Settings
repo.ForeignKey_Indexes_union_T <.. repo.usp_Index_finish
repo.Index_gross <.. repo.usp_Index_finish
repo.Index_gross <.. repo.usp_index_inheritance
repo.Index_Settings <.. repo.Index_gross
repo.Index_Settings <.. repo.usp_Index_finish
repo.Index_Settings <.. repo.usp_Index_Settings
repo.Index_union <.. repo.usp_Index_finish
repo.Index_union <.. repo.Index_gross
repo.Index_virtual <.. repo.usp_index_inheritance
repo.Index_virtual <.. repo.Index_union
repo.Index_virtual <.. repo.usp_Index_finish
repo.IndexColumn_virtual <.. repo.usp_Index_finish
repo.IndexColumn_virtual <.. repo.usp_index_inheritance
repo.RepoObject <.. repo.usp_Index_finish
repo.RepoObject_persistence <.. repo.usp_Index_finish
repo.usp_Index_finish <.. repo.usp_Index_ForeignKey
repo.usp_Index_finish <.. repo.usp_index_inheritance
repo.usp_Index_Settings <.. repo.usp_Index_finish
@enduml

PlantUML version 1.2021.8(Sat Jun 26 08:20:59 GMT 2021)
(GPL source distribution)
Java Runtime: OpenJDK Runtime Environment
JVM: OpenJDK 64-Bit Server VM
Default Encoding: UTF-8
Language: en
Country: US
--></g></svg>